<svg width="153" height="50" viewBox="0 0 153 50" fill="none" xmlns="http://www.w3.org/2000/svg">
<path fill-rule="evenodd" clip-rule="evenodd" d="M0.290056 49.5352C0.289705 49.5355 0.289354 49.5357 0.289003 49.536L0.287109 49.5284C0.288092 49.5307 0.289074 49.5329 0.290056 49.5352ZM0.290056 49.5352C0.357148 49.69 0.42243 49.8448 0.487711 49.9996L0.487881 50C0.63919 49.9808 0.79659 49.974 0.953927 49.9671C1.29291 49.9524 1.6316 49.9377 1.90844 49.7993C2.43616 49.5347 2.96766 49.2754 3.49939 49.0159C5.29022 48.1421 7.08362 47.267 8.74414 46.1892C11.7993 44.208 13.2123 41.2172 13.1838 37.5579C13.1649 35.1032 13.1725 32.6484 13.1838 30.1937C13.1879 29.3001 13.1882 28.4064 13.1885 27.5127C13.1893 25.023 13.1901 22.5331 13.271 20.0453C13.3562 17.4201 14.2502 16.2136 16.1727 15.7363C16.1913 15.7909 16.2162 15.8461 16.2412 15.9015C16.2949 16.0207 16.349 16.1407 16.3413 16.2571C16.1594 19.2301 16.2636 22.2229 16.3678 25.2179C16.585 31.4543 16.8024 37.6998 14.4377 43.7932C14.4959 43.7855 14.5557 43.7824 14.6149 43.7794C14.7465 43.7726 14.8751 43.766 14.9756 43.7098C15.4965 43.42 16.0174 43.1227 16.5004 42.776C20.3548 40.0069 22.389 36.2188 22.7451 31.512C22.9408 28.8515 24.3702 27.5483 27.0333 27.6026C27.0982 27.6039 27.1703 27.596 27.2421 27.5882C27.3927 27.5717 27.5416 27.5555 27.6186 27.6235C27.7317 27.7226 27.8604 27.8223 27.9913 27.9236C28.3904 28.2328 28.8092 28.5571 28.8649 28.9266C29.2361 31.3983 28.7626 33.6731 26.3571 35.3873C26.9237 35.7721 27.4587 36.1384 27.9732 36.4907C29.0512 37.2288 30.0392 37.9053 31.0393 38.5617C33.7175 40.3119 36.1236 40.0265 38.2576 37.7056C40.4945 35.2736 40.5665 35.1562 37.6931 33.4023C35.89 32.3018 35.2309 31.0271 35.3028 28.9039C35.4539 24.44 35.4086 19.9702 35.3634 15.5024C35.3576 14.9275 35.3518 14.3526 35.3464 13.7778C35.3161 10.5976 36.3938 8.23763 39.6024 7.13907C39.9093 7.03415 40.141 6.7078 40.3725 6.3817C40.4796 6.23094 40.5866 6.08023 40.7009 5.95149C40.5446 5.87631 40.3905 5.79042 40.2365 5.70453C39.9015 5.51777 39.5665 5.33102 39.2084 5.25447C38.1874 5.03638 37.1606 4.84447 36.1339 4.65259C34.7531 4.39453 33.3727 4.13653 32.0071 3.81497C30.0122 3.34554 28.0252 2.84244 26.0383 2.3394C23.3354 1.65508 20.6329 0.970848 17.9115 0.37155C14.6006 -0.357668 11.2898 -0.00726468 8.16456 1.36783C5.67385 2.46261 3.52597 3.98355 2.73236 6.80382C1.79858 10.1298 4.11503 13.416 7.54709 13.5903C7.72935 13.6 7.9194 13.4647 8.17476 13.283C8.31746 13.1814 8.48055 13.0654 8.67406 12.952C8.34016 12.7436 8.02914 12.5562 7.73583 12.3795C7.14398 12.023 6.62422 11.7099 6.13411 11.3553C4.92001 10.4764 3.97676 9.19982 4.64158 7.8001C5.13404 6.76215 6.30647 5.76776 7.39935 5.36811C8.64376 4.91354 10.1514 4.98362 11.5209 5.09915C17.2618 5.58404 22.6713 7.34552 27.9462 9.56916C28.1525 9.65703 28.3281 9.81722 28.5596 10.0285C28.6874 10.1451 28.8323 10.2773 29.0088 10.4215C27.494 10.819 26.0056 11.212 24.5349 11.6003C21.276 12.4607 18.1043 13.2981 14.9264 14.1112C9.06803 15.6113 7.03948 18.0129 6.90689 24.0342C6.81996 27.9759 6.81774 31.9198 6.81551 35.8634C6.81478 37.1613 6.81405 38.4591 6.81029 39.7569C6.79893 43.7307 5.403 46.8634 1.58834 48.5965C1.26047 48.7448 0.972817 48.9825 0.685479 49.22C0.554856 49.3279 0.424298 49.4358 0.290056 49.5352ZM28.8005 21.5927H22.7887H22.7868C22.7868 20.9723 22.7842 20.3658 22.7817 19.7698C22.7745 18.0807 22.7677 16.4751 22.8209 14.8707C22.836 14.4616 23.2073 13.8233 23.552 13.7096C24.7777 13.3029 26.0291 12.974 27.3482 12.6273C27.8229 12.5026 28.3063 12.3755 28.8005 12.2417V21.5927ZM115.736 6.38876H104.446L96.0456 26.7538L87.6454 6.38876H76.3529V34.6786H83.8023V12.0161H83.8818L92.8351 34.6786H99.2541L108.207 12.0161H108.287V34.6786H115.736V6.38876ZM63.1627 6.38894H42.5988V34.675H50.2849V24.2955H59.8329C62.2119 24.2955 63.9146 25.2861 63.9146 29.2485C63.9146 32.2203 63.9525 33.37 64.6666 34.6769H73.0668C71.7201 33.2507 71.6008 29.9228 71.6008 28.5363C71.6008 25.7634 71.0856 21.4847 67.7179 20.9695V20.89C70.9284 19.7403 72.3148 17.5223 72.3148 14.0751C72.3148 11.1828 71.0079 6.38894 63.1627 6.38894ZM60.4674 18.9107H50.2849L50.283 18.9088V11.7776H60.0697C61.9334 11.7776 64.1514 12.4916 64.1514 15.3043C64.1514 17.9598 62.1721 18.9107 60.4674 18.9107ZM141.446 28.8544H128.451L126.154 34.6786H117.873L130.313 6.38876H139.585L152.025 34.6786H143.744L141.446 28.8544ZM134.948 12.4915L130.51 23.7044H139.386L134.948 12.4915Z" fill="#221F20"/>
</svg>
