<svg width="81" height="80" viewBox="0 0 81 80" fill="none" xmlns="http://www.w3.org/2000/svg">
<path fill-rule="evenodd" clip-rule="evenodd" d="M21.3329 24.9838C21.3473 24.5727 21.4195 24.1904 21.9243 23.8298L21.9388 23.8154C21.945 23.9742 21.9539 24.1115 21.962 24.2366C21.9727 24.4012 21.982 24.5446 21.982 24.6881C21.9907 25.2636 21.9991 25.8391 22.0074 26.4146C22.0409 28.7168 22.0744 31.0191 22.1263 33.3213C22.1321 33.6081 22.233 33.8948 22.3324 34.1777C22.3555 34.2435 22.3786 34.3091 22.4004 34.3743C22.422 34.4465 22.5807 34.5402 22.66 34.5258C22.7321 34.5114 22.8259 34.3671 22.8259 34.2734C22.8403 33.819 22.8331 33.3574 22.8259 32.8958C22.8115 32.1193 22.7946 31.3427 22.7778 30.5662C22.7442 29.0131 22.7105 27.46 22.6961 25.907C22.6816 23.7793 22.6961 21.6517 22.7177 19.524C22.7177 19.1812 22.767 18.8342 22.8159 18.4894L22.816 18.4893C22.8319 18.3771 22.8478 18.2652 22.862 18.1536L22.8666 18.1239C22.887 17.9916 22.9119 17.8307 22.999 17.757C23.2063 17.5868 23.4332 17.4402 23.6595 17.294C23.7403 17.2419 23.8209 17.1898 23.9005 17.1367C23.9208 17.2291 23.9461 17.3208 23.9711 17.4121L23.9711 17.4121C24.0263 17.6128 24.0809 17.8111 24.0809 18.0094C24.1313 20.7717 24.1746 23.5341 24.2035 26.2964C24.2107 26.7653 24.2684 27.2052 24.7011 27.638C24.7152 27.551 24.7301 27.4732 24.7437 27.4019L24.7437 27.4018L24.7437 27.4018C24.7719 27.2543 24.7949 27.1343 24.7949 27.0177C24.7805 25.9492 24.7637 24.8798 24.747 23.81L24.747 23.8097C24.7133 21.659 24.6795 19.506 24.6651 17.3531C24.6578 16.7616 24.7516 16.163 24.8959 15.586C25.1122 14.735 25.6676 14.1652 26.4682 13.7541C27.3625 13.2997 28.2208 12.7588 29.0574 12.1962C29.5839 11.8428 30.0816 11.8933 30.6153 12.0808C30.9399 12.1962 31.149 12.4198 31.1562 12.7876C31.1634 13.0184 31.1634 13.2492 31.1634 13.48C31.1634 14.6465 31.1615 15.8124 31.1595 16.978C31.155 19.6968 31.1505 22.4143 31.1706 25.1352C31.1923 28.0418 31.4591 30.934 32.1876 33.7613C32.1965 33.8105 32.2221 33.8569 32.266 33.9366C32.2929 33.9854 32.3268 34.0469 32.3679 34.1291C32.3939 34.0369 32.4199 33.957 32.4432 33.8858L32.4432 33.8856C32.4908 33.7397 32.5266 33.6299 32.5266 33.5233C32.4689 32.088 32.3968 30.6527 32.3246 29.2175C32.3109 28.9681 32.2889 28.7178 32.2669 28.4671L32.2669 28.4671V28.467V28.467C32.2309 28.058 32.1948 27.6482 32.1948 27.2413C32.1948 23.5629 32.2092 19.8774 32.2453 16.1919C32.2507 15.6541 32.3053 15.1122 32.3596 14.5725V14.5724V14.5724C32.3774 14.3955 32.3952 14.2188 32.4112 14.0426C32.4545 13.5377 32.6997 13.2059 33.1973 13.0184C33.8897 12.7588 34.5749 12.6506 35.3106 12.8092C36.8385 13.1324 38.3687 13.4445 39.8987 13.7566C41.1346 14.0087 42.3705 14.2607 43.6048 14.5186L43.6478 14.528C43.9956 14.6044 44.3603 14.6844 44.6651 14.8576C45.5378 15.348 45.8623 16.0548 45.6027 17.1367C45.4584 17.7497 45.5666 18.2113 45.9921 18.6152C46.6596 19.2584 46.7247 20.0855 46.7887 20.8987L46.7887 20.899C46.8008 21.0523 46.8128 21.205 46.8288 21.3559C47.0051 23.0177 47.1518 24.6794 47.2985 26.3411C47.3918 27.3985 47.4851 28.4558 47.5861 29.5132C47.6726 30.4003 47.788 31.273 48.1126 32.1241C48.4011 32.867 48.5886 33.6747 48.6607 34.4681C48.6894 34.7646 48.5786 35.0737 48.4671 35.385L48.4671 35.385L48.4671 35.3851C48.4103 35.5433 48.3534 35.7021 48.3145 35.8601C48.2668 36.0557 48.2381 36.2545 48.2094 36.4522C48.1948 36.5534 48.1802 36.6543 48.1631 36.7544C48.2512 36.7398 48.341 36.7294 48.4308 36.719C48.6498 36.6936 48.8681 36.6683 49.0574 36.5813C50.0167 36.127 50.9687 36.1486 51.9857 36.401C52.8113 36.609 53.6645 36.7014 54.5164 36.7935C54.6393 36.8068 54.7623 36.8201 54.8851 36.8338C57.5392 37.1223 59.9482 38.0455 62.2706 39.3365C65.3792 41.0589 68.5138 42.7331 71.6477 44.4069L71.6521 44.4093L71.6564 44.4116C72.8896 45.0702 74.1226 45.7288 75.3539 46.3902C75.4024 46.4165 75.451 46.444 75.4998 46.4716C75.6252 46.5424 75.7527 46.6144 75.8876 46.6715C76.3564 46.8735 76.4862 47.1692 76.3708 47.6957C75.8371 50.2056 75.1014 52.6578 74.0484 55.0018C69.5551 64.955 62.1335 71.7202 51.8054 75.2831C49.0718 76.2207 46.2518 76.7545 43.3596 76.9781C33.3055 77.7498 24.3766 74.9225 16.6376 68.5107C10.7018 63.5846 6.7927 57.317 4.72274 49.8882C4.56407 49.3257 4.77323 49.1165 5.16991 48.8569C6.62756 47.9094 8.0825 46.9585 9.53722 46.0078L9.53938 46.0064L9.54126 46.0052L9.54157 46.005C12.836 43.8519 16.1294 41.6996 19.4505 39.5889C20.5179 38.9037 20.9795 38.1681 20.9723 36.8843C20.9559 34.7293 21.0307 32.5703 21.1056 30.4102V30.4102L21.1056 30.4099L21.1056 30.4097C21.1295 29.7215 21.1533 29.0331 21.1742 28.3448C21.1968 27.6443 21.2336 26.941 21.2703 26.2384L21.2703 26.2383L21.2703 26.2382C21.2922 25.8195 21.3141 25.4012 21.3329 24.9838ZM4.51267 47.3885L4.51255 47.3886L4.51202 47.3888C4.41047 47.4388 4.29914 47.4937 4.1746 47.5586H4.16017C4.10733 47.2255 4.05155 46.9018 3.99681 46.5842L3.99679 46.584C3.87971 45.9047 3.76738 45.2529 3.69858 44.5943C2.98455 37.8075 3.8861 31.2586 6.80713 25.0703C11.7621 14.5907 19.8904 7.81825 31.0841 4.74577C34.748 3.74324 38.5129 3.38262 42.2994 3.63505C52.541 4.30581 61.131 8.46016 67.9395 16.1197C72.6853 21.4569 75.563 27.7173 76.6377 34.7927C77.1137 37.9373 77.2291 41.0891 76.8541 44.2481C76.7314 45.2723 76.6954 45.2651 75.801 44.8323C72.7213 43.3394 69.6344 41.8392 66.5547 40.339C66.0117 40.0763 65.4691 39.813 64.9266 39.5498L64.9236 39.5484C63.4716 38.8438 62.0202 38.1396 60.5612 37.4468C60.0996 37.2232 59.7823 36.9059 59.5082 36.4804C58.7221 35.2687 58.3326 33.9921 58.2677 32.5208C58.1774 30.4718 57.9895 28.4268 57.8017 26.3828L57.8017 26.3826L57.8017 26.3823C57.7343 25.6492 57.667 24.9162 57.6041 24.1832C57.5825 23.8731 57.5248 23.5341 57.3733 23.2744C56.6593 22.0628 56.5439 20.7068 56.4574 19.3653C56.3852 18.2041 55.6279 17.5622 54.7985 16.9924C54.5344 16.8068 54.0865 16.8332 53.7207 16.8547L53.7094 16.8554C53.2334 16.8843 52.8584 16.7472 52.5771 16.3722C52.1876 15.8529 51.6395 15.6798 51.0264 15.55C48.3682 14.9826 45.7141 14.407 43.0605 13.8316L43.06 13.8315C39.6083 13.083 36.1574 12.3347 32.6997 11.6048C31.726 11.3956 30.7018 11.3595 29.6993 11.3379C29.3315 11.3307 28.8843 11.4966 28.603 11.7346C27.449 12.7155 26.122 13.3934 24.7732 14.0498C24.2828 14.2878 23.9943 14.6051 23.951 15.1461C23.9434 15.2337 23.9217 15.3214 23.8997 15.4101L23.8997 15.4101C23.8801 15.4893 23.8603 15.5693 23.8501 15.6509C23.7924 16.1991 23.5832 16.6535 23.0567 16.8915C22.2273 17.2665 22.0253 17.9589 21.9676 18.7811C21.9291 19.317 21.8735 19.8514 21.8179 20.3856C21.7485 21.0523 21.6791 21.7187 21.6431 22.3873C21.6142 22.9499 21.4339 23.3826 21.0084 23.7288C20.5179 24.1255 20.3809 24.6232 20.3665 25.2434C20.2727 29.0083 20.1429 32.7731 20.0131 36.5379V36.538V36.538V36.5381C19.9626 38.1176 19.9554 38.1248 18.5778 38.9542C16.3059 40.3209 14.0359 41.6876 11.7659 43.0543C9.4957 44.4211 7.22552 45.7879 4.95354 47.1547C4.82311 47.2357 4.68147 47.3054 4.51287 47.3884L4.51273 47.3885L4.51267 47.3885ZM40.2871 80.0001C62.3787 80.0001 80.2872 62.0916 80.2872 40C80.2872 17.9084 62.3787 0 40.2871 0C18.1955 0 0.287109 17.9084 0.287109 40C0.287109 62.0916 18.1955 80.0001 40.2871 80.0001ZM33.3473 57.7125C34.0528 55.6738 34.7581 53.6357 35.462 51.5976L35.4692 51.6336C35.5342 51.6409 35.5919 51.6481 35.6568 51.6553C35.7649 51.9509 35.8659 52.2466 35.9669 52.5423L35.9669 52.5424C36.2533 53.3679 36.5348 54.1946 36.8162 55.0211L36.8164 55.0218C37.4987 57.0259 38.1806 59.0287 38.9312 61.0098C40.0059 63.8515 42.1479 65.5536 45.0545 66.3686C47.3769 67.0249 49.7426 66.924 52.0939 66.7437C52.9482 66.6819 53.7952 66.5099 54.6427 66.3379C54.9829 66.2688 55.3231 66.1998 55.664 66.1378C56.0895 66.0657 56.2843 65.8132 56.2843 65.3517C56.2756 63.3136 56.2747 61.2755 56.2739 59.2374C56.2733 57.8784 56.2727 56.5195 56.2698 55.1605C56.2698 54.5835 56.1689 54.5186 55.6712 54.7422C55.1592 54.9729 54.6527 55.2163 54.1461 55.4597L54.1459 55.4598L54.1457 55.4599L54.1454 55.46C53.6388 55.7034 53.1323 55.9467 52.6204 56.1775C52.2165 56.3578 52.0794 56.6318 52.0794 57.0574C52.089 57.6532 52.0858 58.2457 52.0826 58.8394V58.8396V58.8399L52.0826 58.8412C52.081 59.1381 52.0794 59.4352 52.0794 59.7332V62.0628C52.0794 62.3441 52.0145 62.5605 51.6683 62.6037C50.3773 62.7624 49.1007 62.8634 47.8097 62.5388C45.5522 61.969 44.1025 60.5915 43.5904 58.334C43.3813 57.418 43.2731 56.4443 43.3308 55.5139C43.475 53.1843 44.4631 51.2947 46.6341 50.2128C48.091 49.4844 49.6561 49.2968 51.2644 49.4555C52.6492 49.5925 53.9763 49.9315 55.2313 50.5662C55.7289 50.8186 55.8227 50.7537 55.8948 50.1984C55.9886 49.4756 56.0697 48.757 56.1511 48.0362C56.1761 47.8148 56.2011 47.5931 56.2266 47.3711C56.3203 46.5489 56.277 46.4696 55.426 46.2676C52.7718 45.6329 50.0888 45.3084 47.3697 45.705C44.7444 46.0873 42.3282 46.9239 40.5179 49.0083C40.4746 49.0603 40.4261 49.1097 40.377 49.1596L40.3769 49.1598C40.3443 49.1929 40.3115 49.2263 40.2799 49.2608C40.0852 49.4699 39.9409 49.4267 39.8255 49.1814C39.7577 49.0314 39.6881 48.8825 39.6186 48.7337L39.6185 48.7336C39.4442 48.3606 39.2703 47.9886 39.1259 47.6019C38.924 47.0538 38.5706 46.8807 38.0008 46.8951C36.9153 46.9213 35.826 46.917 34.7356 46.9127H34.7355H34.7351C34.326 46.9111 33.9167 46.9095 33.5075 46.9095C32.5583 46.9095 32.5554 46.9167 32.2052 47.8031L32.202 47.8111C29.9806 53.4584 27.752 59.1057 25.5233 64.753C25.4116 65.0342 25.3035 65.3153 25.1953 65.5964L25.1952 65.5969L25.195 65.5973C25.0869 65.8784 24.9787 66.1596 24.867 66.4407C24.7372 66.7725 24.7588 67.0105 25.1988 67.0105H29.6921C30.0383 67.0105 30.2186 66.8374 30.3124 66.5273C30.3701 66.3325 30.435 66.1378 30.4999 65.9503C31.4465 63.2056 32.3955 60.4632 33.3441 57.7218L33.3473 57.7125ZM34.7552 58.1537L34.754 58.1589C34.713 58.1492 34.6851 58.1411 34.6649 58.1352L34.6648 58.1352C34.6422 58.1286 34.6293 58.1248 34.6182 58.1248C34.6066 58.1277 34.5948 58.1303 34.583 58.1329C34.5357 58.1433 34.4884 58.1537 34.4595 58.1825C33.1685 59.3942 32.6203 60.88 32.9161 62.6181C33.1324 63.9164 34.2071 64.753 35.462 64.753C36.7603 64.7458 37.77 63.9092 38.0224 62.6326C38.1739 61.8464 37.9431 61.154 37.4382 60.5554C36.9694 59.9928 36.7675 59.4303 37.2363 58.7667C37.2545 58.7348 37.2497 58.6827 37.2437 58.6177C37.2402 58.5799 37.2363 58.5377 37.2363 58.4926C36.0318 58.6874 35.5414 59.5601 35.1735 60.6131C34.533 59.8358 34.5676 58.9938 34.754 58.1589L34.7624 58.1609L34.7552 58.1537ZM36.3564 62.2542C36.1004 61.9861 35.8691 61.7437 35.8447 61.4335C35.9095 61.4792 35.9871 61.5308 36.0727 61.5878C36.2837 61.7282 36.5435 61.901 36.7819 62.0989C37.2074 62.445 37.4166 62.8778 37.0776 63.6207C37.0574 62.9885 36.6864 62.5999 36.3564 62.2542ZM33.9763 60.2453C33.9295 61.0457 34.4596 61.3555 34.9862 61.6631C35.1903 61.7824 35.3938 61.9013 35.563 62.0484C35.0509 61.4642 34.5388 60.88 33.9763 60.2453ZM35.4115 57.5622C34.8634 58.2546 34.7769 58.8461 35.1735 59.6034V59.6106C35.4554 59.2641 35.7134 58.951 35.9631 58.6481C36.02 58.579 36.0765 58.5105 36.1328 58.4422C36.616 57.858 36.8901 57.2233 36.616 56.4587C36.58 56.365 36.479 56.2856 36.3852 56.2352C36.3636 56.2207 36.2554 56.3145 36.2121 56.3794C36.117 56.5183 36.0255 56.6608 35.9337 56.8038C35.7682 57.0617 35.6018 57.3209 35.4115 57.5622Z" fill="black"/>
</svg>
