<svg width="95" height="101" viewBox="0 0 95 101" fill="none" xmlns="http://www.w3.org/2000/svg">
<g clip-path="url(#clip0_19_5278)">
<path d="M54.0513 7.55884H26.1591H20.0881H9.29639V49.5H26.1591V19.3211H54.0513V7.55884Z" fill="#F2F2F2"/>
<path d="M53.9707 65.1299C45.755 65.1299 39.0957 58.4706 39.0957 50.2549C39.0957 42.0392 45.755 35.3799 53.9707 35.3799V65.1323V65.1299Z" fill="#F2F2F2"/>
<path d="M53.7987 65.7622C53.3771 65.7622 52.9482 65.7451 52.5242 65.7107C52.186 65.6838 51.936 65.3872 51.9629 65.0514C51.9899 64.7132 52.2938 64.4681 52.6222 64.4901C53.0119 64.522 53.409 64.5392 53.7963 64.5392C54.1345 64.5392 54.409 64.8137 54.409 65.1519C54.409 65.4902 54.1345 65.7647 53.7963 65.7647L53.7987 65.7622Z" fill="#221F20"/>
<path d="M48.3357 64.728C48.2622 64.728 48.1837 64.7133 48.1102 64.6839C47.3725 64.3922 46.6494 64.0417 45.9631 63.6373C45.6715 63.4658 45.5734 63.0908 45.745 62.7991C45.9166 62.5074 46.2916 62.4094 46.5832 62.581C47.2156 62.9511 47.8798 63.2746 48.5612 63.5442C48.8749 63.6692 49.0293 64.0246 48.9068 64.3383C48.8112 64.5785 48.5808 64.7256 48.3357 64.7256V64.728ZM42.8823 61.0001C42.718 61.0001 42.5538 60.9339 42.4337 60.804C41.8921 60.2207 41.3921 59.5908 40.9484 58.9339C40.7597 58.6545 40.8332 58.2721 41.1127 58.0834C41.3921 57.8947 41.7744 57.9682 41.9631 58.2476C42.3725 58.853 42.8332 59.4314 43.3332 59.9707C43.5636 60.2182 43.5489 60.6055 43.3014 60.8359C43.1837 60.9462 43.0342 61.0001 42.8847 61.0001H42.8823ZM39.571 55.2868C39.3087 55.2868 39.0685 55.1177 38.9852 54.8555C38.7499 54.0957 38.571 53.3138 38.4558 52.5246C38.4068 52.1888 38.6372 51.8775 38.9729 51.8285C39.3087 51.7795 39.62 52.0099 39.669 52.3457C39.7744 53.0712 39.9386 53.7917 40.1568 54.4903C40.2573 54.8138 40.0759 55.1569 39.7524 55.2574C39.6911 55.277 39.6298 55.2844 39.571 55.2844V55.2868ZM39.0612 48.7011C39.0318 48.7011 39.0024 48.7011 38.9729 48.6937C38.6372 48.6447 38.4068 48.3334 38.4558 48.0001C38.571 47.2109 38.7475 46.4265 38.9828 45.6692C39.0832 45.3457 39.4264 45.1643 39.7499 45.2648C40.0734 45.3653 40.2548 45.7084 40.1543 46.0319C39.9386 46.7305 39.7744 47.4511 39.669 48.1765C39.6249 48.4805 39.3627 48.7011 39.0636 48.7011H39.0612ZM41.446 42.5417C41.3283 42.5417 41.2082 42.5074 41.1029 42.4364C40.8234 42.2476 40.7475 41.8653 40.9386 41.5859C41.3823 40.9265 41.8823 40.2991 42.4239 39.7158C42.6543 39.4682 43.0416 39.4535 43.2891 39.6839C43.5367 39.9143 43.5514 40.3015 43.321 40.5491C42.8234 41.0859 42.3627 41.6667 41.9533 42.2721C41.8357 42.4462 41.6421 42.5417 41.446 42.5417ZM46.2597 38.0197C46.0489 38.0197 45.8455 37.9118 45.7303 37.7182C45.5587 37.4265 45.6568 37.0515 45.9484 36.88C46.6347 36.4756 47.3578 36.1226 48.0955 35.831C48.4092 35.706 48.7671 35.8604 48.8896 36.1765C49.0146 36.4903 48.8602 36.8481 48.544 36.9707C47.8651 37.2378 47.2009 37.5638 46.5685 37.9364C46.4705 37.9927 46.3651 38.0197 46.2573 38.0197H46.2597Z" fill="#221F20"/>
<path d="M52.5732 36.0245C52.257 36.0245 51.9899 35.7819 51.9629 35.4608C51.936 35.1225 52.186 34.8284 52.5242 34.8015C52.9482 34.7672 53.3771 34.75 53.7987 34.75C54.1369 34.75 54.4115 35.0245 54.4115 35.3627C54.4115 35.701 54.1369 35.9755 53.7987 35.9755C53.409 35.9755 53.0144 35.9926 52.6247 36.0245C52.6075 36.0245 52.5904 36.0245 52.5732 36.0245Z" fill="#221F20"/>
<path d="M28.0025 81.6348L29.7549 91.8481L20.5834 87.0245L11.4118 91.8481L13.1618 81.6348L5.74268 74.402L15.9976 72.9118L20.5834 63.6177L25.1691 72.9118L25.0638 80.2329L28.0025 81.6348Z" fill="#F2F2F2"/>
<path d="M29.7549 93.0734C29.5613 93.0734 29.3652 93.0269 29.1838 92.9337L20.5833 88.4117L11.9828 92.9337C11.5686 93.1519 11.0686 93.1151 10.6912 92.8406C10.3137 92.5661 10.125 92.1029 10.2034 91.6421L11.8456 82.0636L4.88723 75.2793C4.5539 74.9533 4.4338 74.4656 4.57841 74.0244C4.72302 73.5808 5.10537 73.2573 5.5686 73.1911L15.1863 71.794L19.4877 63.0808C19.6936 62.6617 20.1201 62.397 20.5858 62.397C21.0514 62.397 21.4779 62.6617 21.6838 63.0808L26.2696 72.3725C26.5686 72.9803 26.3211 73.7132 25.7132 74.0146C25.1054 74.3136 24.3725 74.0661 24.0711 73.4583L20.5833 66.3921L17.0956 73.4583C16.9166 73.821 16.5711 74.071 16.174 74.1298L8.37743 75.2622L14.0196 80.7622C14.3088 81.044 14.4412 81.4484 14.3725 81.848L13.0416 89.6127L20.0147 85.946C20.3725 85.7573 20.799 85.7573 21.1544 85.946L28.1274 89.6127L26.7965 81.8455C26.6814 81.1788 27.1299 80.544 27.7965 80.4313C28.4632 80.3161 29.098 80.7646 29.2108 81.4313L30.9632 91.6445C31.0416 92.1053 30.8529 92.5685 30.4755 92.8431C30.2622 92.9975 30.0098 93.0783 29.7549 93.0783V93.0734Z" fill="#221F20"/>
<path d="M93.0881 72.652H53.8822C53.2058 72.652 52.6567 72.1029 52.6567 71.4265V1.72549C52.6567 1.04902 53.2058 0.5 53.8822 0.5H93.0881C93.7646 0.5 94.3136 1.04902 94.3136 1.72549V71.4265C94.3136 72.1029 93.7646 72.652 93.0881 72.652ZM55.1077 70.201H91.8626V2.95098H55.1077V70.201Z" fill="#221F20"/>
<path d="M77.8186 100.5H1.22549C0.54902 100.5 0 99.9509 0 99.2744V56.1911C0 55.5146 0.54902 54.9656 1.22549 54.9656H25.1618C25.8382 54.9656 26.3873 55.5146 26.3873 56.1911C26.3873 56.8675 25.8382 57.4166 25.1618 57.4166H2.45098V98.0489H76.5931V80.2327C76.5931 79.5563 77.1422 79.0072 77.8186 79.0072C78.4951 79.0072 79.0441 79.5563 79.0441 80.2327V99.2744C79.0441 99.9509 78.4951 100.5 77.8186 100.5Z" fill="#221F20"/>
<path d="M86.6272 81.4584H25.1615C24.4851 81.4584 23.936 80.9094 23.936 80.2329V18.7672C23.936 18.0908 24.4851 17.5417 25.1615 17.5417H53.8846C54.561 17.5417 55.1101 18.0908 55.1101 18.7672C55.1101 19.4437 54.561 19.9927 53.8846 19.9927H26.387V79.0074H85.4017V71.4241C85.4017 70.7476 85.9507 70.1986 86.6272 70.1986C87.3037 70.1986 87.8527 70.7476 87.8527 71.4241V80.2329C87.8527 80.9094 87.3037 81.4584 86.6272 81.4584Z" fill="#221F20"/>
<path d="M71.6983 93.3921H36.4042C35.7277 93.3921 35.1787 92.8431 35.1787 92.1667C35.1787 91.4902 35.7277 90.9412 36.4042 90.9412H71.6983C72.3748 90.9412 72.9238 91.4902 72.9238 92.1667C72.9238 92.8431 72.3748 93.3921 71.6983 93.3921Z" fill="#221F20"/>
<path d="M71.6983 88.0001H36.4042C35.7277 88.0001 35.1787 87.451 35.1787 86.7746C35.1787 86.0981 35.7277 85.5491 36.4042 85.5491H71.6983C72.3748 85.5491 72.9238 86.0981 72.9238 86.7746C72.9238 87.451 72.3748 88.0001 71.6983 88.0001Z" fill="#221F20"/>
<path d="M25.162 50.7254H9.29678C8.62031 50.7254 8.07129 50.1764 8.07129 49.4999V7.55874C8.07129 6.88227 8.62031 6.33325 9.29678 6.33325H53.8826C54.559 6.33325 55.1081 6.88227 55.1081 7.55874C55.1081 8.23521 54.559 8.78423 53.8826 8.78423H10.5223V48.2744H25.1595C25.836 48.2744 26.385 48.8234 26.385 49.4999C26.385 50.1764 25.836 50.7254 25.1595 50.7254H25.162Z" fill="#221F20"/>
<path d="M84.907 37.8016H62.0663C61.3898 37.8016 60.8408 37.2525 60.8408 36.5761C60.8408 35.8996 61.3898 35.3506 62.0663 35.3506H84.907C85.5835 35.3506 86.1325 35.8996 86.1325 36.5761C86.1325 37.2525 85.5835 37.8016 84.907 37.8016Z" fill="#221F20"/>
<path d="M73.4853 49.2231C72.8088 49.2231 72.2598 48.6741 72.2598 47.9976V25.1544C72.2598 24.478 72.8088 23.929 73.4853 23.929C74.1617 23.929 74.7107 24.478 74.7107 25.1544V47.9976C74.7107 48.6741 74.1617 49.2231 73.4853 49.2231Z" fill="#221F20"/>
<path d="M25.1616 33.4461H15.0146C14.3381 33.4461 13.7891 32.8971 13.7891 32.2206C13.7891 31.5441 14.3381 30.9951 15.0146 30.9951H25.1616C25.8381 30.9951 26.3871 31.5441 26.3871 32.2206C26.3871 32.8971 25.8381 33.4461 25.1616 33.4461Z" fill="#221F20"/>
<path d="M25.1616 39.179H15.0146C14.3381 39.179 13.7891 38.63 13.7891 37.9535C13.7891 37.277 14.3381 36.728 15.0146 36.728H25.1616C25.8381 36.728 26.3871 37.277 26.3871 37.9535C26.3871 38.63 25.8381 39.179 25.1616 39.179Z" fill="#221F20"/>
<path d="M25.1616 44.9092H15.0146C14.3381 44.9092 13.7891 44.3602 13.7891 43.6837C13.7891 43.0073 14.3381 42.4583 15.0146 42.4583H25.1616C25.8381 42.4583 26.3871 43.0073 26.3871 43.6837C26.3871 44.3602 25.8381 44.9092 25.1616 44.9092Z" fill="#221F20"/>
</g>
<defs>
<clipPath id="clip0_19_5278">
<rect width="94.3137" height="100" fill="white" transform="translate(0 0.5)"/>
</clipPath>
</defs>
</svg>
