<svg xmlns="http://www.w3.org/2000/svg" width="18" height="18" viewBox="0 0 18 18" fill="none">
  <path d="M18 9L16.1299 7.08899L16.7951 4.49899L14.2181 3.7819L13.501 1.20486L10.911 1.87009L9 0L7.08899 1.87009L4.49899 1.20486L3.7819 3.7819L1.20486 4.49899L1.87009 7.08899L0 9L1.87009 10.911L1.20486 13.501L3.7819 14.2181L4.49899 16.7951L7.08899 16.1299L9 18L10.911 16.1299L13.501 16.7951L14.2181 14.2181L16.7951 13.501L16.1299 10.911L18 9ZM13.7125 6.40837L7.72991 12.391C7.67684 12.4444 7.60473 12.4744 7.52937 12.4744C7.45402 12.4744 7.3819 12.4444 7.32883 12.391L4.2867 9.34882C4.23322 9.29575 4.20324 9.22363 4.20324 9.14828C4.20324 9.07292 4.23322 9.00081 4.2867 8.94774L4.6817 8.55274C4.73477 8.49926 4.80689 8.46928 4.88224 8.46928C4.9576 8.46928 5.02971 8.49926 5.08278 8.55274L7.52654 10.9965L12.9164 5.60662C13.0282 5.49845 13.2057 5.49845 13.3171 5.60662L13.7121 6.00729C13.7656 6.06036 13.7955 6.13248 13.7955 6.20783C13.7955 6.28319 13.7656 6.3553 13.7121 6.40837H13.7125Z" fill="#0AC64A"/>
</svg>