<svg xmlns="http://www.w3.org/2000/svg" width="22" height="21" viewBox="0 0 22 21" fill="none">
  <path d="M21.084 10.5796L18.9893 8.43906L19.7344 5.53794L16.8479 4.73472L16.0446 1.84812L13.1435 2.59326L11.003 0.498535L8.8624 2.59326L5.96128 1.84812L5.15806 4.73472L2.27146 5.53794L3.0166 8.43906L0.921875 10.5796L3.0166 12.7202L2.27146 15.6213L5.15806 16.4245L5.96128 19.3111L8.8624 18.566L11.003 20.6607L13.1435 18.566L16.0446 19.3111L16.8479 16.4245L19.7344 15.6213L18.9893 12.7202L21.084 10.5796ZM16.2815 7.67668L9.58031 14.3779C9.52086 14.4378 9.44008 14.4714 9.35568 14.4714C9.27127 14.4714 9.19049 14.4378 9.13105 14.3779L5.72349 10.9703C5.66359 10.9109 5.63001 10.8301 5.63001 10.7457C5.63001 10.6613 5.66359 10.5805 5.72349 10.5211L6.16594 10.0786C6.22539 10.0187 6.30617 9.98514 6.39057 9.98514C6.47498 9.98514 6.55575 10.0187 6.6152 10.0786L9.3525 12.8159L15.3898 6.77862C15.5151 6.65746 15.7138 6.65746 15.8386 6.77862L16.2811 7.22742C16.341 7.28687 16.3745 7.36765 16.3745 7.45205C16.3745 7.53646 16.341 7.61724 16.2811 7.67668H16.2815Z" fill="white"/>
</svg>