<svg width="91" height="101" viewBox="0 0 91 101" fill="none" xmlns="http://www.w3.org/2000/svg">
<g clip-path="url(#clip0_19_5219)">
<path d="M87.1826 72.2051H61.8452V88.6501H87.1826V72.2051Z" fill="#F2F2F2"/>
<path d="M7.35892 27.6077H1.20898V33.7576H7.35892V27.6077Z" fill="#F2F2F2"/>
<path d="M38.0215 27.6077H31.8716V33.7576H38.0215V27.6077Z" fill="#F2F2F2"/>
<path d="M7.35892 57.8252H1.20898V63.9751H7.35892V57.8252Z" fill="#F2F2F2"/>
<path d="M38.0215 57.8252H31.8716V63.9751H38.0215V57.8252Z" fill="#F2F2F2"/>
<path d="M89.722 10.0526H53.4463V54.9136H89.722V10.0526Z" fill="#F2F2F2"/>
<path d="M84.307 49.9028C83.879 49.9028 83.463 49.673 83.2429 49.2716L78.0072 39.6391L74.7278 46.2075C74.5223 46.6186 74.1039 46.8774 73.6468 46.8774C73.642 46.8774 73.6371 46.8774 73.6323 46.8774C73.168 46.8725 72.7496 46.6017 72.5537 46.1809L67.3131 34.9644L59.9419 49.2063C59.6347 49.7988 58.9044 50.0309 58.3119 49.7238C57.7194 49.4167 57.4872 48.6863 57.7943 48.0938L66.2949 31.6682C66.5078 31.2595 66.931 31.0104 67.3929 31.0152C67.8548 31.0249 68.2683 31.2957 68.4642 31.7117L73.6855 42.8846L76.8826 36.4807C77.0833 36.0769 77.492 35.8205 77.9443 35.8109C78.3989 35.8109 78.8125 36.0454 79.0277 36.442L85.3711 48.1131C85.6903 48.7008 85.4727 49.4336 84.8874 49.7528C84.7036 49.852 84.5053 49.9003 84.3119 49.9003L84.307 49.9028Z" fill="#221F20"/>
<path d="M78.7784 33.0611H78.7712C77.5112 33.0611 76.331 32.5678 75.4435 31.6778C74.5559 30.7878 74.0699 29.6052 74.0723 28.3453C74.0723 27.0853 74.5656 25.9051 75.4556 25.0176C76.3431 24.1325 77.5233 23.6464 78.7809 23.6464H78.7881C80.0481 23.6464 81.2283 24.1397 82.1158 25.0297C83.0033 25.9196 83.4894 27.1022 83.487 28.3622C83.487 29.6222 82.9937 30.8023 82.1037 31.6899C81.2162 32.575 80.036 33.0611 78.7784 33.0611ZM78.7784 26.0647C78.1666 26.0647 77.5934 26.3017 77.1605 26.7322C76.7277 27.1627 76.4907 27.7383 76.4882 28.3501C76.4882 28.9644 76.7228 29.54 77.1533 29.9704C77.5838 30.4033 78.1593 30.6403 78.7712 30.6427H78.776C79.3879 30.6427 79.961 30.4057 80.3939 29.9753C80.8268 29.5448 81.0638 28.9692 81.0662 28.3574C81.0662 27.7431 80.8316 27.1675 80.4012 26.7371C79.9707 26.3042 79.3951 26.0672 78.7833 26.0647H78.7784Z" fill="#221F20"/>
<path d="M89.7217 56.1227H53.446C52.7785 56.1227 52.2368 55.581 52.2368 54.9135V10.0526C52.2368 9.3851 52.7785 8.84338 53.446 8.84338H89.7217C90.3892 8.84338 90.9309 9.3851 90.9309 10.0526V54.9135C90.9309 55.581 90.3892 56.1227 89.7217 56.1227ZM54.6552 53.7043H88.5125V11.2618H54.6552V53.7043Z" fill="#221F20"/>
<path d="M4.19105 34.9668H1.20919C0.541717 34.9668 0 34.425 0 33.7576V27.6076C0 26.9402 0.541717 26.3984 1.20919 26.3984H7.35913C8.0266 26.3984 8.56832 26.9402 8.56832 27.6076V30.5895C8.56832 31.257 8.0266 31.7987 7.35913 31.7987C6.69166 31.7987 6.14994 31.257 6.14994 30.5895V28.8168H2.41838V32.5484H4.19105C4.85852 32.5484 5.40024 33.0901 5.40024 33.7576C5.40024 34.425 4.85852 34.9668 4.19105 34.9668Z" fill="#221F20"/>
<path d="M7.40503 65.5327H1.25509C0.587615 65.5327 0.0458984 64.991 0.0458984 64.3235V58.1735C0.0458984 57.5061 0.587615 56.9644 1.25509 56.9644H4.19342C4.86089 56.9644 5.40261 57.5061 5.40261 58.1735C5.40261 58.841 4.86089 59.3827 4.19342 59.3827H2.46428V63.1143H6.19584V61.3416C6.19584 60.6742 6.73756 60.1324 7.40503 60.1324C8.0725 60.1324 8.61422 60.6742 8.61422 61.3416V64.3235C8.61422 64.991 8.0725 65.5327 7.40503 65.5327Z" fill="#221F20"/>
<path d="M37.9226 35.0127H34.9407C34.2733 35.0127 33.7316 34.4709 33.7316 33.8035C33.7316 33.136 34.2733 32.5943 34.9407 32.5943H36.7134V28.8627H32.9819V30.5919C32.9819 31.2593 32.4401 31.801 31.7727 31.801C31.1052 31.801 30.5635 31.2593 30.5635 30.5919V27.6535C30.5635 26.9861 31.1052 26.4443 31.7727 26.4443H37.9226C38.5901 26.4443 39.1318 26.9861 39.1318 27.6535V33.8035C39.1318 34.4709 38.5901 35.0127 37.9226 35.0127Z" fill="#221F20"/>
<path d="M37.9685 65.5327H31.8186C31.1511 65.5327 30.6094 64.991 30.6094 64.3235V61.3416C30.6094 60.6742 31.1511 60.1324 31.8186 60.1324C32.486 60.1324 33.0278 60.6742 33.0278 61.3416V63.1143H36.7593V59.3827H34.9407C34.2732 59.3827 33.7315 58.841 33.7315 58.1735C33.7315 57.5061 34.2732 56.9644 34.9407 56.9644H37.9685C38.636 56.9644 39.1777 57.5061 39.1777 58.1735V64.3235C39.1777 64.991 38.636 65.5327 37.9685 65.5327Z" fill="#221F20"/>
<path d="M31.8187 62.5485H7.40517C6.7377 62.5485 6.19598 62.0068 6.19598 61.3393V59.3828H4.19356C3.52609 59.3828 2.98438 58.8411 2.98438 58.1736V33.7601C2.98438 33.0926 3.52609 32.5509 4.19356 32.5509H6.15003V30.5944C6.15003 29.927 6.69175 29.3853 7.35922 29.3853H31.7728C32.4402 29.3853 32.982 29.927 32.982 30.5944V32.5969H34.9384C35.6059 32.5969 36.1476 33.1386 36.1476 33.8061V58.1736C36.1476 58.8411 35.6059 59.3828 34.9384 59.3828H33.0279V61.3393C33.0279 62.0068 32.4862 62.5485 31.8187 62.5485ZM8.61436 60.1301H30.6095V58.1736C30.6095 57.5062 31.1512 56.9645 31.8187 56.9645H33.7292V35.0152H31.7728C31.1053 35.0152 30.5636 34.4735 30.5636 33.8061V31.8036H8.56841V33.7601C8.56841 34.4276 8.0267 34.9693 7.35922 34.9693H5.40275V56.9645H7.40517C8.07265 56.9645 8.61436 57.5062 8.61436 58.1736V60.1301Z" fill="#221F20"/>
<path d="M7.35922 34.9669H4.19356C3.52609 34.9669 2.98438 34.4251 2.98438 33.7577C2.98438 33.0902 3.52609 32.5485 4.19356 32.5485H6.15003V30.592C6.15003 29.9245 6.69175 29.3828 7.35922 29.3828C8.0267 29.3828 8.56841 29.9245 8.56841 30.592V33.7577C8.56841 34.4251 8.0267 34.9669 7.35922 34.9669Z" fill="#221F20"/>
<path d="M7.40517 62.5484C6.7377 62.5484 6.19598 62.0067 6.19598 61.3392V59.3827H4.19356C3.52609 59.3827 2.98438 58.841 2.98438 58.1735C2.98438 57.5061 3.52609 56.9644 4.19356 56.9644H7.40517C8.07265 56.9644 8.61436 57.5061 8.61436 58.1735V61.3392C8.61436 62.0067 8.07265 62.5484 7.40517 62.5484Z" fill="#221F20"/>
<path d="M34.9408 35.0128H31.7751C31.1076 35.0128 30.5659 34.4711 30.5659 33.8036V30.592C30.5659 29.9245 31.1076 29.3828 31.7751 29.3828C32.4426 29.3828 32.9843 29.9245 32.9843 30.592V32.5944H34.9408C35.6082 32.5944 36.15 33.1361 36.15 33.8036C36.15 34.4711 35.6082 35.0128 34.9408 35.0128Z" fill="#221F20"/>
<path d="M31.8186 62.5484C31.1511 62.5484 30.6094 62.0067 30.6094 61.3392V58.1735C30.6094 57.5061 31.1511 56.9644 31.8186 56.9644H34.9383C35.6057 56.9644 36.1475 57.5061 36.1475 58.1735C36.1475 58.841 35.6057 59.3827 34.9383 59.3827H33.0278V61.3392C33.0278 62.0067 32.486 62.5484 31.8186 62.5484Z" fill="#221F20"/>
<path d="M28.4764 55.8954C28.0363 55.8954 27.6106 55.6535 27.3978 55.2352L19.5889 39.9099L11.7799 55.2352C11.4776 55.8301 10.7497 56.0671 10.1524 55.7624C9.55744 55.4601 9.32044 54.7321 9.62515 54.1348L18.5127 36.6959C18.7183 36.2896 19.1366 36.0356 19.5913 36.0356C20.046 36.0356 20.4619 36.2896 20.6699 36.6959L29.5574 54.1348C29.8597 54.7297 29.6252 55.4576 29.0302 55.7624C28.8537 55.8518 28.6675 55.8954 28.4813 55.8954H28.4764Z" fill="#221F20"/>
<path d="M25.0907 49.2521H14.0871C13.4196 49.2521 12.8779 48.7104 12.8779 48.0429C12.8779 47.3755 13.4196 46.8337 14.0871 46.8337H25.0907C25.7582 46.8337 26.2999 47.3755 26.2999 48.0429C26.2999 48.7104 25.7582 49.2521 25.0907 49.2521Z" fill="#221F20"/>
<path d="M87.1825 89.8592H34.9455C34.278 89.8592 33.7363 89.3175 33.7363 88.65V72.205C33.7363 71.5376 34.278 70.9958 34.9455 70.9958H87.1825C87.85 70.9958 88.3917 71.5376 88.3917 72.205V88.65C88.3917 89.3175 87.85 89.8592 87.1825 89.8592ZM36.1547 87.4408H85.9733V73.4142H36.1547V87.4408Z" fill="#221F20"/>
<path d="M46.07 100.5C45.0035 100.5 44.1353 99.6318 44.1353 98.5653C44.1353 97.4988 45.0035 96.6306 46.07 96.6306C47.1365 96.6306 48.0047 97.4988 48.0047 98.5653C48.0047 99.6318 47.1365 100.5 46.07 100.5ZM46.07 98.0816C45.8039 98.0816 45.5863 98.2993 45.5863 98.5653C45.5863 98.8313 45.8039 99.049 46.07 99.049C46.336 99.049 46.5536 98.8313 46.5536 98.5653C46.5536 98.2993 46.336 98.0816 46.07 98.0816Z" fill="#221F20"/>
<path d="M39.1775 99.6536H12.2126C11.5451 99.6536 11.0034 99.1119 11.0034 98.4444V62.28C11.0034 61.6125 11.5451 61.0708 12.2126 61.0708C12.8801 61.0708 13.4218 61.6125 13.4218 62.28V97.2352H39.1775C39.845 97.2352 40.3867 97.777 40.3867 98.4444C40.3867 99.1119 39.845 99.6536 39.1775 99.6536Z" fill="#221F20"/>
<path d="M12.2126 31.8011C11.5451 31.8011 11.0034 31.2594 11.0034 30.5919V1.70919C11.0034 1.04172 11.5451 0.5 12.2126 0.5H79.6854C80.3529 0.5 80.8946 1.04172 80.8946 1.70919V10.0526C80.8946 10.7201 80.3529 11.2618 79.6854 11.2618C79.0179 11.2618 78.4762 10.7201 78.4762 10.0526V2.91838H13.4218V30.5919C13.4218 31.2594 12.8801 31.8011 12.2126 31.8011Z" fill="#221F20"/>
<path d="M79.6858 73.4141C79.0183 73.4141 78.4766 72.8724 78.4766 72.205V54.9135C78.4766 54.2461 79.0183 53.7043 79.6858 53.7043C80.3532 53.7043 80.8949 54.2461 80.8949 54.9135V72.205C80.8949 72.8724 80.3532 73.4141 79.6858 73.4141Z" fill="#221F20"/>
<path d="M79.6858 99.6535H52.7209C52.0534 99.6535 51.5117 99.1118 51.5117 98.4443C51.5117 97.7768 52.0534 97.2351 52.7209 97.2351H78.4767V88.6499C78.4767 87.9824 79.0184 87.4407 79.6858 87.4407C80.3533 87.4407 80.895 87.9824 80.895 88.6499V98.4443C80.895 99.1118 80.3533 99.6535 79.6858 99.6535Z" fill="#221F20"/>
<path d="M78.7788 78.7345H41.4753C40.8078 78.7345 40.2661 78.1928 40.2661 77.5254C40.2661 76.8579 40.8078 76.3162 41.4753 76.3162H78.7788C79.4463 76.3162 79.988 76.8579 79.988 77.5254C79.988 78.1928 79.4463 78.7345 78.7788 78.7345Z" fill="#221F20"/>
<path d="M66.2637 84.2968H41.4753C40.8078 84.2968 40.2661 83.7551 40.2661 83.0876C40.2661 82.4201 40.8078 81.8784 41.4753 81.8784H66.2637C66.9312 81.8784 67.4729 82.4201 67.4729 83.0876C67.4729 83.7551 66.9312 84.2968 66.2637 84.2968Z" fill="#221F20"/>
</g>
<defs>
<clipPath id="clip0_19_5219">
<rect width="90.9311" height="100" fill="white" transform="translate(0 0.5)"/>
</clipPath>
</defs>
</svg>
