<svg width="1439" height="1143" viewBox="0 0 1439 1143" fill="none" xmlns="http://www.w3.org/2000/svg">
<line x1="89.2495" y1="1.09278e-08" x2="89.2495" y2="1150" stroke="#AA9C81" stroke-width="0.5"/>
<line x1="239.25" y1="1.09278e-08" x2="239.249" y2="1150" stroke="#AA9C81" stroke-width="0.5"/>
<line x1="389.25" y1="1.09278e-08" x2="389.249" y2="1150" stroke="#AA9C81" stroke-width="0.5"/>
<line x1="539.25" y1="1.09278e-08" x2="539.249" y2="1150" stroke="#AA9C81" stroke-width="0.5"/>
<line x1="689.25" y1="1.09278e-08" x2="689.25" y2="1150" stroke="#AA9C81" stroke-width="0.5"/>
<line x1="839.25" y1="1.09278e-08" x2="839.25" y2="1150" stroke="#AA9C81" stroke-width="0.5"/>
<line x1="989.25" y1="1.09278e-08" x2="989.25" y2="1150" stroke="#AA9C81" stroke-width="0.5"/>
<line x1="1139.25" y1="1.09278e-08" x2="1139.25" y2="1150" stroke="#AA9C81" stroke-width="0.5"/>
<line x1="1289.25" y1="1.09278e-08" x2="1289.25" y2="1150" stroke="#AA9C81" stroke-width="0.5"/>
<line x1="1439" y1="0.250244" x2="-1" y2="0.250118" stroke="#AA9C81" stroke-width="0.5"/>
<line x1="1439" y1="150.25" x2="-1" y2="150.25" stroke="#AA9C81" stroke-width="0.5"/>
<line x1="1439" y1="300.25" x2="-1" y2="300.25" stroke="#AA9C81" stroke-width="0.5"/>
<line x1="1439" y1="450.25" x2="-1" y2="450.25" stroke="#AA9C81" stroke-width="0.5"/>
<line x1="1439" y1="600.25" x2="-1" y2="600.25" stroke="#AA9C81" stroke-width="0.5"/>
<line x1="1439" y1="750.251" x2="-1" y2="750.251" stroke="#AA9C81" stroke-width="0.5"/>
<line x1="1439" y1="900.251" x2="-1" y2="900.251" stroke="#AA9C81" stroke-width="0.5"/>
<line x1="1439" y1="1050.25" x2="-1" y2="1050.25" stroke="#AA9C81" stroke-width="0.5"/>
</svg>
