<svg width="60" height="70" viewBox="0 0 60 70" fill="none" xmlns="http://www.w3.org/2000/svg">
<path fill-rule="evenodd" clip-rule="evenodd" d="M0.181453 59.4717C0.0974194 59.4717 0.0253906 59.3997 0.0253906 59.3277V0H47.7564C47.8405 0 47.9005 0.0720287 47.9005 0.144057V10.5282H59.4371C59.5211 10.5282 59.5811 10.6002 59.5811 10.6723V69.9879V69.9999H11.8501C11.7661 69.9999 11.694 69.9279 11.694 69.8439V59.4597H0.181453V59.4717ZM23.9629 11.7167H46.712V47.1788H23.9629V11.7167ZM11.694 10.5762V58.2713H1.22587V1.20048V1.18847H46.712V10.5162H11.7541C11.7181 10.5162 11.694 10.5762 11.694 10.5762ZM12.8945 59.4717V68.7995H58.3687V11.7287H47.9005V59.4117C47.9005 59.4117 47.8765 59.4717 47.8405 59.4717H12.8945Z" fill="black"/>
</svg>
