<svg width="1440" height="1170" viewBox="0 0 1440 1170" fill="none" xmlns="http://www.w3.org/2000/svg">
<line x1="1440" y1="52.2501" x2="-2.18556e-08" y2="52.25" stroke="#F6D76B" stroke-width="0.5"/>
<line x1="1440" y1="202.25" x2="-2.18556e-08" y2="202.25" stroke="#F6D76B" stroke-width="0.5"/>
<line x1="1440" y1="352.25" x2="-2.18556e-08" y2="352.25" stroke="#F6D76B" stroke-width="0.5"/>
<line x1="1440" y1="502.25" x2="-2.18556e-08" y2="502.25" stroke="#F6D76B" stroke-width="0.5"/>
<line x1="1440" y1="652.25" x2="-2.18556e-08" y2="652.25" stroke="#F6D76B" stroke-width="0.5"/>
<line x1="1440" y1="802.251" x2="-2.18556e-08" y2="802.251" stroke="#F6D76B" stroke-width="0.5"/>
<line x1="1440" y1="952.251" x2="-2.18556e-08" y2="952.251" stroke="#F6D76B" stroke-width="0.5"/>
<line x1="1440" y1="1102.25" x2="-2.18556e-08" y2="1102.25" stroke="#F6D76B" stroke-width="0.5"/>
<line x1="44.75" y1="1170" x2="44.75" y2="1.09278e-08" stroke="#F6D76B" stroke-width="0.5"/>
<line x1="194.75" y1="1170" x2="194.75" y2="1.09278e-08" stroke="#F6D76B" stroke-width="0.5"/>
<line x1="344.75" y1="1170" x2="344.75" y2="1.09278e-08" stroke="#F6D76B" stroke-width="0.5"/>
<line x1="494.75" y1="1170" x2="494.75" y2="1.09278e-08" stroke="#F6D76B" stroke-width="0.5"/>
<line x1="644.75" y1="1170" x2="644.75" y2="1.09278e-08" stroke="#F6D76B" stroke-width="0.5"/>
<line x1="794.75" y1="1170" x2="794.75" y2="1.09278e-08" stroke="#F6D76B" stroke-width="0.5"/>
<line x1="944.75" y1="1170" x2="944.75" y2="1.09278e-08" stroke="#F6D76B" stroke-width="0.5"/>
<line x1="1094.75" y1="1170" x2="1094.75" y2="1.09278e-08" stroke="#F6D76B" stroke-width="0.5"/>
<line x1="1244.75" y1="1170" x2="1244.75" y2="1.09278e-08" stroke="#F6D76B" stroke-width="0.5"/>
<line x1="1394.75" y1="1170" x2="1394.75" y2="1.09278e-08" stroke="#F6D76B" stroke-width="0.5"/>
</svg>
