<svg width="700" height="59" viewBox="0 0 700 59" fill="none" xmlns="http://www.w3.org/2000/svg">
<path fill-rule="evenodd" clip-rule="evenodd" d="M23.7444 0H0V57.7463H23.7444C28.1264 57.7463 31.9309 56.9927 35.1353 55.4854C38.3397 53.978 40.9667 51.9112 42.9935 49.2962C45.0203 46.6927 46.5376 43.6323 47.5227 40.1153C48.5078 36.6096 49.006 32.8756 49.006 28.8789C49.006 24.8822 48.5078 21.1367 47.5227 17.6311C46.5376 14.1254 45.0203 11.0651 42.9935 8.45013C40.9667 5.83516 38.351 3.7683 35.1353 2.26098C31.9309 0.75366 28.1264 0 23.7444 0ZM19.8945 49.5132H10.0322V8.24458H19.8945C23.801 8.24458 27.0054 8.76986 29.4851 9.82042C31.9649 10.871 33.9237 12.3326 35.3391 14.1939C36.7545 16.0552 37.7283 18.2477 38.2265 20.7485C38.7247 23.2493 38.9851 25.967 38.9851 28.8789C38.9851 31.7908 38.736 34.5085 38.2265 37.0093C37.717 39.5101 36.7545 41.7025 35.3391 43.5638C33.9237 45.4251 31.9762 46.8868 29.4851 47.9373C26.9941 48.9879 23.801 49.5132 19.8945 49.5132ZM619.188 12.8465V15.1646H616.685V29.3927H619.188V31.7108H613.775V12.8465H619.188ZM622.675 26.0127C622.856 26.3553 623.083 26.6293 623.377 26.8463C623.672 27.0632 624.011 27.2231 624.408 27.3259C624.804 27.4287 625.211 27.4858 625.642 27.4858C625.925 27.4858 626.23 27.4629 626.559 27.4172C626.887 27.3716 627.193 27.2802 627.487 27.1432C627.77 27.0062 628.008 26.8234 628.201 26.5722C628.393 26.321 628.484 26.0241 628.484 25.6473C628.484 25.2476 628.359 24.9279 628.11 24.6767C627.861 24.4254 627.521 24.2199 627.114 24.06C626.706 23.8887 626.242 23.7517 625.721 23.6261C625.2 23.5005 624.679 23.3635 624.147 23.215C623.604 23.078 623.071 22.9067 622.551 22.7126C622.03 22.5184 621.565 22.2558 621.158 21.9361C620.75 21.6163 620.411 21.2281 620.161 20.7485C619.912 20.2689 619.788 19.6979 619.788 19.0242C619.788 18.2705 619.946 17.6082 620.263 17.0487C620.58 16.4892 621.011 16.021 621.52 15.6556C622.041 15.2902 622.63 15.0047 623.287 14.8334C623.943 14.6507 624.6 14.5593 625.257 14.5593C626.027 14.5593 626.763 14.6507 627.465 14.822C628.167 14.9933 628.79 15.2787 629.344 15.6556C629.888 16.0438 630.329 16.5348 630.647 17.1401C630.964 17.7453 631.122 18.4647 631.122 19.3211H628.008C627.974 18.8758 627.884 18.5103 627.737 18.2249C627.578 17.928 627.374 17.711 627.114 17.5397C626.853 17.3684 626.559 17.2542 626.219 17.1857C625.88 17.1172 625.517 17.083 625.121 17.083C624.86 17.083 624.6 17.1172 624.34 17.1629C624.079 17.22 623.841 17.3113 623.638 17.4598C623.422 17.5968 623.253 17.7681 623.117 17.9736C622.981 18.1792 622.913 18.4418 622.913 18.7616C622.913 19.047 622.97 19.2868 623.083 19.4695C623.196 19.6408 623.411 19.8121 623.728 19.9606C624.045 20.109 624.487 20.2689 625.064 20.4173L625.586 20.554C626.065 20.679 626.633 20.8276 627.284 20.9997C627.555 21.0568 627.94 21.1596 628.427 21.2966C628.914 21.4336 629.39 21.6734 629.877 21.9932C630.352 22.3129 630.771 22.7354 631.122 23.2607C631.473 23.786 631.643 24.4711 631.643 25.2933C631.643 25.967 631.507 26.5951 631.247 27.1774C630.986 27.7598 630.601 28.2623 630.092 28.6733C629.582 29.0958 628.937 29.427 628.189 29.6554C627.442 29.8838 626.548 30.0094 625.551 30.0094C624.747 30.0094 623.966 29.9066 623.207 29.7125C622.449 29.5069 621.781 29.1986 621.203 28.7761C620.626 28.3536 620.161 27.8055 619.822 27.1432C619.482 26.4809 619.312 25.693 619.323 24.7908H622.437C622.437 25.2819 622.528 25.7044 622.709 26.0584L622.675 26.0127ZM631.96 14.8791V17.6082H636.342V29.644H639.558V17.6082H643.951V14.8791H631.96ZM655.999 28.5249C654.889 29.4955 653.36 29.9751 651.402 29.9751C649.443 29.9751 647.88 29.4955 646.793 28.5249C645.706 27.5657 645.163 26.0698 645.163 24.06V14.8791H648.378V24.06C648.378 24.4597 648.412 24.8479 648.48 25.2362C648.548 25.6244 648.695 25.967 648.911 26.2639C649.126 26.5608 649.431 26.8006 649.828 26.9947C650.213 27.1774 650.745 27.2688 651.402 27.2688C652.545 27.2688 653.338 27.0176 653.779 26.4923C654.221 25.967 654.436 25.1677 654.436 24.06V14.8791H657.652V24.06C657.652 26.0584 657.097 27.5428 655.987 28.5135L655.999 28.5249ZM668.964 15.3358C668.148 15.0275 667.265 14.8791 666.325 14.8791H660.007V29.6668H666.325C667.446 29.6668 668.42 29.4727 669.247 29.0958C670.073 28.7076 670.764 28.1937 671.319 27.5314C671.874 26.8691 672.293 26.0812 672.564 25.1677C672.836 24.2542 672.972 23.2607 672.972 22.1873C672.972 20.954 672.813 19.8921 672.474 18.9785C672.134 18.0764 671.67 17.3113 671.081 16.7061C670.481 16.0895 669.779 15.6327 668.964 15.3358ZM667.458 26.6864C667.016 26.8463 666.563 26.9148 666.099 26.9148H663.234V17.6082H665.533C666.325 17.6082 666.993 17.7224 667.537 17.9508C668.08 18.1792 668.511 18.5103 668.839 18.9329C669.167 19.3554 669.394 19.8806 669.541 20.4744C669.688 21.0682 669.756 21.742 669.756 22.4842C669.756 23.2949 669.654 23.9915 669.45 24.551C669.235 25.122 668.964 25.5788 668.624 25.9328C668.284 26.2753 667.899 26.538 667.458 26.6864ZM678.022 14.8791V29.644H674.806V14.8791H678.022ZM681.713 16.7861C681.102 17.4826 680.626 18.3048 680.298 19.2526C679.97 20.2004 679.8 21.2509 679.8 22.3243C679.8 23.3977 679.97 24.3912 680.298 25.3275C680.626 26.2639 681.102 27.0747 681.713 27.7598C682.325 28.445 683.083 28.9931 683.978 29.3813C684.872 29.7696 685.869 29.9637 687.001 29.9637C688.133 29.9637 689.153 29.781 690.036 29.3813C690.919 28.9931 691.678 28.445 692.289 27.7598C692.9 27.0747 693.376 26.2525 693.704 25.3275C694.033 24.4026 694.203 23.432 694.203 22.3243C694.203 21.2167 694.033 20.189 693.704 19.2526C693.376 18.3162 692.9 17.4826 692.289 16.7861C691.678 16.0895 690.919 15.53 690.036 15.1303C689.153 14.7306 688.122 14.5251 687.001 14.5251C685.88 14.5251 684.872 14.7306 683.978 15.1303C683.083 15.53 682.325 16.0895 681.713 16.7861ZM683.933 25.7158C683.616 25.2476 683.389 24.7109 683.242 24.1285C683.095 23.5462 683.027 22.9752 683.027 22.3243C683.027 21.6734 683.095 21.0454 683.242 20.4402C683.389 19.835 683.616 19.2983 683.933 18.8187C684.25 18.3505 684.657 17.9622 685.167 17.6882C685.676 17.4027 686.288 17.2657 687.012 17.2657C687.737 17.2657 688.349 17.4027 688.858 17.6882C689.368 17.9622 689.775 18.3505 690.092 18.8187C690.409 19.2983 690.636 19.835 690.783 20.4402C690.93 21.0454 690.998 21.7077 690.998 22.3243C690.998 22.941 690.93 23.5462 690.783 24.1285C690.636 24.7223 690.409 25.2476 690.092 25.7158C689.775 26.184 689.368 26.5722 688.858 26.8463C688.349 27.1318 687.737 27.2688 687.012 27.2688C686.288 27.2688 685.676 27.1318 685.167 26.8463C684.657 26.5608 684.25 26.184 683.933 25.7158ZM694.588 31.6994V29.3813H697.09V15.1646H694.588V12.8465H700V31.6994H694.588ZM124.327 15.9411H131.834L132.491 22.4271H132.672C134.064 20.109 136.352 18.0993 138.605 16.7861C140.858 15.4615 143.338 15.4386 146.067 15.4386C150.619 15.4386 154.197 16.6262 156.812 19.0014C159.428 21.3765 160.741 24.9393 160.741 29.6782V57.7578H151.592V32.4416C151.491 29.1529 150.789 26.7663 149.509 25.2819C148.23 23.7974 146.214 23.0551 143.497 23.0551C141.945 23.0551 140.553 23.3406 139.33 23.9116C138.095 24.4825 137.054 25.259 136.204 26.2525C135.344 27.2574 134.676 28.091 134.2 29.4384C133.725 30.7859 133.476 32.2133 133.476 33.7206V57.7578H124.327V15.9411ZM185.618 51.4658C180.138 51.4658 173.57 47.1608 173.57 39.2474H204.063C204.437 36.1186 204.233 33.0925 203.463 30.1464C202.693 27.2117 201.448 24.6081 199.738 22.3357C198.017 20.0748 195.865 18.2477 193.273 16.8774C190.68 15.5071 187.747 14.8106 184.486 14.8106C181.383 14.8106 178.598 15.4044 176.141 16.5919C173.684 17.7681 171.589 19.3782 169.845 21.3994C168.113 23.432 166.777 25.7729 165.837 28.445C164.897 31.117 164.433 33.9375 164.433 36.8951C164.433 45.4937 169.483 58.8997 185.471 58.8997C187.724 58.8997 189.887 58.5914 191.936 57.9747C193.986 57.3581 195.854 56.4446 197.507 55.2227C199.16 54.0123 200.576 52.5164 201.753 50.735C202.931 48.9536 203.758 46.9325 204.245 44.6601H195.582C194.778 46.9896 193.714 48.5768 192.084 49.7301C190.442 50.8835 188.29 51.4658 185.618 51.4658ZM193.997 28.9702C194.495 30.3291 194.812 31.3797 194.914 32.8299H173.582C173.638 31.2655 173.944 30.1578 174.51 28.8104C175.065 27.4629 175.812 26.2982 176.752 25.2933C177.692 24.2998 178.813 23.5233 180.126 22.9524C181.44 22.3814 182.946 22.0959 184.497 22.0959C186.048 22.0959 187.452 22.4157 188.709 23.0323C189.966 23.6489 191.031 24.4597 191.914 25.4532C192.797 26.458 193.488 27.6228 193.997 28.9702ZM110.173 15.9411H119.322V57.7578H110.173V15.9411ZM119.967 5.2642C119.967 8.17154 117.63 10.5284 114.747 10.5284C111.865 10.5284 109.528 8.17154 109.528 5.2642C109.528 2.35686 111.865 0 114.747 0C117.63 0 119.967 2.35686 119.967 5.2642ZM53.0483 15.9411H62.1973V57.7578H53.0483V15.9411ZM62.8427 5.2642C62.8427 8.17154 60.5057 10.5284 57.6228 10.5284C54.7399 10.5284 52.4029 8.17154 52.4029 5.2642C52.4029 2.35686 54.7399 0 57.6228 0C60.5057 0 62.8427 2.35686 62.8427 5.2642ZM97.5591 15.9411L86.723 48.063H86.5531L76.2605 15.9411H66.3415L81.7295 57.7578H91.9315L107.014 15.9411H97.5591ZM530.868 57.084C533.45 58.1803 536.394 58.7284 539.7 58.7284C543.006 58.7284 545.95 58.1803 548.532 57.084C551.125 55.9764 553.299 54.4576 555.088 52.5278C556.877 50.5866 558.236 48.2799 559.164 45.5964C560.104 42.9015 560.568 39.8869 560.568 36.7238C560.568 33.5607 560.093 30.626 559.164 27.9425C558.236 25.259 556.877 22.9524 555.088 21.0111C553.299 19.0813 551.114 17.5511 548.532 16.4549C545.95 15.3587 543.006 14.7991 539.7 14.7991C536.394 14.7991 533.45 15.3587 530.868 16.4549C528.275 17.5626 526.09 19.0813 524.312 21.0111C522.523 22.9524 521.164 25.259 520.236 27.9425C519.307 30.626 518.843 33.4922 518.843 36.7238C518.843 39.9554 519.307 42.9129 520.236 45.5964C521.164 48.2799 522.523 50.5866 524.312 52.5278C526.101 54.4576 528.286 55.9878 530.868 57.084ZM544.977 49.89C543.482 50.7236 541.727 51.1461 539.7 51.1461C537.673 51.1461 535.918 50.7236 534.424 49.89C532.929 49.045 531.706 47.9488 530.744 46.5785C529.781 45.2196 529.079 43.678 528.626 41.9766C528.173 40.2637 527.947 38.4595 527.947 36.7352C527.947 35.0109 528.173 33.2752 528.626 31.5395C529.079 29.8038 529.781 28.2737 530.744 26.9376C531.706 25.6016 532.929 24.5054 534.424 23.6718C535.918 22.8268 537.673 22.4043 539.7 22.4043C541.727 22.4043 543.482 22.8382 544.977 23.6718C546.471 24.5054 547.694 25.5902 548.657 26.9376C549.619 28.2737 550.321 29.8038 550.774 31.5395C551.227 33.2638 551.453 34.9424 551.453 36.7352C551.453 38.528 551.227 40.2637 550.774 41.9766C550.321 43.678 549.619 45.2196 548.657 46.5785C547.694 47.9488 546.471 49.0564 544.977 49.89ZM316.218 15.941H323.578L324.801 24.7337H324.959C326.273 20.8056 330.7 15.7583 340.528 15.7583V24.7337C329.545 24.2541 326.839 30.7288 326.25 32.4987C325.661 34.2687 325.367 36.3241 325.367 38.6536V57.7692H316.218V15.941ZM459.816 49.0222C459.816 49.673 460.337 50.1983 460.982 50.1983L460.96 50.2097H464.289V57.7692H458.072C454.63 57.7692 452.105 55.257 451.981 51.8084L451.822 51.8313C450.135 54.7774 447.327 56.8785 444.677 57.6892C442.028 58.5 439.469 58.8997 437.012 58.8997C435.132 58.8997 433.343 58.6485 431.633 58.1346C429.923 57.6207 428.418 56.8671 427.104 55.8622C425.802 54.8687 424.749 53.6012 423.979 52.0596C423.198 50.5295 422.813 48.7367 422.813 46.6812C422.813 44.0891 423.288 41.988 424.217 40.3665C425.156 38.7564 426.379 37.4889 427.908 36.5639C429.437 35.6504 431.146 34.9881 433.049 34.5884C434.951 34.1888 436.864 33.8804 438.789 33.6635C440.443 33.3323 442.028 33.1039 443.522 32.9669C445.017 32.8299 446.342 32.6015 447.497 32.2818C448.652 31.962 449.558 31.4596 450.226 30.7859C450.894 30.1121 451.233 29.0958 451.233 27.7484C451.233 26.5608 450.95 25.5902 450.384 24.8365C449.829 24.0829 449.127 23.5005 448.301 23.1008C447.474 22.7012 446.557 22.4271 445.538 22.2901C444.519 22.1645 443.556 22.0845 442.651 22.0845C440.08 22.0845 437.963 22.6326 436.31 23.706C434.656 24.7794 433.717 26.458 433.502 28.719H424.353C424.511 26.0241 425.156 23.786 426.277 22.0046C427.398 20.2346 428.825 18.8072 430.569 17.7224C432.313 16.649 434.272 15.8954 436.468 15.4614C438.665 15.0275 440.907 14.8106 443.205 14.8106C445.244 14.8106 447.248 15.0275 449.229 15.4614C451.199 15.8954 452.988 16.5919 454.562 17.5626C456.148 18.5218 457.416 19.7893 458.378 21.3194C459.341 22.861 459.816 24.7338 459.816 26.9491V49.0222ZM449.626 47.3664C450.316 46.3729 450.667 45.1511 450.667 43.6894L450.645 43.6666V36.7923C449.252 37.7173 447.542 38.2768 445.515 38.4595C443.477 38.6422 441.439 38.9277 439.412 39.3045C438.45 39.4644 437.51 39.6928 436.604 39.9897C435.698 40.2866 434.894 40.6976 434.204 41.2115C433.513 41.7254 432.958 42.3991 432.562 43.2327C432.165 44.0663 431.962 45.0826 431.962 46.2702C431.962 47.2979 432.256 48.1657 432.845 48.8623C433.434 49.5589 434.147 50.1184 434.974 50.5181C435.8 50.9177 436.717 51.2032 437.702 51.3631C438.699 51.5229 439.593 51.6029 440.397 51.6029C441.416 51.6029 442.515 51.4773 443.692 51.2032C444.87 50.9406 445.98 50.4838 447.021 49.8329C448.063 49.1934 448.923 48.3713 449.626 47.3664ZM227.015 0H252.288C256.353 0 259.671 0.593793 262.241 1.78138C264.811 2.96896 266.793 4.45345 268.186 6.23482C269.578 8.0162 270.529 9.95745 271.028 12.0586C271.537 14.1597 271.786 16.1009 271.786 17.8823C271.786 19.6637 271.526 21.5935 271.028 23.6718C270.518 25.75 269.567 27.6799 268.186 29.4498C266.793 31.2312 264.811 32.7043 262.241 33.869C259.671 35.0224 256.353 35.6047 252.288 35.6047H237.047V57.7806H227.015V0ZM237.047 27.3487H251.733C252.854 27.3487 254.009 27.1889 255.187 26.8691C256.364 26.5494 257.44 26.0127 258.436 25.2819C259.433 24.551 260.225 23.5804 260.848 22.37C261.46 21.1482 261.765 19.6294 261.765 17.7909C261.765 15.9525 261.494 14.3424 260.961 13.0977C260.429 11.8644 259.705 10.871 258.787 10.1402C257.882 9.40933 256.84 8.91831 255.662 8.64425C254.485 8.37019 253.228 8.24458 251.892 8.24458H237.047V27.3487ZM571.722 15.9411H564.214V57.7578H573.363V33.7206C573.363 32.2133 573.612 30.7859 574.088 29.4384C574.564 28.091 575.232 27.2574 576.092 26.2525C576.941 25.259 577.983 24.4825 579.217 23.9116C580.44 23.3406 581.833 23.0551 583.384 23.0551C586.102 23.0551 588.117 23.7974 589.397 25.2819C590.676 26.7663 591.378 29.1529 591.48 32.4416V57.7578H600.629V29.6782C600.629 24.9393 599.316 21.3765 596.7 19.0014C594.084 16.6262 590.506 15.4386 585.955 15.4386C583.226 15.4386 580.746 15.4615 578.493 16.7861C576.239 18.0993 573.952 20.109 572.559 22.4271H572.378L571.722 15.9411ZM280.935 39.2474C280.935 47.1608 287.503 51.4658 292.983 51.4658C295.655 51.4658 297.807 50.8835 299.448 49.7301C301.079 48.5768 302.143 46.9896 302.947 44.6601H311.609C311.122 46.9325 310.296 48.9536 309.118 50.735C307.941 52.5164 306.525 54.0123 304.872 55.2227C303.219 56.4446 301.351 57.3581 299.301 57.9747C297.252 58.5914 295.089 58.8997 292.836 58.8997C276.848 58.8997 271.798 45.4937 271.798 36.8951C271.798 33.9375 272.262 31.117 273.202 28.445C274.141 25.7729 275.478 23.432 277.21 21.3994C278.954 19.3782 281.049 17.7681 283.506 16.5919C285.963 15.4044 288.748 14.8106 291.851 14.8106C295.112 14.8106 298.044 15.5071 300.637 16.8774C303.23 18.2477 305.382 20.0748 307.103 22.3357C308.813 24.6081 310.058 27.2117 310.828 30.1464C311.598 33.0925 311.802 36.1186 311.428 39.2474H280.935ZM302.279 32.8299C302.177 31.3797 301.86 30.3291 301.362 28.9702C300.852 27.6228 300.162 26.458 299.279 25.4532C298.395 24.4597 297.331 23.6489 296.074 23.0323C294.817 22.4157 293.413 22.0959 291.862 22.0959C290.311 22.0959 288.805 22.3814 287.491 22.9524C286.178 23.5233 285.057 24.2998 284.117 25.2933C283.177 26.2982 282.43 27.4629 281.875 28.8104C281.309 30.1578 281.003 31.2655 280.947 32.8299H302.279ZM354.795 50.0042C353.029 48.9194 352.021 47.0352 351.749 44.3403L351.738 44.3746H342.589C342.646 46.8525 343.133 48.9993 344.072 50.8035C345.001 52.6078 346.292 54.1151 347.922 55.3369C349.553 56.5473 351.478 57.4494 353.697 58.0432C355.916 58.637 358.339 58.9339 360.955 58.9339C363.095 58.9339 365.258 58.6941 367.454 58.2031C369.651 57.7235 371.644 56.9356 373.433 55.8622C375.222 54.7774 376.683 53.3843 377.804 51.6485C378.925 49.9128 379.491 47.8117 379.491 45.3338C379.491 43.2784 379.094 41.5541 378.324 40.1495C377.555 38.745 376.535 37.5802 375.279 36.6667C374.022 35.7418 372.595 35.0109 370.987 34.4742C369.379 33.9261 367.76 33.4694 366.096 33.0925C364.386 32.7157 362.733 32.3617 361.125 32.042C359.517 31.7222 358.09 31.3226 356.833 30.8658C355.577 30.409 354.557 29.8381 353.788 29.1301C353.006 28.4335 352.621 27.5086 352.621 26.3781C352.621 25.4646 352.893 24.7223 353.425 24.1514C353.957 23.5918 354.614 23.1579 355.395 22.861C356.177 22.5641 357.003 22.3586 357.886 22.2558C358.77 22.153 359.528 22.0959 360.174 22.0959C362.201 22.0959 364.012 22.4728 365.586 23.2264C367.16 23.9801 368.168 25.4646 368.598 27.6799H378.143C377.872 25.3618 377.215 23.3749 376.173 21.7305C375.131 20.0862 373.818 18.7501 372.244 17.7224C370.659 16.6947 368.892 15.9525 366.945 15.4957C364.997 15.0389 362.948 14.8106 360.808 14.8106C358.928 14.8106 356.969 15.0047 354.909 15.3815C352.848 15.7698 350.979 16.4321 349.292 17.3684C347.616 18.3162 346.224 19.5495 345.125 21.0911C344.027 22.6326 343.484 24.5396 343.484 26.8006C343.484 28.9017 343.857 30.6717 344.605 32.0991C345.352 33.5265 346.36 34.7026 347.616 35.6161C348.873 36.5297 350.3 37.2605 351.874 37.7972C353.459 38.3453 355.101 38.8021 356.811 39.1789C358.464 39.5557 360.094 39.9097 361.702 40.2295C363.31 40.5492 364.737 40.9489 365.994 41.4056C367.251 41.8624 368.281 42.4676 369.085 43.2213C369.889 43.9749 370.308 44.9455 370.364 46.1331C370.421 47.3093 370.138 48.2685 369.527 48.9993C368.915 49.7187 368.122 50.2783 367.16 50.6551C366.198 51.0319 365.167 51.2831 364.069 51.4202C362.97 51.5572 361.985 51.6257 361.136 51.6257C358.668 51.6257 356.562 51.089 354.795 50.0042ZM475.476 44.3403C475.748 47.0352 476.755 48.9194 478.522 50.0042C480.288 51.089 482.394 51.6257 484.863 51.6257C485.712 51.6257 486.697 51.5572 487.795 51.4202C488.894 51.2831 489.924 51.0319 490.887 50.6551C491.849 50.2783 492.642 49.7187 493.253 48.9993C493.865 48.2685 494.148 47.3093 494.091 46.1331C494.034 44.9455 493.615 43.9749 492.811 43.2213C492.008 42.4676 490.977 41.8624 489.72 41.4056C488.463 40.9489 487.037 40.5492 485.429 40.2295C483.821 39.9097 482.191 39.5557 480.537 39.1789C478.828 38.8021 477.186 38.3453 475.6 37.7972C474.027 37.2605 472.6 36.5297 471.343 35.6161C470.086 34.7026 469.078 33.5265 468.331 32.0991C467.584 30.6717 467.21 28.9017 467.21 26.8006C467.21 24.5396 467.754 22.6326 468.852 21.0911C469.95 19.5495 471.343 18.3162 473.019 17.3684C474.706 16.4321 476.574 15.7698 478.635 15.3815C480.696 15.0047 482.655 14.8106 484.534 14.8106C486.674 14.8106 488.724 15.0389 490.671 15.4957C492.619 15.9525 494.385 16.6947 495.971 17.7224C497.544 18.7501 498.858 20.0862 499.9 21.7305C500.941 23.3749 501.598 25.3618 501.87 27.6799H492.325C491.894 25.4646 490.887 23.9801 489.313 23.2264C487.739 22.4728 485.927 22.0959 483.9 22.0959C483.255 22.0959 482.496 22.153 481.613 22.2558C480.73 22.3586 479.903 22.5641 479.122 22.861C478.341 23.1579 477.684 23.5918 477.152 24.1514C476.62 24.7223 476.348 25.4646 476.348 26.3781C476.348 27.5086 476.733 28.4335 477.514 29.1301C478.284 29.8381 479.303 30.409 480.56 30.8658C481.817 31.3226 483.244 31.7222 484.851 32.042C486.459 32.3617 488.112 32.7157 489.822 33.0925C491.487 33.4694 493.106 33.9261 494.714 34.4742C496.322 35.0109 497.748 35.7418 499.005 36.6667C500.262 37.5802 501.281 38.745 502.051 40.1495C502.821 41.5541 503.217 43.2784 503.217 45.3338C503.217 47.8117 502.651 49.9128 501.53 51.6485C500.409 53.3843 498.949 54.7774 497.16 55.8622C495.37 56.9356 493.378 57.7235 491.181 58.2031C488.984 58.6941 486.822 58.9339 484.682 58.9339C482.066 58.9339 479.643 58.637 477.424 58.0432C475.204 57.4494 473.279 56.5473 471.649 55.3369C470.018 54.1151 468.727 52.6078 467.799 50.8035C466.859 48.9993 466.372 46.8525 466.316 44.3746H475.465L475.476 44.3403ZM419.223 15.9411V57.7578H411.648L411.059 51.9112H410.878C409.485 54.2293 407.187 56.2276 404.945 57.5522C402.692 58.8768 400.212 58.8997 397.483 58.8997C392.943 58.8997 389.353 57.7007 386.737 55.3369C384.122 52.9617 382.808 49.399 382.808 44.6601V15.9411H391.957V41.8966C392.059 45.1853 392.761 47.5719 394.041 49.0564C395.32 50.5409 397.325 51.2831 400.053 51.2831C401.605 51.2831 402.997 50.9862 404.22 50.4267C405.443 49.8672 406.496 49.0793 407.345 48.0858C408.206 47.0809 408.874 46.2473 409.35 44.8999C409.836 43.5524 410.074 42.125 410.074 40.6177V15.9411H419.223ZM506.512 15.9411H515.661V57.7578H506.512V15.9411ZM516.307 5.2642C516.307 8.17154 513.97 10.5284 511.087 10.5284C508.204 10.5284 505.867 8.17154 505.867 5.2642C505.867 2.35686 508.204 0 511.087 0C513.97 0 516.307 2.35686 516.307 5.2642Z" fill="white"/>
</svg>
