<svg width="111" height="50" viewBox="0 0 111 50" fill="none" xmlns="http://www.w3.org/2000/svg">
<path fill-rule="evenodd" clip-rule="evenodd" d="M16.0716 9.85574L8.34582 0L0.581055 9.86168L4.87077 8.935V35.9869H11.7971V8.9316L16.0716 9.85574ZM38.1226 34.092C47.0805 34.092 53.8626 27.6035 53.8626 19.1472H53.8618C53.8618 10.6483 47.0805 4.28547 38.1218 4.28547C29.163 4.28547 22.3818 10.6492 22.3818 19.1472C22.3818 27.6451 29.1647 34.092 38.1226 34.092ZM38.2058 28.3147C33.3076 28.3147 29.163 24.2965 29.163 19.1472C29.163 13.9978 33.3076 10.0628 38.2058 10.0628C43.104 10.0628 47.0805 13.9986 47.0805 19.1472C47.0805 24.2957 43.104 28.3147 38.2058 28.3147ZM48.1914 39.9779L47.4964 40.8435C46.983 40.2894 46.2481 39.9474 45.5327 39.9474C44.1231 39.9474 43.0157 41.0345 43.0157 42.4245C43.0157 43.8145 44.1231 44.9117 45.5327 44.9117C46.237 44.9117 46.9626 44.5893 47.4964 44.0759L48.2007 44.8617C47.4862 45.566 46.4687 46.0192 45.4724 46.0192C43.4086 46.0192 41.8073 44.4586 41.8073 42.4347C41.8073 40.4107 43.4281 38.8909 45.5123 38.8909C46.5086 38.8909 47.5057 39.3033 48.1905 39.9779H48.1914ZM59.3675 45.9683V43.0482H55.632V45.9683H54.4439V38.9197H55.632V41.9807H59.3675V38.9197H60.5556V45.9683H59.3675ZM70.3715 46.0192C72.2749 46.0192 73.4324 44.8914 73.4324 43.0491V38.9206H72.2443V43.0491C72.2443 44.2464 71.54 44.9516 70.3816 44.9516C69.2233 44.9516 68.4884 44.2371 68.4884 43.0491V38.9206H67.3003V43.0491C67.3003 44.8914 68.468 46.0192 70.3715 46.0192ZM83.3501 43.834C83.2491 43.8442 83.1388 43.8442 83.0276 43.8442H81.3567V45.9683H80.1686V38.9197H83.0285C84.8309 38.9197 85.8679 39.7955 85.8679 41.3264C85.8679 42.4542 85.3443 43.2493 84.4083 43.6117L85.9892 45.9674H84.64L83.3509 43.8332L83.3501 43.834ZM83.0276 42.7766C84.1147 42.7766 84.7392 42.3133 84.7392 41.3569C84.7392 40.4005 84.1147 39.9873 83.0276 39.9873H81.3567V42.7766H83.0276ZM97.5863 40.8435L98.2813 39.9779H98.2805C97.5957 39.3033 96.5985 38.8909 95.6023 38.8909C93.5181 38.8909 91.8972 40.4107 91.8972 42.4347C91.8972 44.4586 93.4986 46.0192 95.5624 46.0192C96.5587 46.0192 97.5761 45.566 98.2907 44.8617L97.5863 44.0759C97.0525 44.5893 96.327 44.9117 95.6226 44.9117C94.2131 44.9117 93.1057 43.8145 93.1057 42.4245C93.1057 41.0345 94.2131 39.9474 95.6226 39.9474C96.338 39.9474 97.0729 40.2894 97.5863 40.8435ZM109.457 45.9683V43.0482H105.721V45.9683H104.533V38.9197H105.721V41.9807H109.457V38.9197H110.645V45.9683H109.457ZM94.3845 9.97878V16.3417H108.534V21.8254H94.3845V28.3138H110.544V33.7975H87.7705V4.49508H110.575V9.97878H94.3854H94.3845ZM54.5738 4.49508L66.086 33.7992H67.1739H72.9096L84.5475 4.49508H77.7238L69.6858 26.5988L69.2555 25.4073L61.6902 4.49508H54.5738ZM25.2102 34.3941L34.9989 42.2166L25.2162 50L26.1327 45.6933H4.87841V38.7152H26.1301L25.2102 34.3941Z" fill="#221F20"/>
</svg>
