<svg width="427" height="466" viewBox="0 0 427 466" fill="none" xmlns="http://www.w3.org/2000/svg">
<g clip-path="url(#clip0_19_5305)">
<path d="M211.793 431.682C212.636 431.682 213.318 430.998 213.318 430.155C213.318 429.311 212.636 428.627 211.793 428.627C210.951 428.627 210.268 429.311 210.268 430.155C210.268 430.998 210.951 431.682 211.793 431.682Z" fill="#96BDBE"/>
<path d="M211.793 388.819C212.636 388.819 213.318 388.135 213.318 387.292C213.318 386.448 212.636 385.765 211.793 385.765C210.951 385.765 210.268 386.448 210.268 387.292C210.268 388.135 210.951 388.819 211.793 388.819Z" fill="#96BDBE"/>
<path d="M211.793 345.956C212.636 345.956 213.318 345.273 213.318 344.429C213.318 343.586 212.636 342.902 211.793 342.902C210.951 342.902 210.268 343.586 210.268 344.429C210.268 345.273 210.951 345.956 211.793 345.956Z" fill="#96BDBE"/>
<path d="M211.793 303.093C212.636 303.093 213.318 302.41 213.318 301.566C213.318 300.723 212.636 300.039 211.793 300.039C210.951 300.039 210.268 300.723 210.268 301.566C210.268 302.41 210.951 303.093 211.793 303.093Z" fill="#96BDBE"/>
<path d="M211.793 260.231C212.636 260.231 213.318 259.547 213.318 258.704C213.318 257.86 212.636 257.177 211.793 257.177C210.951 257.177 210.268 257.86 210.268 258.704C210.268 259.547 210.951 260.231 211.793 260.231Z" fill="#96BDBE"/>
<path d="M211.793 217.368C212.636 217.368 213.318 216.684 213.318 215.841C213.318 214.997 212.636 214.314 211.793 214.314C210.951 214.314 210.268 214.997 210.268 215.841C210.268 216.684 210.951 217.368 211.793 217.368Z" fill="#96BDBE"/>
<path d="M211.793 174.505C212.636 174.505 213.318 173.822 213.318 172.978C213.318 172.135 212.636 171.451 211.793 171.451C210.951 171.451 210.268 172.135 210.268 172.978C210.268 173.822 210.951 174.505 211.793 174.505Z" fill="#96BDBE"/>
<path d="M211.793 131.643C212.636 131.643 213.318 130.959 213.318 130.115C213.318 129.272 212.636 128.588 211.793 128.588C210.951 128.588 210.268 129.272 210.268 130.115C210.268 130.959 210.951 131.643 211.793 131.643Z" fill="#96BDBE"/>
<path d="M211.793 88.78C212.636 88.78 213.318 88.0962 213.318 87.2528C213.318 86.4093 212.636 85.7256 211.793 85.7256C210.951 85.7256 210.268 86.4093 210.268 87.2528C210.268 88.0962 210.951 88.78 211.793 88.78Z" fill="#96BDBE"/>
<path d="M211.793 45.9172C212.636 45.9172 213.318 45.2334 213.318 44.39C213.318 43.5465 212.636 42.8628 211.793 42.8628C210.951 42.8628 210.268 43.5465 210.268 44.39C210.268 45.2334 210.951 45.9172 211.793 45.9172Z" fill="#96BDBE"/>
<path d="M211.793 3.0544C212.636 3.0544 213.318 2.37065 213.318 1.5272C213.318 0.68375 212.636 0 211.793 0C210.951 0 210.268 0.68375 210.268 1.5272C210.268 2.37065 210.951 3.0544 211.793 3.0544Z" fill="#96BDBE"/>
<path d="M169.742 431.682C170.585 431.682 171.268 430.998 171.268 430.155C171.268 429.311 170.585 428.627 169.742 428.627C168.9 428.627 168.217 429.311 168.217 430.155C168.217 430.998 168.9 431.682 169.742 431.682Z" fill="#96BDBE"/>
<path d="M169.742 388.819C170.585 388.819 171.268 388.135 171.268 387.292C171.268 386.448 170.585 385.765 169.742 385.765C168.9 385.765 168.217 386.448 168.217 387.292C168.217 388.135 168.9 388.819 169.742 388.819Z" fill="#96BDBE"/>
<path d="M169.742 345.956C170.585 345.956 171.268 345.273 171.268 344.429C171.268 343.586 170.585 342.902 169.742 342.902C168.9 342.902 168.217 343.586 168.217 344.429C168.217 345.273 168.9 345.956 169.742 345.956Z" fill="#96BDBE"/>
<path d="M169.742 303.093C170.585 303.093 171.268 302.41 171.268 301.566C171.268 300.723 170.585 300.039 169.742 300.039C168.9 300.039 168.217 300.723 168.217 301.566C168.217 302.41 168.9 303.093 169.742 303.093Z" fill="#96BDBE"/>
<path d="M169.742 260.231C170.585 260.231 171.268 259.547 171.268 258.704C171.268 257.86 170.585 257.177 169.742 257.177C168.9 257.177 168.217 257.86 168.217 258.704C168.217 259.547 168.9 260.231 169.742 260.231Z" fill="#96BDBE"/>
<path d="M169.742 217.368C170.585 217.368 171.268 216.684 171.268 215.841C171.268 214.997 170.585 214.314 169.742 214.314C168.9 214.314 168.217 214.997 168.217 215.841C168.217 216.684 168.9 217.368 169.742 217.368Z" fill="#96BDBE"/>
<path d="M169.742 174.505C170.585 174.505 171.268 173.822 171.268 172.978C171.268 172.135 170.585 171.451 169.742 171.451C168.9 171.451 168.217 172.135 168.217 172.978C168.217 173.822 168.9 174.505 169.742 174.505Z" fill="#96BDBE"/>
<path d="M169.742 131.643C170.585 131.643 171.268 130.959 171.268 130.115C171.268 129.272 170.585 128.588 169.742 128.588C168.9 128.588 168.217 129.272 168.217 130.115C168.217 130.959 168.9 131.643 169.742 131.643Z" fill="#96BDBE"/>
<path d="M169.742 88.78C170.585 88.78 171.268 88.0962 171.268 87.2528C171.268 86.4093 170.585 85.7256 169.742 85.7256C168.9 85.7256 168.217 86.4093 168.217 87.2528C168.217 88.0962 168.9 88.78 169.742 88.78Z" fill="#96BDBE"/>
<path d="M169.742 45.9172C170.585 45.9172 171.268 45.2334 171.268 44.39C171.268 43.5465 170.585 42.8628 169.742 42.8628C168.9 42.8628 168.217 43.5465 168.217 44.39C168.217 45.2334 168.9 45.9172 169.742 45.9172Z" fill="#96BDBE"/>
<path d="M169.742 3.0544C170.585 3.0544 171.268 2.37065 171.268 1.5272C171.268 0.68375 170.585 0 169.742 0C168.9 0 168.217 0.68375 168.217 1.5272C168.217 2.37065 168.9 3.0544 169.742 3.0544Z" fill="#96BDBE"/>
<path d="M127.687 431.682C128.53 431.682 129.213 430.998 129.213 430.155C129.213 429.311 128.53 428.627 127.687 428.627C126.845 428.627 126.162 429.311 126.162 430.155C126.162 430.998 126.845 431.682 127.687 431.682Z" fill="#96BDBE"/>
<path d="M127.687 388.819C128.53 388.819 129.213 388.135 129.213 387.292C129.213 386.448 128.53 385.765 127.687 385.765C126.845 385.765 126.162 386.448 126.162 387.292C126.162 388.135 126.845 388.819 127.687 388.819Z" fill="#96BDBE"/>
<path d="M127.687 345.956C128.53 345.956 129.213 345.273 129.213 344.429C129.213 343.586 128.53 342.902 127.687 342.902C126.845 342.902 126.162 343.586 126.162 344.429C126.162 345.273 126.845 345.956 127.687 345.956Z" fill="#96BDBE"/>
<path d="M127.687 303.093C128.53 303.093 129.213 302.41 129.213 301.566C129.213 300.723 128.53 300.039 127.687 300.039C126.845 300.039 126.162 300.723 126.162 301.566C126.162 302.41 126.845 303.093 127.687 303.093Z" fill="#96BDBE"/>
<path d="M127.687 260.231C128.53 260.231 129.213 259.547 129.213 258.704C129.213 257.86 128.53 257.177 127.687 257.177C126.845 257.177 126.162 257.86 126.162 258.704C126.162 259.547 126.845 260.231 127.687 260.231Z" fill="#96BDBE"/>
<path d="M127.687 217.368C128.53 217.368 129.213 216.684 129.213 215.841C129.213 214.997 128.53 214.314 127.687 214.314C126.845 214.314 126.162 214.997 126.162 215.841C126.162 216.684 126.845 217.368 127.687 217.368Z" fill="#96BDBE"/>
<path d="M127.687 174.505C128.53 174.505 129.213 173.822 129.213 172.978C129.213 172.135 128.53 171.451 127.687 171.451C126.845 171.451 126.162 172.135 126.162 172.978C126.162 173.822 126.845 174.505 127.687 174.505Z" fill="#96BDBE"/>
<path d="M127.687 131.643C128.53 131.643 129.213 130.959 129.213 130.115C129.213 129.272 128.53 128.588 127.687 128.588C126.845 128.588 126.162 129.272 126.162 130.115C126.162 130.959 126.845 131.643 127.687 131.643Z" fill="#96BDBE"/>
<path d="M127.687 88.78C128.53 88.78 129.213 88.0962 129.213 87.2528C129.213 86.4093 128.53 85.7256 127.687 85.7256C126.845 85.7256 126.162 86.4093 126.162 87.2528C126.162 88.0962 126.845 88.78 127.687 88.78Z" fill="#96BDBE"/>
<path d="M127.687 45.9172C128.53 45.9172 129.213 45.2334 129.213 44.39C129.213 43.5465 128.53 42.8628 127.687 42.8628C126.845 42.8628 126.162 43.5465 126.162 44.39C126.162 45.2334 126.845 45.9172 127.687 45.9172Z" fill="#96BDBE"/>
<path d="M127.687 3.0544C128.53 3.0544 129.213 2.37065 129.213 1.5272C129.213 0.68375 128.53 0 127.687 0C126.845 0 126.162 0.68375 126.162 1.5272C126.162 2.37065 126.845 3.0544 127.687 3.0544Z" fill="#96BDBE"/>
<path d="M85.6363 431.682C86.4788 431.682 87.1617 430.998 87.1617 430.155C87.1617 429.311 86.4788 428.627 85.6363 428.627C84.7938 428.627 84.1108 429.311 84.1108 430.155C84.1108 430.998 84.7938 431.682 85.6363 431.682Z" fill="#96BDBE"/>
<path d="M85.6363 388.819C86.4788 388.819 87.1617 388.135 87.1617 387.292C87.1617 386.448 86.4788 385.765 85.6363 385.765C84.7938 385.765 84.1108 386.448 84.1108 387.292C84.1108 388.135 84.7938 388.819 85.6363 388.819Z" fill="#96BDBE"/>
<path d="M85.6363 345.956C86.4788 345.956 87.1617 345.273 87.1617 344.429C87.1617 343.586 86.4788 342.902 85.6363 342.902C84.7938 342.902 84.1108 343.586 84.1108 344.429C84.1108 345.273 84.7938 345.956 85.6363 345.956Z" fill="#96BDBE"/>
<path d="M85.6363 303.093C86.4788 303.093 87.1617 302.41 87.1617 301.566C87.1617 300.723 86.4788 300.039 85.6363 300.039C84.7938 300.039 84.1108 300.723 84.1108 301.566C84.1108 302.41 84.7938 303.093 85.6363 303.093Z" fill="#96BDBE"/>
<path d="M85.6363 260.231C86.4788 260.231 87.1617 259.547 87.1617 258.704C87.1617 257.86 86.4788 257.177 85.6363 257.177C84.7938 257.177 84.1108 257.86 84.1108 258.704C84.1108 259.547 84.7938 260.231 85.6363 260.231Z" fill="#96BDBE"/>
<path d="M85.6363 217.368C86.4788 217.368 87.1617 216.684 87.1617 215.841C87.1617 214.997 86.4788 214.314 85.6363 214.314C84.7938 214.314 84.1108 214.997 84.1108 215.841C84.1108 216.684 84.7938 217.368 85.6363 217.368Z" fill="#96BDBE"/>
<path d="M85.6363 174.505C86.4788 174.505 87.1617 173.822 87.1617 172.978C87.1617 172.135 86.4788 171.451 85.6363 171.451C84.7938 171.451 84.1108 172.135 84.1108 172.978C84.1108 173.822 84.7938 174.505 85.6363 174.505Z" fill="#96BDBE"/>
<path d="M85.6363 131.643C86.4788 131.643 87.1617 130.959 87.1617 130.115C87.1617 129.272 86.4788 128.588 85.6363 128.588C84.7938 128.588 84.1108 129.272 84.1108 130.115C84.1108 130.959 84.7938 131.643 85.6363 131.643Z" fill="#96BDBE"/>
<path d="M85.6363 88.78C86.4788 88.78 87.1617 88.0962 87.1617 87.2528C87.1617 86.4093 86.4788 85.7256 85.6363 85.7256C84.7938 85.7256 84.1108 86.4093 84.1108 87.2528C84.1108 88.0962 84.7938 88.78 85.6363 88.78Z" fill="#96BDBE"/>
<path d="M85.6363 45.9172C86.4788 45.9172 87.1617 45.2334 87.1617 44.39C87.1617 43.5465 86.4788 42.8628 85.6363 42.8628C84.7938 42.8628 84.1108 43.5465 84.1108 44.39C84.1108 45.2334 84.7938 45.9172 85.6363 45.9172Z" fill="#96BDBE"/>
<path d="M85.6363 3.0544C86.4788 3.0544 87.1617 2.37065 87.1617 1.5272C87.1617 0.68375 86.4788 0 85.6363 0C84.7938 0 84.1108 0.68375 84.1108 1.5272C84.1108 2.37065 84.7938 3.0544 85.6363 3.0544Z" fill="#96BDBE"/>
<path d="M45.1061 430.155C45.1061 429.313 44.4215 428.627 43.5806 428.627C42.7398 428.627 42.0552 429.313 42.0552 430.155C42.0552 430.996 42.7398 431.682 43.5806 431.682C44.4215 431.682 45.1061 430.996 45.1061 430.155Z" fill="#96BDBE"/>
<path d="M45.1061 387.292C45.1061 386.45 44.4215 385.765 43.5806 385.765C42.7398 385.765 42.0552 386.45 42.0552 387.292C42.0552 388.134 42.7398 388.819 43.5806 388.819C44.4215 388.819 45.1061 388.134 45.1061 387.292Z" fill="#96BDBE"/>
<path d="M45.1061 344.429C45.1061 343.587 44.4215 342.902 43.5806 342.902C42.7398 342.902 42.0552 343.587 42.0552 344.429C42.0552 345.271 42.7398 345.956 43.5806 345.956C44.4215 345.956 45.1061 345.271 45.1061 344.429Z" fill="#96BDBE"/>
<path d="M45.1061 301.566C45.1061 300.724 44.4215 300.039 43.5806 300.039C42.7398 300.039 42.0552 300.724 42.0552 301.566C42.0552 302.408 42.7398 303.093 43.5806 303.093C44.4215 303.093 45.1061 302.408 45.1061 301.566Z" fill="#96BDBE"/>
<path d="M45.1061 258.704C45.1061 257.862 44.4215 257.177 43.5806 257.177C42.7398 257.177 42.0552 257.862 42.0552 258.704C42.0552 259.546 42.7398 260.231 43.5806 260.231C44.4215 260.231 45.1061 259.546 45.1061 258.704Z" fill="#96BDBE"/>
<path d="M45.1061 215.841C45.1061 214.999 44.4215 214.314 43.5806 214.314C42.7398 214.314 42.0552 214.999 42.0552 215.841C42.0552 216.683 42.7398 217.368 43.5806 217.368C44.4215 217.368 45.1061 216.683 45.1061 215.841Z" fill="#96BDBE"/>
<path d="M45.1061 172.978C45.1061 172.136 44.4215 171.451 43.5806 171.451C42.7398 171.451 42.0552 172.136 42.0552 172.978C42.0552 173.82 42.7398 174.505 43.5806 174.505C44.4215 174.505 45.1061 173.82 45.1061 172.978Z" fill="#96BDBE"/>
<path d="M45.1061 130.115C45.1061 129.274 44.4215 128.588 43.5806 128.588C42.7398 128.588 42.0552 129.274 42.0552 130.115C42.0552 130.957 42.7398 131.643 43.5806 131.643C44.4215 131.643 45.1061 130.957 45.1061 130.115Z" fill="#96BDBE"/>
<path d="M45.1061 87.2528C45.1061 86.411 44.4215 85.7256 43.5806 85.7256C42.7398 85.7256 42.0552 86.411 42.0552 87.2528C42.0552 88.0946 42.7398 88.78 43.5806 88.78C44.4215 88.78 45.1061 88.0946 45.1061 87.2528Z" fill="#96BDBE"/>
<path d="M45.1061 44.39C45.1061 43.5482 44.4215 42.8628 43.5806 42.8628C42.7398 42.8628 42.0552 43.5482 42.0552 44.39C42.0552 45.2318 42.7398 45.9172 43.5806 45.9172C44.4215 45.9172 45.1061 45.2318 45.1061 44.39Z" fill="#96BDBE"/>
<path d="M45.1061 1.5272C45.1061 0.685399 44.4215 0 43.5806 0C42.7398 0 42.0552 0.685399 42.0552 1.5272C42.0552 2.369 42.7398 3.0544 43.5806 3.0544C44.4215 3.0544 45.1061 2.369 45.1061 1.5272Z" fill="#96BDBE"/>
<path d="M425.475 431.682C426.317 431.682 427 430.998 427 430.155C427 429.311 426.317 428.627 425.475 428.627C424.632 428.627 423.949 429.311 423.949 430.155C423.949 430.998 424.632 431.682 425.475 431.682Z" fill="#96BDBE"/>
<path d="M425.475 388.819C426.317 388.819 427 388.135 427 387.292C427 386.448 426.317 385.764 425.475 385.764C424.632 385.764 423.949 386.448 423.949 387.292C423.949 388.135 424.632 388.819 425.475 388.819Z" fill="#96BDBE"/>
<path d="M425.475 345.956C426.317 345.956 427 345.273 427 344.429C427 343.586 426.317 342.902 425.475 342.902C424.632 342.902 423.949 343.586 423.949 344.429C423.949 345.273 424.632 345.956 425.475 345.956Z" fill="#96BDBE"/>
<path d="M425.475 303.093C426.317 303.093 427 302.41 427 301.566C427 300.723 426.317 300.039 425.475 300.039C424.632 300.039 423.949 300.723 423.949 301.566C423.949 302.41 424.632 303.093 425.475 303.093Z" fill="#96BDBE"/>
<path d="M425.475 260.231C426.317 260.231 427 259.547 427 258.704C427 257.86 426.317 257.177 425.475 257.177C424.632 257.177 423.949 257.86 423.949 258.704C423.949 259.547 424.632 260.231 425.475 260.231Z" fill="#96BDBE"/>
<path d="M425.475 217.368C426.317 217.368 427 216.684 427 215.841C427 214.997 426.317 214.313 425.475 214.313C424.632 214.313 423.949 214.997 423.949 215.841C423.949 216.684 424.632 217.368 425.475 217.368Z" fill="#96BDBE"/>
<path d="M425.475 174.505C426.317 174.505 427 173.822 427 172.978C427 172.135 426.317 171.451 425.475 171.451C424.632 171.451 423.949 172.135 423.949 172.978C423.949 173.822 424.632 174.505 425.475 174.505Z" fill="#96BDBE"/>
<path d="M425.475 131.643C426.317 131.643 427 130.959 427 130.116C427 129.272 426.317 128.588 425.475 128.588C424.632 128.588 423.949 129.272 423.949 130.116C423.949 130.959 424.632 131.643 425.475 131.643Z" fill="#96BDBE"/>
<path d="M425.475 88.7797C426.317 88.7797 427 88.096 427 87.2525C427 86.4091 426.317 85.7253 425.475 85.7253C424.632 85.7253 423.949 86.4091 423.949 87.2525C423.949 88.096 424.632 88.7797 425.475 88.7797Z" fill="#96BDBE"/>
<path d="M425.475 45.9172C426.317 45.9172 427 45.2334 427 44.39C427 43.5465 426.317 42.8628 425.475 42.8628C424.632 42.8628 423.949 43.5465 423.949 44.39C423.949 45.2334 424.632 45.9172 425.475 45.9172Z" fill="#96BDBE"/>
<path d="M425.475 3.0544C426.317 3.0544 427 2.37065 427 1.5272C427 0.68375 426.317 0 425.475 0C424.632 0 423.949 0.68375 423.949 1.5272C423.949 2.37065 424.632 3.0544 425.475 3.0544Z" fill="#96BDBE"/>
<path d="M383.419 431.682C384.261 431.682 384.944 430.998 384.944 430.155C384.944 429.311 384.261 428.627 383.419 428.627C382.577 428.627 381.894 429.311 381.894 430.155C381.894 430.998 382.577 431.682 383.419 431.682Z" fill="#96BDBE"/>
<path d="M383.419 388.819C384.261 388.819 384.944 388.135 384.944 387.292C384.944 386.448 384.261 385.765 383.419 385.765C382.577 385.765 381.894 386.448 381.894 387.292C381.894 388.135 382.577 388.819 383.419 388.819Z" fill="#96BDBE"/>
<path d="M383.419 345.956C384.261 345.956 384.944 345.273 384.944 344.429C384.944 343.586 384.261 342.902 383.419 342.902C382.577 342.902 381.894 343.586 381.894 344.429C381.894 345.273 382.577 345.956 383.419 345.956Z" fill="#96BDBE"/>
<path d="M383.419 303.093C384.261 303.093 384.944 302.41 384.944 301.566C384.944 300.723 384.261 300.039 383.419 300.039C382.577 300.039 381.894 300.723 381.894 301.566C381.894 302.41 382.577 303.093 383.419 303.093Z" fill="#96BDBE"/>
<path d="M383.419 260.231C384.261 260.231 384.944 259.547 384.944 258.704C384.944 257.86 384.261 257.177 383.419 257.177C382.577 257.177 381.894 257.86 381.894 258.704C381.894 259.547 382.577 260.231 383.419 260.231Z" fill="#96BDBE"/>
<path d="M383.419 217.368C384.261 217.368 384.944 216.684 384.944 215.841C384.944 214.997 384.261 214.314 383.419 214.314C382.577 214.314 381.894 214.997 381.894 215.841C381.894 216.684 382.577 217.368 383.419 217.368Z" fill="#96BDBE"/>
<path d="M383.419 174.505C384.261 174.505 384.944 173.822 384.944 172.978C384.944 172.135 384.261 171.451 383.419 171.451C382.577 171.451 381.894 172.135 381.894 172.978C381.894 173.822 382.577 174.505 383.419 174.505Z" fill="#96BDBE"/>
<path d="M383.419 131.643C384.261 131.643 384.944 130.959 384.944 130.115C384.944 129.272 384.261 128.588 383.419 128.588C382.577 128.588 381.894 129.272 381.894 130.115C381.894 130.959 382.577 131.643 383.419 131.643Z" fill="#96BDBE"/>
<path d="M383.419 88.78C384.261 88.78 384.944 88.0962 384.944 87.2528C384.944 86.4093 384.261 85.7256 383.419 85.7256C382.577 85.7256 381.894 86.4093 381.894 87.2528C381.894 88.0962 382.577 88.78 383.419 88.78Z" fill="#96BDBE"/>
<path d="M383.419 45.9172C384.261 45.9172 384.944 45.2334 384.944 44.39C384.944 43.5465 384.261 42.8628 383.419 42.8628C382.577 42.8628 381.894 43.5465 381.894 44.39C381.894 45.2334 382.577 45.9172 383.419 45.9172Z" fill="#96BDBE"/>
<path d="M383.419 3.0544C384.261 3.0544 384.944 2.37065 384.944 1.5272C384.944 0.68375 384.261 0 383.419 0C382.577 0 381.894 0.68375 381.894 1.5272C381.894 2.37065 382.577 3.0544 383.419 3.0544Z" fill="#96BDBE"/>
<path d="M341.364 431.682C342.206 431.682 342.889 430.998 342.889 430.155C342.889 429.311 342.206 428.627 341.364 428.627C340.521 428.627 339.838 429.311 339.838 430.155C339.838 430.998 340.521 431.682 341.364 431.682Z" fill="#96BDBE"/>
<path d="M341.364 388.819C342.206 388.819 342.889 388.135 342.889 387.292C342.889 386.448 342.206 385.765 341.364 385.765C340.521 385.765 339.838 386.448 339.838 387.292C339.838 388.135 340.521 388.819 341.364 388.819Z" fill="#96BDBE"/>
<path d="M341.364 345.956C342.206 345.956 342.889 345.273 342.889 344.429C342.889 343.586 342.206 342.902 341.364 342.902C340.521 342.902 339.838 343.586 339.838 344.429C339.838 345.273 340.521 345.956 341.364 345.956Z" fill="#96BDBE"/>
<path d="M341.364 303.093C342.206 303.093 342.889 302.41 342.889 301.566C342.889 300.723 342.206 300.039 341.364 300.039C340.521 300.039 339.838 300.723 339.838 301.566C339.838 302.41 340.521 303.093 341.364 303.093Z" fill="#96BDBE"/>
<path d="M341.364 260.231C342.206 260.231 342.889 259.547 342.889 258.704C342.889 257.86 342.206 257.177 341.364 257.177C340.521 257.177 339.838 257.86 339.838 258.704C339.838 259.547 340.521 260.231 341.364 260.231Z" fill="#96BDBE"/>
<path d="M341.364 217.368C342.206 217.368 342.889 216.684 342.889 215.841C342.889 214.997 342.206 214.314 341.364 214.314C340.521 214.314 339.838 214.997 339.838 215.841C339.838 216.684 340.521 217.368 341.364 217.368Z" fill="#96BDBE"/>
<path d="M341.364 174.505C342.206 174.505 342.889 173.822 342.889 172.978C342.889 172.135 342.206 171.451 341.364 171.451C340.521 171.451 339.838 172.135 339.838 172.978C339.838 173.822 340.521 174.505 341.364 174.505Z" fill="#96BDBE"/>
<path d="M341.364 131.643C342.206 131.643 342.889 130.959 342.889 130.115C342.889 129.272 342.206 128.588 341.364 128.588C340.521 128.588 339.838 129.272 339.838 130.115C339.838 130.959 340.521 131.643 341.364 131.643Z" fill="#96BDBE"/>
<path d="M341.364 88.78C342.206 88.78 342.889 88.0962 342.889 87.2528C342.889 86.4093 342.206 85.7256 341.364 85.7256C340.521 85.7256 339.838 86.4093 339.838 87.2528C339.838 88.0962 340.521 88.78 341.364 88.78Z" fill="#96BDBE"/>
<path d="M341.364 45.9172C342.206 45.9172 342.889 45.2334 342.889 44.39C342.889 43.5465 342.206 42.8628 341.364 42.8628C340.521 42.8628 339.838 43.5465 339.838 44.39C339.838 45.2334 340.521 45.9172 341.364 45.9172Z" fill="#96BDBE"/>
<path d="M341.364 3.0544C342.206 3.0544 342.889 2.37065 342.889 1.5272C342.889 0.68375 342.206 0 341.364 0C340.521 0 339.838 0.68375 339.838 1.5272C339.838 2.37065 340.521 3.0544 341.364 3.0544Z" fill="#96BDBE"/>
<path d="M299.313 431.682C300.156 431.682 300.838 430.998 300.838 430.155C300.838 429.311 300.156 428.627 299.313 428.627C298.471 428.627 297.788 429.311 297.788 430.155C297.788 430.998 298.471 431.682 299.313 431.682Z" fill="#96BDBE"/>
<path d="M299.313 388.819C300.156 388.819 300.838 388.135 300.838 387.292C300.838 386.448 300.156 385.765 299.313 385.765C298.471 385.765 297.788 386.448 297.788 387.292C297.788 388.135 298.471 388.819 299.313 388.819Z" fill="#96BDBE"/>
<path d="M299.313 345.956C300.156 345.956 300.838 345.273 300.838 344.429C300.838 343.586 300.156 342.902 299.313 342.902C298.471 342.902 297.788 343.586 297.788 344.429C297.788 345.273 298.471 345.956 299.313 345.956Z" fill="#96BDBE"/>
<path d="M299.313 303.093C300.156 303.093 300.838 302.41 300.838 301.566C300.838 300.723 300.156 300.039 299.313 300.039C298.471 300.039 297.788 300.723 297.788 301.566C297.788 302.41 298.471 303.093 299.313 303.093Z" fill="#96BDBE"/>
<path d="M299.313 260.231C300.156 260.231 300.838 259.547 300.838 258.704C300.838 257.86 300.156 257.177 299.313 257.177C298.471 257.177 297.788 257.86 297.788 258.704C297.788 259.547 298.471 260.231 299.313 260.231Z" fill="#96BDBE"/>
<path d="M299.313 217.368C300.156 217.368 300.838 216.684 300.838 215.841C300.838 214.997 300.156 214.314 299.313 214.314C298.471 214.314 297.788 214.997 297.788 215.841C297.788 216.684 298.471 217.368 299.313 217.368Z" fill="#96BDBE"/>
<path d="M299.313 174.505C300.156 174.505 300.838 173.822 300.838 172.978C300.838 172.135 300.156 171.451 299.313 171.451C298.471 171.451 297.788 172.135 297.788 172.978C297.788 173.822 298.471 174.505 299.313 174.505Z" fill="#96BDBE"/>
<path d="M299.313 131.643C300.156 131.643 300.838 130.959 300.838 130.115C300.838 129.272 300.156 128.588 299.313 128.588C298.471 128.588 297.788 129.272 297.788 130.115C297.788 130.959 298.471 131.643 299.313 131.643Z" fill="#96BDBE"/>
<path d="M299.313 88.78C300.156 88.78 300.838 88.0962 300.838 87.2528C300.838 86.4093 300.156 85.7256 299.313 85.7256C298.471 85.7256 297.788 86.4093 297.788 87.2528C297.788 88.0962 298.471 88.78 299.313 88.78Z" fill="#96BDBE"/>
<path d="M299.313 45.9172C300.156 45.9172 300.838 45.2334 300.838 44.39C300.838 43.5465 300.156 42.8628 299.313 42.8628C298.471 42.8628 297.788 43.5465 297.788 44.39C297.788 45.2334 298.471 45.9172 299.313 45.9172Z" fill="#96BDBE"/>
<path d="M299.313 3.0544C300.156 3.0544 300.838 2.37065 300.838 1.5272C300.838 0.68375 300.156 0 299.313 0C298.471 0 297.788 0.68375 297.788 1.5272C297.788 2.37065 298.471 3.0544 299.313 3.0544Z" fill="#96BDBE"/>
<path d="M258.787 430.155C258.787 429.313 258.103 428.627 257.262 428.627C256.421 428.627 255.736 429.313 255.736 430.155C255.736 430.996 256.421 431.682 257.262 431.682C258.103 431.682 258.787 430.996 258.787 430.155Z" fill="#96BDBE"/>
<path d="M258.787 387.292C258.787 386.45 258.103 385.764 257.262 385.764C256.421 385.764 255.736 386.45 255.736 387.292C255.736 388.133 256.421 388.819 257.262 388.819C258.103 388.819 258.787 388.133 258.787 387.292Z" fill="#96BDBE"/>
<path d="M258.787 344.429C258.787 343.587 258.103 342.902 257.262 342.902C256.421 342.902 255.736 343.587 255.736 344.429C255.736 345.271 256.421 345.956 257.262 345.956C258.103 345.956 258.787 345.271 258.787 344.429Z" fill="#96BDBE"/>
<path d="M258.787 301.566C258.787 300.724 258.103 300.039 257.262 300.039C256.421 300.039 255.736 300.724 255.736 301.566C255.736 302.408 256.421 303.093 257.262 303.093C258.103 303.093 258.787 302.408 258.787 301.566Z" fill="#96BDBE"/>
<path d="M258.787 258.704C258.787 257.862 258.103 257.177 257.262 257.177C256.421 257.177 255.736 257.862 255.736 258.704C255.736 259.546 256.421 260.231 257.262 260.231C258.103 260.231 258.787 259.546 258.787 258.704Z" fill="#96BDBE"/>
<path d="M258.787 215.841C258.787 214.999 258.103 214.313 257.262 214.313C256.421 214.313 255.736 214.999 255.736 215.841C255.736 216.682 256.421 217.368 257.262 217.368C258.103 217.368 258.787 216.682 258.787 215.841Z" fill="#96BDBE"/>
<path d="M258.787 172.978C258.787 172.136 258.103 171.451 257.262 171.451C256.421 171.451 255.736 172.136 255.736 172.978C255.736 173.82 256.421 174.505 257.262 174.505C258.103 174.505 258.787 173.82 258.787 172.978Z" fill="#96BDBE"/>
<path d="M258.787 130.116C258.787 129.274 258.103 128.588 257.262 128.588C256.421 128.588 255.736 129.274 255.736 130.116C255.736 130.957 256.421 131.643 257.262 131.643C258.103 131.643 258.787 130.957 258.787 130.116Z" fill="#96BDBE"/>
<path d="M258.787 87.2525C258.787 86.4107 258.103 85.7253 257.262 85.7253C256.421 85.7253 255.736 86.4107 255.736 87.2525C255.736 88.0943 256.421 88.7797 257.262 88.7797C258.103 88.7797 258.787 88.0943 258.787 87.2525Z" fill="#96BDBE"/>
<path d="M258.787 44.39C258.787 43.5482 258.103 42.8628 257.262 42.8628C256.421 42.8628 255.736 43.5482 255.736 44.39C255.736 45.2318 256.421 45.9172 257.262 45.9172C258.103 45.9172 258.787 45.2318 258.787 44.39Z" fill="#96BDBE"/>
<path d="M258.787 1.5272C258.787 0.685399 258.103 0 257.262 0C256.421 0 255.736 0.685399 255.736 1.5272C255.736 2.369 256.421 3.0544 257.262 3.0544C258.103 3.0544 258.787 2.369 258.787 1.5272Z" fill="#96BDBE"/>
<path d="M1.52544 431.682C2.36792 431.682 3.05089 430.998 3.05089 430.155C3.05089 429.311 2.36792 428.627 1.52544 428.627C0.682964 428.627 0 429.311 0 430.155C0 430.998 0.682964 431.682 1.52544 431.682Z" fill="#96BDBE"/>
<path d="M1.52544 388.819C2.36792 388.819 3.05089 388.135 3.05089 387.292C3.05089 386.448 2.36792 385.765 1.52544 385.765C0.682964 385.765 0 386.448 0 387.292C0 388.135 0.682964 388.819 1.52544 388.819Z" fill="#96BDBE"/>
<path d="M1.52544 345.956C2.36792 345.956 3.05089 345.273 3.05089 344.429C3.05089 343.586 2.36792 342.902 1.52544 342.902C0.682964 342.902 0 343.586 0 344.429C0 345.273 0.682964 345.956 1.52544 345.956Z" fill="#96BDBE"/>
<path d="M1.52544 303.093C2.36792 303.093 3.05089 302.41 3.05089 301.566C3.05089 300.723 2.36792 300.039 1.52544 300.039C0.682964 300.039 0 300.723 0 301.566C0 302.41 0.682964 303.093 1.52544 303.093Z" fill="#96BDBE"/>
<path d="M1.52544 260.231C2.36792 260.231 3.05089 259.547 3.05089 258.704C3.05089 257.86 2.36792 257.177 1.52544 257.177C0.682964 257.177 0 257.86 0 258.704C0 259.547 0.682964 260.231 1.52544 260.231Z" fill="#96BDBE"/>
<path d="M1.52544 217.368C2.36792 217.368 3.05089 216.684 3.05089 215.841C3.05089 214.997 2.36792 214.314 1.52544 214.314C0.682964 214.314 0 214.997 0 215.841C0 216.684 0.682964 217.368 1.52544 217.368Z" fill="#96BDBE"/>
<path d="M1.52544 174.505C2.36792 174.505 3.05089 173.822 3.05089 172.978C3.05089 172.135 2.36792 171.451 1.52544 171.451C0.682964 171.451 0 172.135 0 172.978C0 173.822 0.682964 174.505 1.52544 174.505Z" fill="#96BDBE"/>
<path d="M1.52544 131.643C2.36792 131.643 3.05089 130.959 3.05089 130.115C3.05089 129.272 2.36792 128.588 1.52544 128.588C0.682964 128.588 0 129.272 0 130.115C0 130.959 0.682964 131.643 1.52544 131.643Z" fill="#96BDBE"/>
<path d="M1.52544 88.78C2.36792 88.78 3.05089 88.0962 3.05089 87.2528C3.05089 86.4093 2.36792 85.7256 1.52544 85.7256C0.682964 85.7256 0 86.4093 0 87.2528C0 88.0962 0.682964 88.78 1.52544 88.78Z" fill="#96BDBE"/>
<path d="M1.52544 45.9174C2.36792 45.9174 3.05089 45.2337 3.05089 44.3902C3.05089 43.5468 2.36792 42.863 1.52544 42.863C0.682964 42.863 0 43.5468 0 44.3902C0 45.2337 0.682964 45.9174 1.52544 45.9174Z" fill="#96BDBE"/>
<path d="M1.52544 3.0544C2.36792 3.0544 3.05089 2.37065 3.05089 1.5272C3.05089 0.68375 2.36792 0 1.52544 0C0.682964 0 0 0.68375 0 1.5272C0 2.37065 0.682964 3.0544 1.52544 3.0544Z" fill="#96BDBE"/>
</g>
<defs>
<clipPath id="clip0_19_5305">
<rect width="427" height="646" fill="white"/>
</clipPath>
</defs>
</svg>
