<svg xmlns="http://www.w3.org/2000/svg" width="246" height="104" viewBox="0 0 246 104" fill="none">
  <g clip-path="url(#clip0_19_6765)">
    <path d="M67.9395 7.78672H68.3031C68.5345 7.78672 68.7593 7.75347 68.9709 7.68697C69.1824 7.62048 69.3675 7.52738 69.5262 7.40104C69.6849 7.2747 69.8105 7.1151 69.9096 6.92892C70.0022 6.73608 70.0485 6.52329 70.0485 6.27725C70.0485 5.78518 69.8964 5.4128 69.5857 5.16677C69.275 4.92073 68.8915 4.79439 68.4221 4.79439C68.1313 4.79439 67.8734 4.84759 67.6553 4.95398C67.4371 5.06037 67.252 5.20666 67.1132 5.39285C66.9743 5.57239 66.8685 5.78518 66.7958 6.03122C66.7231 6.27725 66.69 6.52994 66.69 6.79592H65.5926C65.6124 6.35705 65.6785 5.95142 65.8042 5.58569C65.9298 5.21996 66.1083 4.90743 66.3397 4.6481C66.571 4.38876 66.8619 4.18262 67.2123 4.03633C67.5627 3.89004 67.966 3.81689 68.4221 3.81689C68.8188 3.81689 69.189 3.86344 69.5262 3.96319C69.8634 4.06293 70.1609 4.20922 70.4121 4.40871C70.6633 4.6082 70.855 4.86088 71.0005 5.17342C71.1393 5.48595 71.212 5.85168 71.212 6.27725C71.212 6.70283 71.093 7.06191 70.8484 7.38109C70.6038 7.70027 70.3063 7.94631 69.9427 8.1059V8.1325C70.5046 8.25219 70.9211 8.51817 71.1922 8.9238C71.4632 9.32943 71.5955 9.81485 71.5955 10.3668C71.5955 10.8256 71.5095 11.2312 71.3442 11.5836C71.179 11.9361 70.9476 12.2287 70.6633 12.4614C70.379 12.6941 70.0419 12.8737 69.6584 12.9867C69.275 13.1064 68.8717 13.1596 68.4354 13.1596C67.9726 13.1596 67.5495 13.0931 67.166 12.9668C66.7892 12.8338 66.4653 12.6476 66.1942 12.3883C65.9232 12.1289 65.7248 11.8164 65.5794 11.444C65.4339 11.0716 65.3678 10.6461 65.381 10.1673H66.4785C66.4983 10.7657 66.6702 11.2512 66.9942 11.6302C67.3181 12.0092 67.8007 12.1954 68.4288 12.1954C68.6932 12.1954 68.951 12.1555 69.189 12.0691C69.427 11.9893 69.6386 11.8696 69.8237 11.7166C70.0022 11.5637 70.1476 11.3775 70.2534 11.1581C70.3592 10.9386 70.4121 10.6859 70.4121 10.4133C70.4121 10.1407 70.3592 9.8747 70.26 9.65526C70.1609 9.43582 70.022 9.24963 69.8501 9.09669C69.6783 8.94375 69.4733 8.83071 69.2353 8.75756C68.9973 8.68441 68.7395 8.64452 68.4684 8.64452C68.237 8.64452 68.0189 8.65782 67.8073 8.68441V7.74682C67.8536 7.75347 67.8866 7.76012 67.9263 7.76012L67.9395 7.78672Z" fill="white"/>
    <path d="M80.388 9.90783V10.8853H79.1451V13.0398H78.1138V10.8853H74.0942V9.82138L78.2658 3.83008H79.1451V9.90783H80.388ZM78.1138 5.39939H78.0873L75.0396 9.90783H78.1138V5.39939Z" fill="white"/>
    <path d="M84.9761 11.5967V13.0396H83.5415V11.5967H84.9761Z" fill="white"/>
    <path d="M88.1827 7.46742C88.2025 7.10169 88.2422 6.74926 88.3149 6.40348C88.381 6.0577 88.4802 5.72522 88.6124 5.41269C88.7446 5.10015 88.9165 4.82752 89.1413 4.59478C89.3661 4.36205 89.6437 4.17586 89.9875 4.03622C90.3313 3.89657 90.7346 3.83008 91.2106 3.83008C91.6866 3.83008 92.0898 3.89657 92.4336 4.03622C92.7774 4.17586 93.0551 4.36205 93.2798 4.59478C93.5046 4.82752 93.6765 5.10015 93.8087 5.41269C93.9409 5.72522 94.0335 6.0577 94.1062 6.40348C94.1723 6.74926 94.2186 7.10834 94.2384 7.46742C94.2583 7.83315 94.2649 8.17893 94.2649 8.51806C94.2649 8.85719 94.2583 9.20297 94.2384 9.5687C94.2186 9.93443 94.1789 10.2869 94.1062 10.6326C94.0401 10.9784 93.9409 11.3042 93.8087 11.6168C93.6765 11.9227 93.5046 12.1953 93.2798 12.428C93.0551 12.6608 92.7774 12.847 92.4402 12.9799C92.1031 13.1129 91.6932 13.1794 91.2106 13.1794C90.728 13.1794 90.3313 13.1129 89.9875 12.9799C89.6504 12.847 89.3661 12.6608 89.1413 12.428C88.9165 12.1953 88.738 11.9227 88.6124 11.6168C88.4868 11.3109 88.381 10.9851 88.3149 10.6326C88.2488 10.2869 88.2025 9.93443 88.1827 9.5687C88.1629 9.20297 88.1562 8.85719 88.1562 8.51806C88.1562 8.17893 88.1629 7.8265 88.1827 7.46742ZM89.3529 9.66844C89.3727 10.094 89.4454 10.4996 89.5578 10.8787C89.6702 11.2577 89.8619 11.5769 90.1197 11.8362C90.3776 12.0956 90.7412 12.2285 91.204 12.2285C91.6667 12.2285 92.0303 12.0956 92.2882 11.8362C92.546 11.5769 92.7311 11.2577 92.8501 10.8787C92.9691 10.4996 93.0352 10.1007 93.0551 9.66844C93.0749 9.24287 93.0881 8.85054 93.0881 8.50476C93.0881 8.27867 93.0881 8.03264 93.0881 7.76C93.0881 7.48737 93.0617 7.21473 93.022 6.9421C92.9823 6.66946 92.9295 6.40348 92.8567 6.14414C92.784 5.88481 92.6782 5.65872 92.5328 5.45923C92.394 5.2664 92.2088 5.1068 91.9973 4.98711C91.7857 4.86742 91.5213 4.80757 91.2106 4.80757C90.8999 4.80757 90.6354 4.86742 90.4239 4.98711C90.2057 5.1068 90.0272 5.2664 89.8884 5.45923C89.7429 5.65207 89.6371 5.87816 89.5644 6.14414C89.4917 6.40348 89.4322 6.66946 89.3991 6.9421C89.3595 7.21473 89.3396 7.48737 89.333 7.76C89.333 8.03264 89.333 8.27867 89.333 8.50476C89.333 8.85054 89.3462 9.23622 89.3661 9.66844H89.3529Z" fill="white"/>
    <path d="M98.7209 4.95413L98.2317 7.60732L98.2581 7.63392C98.4565 7.40783 98.7143 7.24159 99.025 7.1352C99.3358 7.02881 99.6531 6.97561 99.9638 6.97561C100.367 6.97561 100.751 7.04211 101.114 7.16845C101.478 7.29479 101.788 7.49428 102.06 7.76026C102.331 8.02625 102.536 8.35208 102.694 8.75106C102.846 9.14338 102.926 9.60886 102.926 10.1342C102.926 10.5265 102.859 10.9055 102.727 11.2713C102.595 11.637 102.397 11.9628 102.126 12.2488C101.861 12.5347 101.524 12.7608 101.127 12.9337C100.724 13.0999 100.261 13.1864 99.7258 13.1864C99.3291 13.1864 98.9589 13.1265 98.6085 13.0135C98.2581 12.8938 97.954 12.7275 97.683 12.5081C97.4119 12.2887 97.207 12.0094 97.0483 11.6835C96.8897 11.3577 96.8103 10.9853 96.8037 10.5664H97.9012C97.921 10.7991 97.9739 11.0186 98.073 11.2247C98.1722 11.4309 98.3044 11.6037 98.4697 11.7567C98.635 11.9096 98.8333 12.0227 99.0647 12.1091C99.2961 12.1889 99.5473 12.2355 99.8184 12.2355C100.076 12.2355 100.327 12.1889 100.559 12.1025C100.797 12.0094 101.002 11.8764 101.18 11.6902C101.359 11.5106 101.498 11.2846 101.597 11.0053C101.703 10.7326 101.749 10.4135 101.749 10.0477C101.749 9.74185 101.703 9.46257 101.603 9.20988C101.504 8.9572 101.365 8.73111 101.187 8.54492C101.008 8.35873 100.79 8.21244 100.532 8.11269C100.281 8.0063 99.9969 7.95975 99.6861 7.95975C99.3225 7.95975 99.0052 8.03955 98.7209 8.19914C98.4433 8.35873 98.192 8.57152 97.9805 8.83085L97.0351 8.77766L97.8879 3.99658H102.41V4.96743H98.7143L98.7209 4.95413Z" fill="white"/>
    <path d="M105.788 5.78537C105.907 5.38639 106.098 5.04061 106.35 4.75468C106.601 4.46874 106.918 4.23601 107.302 4.06977C107.679 3.90353 108.108 3.82373 108.591 3.82373C108.988 3.82373 109.358 3.88358 109.708 3.99662C110.059 4.11631 110.363 4.28255 110.62 4.50199C110.878 4.72143 111.083 5.00071 111.235 5.32654C111.387 5.65902 111.46 6.03805 111.46 6.47028C111.46 6.8759 111.401 7.23498 111.275 7.54752C111.149 7.86005 110.984 8.13933 110.779 8.38537C110.574 8.6314 110.336 8.85749 110.072 9.05698C109.807 9.25647 109.53 9.44931 109.245 9.62885C108.961 9.80174 108.677 9.97463 108.393 10.1409C108.108 10.3071 107.844 10.4866 107.612 10.6795C107.374 10.8723 107.176 11.0785 107.004 11.2979C106.839 11.5173 106.727 11.77 106.674 12.056H111.374V13.0335H105.391C105.437 12.4882 105.53 12.0227 105.682 11.637C105.834 11.2514 106.026 10.9122 106.257 10.6263C106.489 10.3404 106.753 10.0877 107.044 9.87488C107.335 9.65544 107.639 9.45596 107.963 9.26312C108.353 9.02373 108.69 8.79764 108.981 8.59151C109.272 8.38537 109.516 8.18588 109.715 7.97309C109.906 7.76695 110.052 7.54087 110.151 7.29483C110.25 7.05544 110.297 6.76951 110.297 6.45033C110.297 6.19764 110.25 5.97156 110.158 5.76542C110.065 5.55928 109.933 5.38639 109.774 5.2401C109.616 5.09381 109.43 4.98076 109.212 4.90097C108.994 4.82117 108.769 4.78128 108.531 4.78128C108.214 4.78128 107.936 4.84777 107.712 4.98076C107.48 5.11376 107.295 5.2933 107.15 5.50608C107.004 5.71887 106.898 5.96491 106.832 6.23754C106.766 6.51018 106.74 6.78281 106.746 7.06209H105.649C105.623 6.59662 105.669 6.15775 105.788 5.76542V5.78537Z" fill="white"/>
    <path d="M114.521 5.78537C114.64 5.38639 114.832 5.04061 115.083 4.75468C115.335 4.46209 115.652 4.23601 116.035 4.06977C116.412 3.90353 116.842 3.82373 117.325 3.82373C117.721 3.82373 118.091 3.88358 118.442 3.99662C118.792 4.11631 119.096 4.28255 119.354 4.50199C119.612 4.72143 119.817 5.00071 119.969 5.32654C120.121 5.65902 120.194 6.03805 120.194 6.47028C120.194 6.8759 120.134 7.23498 120.009 7.54752C119.883 7.86005 119.718 8.13933 119.513 8.38537C119.308 8.6314 119.07 8.85749 118.799 9.05698C118.528 9.25647 118.257 9.44931 117.972 9.62885C117.688 9.80174 117.404 9.97463 117.12 10.1409C116.835 10.3071 116.577 10.4866 116.339 10.6795C116.101 10.8723 115.903 11.0785 115.731 11.2979C115.559 11.5173 115.454 11.77 115.401 12.056H120.101V13.0335H114.118C114.164 12.4882 114.257 12.0227 114.409 11.637C114.561 11.2514 114.753 10.9122 114.984 10.6263C115.216 10.3404 115.48 10.0877 115.771 9.87488C116.062 9.65544 116.373 9.45596 116.69 9.26312C117.08 9.02373 117.417 8.79764 117.708 8.59151C117.999 8.38537 118.243 8.18588 118.435 7.97309C118.627 7.7603 118.772 7.54087 118.872 7.29483C118.971 7.04879 119.017 6.76951 119.017 6.45033C119.017 6.19764 118.971 5.97156 118.878 5.76542C118.786 5.55928 118.66 5.38639 118.495 5.2401C118.336 5.09381 118.151 4.98076 117.933 4.90097C117.715 4.82117 117.49 4.78128 117.245 4.78128C116.928 4.78128 116.65 4.84777 116.425 4.98076C116.201 5.11376 116.009 5.2933 115.863 5.50608C115.718 5.72552 115.612 5.96491 115.546 6.23754C115.48 6.51018 115.454 6.78281 115.46 7.06209H114.363C114.336 6.59662 114.383 6.15775 114.502 5.76542L114.521 5.78537Z" fill="white"/>
    <path d="M123.413 4.96716C123.505 4.74108 123.638 4.54824 123.809 4.37535C123.981 4.20246 124.173 4.06946 124.404 3.97637C124.629 3.87663 124.874 3.83008 125.132 3.83008C125.389 3.83008 125.627 3.87663 125.852 3.97637C126.077 4.07611 126.269 4.20911 126.441 4.37535C126.606 4.54159 126.745 4.74108 126.844 4.96716C126.943 5.19325 126.989 5.43264 126.989 5.69862C126.989 5.9646 126.936 6.20399 126.844 6.43008C126.745 6.65617 126.613 6.85565 126.441 7.02854C126.275 7.19478 126.077 7.32778 125.852 7.42752C125.627 7.52062 125.389 7.56716 125.132 7.56716C124.874 7.56716 124.629 7.52062 124.404 7.42752C124.173 7.33443 123.975 7.20143 123.809 7.02854C123.644 6.85565 123.512 6.66281 123.413 6.43008C123.314 6.19734 123.274 5.95796 123.274 5.69862C123.274 5.43929 123.32 5.19325 123.413 4.96716ZM124.001 6.14414C124.054 6.29044 124.133 6.41678 124.239 6.53647C124.345 6.65617 124.471 6.74926 124.623 6.81576C124.775 6.88225 124.94 6.92215 125.132 6.92215C125.323 6.92215 125.489 6.8889 125.641 6.81576C125.793 6.74926 125.918 6.65617 126.024 6.53647C126.13 6.41678 126.209 6.29044 126.262 6.14414C126.315 6.0045 126.348 5.85156 126.348 5.69862C126.348 5.54568 126.322 5.39274 126.262 5.2531C126.209 5.1068 126.13 4.98046 126.024 4.86077C125.918 4.74108 125.793 4.64798 125.641 4.58148C125.489 4.51499 125.317 4.47509 125.132 4.47509C124.947 4.47509 124.775 4.50834 124.623 4.58148C124.471 4.64798 124.345 4.74108 124.239 4.86077C124.133 4.98046 124.054 5.1068 124.001 5.2531C123.948 5.39274 123.915 5.54568 123.915 5.69862C123.915 5.85156 123.942 6.0045 124.001 6.14414Z" fill="white"/>
    <path d="M136.701 3.76367L141.56 11.2844H141.587V3.76367H142.75V13.0399H141.408L136.589 5.59232H136.562V13.0399H135.399V3.76367H136.701Z" fill="white"/>
    <path d="M159.067 13.0401V6.43703H156.693V5.55263C157.004 5.55263 157.302 5.52603 157.599 5.47948C157.89 5.43294 158.154 5.34649 158.392 5.2135C158.63 5.08051 158.829 4.90762 158.994 4.68153C159.159 4.45544 159.272 4.16951 159.331 3.82373H160.171V13.0334H159.073L159.067 13.0401Z" fill="white"/>
    <path d="M167.8 13.0396V6.43654H165.42V5.55214C165.731 5.55214 166.028 5.52554 166.326 5.479C166.617 5.43245 166.881 5.346 167.119 5.21301C167.357 5.08002 167.555 4.90713 167.721 4.68104C167.886 4.45496 167.998 4.16902 168.058 3.82324H168.897V13.033H167.8V13.0396Z" fill="white"/>
    <path d="M174.087 5.1733C174.232 4.88072 174.431 4.64133 174.682 4.43519C174.933 4.2357 175.217 4.08276 175.541 3.98302C175.865 3.87663 176.202 3.83008 176.553 3.83008C177.049 3.83008 177.478 3.89657 177.829 4.02957C178.179 4.16256 178.47 4.3421 178.688 4.56154C178.906 4.78097 179.072 5.03366 179.171 5.31294C179.277 5.59223 179.323 5.88481 179.323 6.17739C179.323 6.58967 179.21 6.97535 178.979 7.31448C178.748 7.65361 178.444 7.91294 178.053 8.08583C178.602 8.25872 179.012 8.54466 179.283 8.93698C179.548 9.32931 179.686 9.81473 179.686 10.3866C179.686 10.8388 179.607 11.2378 179.448 11.5835C179.29 11.9293 179.072 12.2219 178.801 12.4613C178.529 12.7007 178.206 12.8802 177.835 12.9999C177.465 13.1196 177.068 13.1794 176.645 13.1794C176.222 13.1794 175.799 13.1262 175.416 13.0132C175.039 12.9002 174.708 12.7273 174.424 12.4945C174.14 12.2618 173.922 11.9692 173.763 11.6168C173.604 11.2643 173.525 10.8587 173.525 10.3866C173.525 9.84133 173.664 9.36921 173.941 8.96358C174.219 8.55795 174.616 8.26537 175.131 8.08583C174.741 7.93289 174.431 7.68021 174.199 7.32778C173.968 6.97535 173.849 6.58967 173.849 6.17739C173.849 5.79836 173.922 5.45923 174.067 5.1733H174.087ZM175.257 11.7498C175.621 12.069 176.09 12.2219 176.659 12.2219C176.936 12.2219 177.187 12.1753 177.412 12.0889C177.637 11.9958 177.835 11.8695 178.007 11.7099C178.172 11.5503 178.305 11.3641 178.397 11.1447C178.49 10.9252 178.529 10.6925 178.529 10.4331C178.529 10.1738 178.483 9.94773 178.384 9.73494C178.285 9.52215 178.153 9.33596 177.974 9.18302C177.802 9.03008 177.604 8.90374 177.373 8.81064C177.148 8.71755 176.903 8.671 176.645 8.671C176.388 8.671 176.13 8.7109 175.892 8.79734C175.654 8.87714 175.449 8.99683 175.27 9.15642C175.092 9.31601 174.953 9.49555 174.86 9.71499C174.761 9.93443 174.715 10.1738 174.715 10.4464C174.715 10.9984 174.9 11.4372 175.264 11.7498H175.257ZM175.158 6.8756C175.244 7.06179 175.363 7.21473 175.508 7.33443C175.654 7.45412 175.826 7.54721 176.024 7.60706C176.222 7.66691 176.434 7.70015 176.659 7.70015C177.095 7.70015 177.458 7.56716 177.743 7.30783C178.027 7.04849 178.172 6.68276 178.172 6.21729C178.172 5.75182 178.027 5.39274 177.743 5.16C177.452 4.92062 177.088 4.80092 176.639 4.80092C176.421 4.80092 176.216 4.83417 176.017 4.89402C175.819 4.95386 175.647 5.04696 175.508 5.16665C175.369 5.28634 175.25 5.43264 175.164 5.60553C175.079 5.77842 175.032 5.98455 175.032 6.21729C175.032 6.46998 175.079 6.68941 175.164 6.8756H175.158Z" fill="white"/>
    <path d="M184.268 11.5967V13.0396H182.833V11.5967H184.268Z" fill="white"/>
    <path d="M187.613 5.78537C187.732 5.38639 187.924 5.04061 188.175 4.75468C188.426 4.46209 188.744 4.23601 189.127 4.06977C189.504 3.90353 189.934 3.82373 190.416 3.82373C190.813 3.82373 191.183 3.88358 191.534 3.99662C191.884 4.11631 192.188 4.28255 192.446 4.50199C192.704 4.72143 192.909 5.00071 193.061 5.32654C193.213 5.65902 193.286 6.03805 193.286 6.47028C193.286 6.8759 193.226 7.23498 193.1 7.54752C192.975 7.86005 192.81 8.13933 192.605 8.38537C192.4 8.6314 192.162 8.85749 191.891 9.05698C191.62 9.25647 191.348 9.44931 191.064 9.62885C190.78 9.80174 190.496 9.97463 190.211 10.1409C189.927 10.3071 189.669 10.4866 189.431 10.6795C189.193 10.8723 188.995 11.0785 188.823 11.2979C188.651 11.5173 188.545 11.77 188.492 12.056H193.193V13.0335H187.21C187.256 12.4882 187.349 12.0227 187.501 11.637C187.653 11.2514 187.845 10.9122 188.076 10.6263C188.307 10.3404 188.572 10.0877 188.863 9.87488C189.154 9.65544 189.464 9.45596 189.782 9.26312C190.172 9.02373 190.509 8.79764 190.8 8.59151C191.091 8.38537 191.335 8.18588 191.527 7.97309C191.719 7.7603 191.864 7.54087 191.963 7.29483C192.062 7.04879 192.109 6.76951 192.109 6.45033C192.109 6.19764 192.062 5.97156 191.97 5.76542C191.877 5.55928 191.752 5.38639 191.586 5.2401C191.428 5.09381 191.243 4.98076 191.025 4.90097C190.806 4.82117 190.582 4.78128 190.337 4.78128C190.02 4.78128 189.742 4.84777 189.517 4.98076C189.292 5.11376 189.101 5.2933 188.955 5.50608C188.81 5.72552 188.704 5.96491 188.638 6.23754C188.572 6.51018 188.545 6.78281 188.552 7.06209H187.455C187.428 6.59662 187.474 6.15775 187.593 5.76542L187.613 5.78537Z" fill="white"/>
    <path d="M202.29 9.90783V10.8853H201.047V13.0398H200.016V10.8853H195.996V9.82138L200.168 3.83008H201.047V9.90783H202.29ZM200.016 5.39939H199.989L196.941 9.90783H200.016V5.39939Z" fill="white"/>
    <path d="M207.301 7.78672H207.664C207.896 7.78672 208.121 7.75347 208.332 7.68697C208.544 7.62048 208.729 7.52738 208.888 7.40104C209.046 7.2747 209.172 7.1151 209.271 6.92892C209.364 6.73608 209.41 6.52329 209.41 6.27725C209.41 5.78518 209.258 5.4128 208.947 5.16677C208.636 4.92073 208.253 4.79439 207.783 4.79439C207.493 4.79439 207.235 4.84759 207.017 4.95398C206.798 5.06037 206.613 5.20666 206.474 5.39285C206.336 5.57239 206.23 5.78518 206.157 6.03122C206.084 6.27725 206.051 6.52994 206.051 6.79592H204.954C204.974 6.35705 205.04 5.95142 205.165 5.58569C205.291 5.21996 205.47 4.90743 205.701 4.6481C205.932 4.38876 206.223 4.18262 206.574 4.03633C206.924 3.89004 207.327 3.81689 207.783 3.81689C208.18 3.81689 208.55 3.86344 208.888 3.96319C209.225 4.06293 209.522 4.20922 209.773 4.40871C210.025 4.6082 210.216 4.86088 210.362 5.17342C210.501 5.48595 210.573 5.85168 210.573 6.27725C210.573 6.70283 210.454 7.06191 210.21 7.38109C209.965 7.70027 209.668 7.94631 209.304 8.1059V8.1325C209.866 8.25219 210.282 8.51817 210.554 8.9238C210.825 9.32943 210.957 9.81485 210.957 10.3668C210.957 10.8256 210.871 11.2312 210.706 11.5836C210.54 11.9361 210.309 12.2287 210.025 12.4614C209.74 12.6941 209.403 12.8737 209.02 12.9867C208.636 13.1064 208.233 13.1596 207.797 13.1596C207.334 13.1596 206.911 13.0931 206.527 12.9668C206.151 12.8338 205.827 12.6476 205.556 12.3883C205.284 12.1289 205.086 11.8164 204.941 11.444C204.795 11.0716 204.729 10.6461 204.742 10.1673H205.84C205.86 10.7657 206.032 11.2512 206.355 11.6302C206.679 12.0092 207.162 12.1954 207.79 12.1954C208.055 12.1954 208.312 12.1555 208.55 12.0691C208.788 11.9893 209 11.8696 209.185 11.7166C209.364 11.5637 209.509 11.3775 209.615 11.1581C209.721 10.9386 209.773 10.6859 209.773 10.4133C209.773 10.1407 209.721 9.8747 209.621 9.65526C209.522 9.43582 209.383 9.24963 209.211 9.09669C209.04 8.94375 208.835 8.83071 208.597 8.75756C208.359 8.68441 208.101 8.64452 207.83 8.64452C207.598 8.64452 207.38 8.65782 207.169 8.68441V7.74682C207.215 7.75347 207.248 7.76012 207.288 7.76012L207.301 7.78672Z" fill="white"/>
    <path d="M218.375 6.5698C217.972 7.20151 217.608 7.87977 217.297 8.59793C216.98 9.31609 216.729 10.0608 216.53 10.8189C216.332 11.577 216.213 12.3217 216.167 13.0399H214.937C214.99 12.2619 215.116 11.4972 215.321 10.7591C215.525 10.0209 215.783 9.30944 216.101 8.63118C216.418 7.95292 216.788 7.3079 217.205 6.70279C217.621 6.09767 218.071 5.53911 218.553 5.02709H213.747V3.98975H219.677V4.94064C219.214 5.39946 218.778 5.94473 218.375 6.57645V6.5698Z" fill="white"/>
    <path d="M222.698 4.96716C222.791 4.74108 222.923 4.54824 223.095 4.37535C223.267 4.20246 223.459 4.06946 223.69 3.97637C223.915 3.87663 224.159 3.83008 224.417 3.83008C224.675 3.83008 224.913 3.87663 225.138 3.97637C225.363 4.07611 225.554 4.20911 225.726 4.37535C225.892 4.54159 226.03 4.74108 226.13 4.96716C226.229 5.19325 226.275 5.43264 226.275 5.69862C226.275 5.9646 226.222 6.20399 226.13 6.43008C226.03 6.65617 225.898 6.85565 225.726 7.02854C225.561 7.19478 225.363 7.32778 225.138 7.42752C224.913 7.52062 224.675 7.56716 224.417 7.56716C224.159 7.56716 223.915 7.52062 223.69 7.42752C223.459 7.33443 223.26 7.20143 223.095 7.02854C222.93 6.85565 222.798 6.66281 222.698 6.43008C222.599 6.19734 222.56 5.95796 222.56 5.69862C222.56 5.43929 222.606 5.19325 222.698 4.96716ZM223.287 6.14414C223.34 6.29044 223.419 6.41678 223.525 6.53647C223.631 6.65617 223.756 6.74926 223.908 6.81576C224.06 6.88225 224.226 6.92215 224.417 6.92215C224.609 6.92215 224.774 6.8889 224.926 6.81576C225.078 6.74926 225.204 6.65617 225.31 6.53647C225.416 6.41678 225.495 6.29044 225.548 6.14414C225.601 6.0045 225.634 5.85156 225.634 5.69862C225.634 5.54568 225.607 5.39274 225.548 5.2531C225.495 5.1068 225.416 4.98046 225.31 4.86077C225.204 4.74108 225.078 4.64798 224.926 4.58148C224.774 4.51499 224.602 4.47509 224.417 4.47509C224.232 4.47509 224.06 4.50834 223.908 4.58148C223.756 4.64798 223.631 4.74108 223.525 4.86077C223.419 4.98046 223.34 5.1068 223.287 5.2531C223.234 5.39274 223.201 5.54568 223.201 5.69862C223.201 5.85156 223.227 6.0045 223.287 6.14414Z" fill="white"/>
    <path d="M241.758 13.0399L239.656 5.24654H239.629L237.501 13.0399H236.225L233.858 3.76367H235.114L236.925 11.4839H236.952L239.021 3.76367H240.35L242.393 11.4839H242.419L244.29 3.76367H245.52L243.054 13.0399H241.778H241.758Z" fill="white"/>
    <path d="M67.2387 26.0664V34.3053H72.1243V35.3426H66.0156V26.0664H67.2453H67.2387Z" fill="white"/>
    <path d="M74.5042 28.8791C74.6893 28.2939 74.967 27.7753 75.3372 27.3297C75.7074 26.8776 76.1702 26.5185 76.7189 26.2525C77.2677 25.9865 77.9089 25.8535 78.6428 25.8535C79.3766 25.8535 80.0179 25.9865 80.5666 26.2525C81.1153 26.5185 81.5781 26.8842 81.9483 27.3297C82.3185 27.7753 82.5962 28.3006 82.7813 28.8791C82.9664 29.4643 83.059 30.076 83.059 30.7011C83.059 31.3261 82.9664 31.9446 82.7813 32.5297C82.5962 33.1149 82.3185 33.6336 81.9483 34.0791C81.5781 34.5246 81.1153 34.8837 80.5666 35.1497C80.0179 35.4157 79.3766 35.5487 78.6428 35.5487C77.9089 35.5487 77.2677 35.4157 76.7189 35.1497C76.1702 34.8837 75.7074 34.5246 75.3372 34.0791C74.967 33.6269 74.6893 33.1082 74.5042 32.5297C74.3191 31.9512 74.2266 31.3328 74.2266 30.7011C74.2266 30.0694 74.3191 29.4576 74.5042 28.8791ZM75.6347 32.0909C75.7537 32.543 75.9454 32.9553 76.2033 33.321C76.4611 33.6868 76.7917 33.9793 77.1949 34.1988C77.5982 34.4182 78.0808 34.5313 78.6428 34.5313C79.2047 34.5313 79.6873 34.4182 80.0906 34.1988C80.4939 33.9793 80.8244 33.6868 81.0889 33.321C81.3467 32.9553 81.5384 32.5497 81.6574 32.0909C81.7764 31.632 81.8359 31.1732 81.8359 30.7077C81.8359 30.2423 81.7764 29.7768 81.6574 29.3246C81.5384 28.8724 81.3467 28.4602 81.0889 28.0944C80.831 27.7287 80.5005 27.4361 80.0906 27.2167C79.6807 26.9972 79.2047 26.8842 78.6428 26.8842C78.0808 26.8842 77.5982 26.9972 77.1949 27.2167C76.7917 27.4361 76.4611 27.7287 76.2033 28.0944C75.9454 28.4602 75.7537 28.8658 75.6347 29.3246C75.5157 29.7768 75.4562 30.2423 75.4562 30.7077C75.4562 31.1732 75.5157 31.6387 75.6347 32.0909Z" fill="white"/>
    <path d="M90.7342 27.33C90.3244 27.0308 89.8021 26.8845 89.1674 26.8845C88.9096 26.8845 88.6584 26.9111 88.4071 26.9643C88.1559 27.0175 87.9378 27.1039 87.7394 27.2236C87.5477 27.3433 87.389 27.5096 87.2766 27.7091C87.1576 27.9152 87.1048 28.1679 87.1048 28.4671C87.1048 28.7531 87.1907 28.9858 87.356 29.1653C87.5213 29.3449 87.746 29.4912 88.0303 29.5976C88.308 29.7106 88.6253 29.8037 88.9823 29.8768C89.3327 29.95 89.6963 30.0298 90.0599 30.1162C90.4235 30.2027 90.7871 30.3024 91.1375 30.4221C91.4879 30.5418 91.8052 30.6947 92.0895 30.8942C92.3672 31.0937 92.5919 31.3464 92.7638 31.6456C92.9291 31.9515 93.0151 32.3305 93.0151 32.7894C93.0151 33.2814 92.9027 33.707 92.6845 34.0594C92.4663 34.4119 92.1821 34.6978 91.8383 34.9172C91.4945 35.1367 91.1111 35.2963 90.6813 35.396C90.2516 35.4958 89.8285 35.5423 89.4054 35.5423C88.8897 35.5423 88.4005 35.4758 87.9377 35.3495C87.475 35.2231 87.0717 35.0236 86.7213 34.7577C86.3709 34.4917 86.0999 34.1525 85.8949 33.7403C85.69 33.328 85.5908 32.8426 85.5908 32.2773H86.7544C86.7544 32.6697 86.8271 33.0022 86.9791 33.2881C87.1312 33.5674 87.3295 33.8001 87.5741 33.9796C87.8188 34.1592 88.103 34.2988 88.4336 34.3853C88.7641 34.4717 89.0947 34.5183 89.4451 34.5183C89.7227 34.5183 90.0004 34.4917 90.2781 34.4385C90.5557 34.3853 90.807 34.2988 91.0317 34.1725C91.2565 34.0461 91.435 33.8733 91.5738 33.6605C91.7127 33.441 91.7788 33.1684 91.7788 32.8293C91.7788 32.4901 91.6928 32.2507 91.5276 32.0513C91.3623 31.8518 91.1375 31.6922 90.8598 31.5658C90.5822 31.4395 90.2649 31.3398 89.9079 31.26C89.5509 31.1802 89.1939 31.1004 88.8302 31.0206C88.4666 30.9408 88.103 30.841 87.7526 30.7346C87.4022 30.6282 87.0849 30.482 86.8006 30.3091C86.523 30.1295 86.2982 29.9034 86.1329 29.6175C85.9676 29.3382 85.8817 28.9858 85.8817 28.5602C85.8817 28.0947 85.9743 27.6891 86.166 27.3433C86.3577 26.9976 86.6089 26.7183 86.9196 26.4988C87.2304 26.2794 87.594 26.1132 87.9906 26.0068C88.3939 25.9004 88.8038 25.8472 89.2269 25.8472C89.7029 25.8472 90.1392 25.9004 90.5425 26.0134C90.9458 26.1265 91.3028 26.306 91.6069 26.5454C91.911 26.7848 92.1556 27.0906 92.3341 27.463C92.5126 27.8288 92.6052 28.2743 92.625 28.7796H91.4615C91.3953 28.1147 91.1507 27.6293 90.7475 27.33H90.7342Z" fill="white"/>
    <path d="M105.041 26.0664L108.644 35.3426H107.289L106.284 32.5498H102.383L101.352 35.3426H100.096L103.686 26.0664H105.041ZM105.894 31.5124L104.353 27.1835H104.327L102.767 31.5124H105.894Z" fill="white"/>
    <path d="M112.392 26.0664L117.251 33.5871H117.278V26.0664H118.441V35.3426H117.099L112.28 27.8951H112.253V35.3426H111.09V26.0664H112.392Z" fill="white"/>
    <path d="M127.532 35.2298C126.996 35.4426 126.461 35.549 125.919 35.549C125.231 35.549 124.616 35.4226 124.074 35.1633C123.532 34.9106 123.069 34.5648 122.692 34.1326C122.316 33.7004 122.025 33.2016 121.826 32.6364C121.628 32.0712 121.529 31.486 121.529 30.8809C121.529 30.2027 121.621 29.5643 121.806 28.9525C121.992 28.3408 122.269 27.8088 122.633 27.35C122.996 26.8912 123.453 26.5254 124.001 26.2528C124.55 25.9802 125.185 25.8472 125.919 25.8472C126.414 25.8472 126.89 25.907 127.333 26.0201C127.776 26.1398 128.173 26.3193 128.523 26.572C128.874 26.8247 129.165 27.1438 129.403 27.5295C129.641 27.9152 129.799 28.3807 129.885 28.9259H128.656C128.596 28.5735 128.484 28.2676 128.318 28.0083C128.153 27.749 127.955 27.5428 127.71 27.3766C127.466 27.2103 127.194 27.0906 126.89 27.0042C126.586 26.9244 126.256 26.8779 125.912 26.8779C125.35 26.8779 124.874 26.9909 124.471 27.217C124.074 27.4431 123.744 27.7423 123.492 28.108C123.241 28.4738 123.049 28.8993 122.93 29.3715C122.811 29.8436 122.752 30.329 122.752 30.8211C122.752 31.3132 122.818 31.772 122.957 32.2175C123.096 32.663 123.294 33.0554 123.565 33.4011C123.829 33.7403 124.16 34.0195 124.55 34.219C124.94 34.4252 125.396 34.5249 125.912 34.5249C126.395 34.5249 126.818 34.4451 127.188 34.2922C127.558 34.1392 127.869 33.9198 128.127 33.6472C128.378 33.3745 128.57 33.0554 128.702 32.683C128.834 32.3106 128.887 31.9183 128.867 31.4927H125.919V30.4554H129.965V35.3428H129.191L128.867 34.1858C128.503 34.6712 128.054 35.017 127.525 35.2298H127.532Z" fill="white"/>
    <path d="M139.703 26.0664V27.1037H134.559V30.0562H139.352V31.0935H134.559V34.3053H139.736V35.3426H133.33V26.0664H139.696H139.703Z" fill="white"/>
    <path d="M144 26.0664V34.3053H148.885V35.3426H142.777V26.0664H144.007H144Z" fill="white"/>
    <path d="M157.876 26.0664V27.1037H152.733V30.0562H157.526V31.0935H152.733V34.3053H157.91V35.3426H151.503V26.0664H157.87H157.876Z" fill="white"/>
    <path d="M165.572 27.33C165.162 27.0308 164.64 26.8845 164.005 26.8845C163.747 26.8845 163.49 26.9111 163.245 26.9643C162.994 27.0175 162.776 27.1039 162.577 27.2236C162.386 27.3433 162.227 27.5096 162.115 27.7091C161.996 27.9152 161.943 28.1679 161.943 28.4671C161.943 28.7531 162.029 28.9858 162.194 29.1653C162.359 29.3449 162.584 29.4912 162.868 29.5976C163.146 29.7106 163.463 29.8037 163.82 29.8768C164.171 29.95 164.534 30.0298 164.898 30.1162C165.261 30.2027 165.625 30.3024 165.975 30.4221C166.326 30.5418 166.643 30.6947 166.927 30.8942C167.205 31.0937 167.43 31.3464 167.602 31.6456C167.767 31.9515 167.853 32.3305 167.853 32.7894C167.853 33.2814 167.741 33.707 167.522 34.0594C167.304 34.4119 167.02 34.6978 166.676 34.9172C166.332 35.1367 165.949 35.2963 165.519 35.396C165.09 35.4958 164.666 35.5423 164.243 35.5423C163.728 35.5423 163.238 35.4758 162.776 35.3495C162.313 35.2165 161.91 35.0236 161.559 34.7577C161.209 34.4917 160.938 34.1525 160.733 33.7403C160.528 33.328 160.429 32.8426 160.429 32.2773H161.592C161.592 32.6697 161.665 33.0022 161.817 33.2881C161.969 33.5674 162.167 33.8001 162.412 33.9796C162.657 34.1592 162.941 34.2988 163.271 34.3853C163.595 34.4717 163.933 34.5183 164.276 34.5183C164.554 34.5183 164.832 34.4917 165.109 34.4385C165.387 34.3853 165.638 34.2988 165.863 34.1725C166.088 34.0461 166.266 33.8733 166.405 33.6605C166.544 33.441 166.61 33.1684 166.61 32.8293C166.61 32.4901 166.524 32.2507 166.359 32.0513C166.194 31.8518 165.969 31.6922 165.685 31.5658C165.407 31.4395 165.09 31.3398 164.733 31.26C164.376 31.1802 164.019 31.1004 163.655 31.0206C163.291 30.9408 162.928 30.841 162.577 30.7346C162.227 30.6282 161.91 30.482 161.625 30.3091C161.348 30.1295 161.123 29.9034 160.951 29.6175C160.786 29.3382 160.7 28.9858 160.7 28.5602C160.7 28.0947 160.792 27.6891 160.984 27.3433C161.176 27.0042 161.427 26.7183 161.738 26.4988C162.055 26.2794 162.412 26.1132 162.809 26.0068C163.205 25.9004 163.622 25.8472 164.045 25.8472C164.521 25.8472 164.957 25.9004 165.361 26.0134C165.764 26.1265 166.121 26.306 166.425 26.5454C166.729 26.7848 166.974 27.0906 167.146 27.463C167.317 27.8354 167.417 28.2743 167.436 28.7796H166.273C166.207 28.1147 165.962 27.6293 165.559 27.33H165.572Z" fill="white"/>
    <path d="M172.368 33.8997V35.2097C172.368 35.7018 172.256 36.1273 172.031 36.4864C171.806 36.8388 171.442 37.0915 170.947 37.2378V36.5862C171.092 36.533 171.218 36.4598 171.317 36.3601C171.416 36.2603 171.495 36.1539 171.555 36.0342C171.614 35.9145 171.654 35.7949 171.68 35.6752C171.707 35.5555 171.707 35.4424 171.7 35.336H170.94V33.8931H172.375L172.368 33.8997Z" fill="white"/>
    <path d="M186.727 27.3765C186.258 27.0506 185.703 26.8844 185.055 26.8844C184.506 26.8844 184.03 26.9908 183.64 27.1969C183.25 27.4031 182.926 27.6823 182.668 28.0348C182.417 28.3872 182.225 28.7862 182.106 29.2384C181.987 29.6905 181.928 30.156 181.928 30.6414C181.928 31.1734 181.987 31.6721 182.106 32.1442C182.225 32.6164 182.417 33.0286 182.668 33.3811C182.919 33.7335 183.25 34.0128 183.647 34.2189C184.043 34.4251 184.519 34.5315 185.068 34.5315C185.471 34.5315 185.835 34.465 186.146 34.332C186.456 34.199 186.734 34.0128 186.959 33.7734C187.183 33.534 187.369 33.2547 187.494 32.9222C187.62 32.5898 187.699 32.2373 187.726 31.8583H188.955C188.836 33.0286 188.433 33.9396 187.752 34.5846C187.071 35.2363 186.139 35.5621 184.962 35.5621C184.248 35.5621 183.62 35.4358 183.091 35.1898C182.556 34.9437 182.113 34.6046 181.762 34.1724C181.412 33.7401 181.148 33.2281 180.969 32.6363C180.791 32.0445 180.705 31.4128 180.705 30.7412C180.705 30.0696 180.797 29.4312 180.989 28.8394C181.181 28.2476 181.458 27.7289 181.822 27.29C182.185 26.8445 182.642 26.4987 183.19 26.246C183.739 25.9933 184.367 25.8604 185.068 25.8604C185.551 25.8604 186.007 25.9268 186.436 26.0532C186.866 26.1795 187.25 26.3724 187.587 26.6251C187.924 26.8777 188.202 27.1903 188.426 27.5693C188.651 27.9483 188.797 28.3806 188.863 28.8726H187.633C187.494 28.2143 187.19 27.7222 186.721 27.3898L186.727 27.3765Z" fill="white"/>
    <path d="M195.897 26.0664L199.5 35.3426H198.145L197.14 32.5498H193.239L192.208 35.3426H190.952L194.541 26.0664H195.897ZM196.75 31.5124L195.209 27.1835H195.183L193.623 31.5124H196.75Z" fill="white"/>
    <path d="M72.3821 48.3691V49.4065H67.2387V52.3589H72.0317V53.3963H67.2387V56.608H72.4218V57.6454H66.0156V48.3691H72.3821Z" fill="white"/>
    <path d="M80.0775 49.6396C79.6676 49.3404 79.1453 49.1941 78.5107 49.1941C78.2528 49.1941 78.0016 49.2207 77.7504 49.2739C77.4992 49.3271 77.281 49.4135 77.0827 49.5332C76.891 49.6529 76.7323 49.8191 76.6199 50.0186C76.5009 50.2248 76.448 50.4775 76.448 50.7767C76.448 51.0626 76.534 51.2954 76.6992 51.4749C76.8645 51.6544 77.0893 51.8007 77.3736 51.9071C77.6512 52.0202 77.9686 52.1133 78.3256 52.1864C78.676 52.2596 79.0396 52.3393 79.4032 52.4258C79.7668 52.5122 80.1304 52.612 80.4808 52.7317C80.8312 52.8514 81.1485 53.0043 81.4328 53.2038C81.7104 53.4033 81.9352 53.656 82.1071 53.9552C82.2724 54.2611 82.3583 54.6401 82.3583 55.0989C82.3583 55.591 82.2459 56.0166 82.0278 56.369C81.8096 56.7214 81.5253 57.0074 81.1816 57.2268C80.8378 57.4463 80.4543 57.6058 80.0246 57.7056C79.5949 57.8053 79.1718 57.8519 78.7487 57.8519C78.233 57.8519 77.7438 57.7854 77.281 57.659C76.8182 57.5327 76.415 57.3332 76.0646 57.0672C75.7142 56.8012 75.4431 56.4621 75.2382 56.0498C75.0333 55.6376 74.9341 55.1521 74.9341 54.5869H76.0976C76.0976 54.9792 76.1704 55.3117 76.3224 55.5977C76.4745 55.8769 76.6728 56.1097 76.9174 56.2892C77.162 56.4688 77.4463 56.6084 77.7768 56.6948C78.1074 56.7813 78.438 56.8278 78.7883 56.8278C79.066 56.8278 79.3437 56.8012 79.6213 56.748C79.899 56.6948 80.1502 56.6084 80.375 56.4821C80.5998 56.3557 80.7783 56.1828 80.9171 55.97C81.0559 55.7506 81.1221 55.478 81.1221 55.1388C81.1221 54.7997 81.0361 54.5603 80.8708 54.3608C80.7056 54.1613 80.4808 54.0017 80.2031 53.8754C79.9254 53.7491 79.6081 53.6493 79.2511 53.5695C78.8941 53.4897 78.5371 53.4099 78.1735 53.3301C77.8099 53.2503 77.4463 53.1506 77.0959 53.0442C76.7455 52.9378 76.4282 52.7915 76.1439 52.6186C75.8662 52.4391 75.6415 52.213 75.4762 51.9271C75.3109 51.6478 75.225 51.2954 75.225 50.8698C75.225 50.4043 75.3175 49.9987 75.5092 49.6529C75.701 49.3071 75.9522 49.0278 76.2629 48.8084C76.5736 48.589 76.9372 48.4227 77.3339 48.3163C77.7372 48.2099 78.1471 48.1567 78.5702 48.1567C79.0462 48.1567 79.4825 48.2099 79.8858 48.323C80.2891 48.436 80.6461 48.6156 80.9502 48.855C81.2543 49.0943 81.4989 49.4002 81.6774 49.7726C81.8559 50.1383 81.9484 50.5839 81.9683 51.0892H80.8047C80.7386 50.4243 80.494 49.9388 80.0907 49.6396H80.0775Z" fill="white"/>
    <path d="M84.3945 49.4065V48.3691H91.7725V49.4065H88.6983V57.6454H87.4687V49.4065H84.3945Z" fill="white"/>
    <path d="M99.1901 50.3974C99.3091 49.9984 99.5009 49.6526 99.7521 49.3667C100.003 49.0741 100.321 48.848 100.704 48.6884C101.081 48.5222 101.511 48.4424 101.993 48.4424C102.39 48.4424 102.76 48.5022 103.111 48.6153C103.461 48.735 103.765 48.9012 104.023 49.1206C104.281 49.3401 104.486 49.6127 104.638 49.9452C104.79 50.271 104.862 50.6567 104.862 51.0889C104.862 51.4946 104.803 51.8536 104.677 52.1662C104.552 52.4787 104.386 52.758 104.181 53.004C103.977 53.2501 103.739 53.4761 103.474 53.6756C103.21 53.8751 102.932 54.068 102.648 54.2475C102.363 54.4204 102.079 54.5933 101.795 54.7595C101.511 54.9258 101.246 55.1053 101.015 55.2981C100.777 55.491 100.578 55.6971 100.407 55.9166C100.241 56.136 100.129 56.3887 100.076 56.6746H104.776V57.6521H98.7935C98.8397 57.1068 98.9323 56.6414 99.0843 56.2557C99.2364 55.87 99.4281 55.5309 99.6595 55.2449C99.8909 54.959 100.155 54.7063 100.446 54.4935C100.737 54.2741 101.041 54.0746 101.365 53.8818C101.755 53.6424 102.092 53.4163 102.383 53.2102C102.674 53.004 102.919 52.7979 103.117 52.5917C103.309 52.3856 103.454 52.1595 103.553 51.9135C103.653 51.6741 103.699 51.3882 103.699 51.069C103.699 50.8163 103.653 50.5902 103.56 50.3907C103.467 50.1846 103.335 50.0117 103.177 49.8654C103.018 49.7191 102.833 49.6061 102.615 49.5263C102.397 49.4465 102.172 49.4066 101.934 49.4066C101.616 49.4066 101.339 49.4731 101.114 49.6061C100.883 49.7391 100.697 49.9186 100.552 50.1314C100.407 50.3508 100.301 50.5902 100.235 50.8628C100.169 51.1355 100.142 51.4081 100.149 51.6874H99.0513C99.0249 51.2219 99.0711 50.7897 99.1901 50.3907V50.3974Z" fill="white"/>
    <path d="M107.778 52.0731C107.798 51.7073 107.837 51.3549 107.91 51.0091C107.976 50.6634 108.075 50.3309 108.208 50.025C108.34 49.7125 108.512 49.4398 108.737 49.2071C108.961 48.9744 109.239 48.7882 109.583 48.6485C109.92 48.5089 110.33 48.4424 110.806 48.4424C111.282 48.4424 111.685 48.5089 112.029 48.6485C112.366 48.7882 112.65 48.9744 112.875 49.2071C113.1 49.4398 113.278 49.7125 113.404 50.025C113.536 50.3375 113.629 50.6634 113.701 51.0091C113.768 51.3549 113.814 51.714 113.834 52.0731C113.853 52.4388 113.86 52.7846 113.86 53.1237C113.86 53.4628 113.853 53.8153 113.834 54.1744C113.814 54.5401 113.774 54.8925 113.701 55.2383C113.635 55.5841 113.536 55.9099 113.404 56.2224C113.272 56.535 113.1 56.8009 112.875 57.0337C112.65 57.2664 112.373 57.4526 112.035 57.5856C111.698 57.7186 111.288 57.7851 110.806 57.7851C110.323 57.7851 109.927 57.7186 109.583 57.5856C109.239 57.4526 108.961 57.2664 108.737 57.0337C108.512 56.8009 108.34 56.5283 108.208 56.2224C108.075 55.9166 107.983 55.5907 107.91 55.2383C107.844 54.8925 107.798 54.5401 107.778 54.1744C107.758 53.8086 107.751 53.4562 107.751 53.1237C107.751 52.7912 107.758 52.4322 107.778 52.0731ZM108.948 54.2741C108.968 54.7063 109.041 55.1053 109.153 55.4843C109.272 55.8634 109.457 56.1825 109.715 56.4419C109.973 56.7012 110.336 56.8342 110.799 56.8342C111.262 56.8342 111.626 56.7012 111.883 56.4419C112.141 56.1825 112.326 55.8634 112.445 55.4843C112.564 55.1053 112.63 54.7063 112.65 54.2741C112.67 53.8485 112.683 53.4562 112.683 53.1104C112.683 52.8843 112.683 52.6383 112.683 52.3657C112.683 52.093 112.657 51.8204 112.617 51.5478C112.578 51.2751 112.525 51.0091 112.452 50.7498C112.379 50.4905 112.273 50.2644 112.128 50.0649C111.983 49.8654 111.811 49.7125 111.593 49.5928C111.374 49.4731 111.117 49.4132 110.806 49.4132C110.495 49.4132 110.231 49.4731 110.019 49.5928C109.801 49.7125 109.622 49.8721 109.484 50.0649C109.345 50.2577 109.232 50.4838 109.16 50.7498C109.087 51.0091 109.027 51.2751 108.994 51.5478C108.955 51.8204 108.935 52.093 108.928 52.3657C108.928 52.6383 108.928 52.8843 108.928 53.1104C108.928 53.4562 108.941 53.8419 108.961 54.2741H108.948Z" fill="white"/>
    <path d="M116.65 50.3974C116.769 49.9984 116.961 49.6526 117.212 49.3667C117.463 49.0741 117.78 48.848 118.164 48.6884C118.541 48.5222 118.97 48.4424 119.453 48.4424C119.85 48.4424 120.22 48.5022 120.57 48.6153C120.921 48.735 121.225 48.9012 121.483 49.1206C121.74 49.3401 121.945 49.6127 122.097 49.9452C122.249 50.271 122.322 50.6567 122.322 51.0889C122.322 51.4946 122.263 51.8536 122.137 52.1662C122.011 52.4787 121.846 52.758 121.641 53.004C121.436 53.2501 121.198 53.4761 120.927 53.6756C120.663 53.8751 120.385 54.068 120.101 54.2475C119.817 54.4204 119.532 54.5933 119.248 54.7595C118.964 54.9258 118.706 55.1053 118.468 55.2981C118.23 55.491 118.032 55.6971 117.86 55.9166C117.688 56.136 117.582 56.3887 117.529 56.6746H122.23V57.6521H116.247C116.293 57.1068 116.385 56.6414 116.537 56.2557C116.69 55.87 116.881 55.5309 117.113 55.2449C117.344 54.959 117.608 54.7063 117.899 54.4935C118.19 54.2741 118.501 54.0746 118.818 53.8818C119.208 53.6424 119.546 53.4163 119.836 53.2102C120.127 53.004 120.372 52.7979 120.564 52.5917C120.755 52.3856 120.901 52.1595 121 51.9135C121.099 51.6674 121.145 51.3882 121.145 51.069C121.145 50.8163 121.099 50.5902 121.007 50.3907C120.914 50.1846 120.788 50.0117 120.623 49.8654C120.464 49.7191 120.279 49.6061 120.061 49.5263C119.843 49.4465 119.618 49.4066 119.374 49.4066C119.056 49.4066 118.779 49.4731 118.554 49.6061C118.329 49.7391 118.137 49.9186 117.992 50.1314C117.846 50.3508 117.741 50.5902 117.675 50.8628C117.608 51.1355 117.582 51.4081 117.589 51.6874H116.491C116.465 51.2219 116.511 50.7897 116.63 50.3907L116.65 50.3974Z" fill="white"/>
    <path d="M125.244 52.0731C125.264 51.7073 125.304 51.3549 125.376 51.0091C125.443 50.6634 125.542 50.3309 125.674 50.025C125.806 49.7125 125.978 49.4398 126.203 49.2071C126.428 48.9744 126.705 48.7882 127.049 48.6485C127.386 48.5089 127.796 48.4424 128.272 48.4424C128.748 48.4424 129.151 48.5089 129.495 48.6485C129.832 48.7882 130.117 48.9744 130.341 49.2071C130.566 49.4398 130.745 49.7125 130.87 50.025C131.002 50.3375 131.095 50.6634 131.168 51.0091C131.234 51.3549 131.28 51.714 131.3 52.0731C131.32 52.4388 131.326 52.7846 131.326 53.1237C131.326 53.4628 131.32 53.8153 131.3 54.1744C131.28 54.5401 131.24 54.8925 131.168 55.2383C131.102 55.5841 131.002 55.9099 130.87 56.2224C130.738 56.535 130.566 56.8009 130.341 57.0337C130.117 57.2664 129.839 57.4526 129.502 57.5856C129.165 57.7186 128.755 57.7851 128.272 57.7851C127.789 57.7851 127.393 57.7186 127.049 57.5856C126.705 57.4526 126.428 57.2664 126.203 57.0337C125.978 56.8009 125.806 56.5283 125.674 56.2224C125.542 55.9166 125.449 55.5907 125.376 55.2383C125.31 54.8925 125.264 54.5401 125.244 54.1744C125.224 53.8086 125.218 53.4562 125.218 53.1237C125.218 52.7912 125.224 52.4322 125.244 52.0731ZM126.414 54.2741C126.434 54.7063 126.507 55.1053 126.619 55.4843C126.738 55.8634 126.923 56.1825 127.181 56.4419C127.439 56.7012 127.803 56.8342 128.265 56.8342C128.728 56.8342 129.092 56.7012 129.35 56.4419C129.608 56.1825 129.793 55.8634 129.912 55.4843C130.031 55.1053 130.097 54.7063 130.117 54.2741C130.136 53.8485 130.15 53.4562 130.15 53.1104C130.15 52.8843 130.15 52.6383 130.15 52.3657C130.15 52.093 130.123 51.8204 130.084 51.5478C130.044 51.2751 129.991 51.0091 129.918 50.7498C129.846 50.4905 129.74 50.2644 129.594 50.0649C129.449 49.8654 129.277 49.7125 129.059 49.5928C128.841 49.4731 128.583 49.4132 128.272 49.4132C127.961 49.4132 127.697 49.4731 127.485 49.5928C127.267 49.7125 127.089 49.8721 126.95 50.0649C126.811 50.2577 126.699 50.4838 126.626 50.7498C126.553 51.0091 126.494 51.2751 126.461 51.5478C126.421 51.8204 126.401 52.093 126.395 52.3657C126.395 52.6383 126.395 52.8843 126.395 53.1104C126.395 53.4562 126.408 53.8419 126.428 54.2741H126.414Z" fill="white"/>
    <path d="M135.915 56.2024V57.5124C135.915 58.0045 135.802 58.4301 135.578 58.7892C135.353 59.1416 134.989 59.3943 134.493 59.5406V58.8889C134.639 58.8357 134.764 58.7626 134.864 58.6628C134.963 58.5631 135.042 58.4567 135.102 58.337C135.161 58.2173 135.201 58.0976 135.227 57.9779C135.254 57.8582 135.254 57.7452 135.247 57.6388H134.487V56.1958H135.921L135.915 56.2024Z" fill="white"/>
    <path d="M151.12 56.9673C150.492 57.5591 149.593 57.8583 148.436 57.8583C147.279 57.8583 146.321 57.5724 145.653 57.0072C144.985 56.442 144.648 55.5376 144.648 54.3008V48.376H145.878V54.3008C145.878 55.132 146.096 55.7637 146.539 56.1893C146.975 56.6149 147.61 56.8343 148.436 56.8343C149.223 56.8343 149.818 56.6215 150.228 56.1893C150.638 55.7571 150.843 55.132 150.843 54.3008V48.376H152.072V54.3008C152.072 55.4911 151.755 56.3755 151.127 56.9739L151.12 56.9673Z" fill="white"/>
    <path d="M160.197 49.6396C159.787 49.3404 159.265 49.1941 158.63 49.1941C158.372 49.1941 158.115 49.2207 157.87 49.2739C157.619 49.3271 157.401 49.4135 157.202 49.5332C157.011 49.6529 156.852 49.8191 156.74 50.0186C156.621 50.2248 156.568 50.4775 156.568 50.7767C156.568 51.0626 156.654 51.2954 156.819 51.4749C156.984 51.6544 157.209 51.8007 157.493 51.9071C157.771 52.0202 158.088 52.1133 158.445 52.1864C158.796 52.2596 159.159 52.3393 159.523 52.4258C159.886 52.5122 160.25 52.612 160.6 52.7317C160.951 52.8514 161.268 53.0043 161.552 53.2038C161.83 53.4033 162.055 53.656 162.227 53.9552C162.392 54.2611 162.478 54.6401 162.478 55.0989C162.478 55.591 162.366 56.0166 162.147 56.369C161.929 56.7214 161.645 57.0074 161.301 57.2268C160.957 57.4463 160.574 57.6058 160.144 57.7056C159.715 57.8053 159.291 57.8519 158.868 57.8519C158.353 57.8519 157.863 57.7854 157.401 57.659C156.938 57.526 156.535 57.3332 156.184 57.0672C155.834 56.8012 155.563 56.4621 155.358 56.0498C155.153 55.6376 155.054 55.1521 155.054 54.5869H156.217C156.217 54.9792 156.29 55.3117 156.442 55.5977C156.594 55.8769 156.792 56.1097 157.037 56.2892C157.282 56.4688 157.566 56.6084 157.896 56.6948C158.22 56.7813 158.558 56.8278 158.901 56.8278C159.179 56.8278 159.457 56.8012 159.734 56.748C160.012 56.6948 160.263 56.6084 160.488 56.4821C160.713 56.3557 160.891 56.1828 161.03 55.97C161.169 55.7506 161.235 55.478 161.235 55.1388C161.235 54.7997 161.149 54.5603 160.984 54.3608C160.819 54.1613 160.594 54.0017 160.31 53.8754C160.032 53.7491 159.715 53.6493 159.358 53.5695C159.001 53.4897 158.644 53.4099 158.28 53.3301C157.916 53.2503 157.553 53.1506 157.202 53.0442C156.852 52.9378 156.535 52.7915 156.25 52.6186C155.973 52.4391 155.748 52.213 155.576 51.9271C155.411 51.6478 155.325 51.2954 155.325 50.8698C155.325 50.4043 155.417 49.9987 155.609 49.6529C155.801 49.3138 156.052 49.0278 156.363 48.8084C156.68 48.589 157.037 48.4227 157.434 48.3163C157.83 48.2099 158.247 48.1567 158.67 48.1567C159.146 48.1567 159.582 48.2099 159.986 48.323C160.389 48.436 160.746 48.6156 161.05 48.855C161.354 49.0943 161.599 49.4002 161.771 49.7726C161.942 50.145 162.042 50.5839 162.061 51.0892H160.898C160.832 50.4243 160.587 49.9388 160.184 49.6396H160.197Z" fill="white"/>
    <path d="M169.36 48.3691L172.963 57.6454H171.608L170.603 54.8525H166.702L165.671 57.6454H164.415L168.005 48.3691H169.36ZM170.213 53.8152L168.673 49.4863H168.646L167.086 53.8152H170.213Z" fill="white"/>
    <path d="M6.09304 86.6512V85.6072C6.09304 85.4211 6.11287 85.2415 6.15254 85.0753C6.1922 84.909 6.25831 84.7627 6.33765 84.6364C6.42359 84.5101 6.52937 84.4103 6.66159 84.3372C6.79381 84.264 6.94587 84.2241 7.11775 84.2241V84.6962C7.01198 84.6962 6.92603 84.7228 6.85331 84.776C6.7872 84.8292 6.7277 84.9024 6.68803 84.9888C6.64176 85.0753 6.61531 85.175 6.60209 85.2881C6.58887 85.3944 6.57565 85.5075 6.57565 85.6139H7.12437V86.6579H6.08643L6.09304 86.6512ZM7.80531 86.6512V85.6072C7.80531 85.4211 7.82514 85.2415 7.86481 85.0753C7.90447 84.909 7.97058 84.7627 8.04992 84.6364C8.13586 84.5101 8.24164 84.4103 8.37386 84.3372C8.50608 84.264 8.65814 84.2241 8.83002 84.2241V84.6962C8.72425 84.6962 8.6383 84.7228 8.56558 84.776C8.49947 84.8292 8.43997 84.9024 8.4003 84.9888C8.35403 85.0753 8.32758 85.175 8.30775 85.2881C8.29453 85.3944 8.2813 85.5075 8.2813 85.6139H8.83663V86.6579H7.7987L7.80531 86.6512Z" fill="white"/>
    <path d="M14.0658 90.9402H13.1799V88.1939L10.6016 84.2241H11.6593L13.6625 87.4226L15.6128 84.2241H16.6243L14.0724 88.1939V90.9402H14.0658Z" fill="white"/>
    <path d="M18.317 86.2657C18.4492 85.8401 18.6542 85.4677 18.9186 85.1419C19.183 84.816 19.5202 84.5567 19.9169 84.3639C20.3135 84.171 20.7829 84.0713 21.3118 84.0713C21.8407 84.0713 22.3035 84.171 22.7067 84.3639C23.1034 84.5567 23.4406 84.816 23.705 85.1419C23.9695 85.4677 24.1744 85.8401 24.3066 86.2657C24.4388 86.6912 24.505 87.1301 24.505 87.5889C24.505 88.0478 24.4388 88.4866 24.3066 88.9122C24.1744 89.3378 23.9695 89.7102 23.705 90.036C23.434 90.3618 23.1034 90.6212 22.7067 90.814C22.3101 91.0068 21.8473 91.0999 21.3118 91.0999C20.7763 91.0999 20.3201 91.0068 19.9169 90.814C19.5136 90.6212 19.183 90.3618 18.9186 90.036C18.6475 89.7102 18.4492 89.3378 18.317 88.9122C18.1848 88.4866 18.1187 88.0478 18.1187 87.5889C18.1187 87.1301 18.1848 86.6912 18.317 86.2657ZM19.1368 88.5864C19.2227 88.9122 19.3615 89.2114 19.5466 89.4774C19.7318 89.7434 19.9764 89.9562 20.2673 90.1158C20.5581 90.2754 20.9085 90.3552 21.3118 90.3552C21.7151 90.3552 22.0655 90.2754 22.3564 90.1158C22.6472 89.9562 22.8919 89.7434 23.077 89.4774C23.2621 89.2114 23.4009 88.9189 23.4868 88.5864C23.5728 88.2605 23.6191 87.9214 23.6191 87.5823C23.6191 87.2432 23.5728 86.9107 23.4868 86.5782C23.4009 86.2524 23.2621 85.9531 23.077 85.6871C22.8919 85.4212 22.6472 85.215 22.3564 85.0488C22.0655 84.8892 21.7151 84.8094 21.3118 84.8094C20.9085 84.8094 20.5581 84.8892 20.2673 85.0488C19.9764 85.2084 19.7318 85.4212 19.5466 85.6871C19.3615 85.9531 19.2227 86.2457 19.1368 86.5782C19.0508 86.904 19.0045 87.2432 19.0045 87.5823C19.0045 87.9214 19.0508 88.2539 19.1368 88.5864Z" fill="white"/>
    <path d="M31.3606 90.4482C30.9044 90.8804 30.2565 91.0932 29.4169 91.0932C28.5773 91.0932 27.8832 90.887 27.4006 90.4748C26.9179 90.0625 26.6733 89.4108 26.6733 88.5131V84.2241H27.5592V88.5131C27.5592 89.1116 27.7179 89.5704 28.0352 89.8829C28.3526 90.1955 28.8087 90.3484 29.4103 90.3484C29.9789 90.3484 30.4086 90.1955 30.7061 89.8829C31.0036 89.5704 31.149 89.1182 31.149 88.5131V84.2241H32.0349V88.5131C32.0349 89.3709 31.8101 90.0159 31.354 90.4482H31.3606Z" fill="white"/>
    <path d="M37.7272 84.231C38.3618 84.231 38.8577 84.3905 39.2213 84.7031C39.5783 85.0156 39.7568 85.4478 39.7568 85.9931C39.7568 86.3987 39.6642 86.7578 39.4791 87.0637C39.294 87.3696 39.0031 87.5824 38.5932 87.6954V87.7154C38.7849 87.7553 38.9436 87.8151 39.0626 87.9015C39.1882 87.988 39.2808 88.0944 39.3535 88.2141C39.4262 88.3338 39.4791 88.4734 39.5122 88.6197C39.5452 88.7726 39.5717 88.9256 39.5915 89.0918C39.6047 89.2581 39.6113 89.4177 39.6179 89.5905C39.6179 89.7568 39.6378 89.923 39.6642 90.0893C39.6907 90.2489 39.7237 90.4084 39.77 90.5547C39.8163 90.701 39.889 90.834 39.9816 90.9471H38.9899C38.9304 90.8806 38.8841 90.7875 38.8643 90.6678C38.8444 90.5481 38.8312 90.4151 38.8246 90.2688C38.8246 90.1225 38.8114 89.9629 38.8048 89.7967C38.8048 89.6238 38.7783 89.4642 38.7519 89.298C38.7254 89.1384 38.699 88.9788 38.6593 88.8325C38.6197 88.6862 38.5602 88.5599 38.4808 88.4468C38.4015 88.3338 38.2957 88.2473 38.1635 88.1808C38.0313 88.1143 37.8594 88.0811 37.6412 88.0811H35.4728V90.9471H34.5869V84.231H37.7272ZM37.9123 87.2765C38.0974 87.2432 38.2627 87.1834 38.4015 87.0903C38.5403 86.9972 38.6527 86.8775 38.7387 86.7246C38.8246 86.5716 38.8643 86.3721 38.8643 86.1261C38.8643 85.787 38.7717 85.5143 38.5866 85.3015C38.4015 85.0888 38.0974 84.9824 37.6809 84.9824H35.4728V87.323H37.3239C37.5288 87.323 37.7272 87.3097 37.9123 87.2765Z" fill="white"/>
    <path d="M21.9728 97.1377V103.102H25.5097V103.854H21.0869V97.1377H21.9728Z" fill="white"/>
    <path d="M27.2354 99.1724C27.3677 98.7468 27.5726 98.3744 27.837 98.0486C28.1015 97.7228 28.4387 97.4635 28.8353 97.2706C29.232 97.0778 29.7014 96.978 30.2303 96.978C30.7591 96.978 31.2219 97.0778 31.6252 97.2706C32.0219 97.4635 32.359 97.7228 32.6235 98.0486C32.8879 98.3744 33.0929 98.7468 33.2251 99.1724C33.3573 99.598 33.4234 100.037 33.4234 100.496C33.4234 100.955 33.3573 101.393 33.2251 101.819C33.0929 102.245 32.8879 102.617 32.6235 102.943C32.3524 103.269 32.0219 103.528 31.6252 103.721C31.2285 103.914 30.7658 104.007 30.2303 104.007C29.6948 104.007 29.2386 103.914 28.8353 103.721C28.432 103.528 28.1015 103.269 27.837 102.943C27.566 102.617 27.3677 102.245 27.2354 101.819C27.1032 101.393 27.0371 100.955 27.0371 100.496C27.0371 100.037 27.1032 99.598 27.2354 99.1724ZM28.0552 101.493C28.1412 101.819 28.28 102.118 28.4651 102.384C28.6502 102.65 28.8948 102.863 29.1857 103.023C29.4766 103.182 29.827 103.262 30.2303 103.262C30.6335 103.262 30.9839 103.182 31.2748 103.023C31.5657 102.863 31.8103 102.65 31.9954 102.384C32.1805 102.118 32.3194 101.826 32.4053 101.493C32.4912 101.167 32.5375 100.828 32.5375 100.489C32.5375 100.15 32.4912 99.8174 32.4053 99.4849C32.3194 99.1591 32.1805 98.8599 31.9954 98.5939C31.8103 98.3279 31.5657 98.1218 31.2748 97.9555C30.9839 97.7959 30.6335 97.7161 30.2303 97.7161C29.827 97.7161 29.4766 97.7959 29.1857 97.9555C28.8948 98.1151 28.6502 98.3279 28.4651 98.5939C28.28 98.8599 28.1412 99.1525 28.0552 99.4849C27.9693 99.8108 27.923 100.15 27.923 100.489C27.923 100.828 27.9693 101.161 28.0552 101.493Z" fill="white"/>
    <path d="M39.6641 98.0888C39.3269 97.8494 38.917 97.7297 38.4543 97.7297C38.0576 97.7297 37.7138 97.8029 37.4295 97.9558C37.1453 98.1088 36.9139 98.3083 36.7288 98.5609C36.5437 98.8136 36.4114 99.1062 36.3189 99.432C36.2329 99.7579 36.1867 100.097 36.1867 100.449C36.1867 100.828 36.2329 101.194 36.3189 101.533C36.4048 101.872 36.5437 102.172 36.7288 102.424C36.9139 102.677 37.1453 102.883 37.4362 103.029C37.727 103.176 38.0642 103.256 38.4609 103.256C38.7518 103.256 39.0162 103.209 39.241 103.109C39.4658 103.01 39.6641 102.877 39.8294 102.704C39.9946 102.531 40.1269 102.325 40.2194 102.085C40.312 101.846 40.3715 101.593 40.3847 101.314H41.2706C41.1846 102.158 40.8938 102.817 40.4045 103.289C39.9153 103.761 39.241 103.994 38.3882 103.994C37.8725 103.994 37.4163 103.907 37.0329 103.728C36.6428 103.548 36.3255 103.302 36.0677 102.99C35.8098 102.677 35.6181 102.305 35.4925 101.879C35.3669 101.454 35.3008 100.995 35.3008 100.509C35.3008 100.024 35.3669 99.5584 35.5057 99.1328C35.6446 98.7072 35.8429 98.3282 36.1073 98.009C36.3718 97.6898 36.7023 97.4372 37.099 97.251C37.4957 97.0648 37.9452 96.9717 38.4609 96.9717C38.8113 96.9717 39.1418 97.0182 39.4525 97.1113C39.7633 97.2044 40.0409 97.3441 40.2855 97.5236C40.5301 97.7031 40.7285 97.9292 40.8938 98.2085C41.059 98.4811 41.1648 98.7937 41.2111 99.1528H40.3252C40.226 98.674 40.0079 98.3216 39.6641 98.0822V98.0888Z" fill="white"/>
    <path d="M46.2951 97.1377L48.8999 103.854H47.9148L47.1876 101.832H44.3647L43.6176 103.854H42.7119L45.3101 97.1377H46.2951ZM46.9099 101.081L45.7993 97.9489H45.7795L44.649 101.081H46.9099Z" fill="white"/>
    <path d="M51.5707 97.1377V103.102H55.101V103.854H50.6782V97.1377H51.5641H51.5707Z" fill="white"/>
    <path d="M64.0658 98.0553C63.7683 97.8358 63.3915 97.7294 62.9287 97.7294C62.7436 97.7294 62.5585 97.7494 62.3734 97.7826C62.1949 97.8225 62.0296 97.8824 61.8908 97.9688C61.7519 98.0553 61.6396 98.175 61.5536 98.3213C61.4677 98.4675 61.428 98.6537 61.428 98.8732C61.428 99.0793 61.4875 99.2455 61.6131 99.3785C61.7387 99.5115 61.8974 99.6113 62.0957 99.6911C62.3007 99.7709 62.5254 99.8374 62.7833 99.8906C63.0411 99.9438 63.2989 100.004 63.5634 100.063C63.8278 100.123 64.0857 100.196 64.3435 100.283C64.6013 100.369 64.8261 100.482 65.031 100.629C65.236 100.775 65.3947 100.954 65.5203 101.174C65.6393 101.393 65.7054 101.666 65.7054 101.998C65.7054 102.358 65.626 102.663 65.4674 102.916C65.3087 103.169 65.1038 103.375 64.8525 103.535C64.6013 103.694 64.3237 103.807 64.0129 103.88C63.7022 103.953 63.3981 103.987 63.094 103.987C62.7172 103.987 62.3668 103.94 62.0296 103.847C61.6991 103.754 61.4016 103.608 61.1503 103.422C60.8991 103.229 60.7008 102.983 60.5487 102.69C60.4033 102.391 60.3306 102.038 60.3306 101.633H61.1702C61.1702 101.912 61.2231 102.158 61.3354 102.364C61.4412 102.57 61.5867 102.737 61.7652 102.87C61.9437 103.003 62.1486 103.096 62.3866 103.162C62.6246 103.222 62.8692 103.255 63.1138 103.255C63.3122 103.255 63.5105 103.235 63.7154 103.202C63.9204 103.169 64.0989 103.102 64.2642 103.009C64.4228 102.916 64.555 102.796 64.6542 102.637C64.7534 102.484 64.8063 102.278 64.8063 102.038C64.8063 101.806 64.7468 101.619 64.6212 101.473C64.4955 101.327 64.3369 101.214 64.1385 101.121C63.9402 101.028 63.7088 100.955 63.451 100.901C63.1932 100.848 62.9353 100.788 62.6709 100.728C62.4064 100.669 62.1486 100.602 61.8908 100.522C61.6329 100.442 61.4082 100.343 61.2032 100.21C60.9983 100.083 60.8396 99.9172 60.7206 99.711C60.6016 99.5049 60.5355 99.2522 60.5355 98.9463C60.5355 98.6072 60.6016 98.3146 60.7405 98.0686C60.8793 97.8225 61.0578 97.6164 61.2892 97.4568C61.5139 97.2972 61.7718 97.1775 62.0627 97.0977C62.3536 97.0179 62.6511 96.978 62.9552 96.978C63.2989 96.978 63.6163 97.0179 63.9072 97.0977C64.1981 97.1775 64.4559 97.3105 64.6807 97.4834C64.8988 97.6563 65.0773 97.8824 65.2029 98.1484C65.3285 98.4144 65.4013 98.7335 65.4145 99.0993H64.5749C64.5286 98.6138 64.3501 98.2681 64.0592 98.0486L64.0658 98.0553Z" fill="white"/>
    <path d="M67.1926 97.8891V97.1377H72.5278V97.8891H70.2999V103.854H69.414V97.8891H67.186H67.1926Z" fill="white"/>
    <path d="M79.033 103.362C78.5768 103.794 77.9289 104.007 77.0893 104.007C76.2497 104.007 75.5555 103.801 75.0729 103.388C74.5903 102.976 74.3457 102.324 74.3457 101.427V97.1377H75.2316V101.427C75.2316 102.025 75.3903 102.484 75.7076 102.797C76.0249 103.109 76.4811 103.262 77.0827 103.262C77.6512 103.262 78.081 103.109 78.3785 102.797C78.676 102.484 78.8214 102.032 78.8214 101.427V97.1377H79.7073V101.427C79.7073 102.284 79.4825 102.93 79.0263 103.362H79.033Z" fill="white"/>
    <path d="M84.5467 97.1377C85.5714 97.1377 86.3648 97.4037 86.9201 97.929C87.4754 98.4543 87.7531 99.2589 87.7531 100.336C87.7531 100.901 87.6936 101.4 87.568 101.839C87.4424 102.278 87.2506 102.644 86.9862 102.943C86.7218 103.242 86.3912 103.468 85.9879 103.621C85.5847 103.781 85.102 103.854 84.5467 103.854H82.2593V97.1377H84.5467ZM84.6194 103.102C84.7186 103.102 84.8442 103.096 84.9963 103.076C85.1483 103.062 85.307 103.023 85.4723 102.963C85.6375 102.903 85.8094 102.816 85.9747 102.703C86.14 102.59 86.2854 102.437 86.4177 102.245C86.5499 102.052 86.6556 101.806 86.7416 101.513C86.8275 101.221 86.8672 100.868 86.8672 100.456C86.8672 100.044 86.8275 99.6978 86.7482 99.3786C86.6689 99.0594 86.5433 98.7934 86.3648 98.5674C86.1863 98.3413 85.9615 98.175 85.6772 98.062C85.3995 97.9423 85.0492 97.8891 84.6393 97.8891H83.1452V103.096H84.6194V103.102Z" fill="white"/>
    <path d="M90.8869 97.1377V103.854H90.001V97.1377H90.8869Z" fill="white"/>
    <path d="M93.3326 99.1724C93.4648 98.7468 93.6698 98.3744 93.9342 98.0486C94.1987 97.7228 94.5358 97.4635 94.9325 97.2706C95.3292 97.0778 95.7985 96.978 96.3274 96.978C96.8563 96.978 97.3191 97.0778 97.7224 97.2706C98.119 97.4635 98.4562 97.7228 98.7206 98.0486C98.9851 98.3744 99.19 98.7468 99.3222 99.1724C99.4545 99.598 99.5206 100.037 99.5206 100.496C99.5206 100.955 99.4545 101.393 99.3222 101.819C99.19 102.245 98.9851 102.617 98.7206 102.943C98.4496 103.269 98.119 103.528 97.7224 103.721C97.3257 103.914 96.8629 104.007 96.3274 104.007C95.7919 104.007 95.3358 103.914 94.9325 103.721C94.5292 103.528 94.1987 103.269 93.9342 102.943C93.6632 102.617 93.4648 102.245 93.3326 101.819C93.2004 101.393 93.1343 100.955 93.1343 100.496C93.1343 100.037 93.2004 99.598 93.3326 99.1724ZM94.1524 101.493C94.2383 101.819 94.3772 102.118 94.5623 102.384C94.7474 102.65 94.992 102.863 95.2829 103.023C95.5738 103.182 95.9242 103.262 96.3274 103.262C96.7307 103.262 97.0811 103.182 97.372 103.023C97.6629 102.863 97.9075 102.65 98.0926 102.384C98.2777 102.118 98.4165 101.826 98.5025 101.493C98.5884 101.167 98.6347 100.828 98.6347 100.489C98.6347 100.15 98.5884 99.8174 98.5025 99.4849C98.4165 99.1591 98.2777 98.8599 98.0926 98.5939C97.9075 98.3279 97.6629 98.1218 97.372 97.9555C97.0811 97.7959 96.7307 97.7161 96.3274 97.7161C95.9242 97.7161 95.5738 97.7959 95.2829 97.9555C94.992 98.1151 94.7474 98.3279 94.5623 98.5939C94.3772 98.8599 94.2383 99.1525 94.1524 99.4849C94.0664 99.8108 94.0202 100.15 94.0202 100.489C94.0202 100.828 94.0664 101.161 94.1524 101.493Z" fill="white"/>
    <path d="M102.654 97.138V98.182C102.654 98.3682 102.635 98.5477 102.595 98.7139C102.555 98.8802 102.489 99.0265 102.41 99.1528C102.33 99.2792 102.218 99.3789 102.092 99.4521C101.967 99.5252 101.808 99.5651 101.63 99.5651V99.093C101.735 99.093 101.821 99.0664 101.894 99.0132C101.96 98.96 102.02 98.8868 102.059 98.8004C102.106 98.714 102.132 98.6142 102.145 98.5012C102.159 98.3881 102.172 98.2817 102.172 98.1753H101.623V97.1313H102.661L102.654 97.138ZM104.367 97.138V98.182C104.367 98.3682 104.347 98.5477 104.307 98.7139C104.267 98.8802 104.201 99.0265 104.122 99.1528C104.043 99.2792 103.93 99.3789 103.805 99.4521C103.679 99.5252 103.52 99.5651 103.342 99.5651V99.093C103.448 99.093 103.534 99.0664 103.606 99.0132C103.672 98.96 103.732 98.8868 103.772 98.8004C103.818 98.714 103.844 98.6142 103.858 98.5012C103.871 98.3881 103.884 98.2817 103.884 98.1753H103.335V97.1313H104.373L104.367 97.138Z" fill="white"/>
    <path d="M20.9283 62.5063C31.9075 62.5063 40.8079 56.1204 40.8079 48.2429C40.8079 40.3654 31.9075 33.9795 20.9283 33.9795C9.94919 33.9795 1.04883 40.3654 1.04883 48.2429C1.04883 56.1204 9.94919 62.5063 20.9283 62.5063Z" fill="white"/>
    <path d="M10.919 44.18H14.2708C14.8922 44.18 15.4145 44.2864 15.8376 44.4992C16.2607 44.712 16.5913 45.0045 16.8293 45.3703C17.0673 45.736 17.2193 46.1682 17.292 46.6603C17.3648 47.1524 17.3648 47.6843 17.292 48.2429C17.2193 48.8015 17.0739 49.3334 16.8689 49.8255C16.664 50.3176 16.3929 50.7498 16.0558 51.1155C15.7186 51.4813 15.3087 51.7739 14.8327 51.9866C14.3501 52.1994 13.8014 52.3058 13.1799 52.3058H9.82812L10.919 44.1733V44.18ZM11.4016 51.1488H12.7965C13.3452 51.1488 13.808 51.0756 14.1782 50.9293C14.5484 50.7831 14.8525 50.5769 15.0905 50.3176C15.3219 50.0582 15.5004 49.7457 15.6194 49.3933C15.7384 49.0409 15.8244 48.6618 15.8773 48.2496C15.9302 47.8373 15.95 47.4582 15.9235 47.1058C15.8971 46.7534 15.8045 46.4475 15.6393 46.1815C15.474 45.9222 15.2294 45.716 14.8922 45.5698C14.5617 45.4235 14.1187 45.3503 13.57 45.3503H12.1751L11.395 51.1554L11.4016 51.1488Z" fill="#221F20"/>
    <path d="M19.0173 44.1798H22.5807C23.1559 44.1798 23.612 44.2662 23.9492 44.4325C24.2864 44.5987 24.5376 44.8115 24.7029 45.0576C24.8681 45.3102 24.9607 45.5829 24.9937 45.8755C25.0268 46.168 25.0268 46.4473 24.9937 46.6934C24.9607 46.9394 24.888 47.2187 24.7756 47.5046C24.6632 47.7972 24.4979 48.0698 24.2665 48.3159C24.0351 48.5686 23.731 48.7747 23.3476 48.9343C22.9641 49.0939 22.4815 49.1803 21.913 49.1803H19.7644L19.3479 52.299H17.9331L19.0239 44.1665L19.0173 44.1798ZM19.9164 48.0299H21.9857C22.1444 48.0299 22.3096 48.01 22.4815 47.9634C22.6534 47.9169 22.8187 47.8437 22.9707 47.744C23.1228 47.6376 23.255 47.5046 23.3674 47.3317C23.4798 47.1588 23.5525 46.946 23.5856 46.6867C23.6186 46.4274 23.612 46.2013 23.5591 46.0284C23.5062 45.8555 23.4203 45.7159 23.3079 45.6161C23.1955 45.5164 23.0567 45.4432 22.8914 45.4033C22.7327 45.3634 22.5543 45.3435 22.3691 45.3435H20.2734L19.9164 48.0299Z" fill="#221F20"/>
    <path d="M26.6531 49.5994C26.6135 49.9119 26.6267 50.1779 26.706 50.3973C26.7853 50.6168 26.9043 50.7963 27.0762 50.936C27.2481 51.0756 27.4465 51.182 27.6845 51.2418C27.9225 51.3083 28.1803 51.3416 28.4712 51.3416C28.7819 51.3416 29.0529 51.3017 29.2777 51.2352C29.5091 51.1621 29.6942 51.069 29.8463 50.9559C29.9983 50.8429 30.1107 50.7099 30.1967 50.5636C30.276 50.4173 30.3289 50.2644 30.3487 50.1114C30.3884 49.7989 30.3487 49.5728 30.2297 49.4199C30.1107 49.2736 29.9719 49.1672 29.8132 49.1073C29.5422 49.0009 29.2182 48.9012 28.8546 48.8014C28.4844 48.7083 28.0348 48.582 27.4927 48.4291C27.1556 48.336 26.8845 48.2163 26.673 48.07C26.4614 47.9237 26.3027 47.7575 26.1904 47.5713C26.078 47.3917 26.0119 47.1989 25.9788 46.9927C25.9457 46.7866 25.9524 46.5805 25.9788 46.3677C26.0317 45.9554 26.1639 45.603 26.3755 45.3037C26.587 45.0045 26.8448 44.7585 27.149 44.559C27.4531 44.3595 27.7902 44.2132 28.1605 44.1201C28.5307 44.027 28.8943 43.9805 29.2579 43.9805C29.681 43.9805 30.0711 44.0337 30.4281 44.1467C30.7851 44.2598 31.0958 44.4193 31.347 44.6454C31.5982 44.8649 31.7899 45.1375 31.9089 45.4567C32.0345 45.7825 32.0676 46.1549 32.0081 46.5805H30.5933C30.6264 46.0552 30.5008 45.6894 30.2099 45.47C29.919 45.2572 29.5289 45.1442 29.0397 45.1442C28.8744 45.1442 28.7026 45.1575 28.5241 45.1973C28.3456 45.2306 28.1803 45.2904 28.0282 45.3702C27.8762 45.45 27.744 45.5564 27.6316 45.6961C27.5192 45.8357 27.4465 46.002 27.42 46.2081C27.3803 46.494 27.4398 46.7201 27.5985 46.8864C27.7506 47.0526 27.9687 47.1723 28.2464 47.2587C28.2728 47.2654 28.3918 47.2986 28.5902 47.3585C28.7885 47.4183 29.0133 47.4782 29.2645 47.5447C29.5091 47.6112 29.7537 47.6777 29.9917 47.7442C30.2297 47.8107 30.395 47.8572 30.5008 47.8838C30.752 47.9636 30.9702 48.0833 31.1487 48.2229C31.3272 48.3692 31.466 48.5355 31.5718 48.7216C31.6775 48.9078 31.7503 49.1073 31.7833 49.3201C31.8164 49.5329 31.823 49.7457 31.7965 49.9585C31.737 50.4173 31.5916 50.803 31.3602 51.1288C31.1354 51.4546 30.8512 51.714 30.5272 51.9201C30.1967 52.1263 29.8331 52.2725 29.4364 52.3723C29.0397 52.4654 28.6431 52.5119 28.2398 52.5119C27.777 52.5119 27.3539 52.4521 26.9638 52.339C26.5738 52.226 26.2432 52.0531 25.9722 51.8137C25.7011 51.581 25.5028 51.2751 25.3706 50.9094C25.2384 50.5436 25.2053 50.1048 25.2648 49.606H26.6796L26.6531 49.5994Z" fill="#221F20"/>
    <path d="M20.9283 29.6506C16.8294 29.6506 13.623 23.1407 13.623 14.8286C13.623 6.51662 16.8294 0 20.9283 0C25.0272 0 28.2335 6.50997 28.2335 14.822C28.2335 23.134 25.0272 29.644 20.9283 29.644V29.6506ZM20.9283 1.11714C17.5699 1.11714 14.7271 7.39437 14.7271 14.8286C14.7271 22.2629 17.5632 28.5402 20.9283 28.5402C24.2933 28.5402 27.1295 22.2629 27.1295 14.8286C27.1295 7.39437 24.2933 1.11714 20.9283 1.11714Z" fill="white"/>
    <path d="M20.9284 29.6506C13.2265 29.6506 6.96582 23.001 6.96582 14.8286C6.96582 6.65627 13.2331 0 20.9284 0C28.6237 0 34.8976 6.64962 34.8976 14.822C34.8976 22.9944 28.6303 29.644 20.9284 29.644V29.6506ZM20.9284 1.11714C13.8413 1.11714 8.07648 7.26138 8.07648 14.822C8.07648 22.3826 13.8413 28.5335 20.935 28.5335C28.0287 28.5335 33.7936 22.3826 33.7936 14.822C33.7936 7.26138 28.0221 1.11714 20.9284 1.11714Z" fill="white"/>
    <path d="M20.9282 29.6506C9.66957 29.6506 0.5 23.001 0.5 14.822C0.5 6.64297 9.66957 0 20.9282 0C32.1869 0 41.3565 6.64962 41.3565 14.822C41.3565 22.9944 32.1869 29.644 20.9282 29.644V29.6506ZM20.9282 1.11714C10.2778 1.11714 1.61066 7.26138 1.61066 14.822C1.61066 22.3826 10.2778 28.5335 20.9348 28.5335C31.5919 28.5335 40.259 22.3826 40.259 14.822C40.259 7.26138 31.5853 1.11714 20.9282 1.11714Z" fill="white"/>
    <path d="M40.8076 14.2637H1.05518V15.3808H40.8076V14.2637Z" fill="white"/>
    <path d="M36.9535 5.8252H5.10791V6.94233H36.9535V5.8252Z" fill="white"/>
    <path d="M36.9535 22.7085H5.10791V23.8256H36.9535V22.7085Z" fill="white"/>
    <path d="M21.4901 0.558594H20.3794V29.0921H21.4901V0.558594Z" fill="white"/>
  </g>
  <defs>
    <clipPath id="clip0_19_6765">
      <rect width="245" height="104" fill="white" transform="translate(0.5)"/>
    </clipPath>
  </defs>
</svg>