<svg width="97" height="40" viewBox="0 0 97 40" fill="none" xmlns="http://www.w3.org/2000/svg">
<path fill-rule="evenodd" clip-rule="evenodd" d="M26.691 0H0.659581C0.323258 0 0.0541992 0.269059 0.0541992 0.605382V10.6983C0.0541992 12.7002 1.67816 14.321 3.68008 14.321H23.7153C24.2086 14.321 24.6058 14.7213 24.6058 15.2114C24.6058 15.7047 24.2054 16.1019 23.7153 16.1019H3.68008C1.67816 16.1019 0.0541992 17.7258 0.0541992 19.7278V26.6945C0.0541992 28.6964 1.67816 30.3203 3.68008 30.3203H30.9223C31.2554 30.3203 31.5276 30.0513 31.5276 29.715V4.83345C31.5244 2.16208 29.3592 0 26.691 0ZM15.5155 19.5964L6.93441 28.1775C6.58528 28.5266 6.02153 28.5266 5.6756 28.1775C5.32647 27.8283 5.32647 27.2646 5.6756 26.9187L14.2566 18.3376C14.6058 17.9885 15.1695 17.9885 15.5155 18.3376C15.8646 18.6868 15.8646 19.2505 15.5155 19.5964ZM72.6263 14.321H92.6616C94.6635 14.321 96.2875 12.697 96.2875 10.6951V0.605382C96.2875 0.269059 96.0184 0 95.6821 0H69.6507C66.9825 0 64.8172 2.16208 64.8172 4.83345V25.4869C64.8172 28.1551 66.9793 30.3203 69.6507 30.3203H95.6821C96.0152 30.3203 96.2875 30.0513 96.2875 29.715V19.7278C96.2875 17.7258 94.6635 16.1019 92.6616 16.1019H72.6263C72.1331 16.1019 71.7359 15.7015 71.7359 15.2114C71.7359 14.7181 72.1363 14.321 72.6263 14.321ZM53.2765 16.0506H60.7205H60.7269C62.3957 16.0506 63.7474 17.4023 63.7474 19.0711V29.715C63.7474 30.0513 63.4751 30.3203 63.142 30.3203H47.8249C47.4886 30.3203 47.2195 30.0481 47.2195 29.715V16.0506C47.2195 15.5606 46.8191 15.1602 46.3291 15.1602C45.839 15.1602 45.4386 15.5574 45.4386 16.0506V29.715C45.4386 30.0513 45.1663 30.3203 44.8332 30.3203H33.2125C32.8761 30.3203 32.6071 30.0481 32.6071 29.715V0.605382C32.6071 0.269059 32.8793 0 33.2125 0H58.8819C61.5501 0 63.7154 2.16528 63.7154 4.83345V9.42986C63.7154 12.098 61.5533 14.2601 58.8883 14.2633L53.2765 14.2697C52.7833 14.2697 52.3861 14.6669 52.3861 15.1602C52.3861 15.6502 52.7833 16.0506 53.2765 16.0506ZM49.7724 11.0538C50.1183 11.403 50.682 11.403 51.0312 11.0538C51.3803 10.7079 51.3803 10.1441 51.0312 9.79501L44.6987 3.46253C44.3528 3.11339 43.789 3.11339 43.4399 3.46253C43.0908 3.80846 43.0908 4.3722 43.4399 4.72134L49.7724 11.0538ZM37.8153 31.0731H30.1535C29.3688 31.0731 28.7314 31.7105 28.7314 32.4952V39.8175C28.7314 39.9168 28.8114 39.9936 28.9075 39.9936H32.7736C32.8729 39.9936 32.953 39.9136 32.953 39.8175V38.1871C32.953 38.0878 33.0331 38.0077 33.1292 38.0077H36.9408C37.0401 38.0077 37.117 37.9276 37.117 37.8316V35.1153C37.117 35.016 37.0369 34.9392 36.9408 34.9392H32.9562C32.8121 34.9392 32.6936 34.8207 32.6936 34.6765C32.6936 34.5324 32.8121 34.4139 32.9562 34.4139H36.9248C37.5142 34.4139 37.9915 33.9366 37.9915 33.3472V31.2492C37.9915 31.1499 37.9114 31.0731 37.8153 31.0731ZM1.47637 31.0731H9.13813C9.23742 31.0731 9.3175 31.1531 9.3175 31.2524V34.2217C9.3175 34.8111 8.84024 35.2883 8.25088 35.2883H2.35401C2.20987 35.2883 2.09136 35.4068 2.09136 35.551C2.09136 35.6951 2.20987 35.8136 2.35401 35.8136H8.25088C8.84024 35.8136 9.3175 36.2909 9.3175 36.8802V39.8207C9.3175 39.9168 9.23742 39.9968 9.13813 39.9968H1.47637C0.691612 39.9968 0.0541992 39.3594 0.0541992 38.5747V32.4952C0.0541992 31.7105 0.691612 31.0731 1.47637 31.0731ZM86.3195 31.0731H78.6577C77.873 31.0731 77.2356 31.7105 77.2356 32.4952V38.5747C77.2356 39.3594 77.873 39.9968 78.6577 39.9968H86.3195C86.4188 39.9968 86.4957 39.9168 86.4957 39.8207V36.8802C86.4957 36.2909 86.0184 35.8136 85.429 35.8136H79.5322C79.388 35.8136 79.2695 35.6951 79.2695 35.551C79.2695 35.4068 79.388 35.2883 79.5322 35.2883H85.429C86.0184 35.2883 86.4957 34.8111 86.4957 34.2217V31.2524C86.4957 31.1531 86.4156 31.0731 86.3195 31.0731ZM11.2618 31.0731H17.3412C18.126 31.0731 18.7634 31.7105 18.7634 32.4952V38.5747C18.7634 39.3594 18.126 39.9968 17.3412 39.9968H11.2618C10.477 39.9968 9.8396 39.3594 9.8396 38.5747V32.4952C9.8396 31.7105 10.477 31.0731 11.2618 31.0731ZM14.2855 37.9597C14.4296 37.9597 14.5481 37.8412 14.5481 37.697V33.3729C14.5481 33.2287 14.4296 33.1102 14.2855 33.1102C14.1413 33.1102 14.0228 33.2287 14.0228 33.3729V37.697C14.0228 37.8412 14.1413 37.9597 14.2855 37.9597ZM56.5853 35.7944H54.3944C54.2503 35.7944 54.1318 35.6759 54.1318 35.5317C54.1318 35.3876 54.2503 35.2691 54.3944 35.2691H56.0472C56.832 35.2691 57.4662 34.6285 57.4662 33.8469V32.4952C57.4662 31.7105 56.8288 31.0731 56.044 31.0731H48.4911C48.3918 31.0731 48.315 31.1531 48.315 31.2524V39.8207C48.315 39.92 48.3951 39.9968 48.4911 39.9968H51.912C52.0113 39.9968 52.0914 39.9168 52.0914 39.8207V35.8008C52.0914 35.6567 52.2099 35.5382 52.3541 35.5382C52.4982 35.5382 52.6167 35.6567 52.6167 35.8008V39.8207C52.6167 39.92 52.6968 39.9968 52.7961 39.9968H57.3028C57.4021 39.9968 57.479 39.9168 57.479 39.8207V36.6881C57.479 36.198 57.0818 35.7976 56.5885 35.8008L56.5853 35.7944ZM54.0517 34.3274C53.9492 34.4299 53.7858 34.4299 53.6833 34.3274L51.8159 32.46C51.7134 32.3575 51.7134 32.1941 51.8159 32.0916H51.8191C51.9216 31.9859 52.085 31.9859 52.1875 32.0884L54.0549 33.9558C54.1574 34.0583 54.1574 34.2217 54.0549 34.3242H54.0517V34.3274ZM41.0792 37.05H46.7166C47.3028 37.05 47.7833 37.5273 47.7833 38.1166V39.8207C47.7833 39.92 47.7032 40 47.6039 40H39.9357C39.151 40 38.5136 39.3626 38.5136 38.5779V32.4984C38.5136 31.7137 39.151 31.0763 39.9357 31.0763H47.5975C47.6968 31.0763 47.7769 31.1531 47.7769 31.2524V33.3344C47.7769 33.9238 47.2996 34.4011 46.7102 34.4011H41.076C40.9255 34.4011 40.8006 34.5324 40.8166 34.6893C40.8294 34.8271 40.9511 34.9264 41.0888 34.9264H46.5373C46.6366 34.9264 46.7166 35.0032 46.7166 35.1025V36.3453C46.7198 36.4446 46.6398 36.5247 46.5405 36.5247H41.092C40.9543 36.5247 40.8326 36.624 40.8198 36.7617C40.8038 36.9187 40.9255 37.05 41.0792 37.05ZM26.7871 31.0731H19.4649C19.3656 31.0731 19.2855 31.1531 19.2855 31.2524V39.8207C19.2855 39.92 19.3656 39.9968 19.4616 39.9968H23.3053C23.4046 39.9968 23.4815 39.9168 23.4815 39.8175V33.3729C23.4815 33.2287 23.6 33.1102 23.7442 33.1102C23.8883 33.1102 24.0068 33.2287 24.0068 33.3729V39.8175C24.0068 39.9168 24.0869 39.9968 24.1862 39.9968H28.0299C28.1292 39.9968 28.2093 39.9168 28.2093 39.8175V32.4952C28.2093 31.7105 27.5718 31.0731 26.7871 31.0731ZM67.9659 31.0731H75.2881H75.2945C76.0793 31.0731 76.7167 31.7105 76.7167 32.4952V39.8175C76.7167 39.9168 76.6366 39.9968 76.5373 39.9968H72.6936C72.5943 39.9968 72.5142 39.9168 72.5142 39.8175V33.3729C72.5142 33.2287 72.3957 33.1102 72.2516 33.1102C72.1074 33.1102 71.9889 33.2287 71.9889 33.3729V39.8175C71.9889 39.9168 71.9088 39.9968 71.8096 39.9968H67.9659C67.8698 39.9968 67.7897 39.92 67.7897 39.8207V31.2524C67.7897 31.1531 67.8666 31.0731 67.9659 31.0731ZM66.1914 37.05H60.5571C60.4034 37.05 60.2817 36.9187 60.2977 36.7617C60.3105 36.624 60.4322 36.5247 60.5699 36.5247H66.0184C66.1177 36.5247 66.1978 36.4446 66.1946 36.3453V35.1025C66.1946 35.0032 66.1145 34.9264 66.0152 34.9264H60.5667C60.429 34.9264 60.3073 34.8271 60.2945 34.6893C60.2785 34.5324 60.4034 34.4011 60.5539 34.4011H66.1881C66.7775 34.4011 67.2548 33.9238 67.2548 33.3344V31.2524C67.2548 31.1531 67.1747 31.0763 67.0754 31.0763H59.4136C58.6289 31.0763 57.9915 31.7137 57.9915 32.4984V38.5779C57.9915 39.3626 58.6289 40 59.4136 40H67.0818C67.1811 40 67.2612 39.92 67.258 39.8207V38.1166C67.258 37.5273 66.7775 37.05 66.1914 37.05ZM95.2208 37.0468C95.8102 37.0468 96.2875 37.5241 96.2875 38.1134H96.2843V39.8175C96.2875 39.9168 96.2074 39.9968 96.1081 39.9968H88.4399C87.6552 39.9968 87.0178 39.3594 87.0178 38.5747V32.4952C87.0178 31.7105 87.6552 31.0731 88.4399 31.0731H96.1017C96.201 31.0731 96.2811 31.1499 96.2811 31.2492V33.3312C96.2811 33.9206 95.8038 34.3979 95.2144 34.3979H89.5802C89.4297 34.3979 89.3048 34.5292 89.3208 34.6861C89.3336 34.8239 89.4553 34.9232 89.593 34.9232H95.0415C95.1408 34.9232 95.2208 35 95.2208 35.0993V36.3421C95.2241 36.4414 95.144 36.5215 95.0447 36.5215H89.5962C89.4585 36.5215 89.3368 36.6208 89.324 36.7585C89.308 36.9155 89.4297 37.0468 89.5834 37.0468H95.2208Z" fill="black"/>
</svg>
