<svg width="98" height="101" viewBox="0 0 98 101" fill="none" xmlns="http://www.w3.org/2000/svg">
<g clip-path="url(#clip0_19_5162)">
<path d="M48.6912 67.2429C58.6687 67.2429 66.757 59.1546 66.757 49.1772C66.757 39.1998 58.6687 31.1115 48.6912 31.1115C38.7138 31.1115 30.6255 39.1998 30.6255 49.1772C30.6255 59.1546 38.7138 67.2429 48.6912 67.2429Z" fill="#F2F2F2"/>
<path d="M20.4185 36.1925L36.0841 20.5269C29.1504 23.6704 23.5596 29.2588 20.4185 36.1925Z" fill="#221F20"/>
<path d="M45.1466 17.9805C43.7377 18.1551 42.3571 18.4218 41.0142 18.7758L18.6698 41.1202C18.3158 42.4654 18.0468 43.8437 17.8745 45.2526L45.149 17.9781L45.1466 17.9805Z" fill="#221F20"/>
<path d="M49.0334 17.7397C48.8753 17.7397 48.7148 17.7445 48.5567 17.7468L17.6384 48.6651C17.6361 48.8232 17.6313 48.9813 17.6313 49.1418C17.6313 50.0669 17.6762 50.9803 17.7541 51.8865L49.0334 20.6071V17.7397Z" fill="#221F20"/>
<path d="M49.0333 27.1207V23.7837L18.1221 54.6949C18.2873 55.6176 18.4949 56.5239 18.738 57.416L49.0333 27.1207Z" fill="#221F20"/>
<path d="M49.0334 33.6367V30.2997L19.5005 59.8326C19.7908 60.6374 20.1188 61.4256 20.4728 62.1974L49.0334 33.6367Z" fill="#221F20"/>
<path d="M49.0334 40.1503V36.8132L21.5371 64.3095C21.9312 65.0199 22.3466 65.7161 22.7926 66.391L49.0334 40.1503Z" fill="#221F20"/>
<path d="M49.0334 46.6638V43.3268L24.1143 68.246C24.5957 68.8737 25.1031 69.4802 25.6294 70.0679L49.0334 46.6638Z" fill="#221F20"/>
<path d="M49.0335 53.1798V49.8428L27.187 71.6892C27.7534 72.2367 28.3387 72.7654 28.9428 73.2704L49.0335 53.1798Z" fill="#221F20"/>
<path d="M49.0333 59.6934V56.3563L30.7339 74.6557C31.3852 75.123 32.0555 75.5667 32.7422 75.9844L49.0333 59.6934Z" fill="#221F20"/>
<path d="M49.0333 66.2093V62.8723L34.9678 76.9379C36.0156 76.9497 37.0894 76.9922 38.1915 77.0512L49.0357 66.207L49.0333 66.2093Z" fill="#221F20"/>
<path d="M49.0334 72.7229V69.3859L41.1841 77.2352C42.213 77.3013 43.2632 77.3697 44.33 77.4264L49.0358 72.7205L49.0334 72.7229Z" fill="#221F20"/>
<path d="M49.0335 75.8994L47.3862 77.5467C47.9314 77.5585 48.4813 77.5679 49.0335 77.5679V75.8994Z" fill="#221F20"/>
<path d="M9.68054 77.7803C9.3407 77.7803 9.00322 77.634 8.76958 77.3508C8.35422 76.8481 8.42738 76.1047 8.93006 75.6893L18.1128 68.1255C18.6155 67.7125 19.3589 67.7833 19.7742 68.286C20.1896 68.7887 20.1164 69.5321 19.6138 69.9474L10.431 77.5112C10.2115 77.693 9.94486 77.7803 9.68054 77.7803Z" fill="#221F20"/>
<path d="M2.655 62.7849C2.16884 62.7849 1.71336 62.4829 1.54344 61.9991C1.32632 61.3855 1.64728 60.7105 2.26324 60.4934L13.4779 56.5262C14.0939 56.3091 14.7665 56.6301 14.9836 57.246C15.2007 57.8596 14.8798 58.5346 14.2638 58.7517L3.04912 62.7189C2.91932 62.7661 2.78716 62.7873 2.655 62.7873V62.7849Z" fill="#221F20"/>
<path d="M13.0767 46.3971H13.0649L1.16815 46.2886C0.516789 46.2815 -0.00712975 45.7505 -0.00240976 45.0991C0.00467022 44.4501 0.530949 43.9286 1.17759 43.9286H1.18939L13.0861 44.0371C13.7375 44.0442 14.2614 44.5752 14.2567 45.2266C14.2496 45.8756 13.7233 46.3971 13.0767 46.3971Z" fill="#221F20"/>
<path d="M16.5788 34.4532C16.4419 34.4532 16.3027 34.4296 16.1658 34.3777L5.02429 30.2075C4.41305 29.9786 4.1039 29.299 4.33281 28.6877C4.56173 28.0788 5.24141 27.7673 5.85265 27.9962L16.9942 32.1663C17.6054 32.3953 17.9146 33.0749 17.6857 33.6862C17.5087 34.1605 17.0579 34.4532 16.5812 34.4532H16.5788Z" fill="#221F20"/>
<path d="M23.9537 24.4302C23.6823 24.4302 23.4109 24.3382 23.1867 24.147L14.1432 16.418C13.6476 15.9956 13.5886 15.2498 14.0134 14.7542C14.4358 14.2587 15.1816 14.1997 15.6772 14.6244L24.7207 22.3534C25.2163 22.7759 25.2753 23.5216 24.8505 24.0172C24.6168 24.291 24.2864 24.4302 23.9537 24.4302Z" fill="#221F20"/>
<path d="M34.3164 17.532C33.9058 17.532 33.5046 17.3173 33.2875 16.9326L27.4323 6.57695C27.1114 6.01055 27.312 5.29075 27.8784 4.96979C28.4448 4.64883 29.1646 4.84943 29.4855 5.41583L35.3407 15.7715C35.6616 16.3379 35.461 17.0577 34.8946 17.3786C34.7105 17.4825 34.5123 17.532 34.3141 17.532H34.3164Z" fill="#221F20"/>
<path d="M46.407 14.5962C45.8406 14.5962 45.3403 14.1879 45.2435 13.6097L43.2847 1.87583C43.1761 1.23391 43.6104 0.62503 44.2547 0.51883C44.8966 0.410271 45.5055 0.844509 45.6117 1.48879L47.5704 13.2227C47.679 13.8646 47.2448 14.4735 46.6005 14.5797C46.5344 14.5915 46.4683 14.5962 46.4046 14.5962H46.407Z" fill="#221F20"/>
<path d="M58.7777 15.972C58.7069 15.972 58.6337 15.9649 58.5606 15.9531C57.921 15.8351 57.4962 15.2192 57.6166 14.5773L59.7878 2.88114C59.9058 2.24159 60.5217 1.81679 61.1637 1.93715C61.8032 2.05515 62.228 2.6711 62.1077 3.31302L59.9365 15.0091C59.8303 15.5779 59.3347 15.9744 58.7777 15.9744V15.972Z" fill="#221F20"/>
<path d="M69.9291 21.4945C69.7262 21.4945 69.5185 21.4426 69.3321 21.3317C68.7704 21.0013 68.5839 20.2767 68.9143 19.7151L74.9559 9.46561C75.2863 8.90393 76.0108 8.71749 76.5725 9.04789C77.1342 9.37829 77.3206 10.1028 76.9902 10.6645L70.9487 20.9139C70.7292 21.2868 70.3351 21.4945 69.9315 21.4945H69.9291Z" fill="#221F20"/>
<path d="M78.5219 30.4978C78.182 30.4978 77.8445 30.3515 77.6109 30.0683C77.1955 29.5656 77.2687 28.8222 77.7714 28.4068L86.9541 20.8431C87.4568 20.4301 88.2002 20.5009 88.6155 21.0035C89.0309 21.5062 88.9577 22.2496 88.4551 22.665L79.2723 30.2288C79.0528 30.4105 78.7862 30.4978 78.5219 30.4978Z" fill="#221F20"/>
<path d="M83.5153 41.8989C83.0292 41.8989 82.5737 41.5969 82.4038 41.1131C82.1867 40.4995 82.5076 39.8245 83.1236 39.6074L94.3383 35.6402C94.9519 35.4231 95.6268 35.7441 95.8439 36.36C96.0611 36.9736 95.7401 37.6486 95.1242 37.8657L83.9095 41.8329C83.7797 41.8801 83.6475 41.9013 83.5153 41.9013V41.8989Z" fill="#221F20"/>
<path d="M96.2051 54.4258H96.1933L84.2966 54.3173C83.6452 54.3102 83.1213 53.7792 83.126 53.1278C83.1331 52.4788 83.6594 51.9573 84.306 51.9573H84.3178L96.2145 52.0658C96.8659 52.0729 97.3898 52.6039 97.3851 53.2553C97.378 53.9043 96.8517 54.4258 96.2051 54.4258Z" fill="#221F20"/>
<path d="M91.9475 70.4312C91.8106 70.4312 91.6714 70.4076 91.5345 70.3557L80.3929 66.1856C79.7817 65.9567 79.4725 65.277 79.7015 64.6658C79.9304 64.0545 80.6101 63.7454 81.2213 63.9743L92.3628 68.1444C92.9741 68.3733 93.2832 69.053 93.0543 69.6642C92.8773 70.1386 92.4266 70.4312 91.9498 70.4312H91.9475Z" fill="#221F20"/>
<path d="M82.4722 84.013C82.2008 84.013 81.9294 83.9209 81.7052 83.7298L72.6617 76.0008C72.1661 75.5784 72.1071 74.8326 72.5319 74.337C72.9544 73.8414 73.7001 73.7824 74.1957 74.2072L83.2392 81.9362C83.7348 82.3586 83.7938 83.1044 83.369 83.6C83.1354 83.8737 82.805 84.013 82.4722 84.013Z" fill="#221F20"/>
<path d="M56.0336 100.5H41.3497C36.8704 100.5 33.2289 96.8562 33.2289 92.3793V77.2683C23.1305 71.7034 16.7916 61.1778 16.6335 49.6257C16.5155 41.0518 19.7746 32.9358 25.8115 26.7691C31.8436 20.6072 39.8841 17.1781 48.4485 17.1144C48.5311 17.1144 48.6137 17.1144 48.694 17.1144C57.2159 17.1144 65.2281 20.4137 71.2791 26.4198C77.3891 32.485 80.7545 40.568 80.7545 49.1772C80.7545 60.9182 74.4132 71.6161 64.1543 77.2683V92.3793C64.1543 96.8586 60.5105 100.5 56.0336 100.5ZM48.694 19.4744C48.6185 19.4744 48.5429 19.4744 48.4651 19.4744C40.5331 19.5334 33.0873 22.7099 27.4965 28.4211C21.9033 34.1347 18.8825 41.6536 18.9911 49.595C19.1421 60.517 25.2569 70.4502 34.9541 75.5171C35.3435 75.7201 35.5866 76.1237 35.5866 76.5626V92.3793C35.5866 95.5558 38.1708 98.14 41.3473 98.14H56.0312C59.2077 98.14 61.7919 95.5558 61.7919 92.3793V76.5626C61.7919 76.1237 62.035 75.7201 62.4244 75.5171C72.2727 70.37 78.3898 60.2763 78.3898 49.1772C78.3898 41.2005 75.2722 33.7146 69.6106 28.0954C64.0056 22.5306 56.5811 19.4744 48.6869 19.4744H48.694Z" fill="#221F20"/>
<path d="M62.9762 78.1107H34.4085C33.7572 78.1107 33.2285 77.5821 33.2285 76.9307C33.2285 76.2794 33.7572 75.7507 34.4085 75.7507H62.9762C63.6276 75.7507 64.1562 76.2794 64.1562 76.9307C64.1562 77.5821 63.6276 78.1107 62.9762 78.1107Z" fill="#221F20"/>
<path d="M62.9762 83.8479H34.4085C33.7572 83.8479 33.2285 83.3193 33.2285 82.6679C33.2285 82.0166 33.7572 81.4879 34.4085 81.4879H62.9762C63.6276 81.4879 64.1562 82.0166 64.1562 82.6679C64.1562 83.3193 63.6276 83.8479 62.9762 83.8479Z" fill="#221F20"/>
<path d="M62.9762 89.5874H34.4085C33.7572 89.5874 33.2285 89.0588 33.2285 88.4074C33.2285 87.7561 33.7572 87.2274 34.4085 87.2274H62.9762C63.6276 87.2274 64.1562 87.7561 64.1562 88.4074C64.1562 89.0588 63.6276 89.5874 62.9762 89.5874Z" fill="#221F20"/>
<path d="M62.1646 95.3245H35.2205C34.5692 95.3245 34.0405 94.7958 34.0405 94.1445C34.0405 93.4931 34.5692 92.9645 35.2205 92.9645H62.1646C62.8159 92.9645 63.3446 93.4931 63.3446 94.1445C63.3446 94.7958 62.8159 95.3245 62.1646 95.3245Z" fill="#221F20"/>
</g>
<defs>
<clipPath id="clip0_19_5162">
<rect width="97.3828" height="100" fill="white" transform="translate(0 0.5)"/>
</clipPath>
</defs>
</svg>
