<svg width="209" height="40" viewBox="0 0 209 40" fill="none" xmlns="http://www.w3.org/2000/svg">
<path fill-rule="evenodd" clip-rule="evenodd" d="M128.012 22.5861V36.0983H128.007C128.007 38.22 129.13 38.9255 130.335 39.0503V39.4682H119.276V39.0937C120.48 38.9689 121.104 38.3014 121.104 36.1417V22.5916L117.892 20.4915L115.065 22.6621V22.8303L115.037 36.1471C115.037 38.3069 115.824 38.9743 116.866 39.0991V39.4736H105.932V39.0557C107.055 38.9309 108.135 38.2255 108.135 36.1037V14.6417C108.135 12.1889 106.843 11.6082 105.557 11.6896V11.2718L113.724 9.15542C112.851 4.58627 108.922 1.31405 104.293 1.31405H104.157C98.8555 1.39003 94.6065 5.78553 94.6825 11.1198C94.7313 14.8153 96.8911 18.1689 100.201 19.7372C103.191 20.4047 104.662 22.1792 104.662 23.8288C104.662 25.2831 103.582 26.4499 101.878 26.4499C100.587 26.4499 99.5881 25.7444 99.1322 24.4529C99.0125 24.1276 98.9071 23.7366 98.7962 23.3253C98.4094 21.8908 97.956 20.2093 96.598 20.2093C94.9755 20.2093 93.5646 22.6187 93.5646 27.1933C93.5646 32.7229 95.974 35.7184 99.6749 35.7184C101.797 35.7184 103.625 34.6331 104.749 32.5981L105.248 32.8043C103.956 37.4658 100.798 40 96.3484 40C91.1498 40 86.7814 36.1091 86.7814 30.1019C86.7814 24.0947 91.2257 19.5527 97.3632 19.4604C94.9267 17.4363 93.4235 14.4029 93.3801 11.1361C93.2933 5.08008 98.1229 0.0876529 104.141 0.000828031C109.497 -0.0642906 114.088 3.71802 115.043 9.01433C115.043 9.01433 115.054 17.8271 115.065 21.3272L119.623 17.6751L128.012 22.5861ZM41.3828 36.0927V22.6078L32.9934 17.6967L28.4351 21.3488C28.4242 17.7456 28.4134 9.01424 28.4134 9.01424L28.0824 8.88943L18.9332 11.2608V11.6787C20.2193 11.5973 21.5108 12.1779 21.5108 14.6307V36.0927C21.5108 38.2145 20.4309 38.92 19.3076 39.0448V39.4626H30.2421V39.0882C29.2002 38.9634 28.4134 38.2959 28.4134 36.1362L28.4405 22.8411V22.6729L31.2677 20.5023L34.4803 22.6023V36.1362C34.4803 38.2959 33.8562 38.9634 32.6515 39.0882V39.4626H43.7108V39.0448C42.5061 38.92 41.3828 38.2145 41.3828 36.0927ZM80.6115 39.2511H68.901V38.8766C70.1057 38.7518 71.3104 38.0464 71.3104 35.9246V25.4025C71.3104 22.9931 69.8941 22.6404 68.5646 22.7272V22.3094L77.7951 19.7318L78.1262 19.8566V24.3226C79.4177 20.7031 81.9953 18.9992 84.0302 18.9992C85.9404 18.9992 87.0637 20.3721 87.0637 21.9946C87.0637 23.7854 85.8156 25.0715 84.0682 25.0715C83.0131 25.0715 82.3822 24.5744 81.8019 24.1172C81.3078 23.7279 80.8504 23.3675 80.1991 23.3675C79.1626 23.3675 78.62 24.366 78.2021 26.0266V35.9246C78.2021 38.0464 79.4068 38.7518 80.6115 38.8766V39.2511ZM6.78319 27.1879C6.78319 22.6133 8.1941 20.2039 9.81664 20.2039V20.1985C11.1701 20.1985 11.6259 21.8823 12.0139 23.3155C12.1252 23.7269 12.231 24.1177 12.3508 24.442C12.8121 25.7336 13.8052 26.439 15.0967 26.439C16.8006 26.439 17.8805 25.2723 17.8805 23.818C17.8805 21.7342 15.5525 19.4496 10.7717 19.4496C4.53117 19.4496 0 24.149 0 30.0965C0 36.044 4.36838 39.9945 9.56701 39.9945C14.0168 39.9945 17.1805 37.4549 18.4666 32.7989L17.9673 32.5927C16.844 34.6331 15.0153 35.713 12.8935 35.713C9.19258 35.713 6.78319 32.7175 6.78319 27.1879ZM51.6011 39.9945C53.7229 39.9945 56.2191 38.8712 58.2975 36.7929L58.2921 36.7983V39.2457L67.4847 39.2891V38.8712C66.242 38.958 65.0753 37.6285 65.0753 35.1323V19.824L64.7442 19.6992L55.9695 22.2768V22.6513C57.0494 22.5644 58.1727 22.9497 58.1727 25.3591V35.9192C57.2556 36.7115 56.3819 37.0425 55.6331 37.0425C54.4284 37.0425 53.4733 36.2122 53.4733 34.4649V19.8186L53.1423 19.6938L43.9931 22.2714V22.6892C45.2792 22.6024 46.5707 22.9877 46.5707 25.3971V34.5897C46.5707 38.1658 48.6491 39.9945 51.6011 39.9945ZM141.845 19.455C136.147 19.455 131.366 24.1544 131.366 29.8089C131.366 35.4688 135.859 40 141.845 40C147.83 40 152.323 35.3386 152.323 29.6841C152.323 24.0296 148.08 19.455 141.845 19.455ZM145.09 29.8089C145.09 37.3368 143.469 39.249 141.847 39.2511C139.771 39.2481 138.524 35.6291 138.524 29.6027C138.524 22.2823 140.059 20.2039 141.682 20.2039C143.842 20.2039 145.09 23.6986 145.09 29.8089ZM164.642 39.2511H164.636V38.8984C163.638 38.7736 163.057 38.1061 163.057 35.9029V24.0242C163.887 23.2374 164.804 22.8195 165.635 22.8195C166.97 22.8195 167.8 23.818 167.8 25.8529V35.8975C167.8 38.0627 167.301 38.7681 166.134 38.893V39.2674H176.282V38.893C175.283 38.7681 174.702 38.1007 174.702 35.8975V25.1421C174.702 24.8056 174.702 24.518 174.664 24.225C175.457 23.3513 176.368 22.8087 177.285 22.8087C178.572 22.8087 179.445 23.8071 179.445 25.8421V35.8866C179.445 38.0898 178.989 38.7573 177.866 38.8821V39.2565H188.676V38.8387C187.428 38.7139 186.348 38.0084 186.348 35.8866V25.1312C186.348 21.5551 184.183 19.7264 181.149 19.7264C178.279 19.7264 176.075 21.4303 174.496 23.3025C173.872 20.9311 172 19.7264 169.504 19.7264C166.677 19.7264 164.555 21.3435 162.976 23.1342V19.8892L162.645 19.7644L153.414 22.342V22.7598C154.744 22.673 156.16 23.2591 156.16 25.6684V35.8812C156.16 38.003 154.999 38.7085 153.832 38.8333V39.2511H164.636V39.2728L164.642 39.2511ZM189.55 30.1019C189.55 35.7979 193.834 39.9971 199.111 40C203.433 39.9976 206.758 37.2143 207.924 32.723L207.468 32.5982C206.345 34.6331 204.353 35.7564 202.188 35.7564C198.862 35.7564 196.409 33.1354 196.159 28.1864H208.054C207.804 22.8629 204.353 19.455 199.529 19.455C194.206 19.455 189.55 24.073 189.55 30.1019ZM201.819 27.3127H196.165C196.165 22.9063 197.83 20.2039 199.491 20.2039C200.989 20.2039 201.9 22.1955 201.819 27.3127Z" fill="#231F20"/>
</svg>
