<svg width="1359" height="466" viewBox="0 0 1359 466" fill="none" xmlns="http://www.w3.org/2000/svg">
<g clip-path="url(#clip0_19_5303)">
<path d="M211.793 431.682C212.636 431.682 213.318 430.998 213.318 430.155C213.318 429.311 212.636 428.627 211.793 428.627C210.951 428.627 210.268 429.311 210.268 430.155C210.268 430.998 210.951 431.682 211.793 431.682Z" fill="#96BDBE"/>
<path d="M211.793 388.819C212.636 388.819 213.318 388.135 213.318 387.292C213.318 386.448 212.636 385.765 211.793 385.765C210.951 385.765 210.268 386.448 210.268 387.292C210.268 388.135 210.951 388.819 211.793 388.819Z" fill="#96BDBE"/>
<path d="M211.793 345.956C212.636 345.956 213.318 345.273 213.318 344.429C213.318 343.586 212.636 342.902 211.793 342.902C210.951 342.902 210.268 343.586 210.268 344.429C210.268 345.273 210.951 345.956 211.793 345.956Z" fill="#96BDBE"/>
<path d="M211.793 303.093C212.636 303.093 213.318 302.41 213.318 301.566C213.318 300.723 212.636 300.039 211.793 300.039C210.951 300.039 210.268 300.723 210.268 301.566C210.268 302.41 210.951 303.093 211.793 303.093Z" fill="#96BDBE"/>
<path d="M211.793 260.231C212.636 260.231 213.318 259.547 213.318 258.704C213.318 257.86 212.636 257.177 211.793 257.177C210.951 257.177 210.268 257.86 210.268 258.704C210.268 259.547 210.951 260.231 211.793 260.231Z" fill="#96BDBE"/>
<path d="M211.793 217.368C212.636 217.368 213.318 216.684 213.318 215.841C213.318 214.997 212.636 214.314 211.793 214.314C210.951 214.314 210.268 214.997 210.268 215.841C210.268 216.684 210.951 217.368 211.793 217.368Z" fill="#96BDBE"/>
<path d="M211.793 174.505C212.636 174.505 213.318 173.822 213.318 172.978C213.318 172.135 212.636 171.451 211.793 171.451C210.951 171.451 210.268 172.135 210.268 172.978C210.268 173.822 210.951 174.505 211.793 174.505Z" fill="#96BDBE"/>
<path d="M211.793 131.643C212.636 131.643 213.318 130.959 213.318 130.115C213.318 129.272 212.636 128.588 211.793 128.588C210.951 128.588 210.268 129.272 210.268 130.115C210.268 130.959 210.951 131.643 211.793 131.643Z" fill="#96BDBE"/>
<path d="M211.793 88.78C212.636 88.78 213.318 88.0962 213.318 87.2528C213.318 86.4093 212.636 85.7256 211.793 85.7256C210.951 85.7256 210.268 86.4093 210.268 87.2528C210.268 88.0962 210.951 88.78 211.793 88.78Z" fill="#96BDBE"/>
<path d="M211.793 45.9172C212.636 45.9172 213.318 45.2334 213.318 44.39C213.318 43.5465 212.636 42.8628 211.793 42.8628C210.951 42.8628 210.268 43.5465 210.268 44.39C210.268 45.2334 210.951 45.9172 211.793 45.9172Z" fill="#96BDBE"/>
<path d="M211.793 3.0544C212.636 3.0544 213.318 2.37065 213.318 1.5272C213.318 0.68375 212.636 0 211.793 0C210.951 0 210.268 0.68375 210.268 1.5272C210.268 2.37065 210.951 3.0544 211.793 3.0544Z" fill="#96BDBE"/>
<path d="M169.742 431.682C170.585 431.682 171.268 430.998 171.268 430.155C171.268 429.311 170.585 428.627 169.742 428.627C168.9 428.627 168.217 429.311 168.217 430.155C168.217 430.998 168.9 431.682 169.742 431.682Z" fill="#96BDBE"/>
<path d="M169.742 388.819C170.585 388.819 171.268 388.135 171.268 387.292C171.268 386.448 170.585 385.765 169.742 385.765C168.9 385.765 168.217 386.448 168.217 387.292C168.217 388.135 168.9 388.819 169.742 388.819Z" fill="#96BDBE"/>
<path d="M169.742 345.956C170.585 345.956 171.268 345.273 171.268 344.429C171.268 343.586 170.585 342.902 169.742 342.902C168.9 342.902 168.217 343.586 168.217 344.429C168.217 345.273 168.9 345.956 169.742 345.956Z" fill="#96BDBE"/>
<path d="M169.742 303.093C170.585 303.093 171.268 302.41 171.268 301.566C171.268 300.723 170.585 300.039 169.742 300.039C168.9 300.039 168.217 300.723 168.217 301.566C168.217 302.41 168.9 303.093 169.742 303.093Z" fill="#96BDBE"/>
<path d="M169.742 260.231C170.585 260.231 171.268 259.547 171.268 258.704C171.268 257.86 170.585 257.177 169.742 257.177C168.9 257.177 168.217 257.86 168.217 258.704C168.217 259.547 168.9 260.231 169.742 260.231Z" fill="#96BDBE"/>
<path d="M169.742 217.368C170.585 217.368 171.268 216.684 171.268 215.841C171.268 214.997 170.585 214.314 169.742 214.314C168.9 214.314 168.217 214.997 168.217 215.841C168.217 216.684 168.9 217.368 169.742 217.368Z" fill="#96BDBE"/>
<path d="M169.742 174.505C170.585 174.505 171.268 173.822 171.268 172.978C171.268 172.135 170.585 171.451 169.742 171.451C168.9 171.451 168.217 172.135 168.217 172.978C168.217 173.822 168.9 174.505 169.742 174.505Z" fill="#96BDBE"/>
<path d="M169.742 131.643C170.585 131.643 171.268 130.959 171.268 130.115C171.268 129.272 170.585 128.588 169.742 128.588C168.9 128.588 168.217 129.272 168.217 130.115C168.217 130.959 168.9 131.643 169.742 131.643Z" fill="#96BDBE"/>
<path d="M169.742 88.78C170.585 88.78 171.268 88.0962 171.268 87.2528C171.268 86.4093 170.585 85.7256 169.742 85.7256C168.9 85.7256 168.217 86.4093 168.217 87.2528C168.217 88.0962 168.9 88.78 169.742 88.78Z" fill="#96BDBE"/>
<path d="M169.742 45.9172C170.585 45.9172 171.268 45.2334 171.268 44.39C171.268 43.5465 170.585 42.8628 169.742 42.8628C168.9 42.8628 168.217 43.5465 168.217 44.39C168.217 45.2334 168.9 45.9172 169.742 45.9172Z" fill="#96BDBE"/>
<path d="M169.742 3.0544C170.585 3.0544 171.268 2.37065 171.268 1.5272C171.268 0.68375 170.585 0 169.742 0C168.9 0 168.217 0.68375 168.217 1.5272C168.217 2.37065 168.9 3.0544 169.742 3.0544Z" fill="#96BDBE"/>
<path d="M127.687 431.682C128.53 431.682 129.213 430.998 129.213 430.155C129.213 429.311 128.53 428.627 127.687 428.627C126.845 428.627 126.162 429.311 126.162 430.155C126.162 430.998 126.845 431.682 127.687 431.682Z" fill="#96BDBE"/>
<path d="M127.687 388.819C128.53 388.819 129.213 388.135 129.213 387.292C129.213 386.448 128.53 385.765 127.687 385.765C126.845 385.765 126.162 386.448 126.162 387.292C126.162 388.135 126.845 388.819 127.687 388.819Z" fill="#96BDBE"/>
<path d="M127.687 345.956C128.53 345.956 129.213 345.273 129.213 344.429C129.213 343.586 128.53 342.902 127.687 342.902C126.845 342.902 126.162 343.586 126.162 344.429C126.162 345.273 126.845 345.956 127.687 345.956Z" fill="#96BDBE"/>
<path d="M127.687 303.093C128.53 303.093 129.213 302.41 129.213 301.566C129.213 300.723 128.53 300.039 127.687 300.039C126.845 300.039 126.162 300.723 126.162 301.566C126.162 302.41 126.845 303.093 127.687 303.093Z" fill="#96BDBE"/>
<path d="M127.687 260.231C128.53 260.231 129.213 259.547 129.213 258.704C129.213 257.86 128.53 257.177 127.687 257.177C126.845 257.177 126.162 257.86 126.162 258.704C126.162 259.547 126.845 260.231 127.687 260.231Z" fill="#96BDBE"/>
<path d="M127.687 217.368C128.53 217.368 129.213 216.684 129.213 215.841C129.213 214.997 128.53 214.314 127.687 214.314C126.845 214.314 126.162 214.997 126.162 215.841C126.162 216.684 126.845 217.368 127.687 217.368Z" fill="#96BDBE"/>
<path d="M127.687 174.505C128.53 174.505 129.213 173.822 129.213 172.978C129.213 172.135 128.53 171.451 127.687 171.451C126.845 171.451 126.162 172.135 126.162 172.978C126.162 173.822 126.845 174.505 127.687 174.505Z" fill="#96BDBE"/>
<path d="M127.687 131.643C128.53 131.643 129.213 130.959 129.213 130.115C129.213 129.272 128.53 128.588 127.687 128.588C126.845 128.588 126.162 129.272 126.162 130.115C126.162 130.959 126.845 131.643 127.687 131.643Z" fill="#96BDBE"/>
<path d="M127.687 88.78C128.53 88.78 129.213 88.0962 129.213 87.2528C129.213 86.4093 128.53 85.7256 127.687 85.7256C126.845 85.7256 126.162 86.4093 126.162 87.2528C126.162 88.0962 126.845 88.78 127.687 88.78Z" fill="#96BDBE"/>
<path d="M127.687 45.9172C128.53 45.9172 129.213 45.2334 129.213 44.39C129.213 43.5465 128.53 42.8628 127.687 42.8628C126.845 42.8628 126.162 43.5465 126.162 44.39C126.162 45.2334 126.845 45.9172 127.687 45.9172Z" fill="#96BDBE"/>
<path d="M127.687 3.0544C128.53 3.0544 129.213 2.37065 129.213 1.5272C129.213 0.68375 128.53 0 127.687 0C126.845 0 126.162 0.68375 126.162 1.5272C126.162 2.37065 126.845 3.0544 127.687 3.0544Z" fill="#96BDBE"/>
<path d="M85.6363 431.682C86.4788 431.682 87.1617 430.998 87.1617 430.155C87.1617 429.311 86.4788 428.627 85.6363 428.627C84.7938 428.627 84.1108 429.311 84.1108 430.155C84.1108 430.998 84.7938 431.682 85.6363 431.682Z" fill="#96BDBE"/>
<path d="M85.6363 388.819C86.4788 388.819 87.1617 388.135 87.1617 387.292C87.1617 386.448 86.4788 385.765 85.6363 385.765C84.7938 385.765 84.1108 386.448 84.1108 387.292C84.1108 388.135 84.7938 388.819 85.6363 388.819Z" fill="#96BDBE"/>
<path d="M85.6363 345.956C86.4788 345.956 87.1617 345.273 87.1617 344.429C87.1617 343.586 86.4788 342.902 85.6363 342.902C84.7938 342.902 84.1108 343.586 84.1108 344.429C84.1108 345.273 84.7938 345.956 85.6363 345.956Z" fill="#96BDBE"/>
<path d="M85.6363 303.093C86.4788 303.093 87.1617 302.41 87.1617 301.566C87.1617 300.723 86.4788 300.039 85.6363 300.039C84.7938 300.039 84.1108 300.723 84.1108 301.566C84.1108 302.41 84.7938 303.093 85.6363 303.093Z" fill="#96BDBE"/>
<path d="M85.6363 260.231C86.4788 260.231 87.1617 259.547 87.1617 258.704C87.1617 257.86 86.4788 257.177 85.6363 257.177C84.7938 257.177 84.1108 257.86 84.1108 258.704C84.1108 259.547 84.7938 260.231 85.6363 260.231Z" fill="#96BDBE"/>
<path d="M85.6363 217.368C86.4788 217.368 87.1617 216.684 87.1617 215.841C87.1617 214.997 86.4788 214.314 85.6363 214.314C84.7938 214.314 84.1108 214.997 84.1108 215.841C84.1108 216.684 84.7938 217.368 85.6363 217.368Z" fill="#96BDBE"/>
<path d="M85.6363 174.505C86.4788 174.505 87.1617 173.822 87.1617 172.978C87.1617 172.135 86.4788 171.451 85.6363 171.451C84.7938 171.451 84.1108 172.135 84.1108 172.978C84.1108 173.822 84.7938 174.505 85.6363 174.505Z" fill="#96BDBE"/>
<path d="M85.6363 131.643C86.4788 131.643 87.1617 130.959 87.1617 130.115C87.1617 129.272 86.4788 128.588 85.6363 128.588C84.7938 128.588 84.1108 129.272 84.1108 130.115C84.1108 130.959 84.7938 131.643 85.6363 131.643Z" fill="#96BDBE"/>
<path d="M85.6363 88.78C86.4788 88.78 87.1617 88.0962 87.1617 87.2528C87.1617 86.4093 86.4788 85.7256 85.6363 85.7256C84.7938 85.7256 84.1108 86.4093 84.1108 87.2528C84.1108 88.0962 84.7938 88.78 85.6363 88.78Z" fill="#96BDBE"/>
<path d="M85.6363 45.9172C86.4788 45.9172 87.1617 45.2334 87.1617 44.39C87.1617 43.5465 86.4788 42.8628 85.6363 42.8628C84.7938 42.8628 84.1108 43.5465 84.1108 44.39C84.1108 45.2334 84.7938 45.9172 85.6363 45.9172Z" fill="#96BDBE"/>
<path d="M85.6363 3.0544C86.4788 3.0544 87.1617 2.37065 87.1617 1.5272C87.1617 0.68375 86.4788 0 85.6363 0C84.7938 0 84.1108 0.68375 84.1108 1.5272C84.1108 2.37065 84.7938 3.0544 85.6363 3.0544Z" fill="#96BDBE"/>
<path d="M45.1061 430.155C45.1061 429.313 44.4215 428.627 43.5806 428.627C42.7398 428.627 42.0552 429.313 42.0552 430.155C42.0552 430.996 42.7398 431.682 43.5806 431.682C44.4215 431.682 45.1061 430.996 45.1061 430.155Z" fill="#96BDBE"/>
<path d="M45.1061 387.292C45.1061 386.45 44.4215 385.765 43.5806 385.765C42.7398 385.765 42.0552 386.45 42.0552 387.292C42.0552 388.134 42.7398 388.819 43.5806 388.819C44.4215 388.819 45.1061 388.134 45.1061 387.292Z" fill="#96BDBE"/>
<path d="M45.1061 344.429C45.1061 343.587 44.4215 342.902 43.5806 342.902C42.7398 342.902 42.0552 343.587 42.0552 344.429C42.0552 345.271 42.7398 345.956 43.5806 345.956C44.4215 345.956 45.1061 345.271 45.1061 344.429Z" fill="#96BDBE"/>
<path d="M45.1061 301.566C45.1061 300.724 44.4215 300.039 43.5806 300.039C42.7398 300.039 42.0552 300.724 42.0552 301.566C42.0552 302.408 42.7398 303.093 43.5806 303.093C44.4215 303.093 45.1061 302.408 45.1061 301.566Z" fill="#96BDBE"/>
<path d="M45.1061 258.704C45.1061 257.862 44.4215 257.177 43.5806 257.177C42.7398 257.177 42.0552 257.862 42.0552 258.704C42.0552 259.546 42.7398 260.231 43.5806 260.231C44.4215 260.231 45.1061 259.546 45.1061 258.704Z" fill="#96BDBE"/>
<path d="M45.1061 215.841C45.1061 214.999 44.4215 214.314 43.5806 214.314C42.7398 214.314 42.0552 214.999 42.0552 215.841C42.0552 216.683 42.7398 217.368 43.5806 217.368C44.4215 217.368 45.1061 216.683 45.1061 215.841Z" fill="#96BDBE"/>
<path d="M45.1061 172.978C45.1061 172.136 44.4215 171.451 43.5806 171.451C42.7398 171.451 42.0552 172.136 42.0552 172.978C42.0552 173.82 42.7398 174.505 43.5806 174.505C44.4215 174.505 45.1061 173.82 45.1061 172.978Z" fill="#96BDBE"/>
<path d="M45.1061 130.115C45.1061 129.274 44.4215 128.588 43.5806 128.588C42.7398 128.588 42.0552 129.274 42.0552 130.115C42.0552 130.957 42.7398 131.643 43.5806 131.643C44.4215 131.643 45.1061 130.957 45.1061 130.115Z" fill="#96BDBE"/>
<path d="M45.1061 87.2528C45.1061 86.411 44.4215 85.7256 43.5806 85.7256C42.7398 85.7256 42.0552 86.411 42.0552 87.2528C42.0552 88.0946 42.7398 88.78 43.5806 88.78C44.4215 88.78 45.1061 88.0946 45.1061 87.2528Z" fill="#96BDBE"/>
<path d="M45.1061 44.39C45.1061 43.5482 44.4215 42.8628 43.5806 42.8628C42.7398 42.8628 42.0552 43.5482 42.0552 44.39C42.0552 45.2318 42.7398 45.9172 43.5806 45.9172C44.4215 45.9172 45.1061 45.2318 45.1061 44.39Z" fill="#96BDBE"/>
<path d="M45.1061 1.5272C45.1061 0.685399 44.4215 0 43.5806 0C42.7398 0 42.0552 0.685399 42.0552 1.5272C42.0552 2.369 42.7398 3.0544 43.5806 3.0544C44.4215 3.0544 45.1061 2.369 45.1061 1.5272Z" fill="#96BDBE"/>
<path d="M425.475 431.682C426.317 431.682 427 430.998 427 430.155C427 429.311 426.317 428.627 425.475 428.627C424.632 428.627 423.949 429.311 423.949 430.155C423.949 430.998 424.632 431.682 425.475 431.682Z" fill="#96BDBE"/>
<path d="M425.475 388.819C426.317 388.819 427 388.135 427 387.292C427 386.448 426.317 385.764 425.475 385.764C424.632 385.764 423.949 386.448 423.949 387.292C423.949 388.135 424.632 388.819 425.475 388.819Z" fill="#96BDBE"/>
<path d="M425.475 345.956C426.317 345.956 427 345.273 427 344.429C427 343.586 426.317 342.902 425.475 342.902C424.632 342.902 423.949 343.586 423.949 344.429C423.949 345.273 424.632 345.956 425.475 345.956Z" fill="#96BDBE"/>
<path d="M425.475 303.093C426.317 303.093 427 302.41 427 301.566C427 300.723 426.317 300.039 425.475 300.039C424.632 300.039 423.949 300.723 423.949 301.566C423.949 302.41 424.632 303.093 425.475 303.093Z" fill="#96BDBE"/>
<path d="M425.475 260.231C426.317 260.231 427 259.547 427 258.704C427 257.86 426.317 257.177 425.475 257.177C424.632 257.177 423.949 257.86 423.949 258.704C423.949 259.547 424.632 260.231 425.475 260.231Z" fill="#96BDBE"/>
<path d="M425.475 217.368C426.317 217.368 427 216.684 427 215.841C427 214.997 426.317 214.313 425.475 214.313C424.632 214.313 423.949 214.997 423.949 215.841C423.949 216.684 424.632 217.368 425.475 217.368Z" fill="#96BDBE"/>
<path d="M425.475 174.505C426.317 174.505 427 173.822 427 172.978C427 172.135 426.317 171.451 425.475 171.451C424.632 171.451 423.949 172.135 423.949 172.978C423.949 173.822 424.632 174.505 425.475 174.505Z" fill="#96BDBE"/>
<path d="M425.475 131.643C426.317 131.643 427 130.959 427 130.116C427 129.272 426.317 128.588 425.475 128.588C424.632 128.588 423.949 129.272 423.949 130.116C423.949 130.959 424.632 131.643 425.475 131.643Z" fill="#96BDBE"/>
<path d="M425.475 88.7797C426.317 88.7797 427 88.096 427 87.2525C427 86.4091 426.317 85.7253 425.475 85.7253C424.632 85.7253 423.949 86.4091 423.949 87.2525C423.949 88.096 424.632 88.7797 425.475 88.7797Z" fill="#96BDBE"/>
<path d="M425.475 45.9172C426.317 45.9172 427 45.2334 427 44.39C427 43.5465 426.317 42.8628 425.475 42.8628C424.632 42.8628 423.949 43.5465 423.949 44.39C423.949 45.2334 424.632 45.9172 425.475 45.9172Z" fill="#96BDBE"/>
<path d="M425.475 3.0544C426.317 3.0544 427 2.37065 427 1.5272C427 0.68375 426.317 0 425.475 0C424.632 0 423.949 0.68375 423.949 1.5272C423.949 2.37065 424.632 3.0544 425.475 3.0544Z" fill="#96BDBE"/>
<path d="M383.419 431.682C384.261 431.682 384.944 430.998 384.944 430.155C384.944 429.311 384.261 428.627 383.419 428.627C382.577 428.627 381.894 429.311 381.894 430.155C381.894 430.998 382.577 431.682 383.419 431.682Z" fill="#96BDBE"/>
<path d="M383.419 388.819C384.261 388.819 384.944 388.135 384.944 387.292C384.944 386.448 384.261 385.765 383.419 385.765C382.577 385.765 381.894 386.448 381.894 387.292C381.894 388.135 382.577 388.819 383.419 388.819Z" fill="#96BDBE"/>
<path d="M383.419 345.956C384.261 345.956 384.944 345.273 384.944 344.429C384.944 343.586 384.261 342.902 383.419 342.902C382.577 342.902 381.894 343.586 381.894 344.429C381.894 345.273 382.577 345.956 383.419 345.956Z" fill="#96BDBE"/>
<path d="M383.419 303.093C384.261 303.093 384.944 302.41 384.944 301.566C384.944 300.723 384.261 300.039 383.419 300.039C382.577 300.039 381.894 300.723 381.894 301.566C381.894 302.41 382.577 303.093 383.419 303.093Z" fill="#96BDBE"/>
<path d="M383.419 260.231C384.261 260.231 384.944 259.547 384.944 258.704C384.944 257.86 384.261 257.177 383.419 257.177C382.577 257.177 381.894 257.86 381.894 258.704C381.894 259.547 382.577 260.231 383.419 260.231Z" fill="#96BDBE"/>
<path d="M383.419 217.368C384.261 217.368 384.944 216.684 384.944 215.841C384.944 214.997 384.261 214.314 383.419 214.314C382.577 214.314 381.894 214.997 381.894 215.841C381.894 216.684 382.577 217.368 383.419 217.368Z" fill="#96BDBE"/>
<path d="M383.419 174.505C384.261 174.505 384.944 173.822 384.944 172.978C384.944 172.135 384.261 171.451 383.419 171.451C382.577 171.451 381.894 172.135 381.894 172.978C381.894 173.822 382.577 174.505 383.419 174.505Z" fill="#96BDBE"/>
<path d="M383.419 131.643C384.261 131.643 384.944 130.959 384.944 130.115C384.944 129.272 384.261 128.588 383.419 128.588C382.577 128.588 381.894 129.272 381.894 130.115C381.894 130.959 382.577 131.643 383.419 131.643Z" fill="#96BDBE"/>
<path d="M383.419 88.78C384.261 88.78 384.944 88.0962 384.944 87.2528C384.944 86.4093 384.261 85.7256 383.419 85.7256C382.577 85.7256 381.894 86.4093 381.894 87.2528C381.894 88.0962 382.577 88.78 383.419 88.78Z" fill="#96BDBE"/>
<path d="M383.419 45.9172C384.261 45.9172 384.944 45.2334 384.944 44.39C384.944 43.5465 384.261 42.8628 383.419 42.8628C382.577 42.8628 381.894 43.5465 381.894 44.39C381.894 45.2334 382.577 45.9172 383.419 45.9172Z" fill="#96BDBE"/>
<path d="M383.419 3.0544C384.261 3.0544 384.944 2.37065 384.944 1.5272C384.944 0.68375 384.261 0 383.419 0C382.577 0 381.894 0.68375 381.894 1.5272C381.894 2.37065 382.577 3.0544 383.419 3.0544Z" fill="#96BDBE"/>
<path d="M341.364 431.682C342.206 431.682 342.889 430.998 342.889 430.155C342.889 429.311 342.206 428.627 341.364 428.627C340.521 428.627 339.838 429.311 339.838 430.155C339.838 430.998 340.521 431.682 341.364 431.682Z" fill="#96BDBE"/>
<path d="M341.364 388.819C342.206 388.819 342.889 388.135 342.889 387.292C342.889 386.448 342.206 385.765 341.364 385.765C340.521 385.765 339.838 386.448 339.838 387.292C339.838 388.135 340.521 388.819 341.364 388.819Z" fill="#96BDBE"/>
<path d="M341.364 345.956C342.206 345.956 342.889 345.273 342.889 344.429C342.889 343.586 342.206 342.902 341.364 342.902C340.521 342.902 339.838 343.586 339.838 344.429C339.838 345.273 340.521 345.956 341.364 345.956Z" fill="#96BDBE"/>
<path d="M341.364 303.093C342.206 303.093 342.889 302.41 342.889 301.566C342.889 300.723 342.206 300.039 341.364 300.039C340.521 300.039 339.838 300.723 339.838 301.566C339.838 302.41 340.521 303.093 341.364 303.093Z" fill="#96BDBE"/>
<path d="M341.364 260.231C342.206 260.231 342.889 259.547 342.889 258.704C342.889 257.86 342.206 257.177 341.364 257.177C340.521 257.177 339.838 257.86 339.838 258.704C339.838 259.547 340.521 260.231 341.364 260.231Z" fill="#96BDBE"/>
<path d="M341.364 217.368C342.206 217.368 342.889 216.684 342.889 215.841C342.889 214.997 342.206 214.314 341.364 214.314C340.521 214.314 339.838 214.997 339.838 215.841C339.838 216.684 340.521 217.368 341.364 217.368Z" fill="#96BDBE"/>
<path d="M341.364 174.505C342.206 174.505 342.889 173.822 342.889 172.978C342.889 172.135 342.206 171.451 341.364 171.451C340.521 171.451 339.838 172.135 339.838 172.978C339.838 173.822 340.521 174.505 341.364 174.505Z" fill="#96BDBE"/>
<path d="M341.364 131.643C342.206 131.643 342.889 130.959 342.889 130.115C342.889 129.272 342.206 128.588 341.364 128.588C340.521 128.588 339.838 129.272 339.838 130.115C339.838 130.959 340.521 131.643 341.364 131.643Z" fill="#96BDBE"/>
<path d="M341.364 88.78C342.206 88.78 342.889 88.0962 342.889 87.2528C342.889 86.4093 342.206 85.7256 341.364 85.7256C340.521 85.7256 339.838 86.4093 339.838 87.2528C339.838 88.0962 340.521 88.78 341.364 88.78Z" fill="#96BDBE"/>
<path d="M341.364 45.9172C342.206 45.9172 342.889 45.2334 342.889 44.39C342.889 43.5465 342.206 42.8628 341.364 42.8628C340.521 42.8628 339.838 43.5465 339.838 44.39C339.838 45.2334 340.521 45.9172 341.364 45.9172Z" fill="#96BDBE"/>
<path d="M341.364 3.0544C342.206 3.0544 342.889 2.37065 342.889 1.5272C342.889 0.68375 342.206 0 341.364 0C340.521 0 339.838 0.68375 339.838 1.5272C339.838 2.37065 340.521 3.0544 341.364 3.0544Z" fill="#96BDBE"/>
<path d="M299.313 431.682C300.156 431.682 300.838 430.998 300.838 430.155C300.838 429.311 300.156 428.627 299.313 428.627C298.471 428.627 297.788 429.311 297.788 430.155C297.788 430.998 298.471 431.682 299.313 431.682Z" fill="#96BDBE"/>
<path d="M299.313 388.819C300.156 388.819 300.838 388.135 300.838 387.292C300.838 386.448 300.156 385.765 299.313 385.765C298.471 385.765 297.788 386.448 297.788 387.292C297.788 388.135 298.471 388.819 299.313 388.819Z" fill="#96BDBE"/>
<path d="M299.313 345.956C300.156 345.956 300.838 345.273 300.838 344.429C300.838 343.586 300.156 342.902 299.313 342.902C298.471 342.902 297.788 343.586 297.788 344.429C297.788 345.273 298.471 345.956 299.313 345.956Z" fill="#96BDBE"/>
<path d="M299.313 303.093C300.156 303.093 300.838 302.41 300.838 301.566C300.838 300.723 300.156 300.039 299.313 300.039C298.471 300.039 297.788 300.723 297.788 301.566C297.788 302.41 298.471 303.093 299.313 303.093Z" fill="#96BDBE"/>
<path d="M299.313 260.231C300.156 260.231 300.838 259.547 300.838 258.704C300.838 257.86 300.156 257.177 299.313 257.177C298.471 257.177 297.788 257.86 297.788 258.704C297.788 259.547 298.471 260.231 299.313 260.231Z" fill="#96BDBE"/>
<path d="M299.313 217.368C300.156 217.368 300.838 216.684 300.838 215.841C300.838 214.997 300.156 214.314 299.313 214.314C298.471 214.314 297.788 214.997 297.788 215.841C297.788 216.684 298.471 217.368 299.313 217.368Z" fill="#96BDBE"/>
<path d="M299.313 174.505C300.156 174.505 300.838 173.822 300.838 172.978C300.838 172.135 300.156 171.451 299.313 171.451C298.471 171.451 297.788 172.135 297.788 172.978C297.788 173.822 298.471 174.505 299.313 174.505Z" fill="#96BDBE"/>
<path d="M299.313 131.643C300.156 131.643 300.838 130.959 300.838 130.115C300.838 129.272 300.156 128.588 299.313 128.588C298.471 128.588 297.788 129.272 297.788 130.115C297.788 130.959 298.471 131.643 299.313 131.643Z" fill="#96BDBE"/>
<path d="M299.313 88.78C300.156 88.78 300.838 88.0962 300.838 87.2528C300.838 86.4093 300.156 85.7256 299.313 85.7256C298.471 85.7256 297.788 86.4093 297.788 87.2528C297.788 88.0962 298.471 88.78 299.313 88.78Z" fill="#96BDBE"/>
<path d="M299.313 45.9172C300.156 45.9172 300.838 45.2334 300.838 44.39C300.838 43.5465 300.156 42.8628 299.313 42.8628C298.471 42.8628 297.788 43.5465 297.788 44.39C297.788 45.2334 298.471 45.9172 299.313 45.9172Z" fill="#96BDBE"/>
<path d="M299.313 3.0544C300.156 3.0544 300.838 2.37065 300.838 1.5272C300.838 0.68375 300.156 0 299.313 0C298.471 0 297.788 0.68375 297.788 1.5272C297.788 2.37065 298.471 3.0544 299.313 3.0544Z" fill="#96BDBE"/>
<path d="M258.787 430.155C258.787 429.313 258.103 428.627 257.262 428.627C256.421 428.627 255.736 429.313 255.736 430.155C255.736 430.996 256.421 431.682 257.262 431.682C258.103 431.682 258.787 430.996 258.787 430.155Z" fill="#96BDBE"/>
<path d="M258.787 387.292C258.787 386.45 258.103 385.764 257.262 385.764C256.421 385.764 255.736 386.45 255.736 387.292C255.736 388.133 256.421 388.819 257.262 388.819C258.103 388.819 258.787 388.133 258.787 387.292Z" fill="#96BDBE"/>
<path d="M258.787 344.429C258.787 343.587 258.103 342.902 257.262 342.902C256.421 342.902 255.736 343.587 255.736 344.429C255.736 345.271 256.421 345.956 257.262 345.956C258.103 345.956 258.787 345.271 258.787 344.429Z" fill="#96BDBE"/>
<path d="M258.787 301.566C258.787 300.724 258.103 300.039 257.262 300.039C256.421 300.039 255.736 300.724 255.736 301.566C255.736 302.408 256.421 303.093 257.262 303.093C258.103 303.093 258.787 302.408 258.787 301.566Z" fill="#96BDBE"/>
<path d="M258.787 258.704C258.787 257.862 258.103 257.177 257.262 257.177C256.421 257.177 255.736 257.862 255.736 258.704C255.736 259.546 256.421 260.231 257.262 260.231C258.103 260.231 258.787 259.546 258.787 258.704Z" fill="#96BDBE"/>
<path d="M258.787 215.841C258.787 214.999 258.103 214.313 257.262 214.313C256.421 214.313 255.736 214.999 255.736 215.841C255.736 216.682 256.421 217.368 257.262 217.368C258.103 217.368 258.787 216.682 258.787 215.841Z" fill="#96BDBE"/>
<path d="M258.787 172.978C258.787 172.136 258.103 171.451 257.262 171.451C256.421 171.451 255.736 172.136 255.736 172.978C255.736 173.82 256.421 174.505 257.262 174.505C258.103 174.505 258.787 173.82 258.787 172.978Z" fill="#96BDBE"/>
<path d="M258.787 130.116C258.787 129.274 258.103 128.588 257.262 128.588C256.421 128.588 255.736 129.274 255.736 130.116C255.736 130.957 256.421 131.643 257.262 131.643C258.103 131.643 258.787 130.957 258.787 130.116Z" fill="#96BDBE"/>
<path d="M258.787 87.2525C258.787 86.4107 258.103 85.7253 257.262 85.7253C256.421 85.7253 255.736 86.4107 255.736 87.2525C255.736 88.0943 256.421 88.7797 257.262 88.7797C258.103 88.7797 258.787 88.0943 258.787 87.2525Z" fill="#96BDBE"/>
<path d="M258.787 44.39C258.787 43.5482 258.103 42.8628 257.262 42.8628C256.421 42.8628 255.736 43.5482 255.736 44.39C255.736 45.2318 256.421 45.9172 257.262 45.9172C258.103 45.9172 258.787 45.2318 258.787 44.39Z" fill="#96BDBE"/>
<path d="M258.787 1.5272C258.787 0.685399 258.103 0 257.262 0C256.421 0 255.736 0.685399 255.736 1.5272C255.736 2.369 256.421 3.0544 257.262 3.0544C258.103 3.0544 258.787 2.369 258.787 1.5272Z" fill="#96BDBE"/>
<path d="M1.52544 431.682C2.36792 431.682 3.05089 430.998 3.05089 430.155C3.05089 429.311 2.36792 428.627 1.52544 428.627C0.682964 428.627 0 429.311 0 430.155C0 430.998 0.682964 431.682 1.52544 431.682Z" fill="#96BDBE"/>
<path d="M1.52544 388.819C2.36792 388.819 3.05089 388.135 3.05089 387.292C3.05089 386.448 2.36792 385.765 1.52544 385.765C0.682964 385.765 0 386.448 0 387.292C0 388.135 0.682964 388.819 1.52544 388.819Z" fill="#96BDBE"/>
<path d="M1.52544 345.956C2.36792 345.956 3.05089 345.273 3.05089 344.429C3.05089 343.586 2.36792 342.902 1.52544 342.902C0.682964 342.902 0 343.586 0 344.429C0 345.273 0.682964 345.956 1.52544 345.956Z" fill="#96BDBE"/>
<path d="M1.52544 303.093C2.36792 303.093 3.05089 302.41 3.05089 301.566C3.05089 300.723 2.36792 300.039 1.52544 300.039C0.682964 300.039 0 300.723 0 301.566C0 302.41 0.682964 303.093 1.52544 303.093Z" fill="#96BDBE"/>
<path d="M1.52544 260.231C2.36792 260.231 3.05089 259.547 3.05089 258.704C3.05089 257.86 2.36792 257.177 1.52544 257.177C0.682964 257.177 0 257.86 0 258.704C0 259.547 0.682964 260.231 1.52544 260.231Z" fill="#96BDBE"/>
<path d="M1.52544 217.368C2.36792 217.368 3.05089 216.684 3.05089 215.841C3.05089 214.997 2.36792 214.314 1.52544 214.314C0.682964 214.314 0 214.997 0 215.841C0 216.684 0.682964 217.368 1.52544 217.368Z" fill="#96BDBE"/>
<path d="M1.52544 174.505C2.36792 174.505 3.05089 173.822 3.05089 172.978C3.05089 172.135 2.36792 171.451 1.52544 171.451C0.682964 171.451 0 172.135 0 172.978C0 173.822 0.682964 174.505 1.52544 174.505Z" fill="#96BDBE"/>
<path d="M1.52544 131.643C2.36792 131.643 3.05089 130.959 3.05089 130.115C3.05089 129.272 2.36792 128.588 1.52544 128.588C0.682964 128.588 0 129.272 0 130.115C0 130.959 0.682964 131.643 1.52544 131.643Z" fill="#96BDBE"/>
<path d="M1.52544 88.78C2.36792 88.78 3.05089 88.0962 3.05089 87.2528C3.05089 86.4093 2.36792 85.7256 1.52544 85.7256C0.682964 85.7256 0 86.4093 0 87.2528C0 88.0962 0.682964 88.78 1.52544 88.78Z" fill="#96BDBE"/>
<path d="M1.52544 45.9174C2.36792 45.9174 3.05089 45.2337 3.05089 44.3902C3.05089 43.5468 2.36792 42.863 1.52544 42.863C0.682964 42.863 0 43.5468 0 44.3902C0 45.2337 0.682964 45.9174 1.52544 45.9174Z" fill="#96BDBE"/>
<path d="M1.52544 3.0544C2.36792 3.0544 3.05089 2.37065 3.05089 1.5272C3.05089 0.68375 2.36792 0 1.52544 0C0.682964 0 0 0.68375 0 1.5272C0 2.37065 0.682964 3.0544 1.52544 3.0544Z" fill="#96BDBE"/>
</g>
<g clip-path="url(#clip1_19_5303)">
<path d="M677.793 431.682C678.636 431.682 679.318 430.998 679.318 430.155C679.318 429.311 678.636 428.627 677.793 428.627C676.951 428.627 676.268 429.311 676.268 430.155C676.268 430.998 676.951 431.682 677.793 431.682Z" fill="#96BDBE"/>
<path d="M677.793 388.819C678.636 388.819 679.318 388.135 679.318 387.292C679.318 386.448 678.636 385.765 677.793 385.765C676.951 385.765 676.268 386.448 676.268 387.292C676.268 388.135 676.951 388.819 677.793 388.819Z" fill="#96BDBE"/>
<path d="M677.793 345.956C678.636 345.956 679.318 345.273 679.318 344.429C679.318 343.586 678.636 342.902 677.793 342.902C676.951 342.902 676.268 343.586 676.268 344.429C676.268 345.273 676.951 345.956 677.793 345.956Z" fill="#96BDBE"/>
<path d="M677.793 303.093C678.636 303.093 679.318 302.41 679.318 301.566C679.318 300.723 678.636 300.039 677.793 300.039C676.951 300.039 676.268 300.723 676.268 301.566C676.268 302.41 676.951 303.093 677.793 303.093Z" fill="#96BDBE"/>
<path d="M677.793 260.231C678.636 260.231 679.318 259.547 679.318 258.704C679.318 257.86 678.636 257.177 677.793 257.177C676.951 257.177 676.268 257.86 676.268 258.704C676.268 259.547 676.951 260.231 677.793 260.231Z" fill="#96BDBE"/>
<path d="M677.793 217.368C678.636 217.368 679.318 216.684 679.318 215.841C679.318 214.997 678.636 214.314 677.793 214.314C676.951 214.314 676.268 214.997 676.268 215.841C676.268 216.684 676.951 217.368 677.793 217.368Z" fill="#96BDBE"/>
<path d="M677.793 174.505C678.636 174.505 679.318 173.822 679.318 172.978C679.318 172.135 678.636 171.451 677.793 171.451C676.951 171.451 676.268 172.135 676.268 172.978C676.268 173.822 676.951 174.505 677.793 174.505Z" fill="#96BDBE"/>
<path d="M677.793 131.643C678.636 131.643 679.318 130.959 679.318 130.115C679.318 129.272 678.636 128.588 677.793 128.588C676.951 128.588 676.268 129.272 676.268 130.115C676.268 130.959 676.951 131.643 677.793 131.643Z" fill="#96BDBE"/>
<path d="M677.793 88.78C678.636 88.78 679.318 88.0962 679.318 87.2528C679.318 86.4093 678.636 85.7256 677.793 85.7256C676.951 85.7256 676.268 86.4093 676.268 87.2528C676.268 88.0962 676.951 88.78 677.793 88.78Z" fill="#96BDBE"/>
<path d="M677.793 45.9172C678.636 45.9172 679.318 45.2334 679.318 44.39C679.318 43.5465 678.636 42.8628 677.793 42.8628C676.951 42.8628 676.268 43.5465 676.268 44.39C676.268 45.2334 676.951 45.9172 677.793 45.9172Z" fill="#96BDBE"/>
<path d="M677.793 3.0544C678.636 3.0544 679.318 2.37065 679.318 1.5272C679.318 0.68375 678.636 0 677.793 0C676.951 0 676.268 0.68375 676.268 1.5272C676.268 2.37065 676.951 3.0544 677.793 3.0544Z" fill="#96BDBE"/>
<path d="M635.742 431.682C636.585 431.682 637.268 430.998 637.268 430.155C637.268 429.311 636.585 428.627 635.742 428.627C634.9 428.627 634.217 429.311 634.217 430.155C634.217 430.998 634.9 431.682 635.742 431.682Z" fill="#96BDBE"/>
<path d="M635.742 388.819C636.585 388.819 637.268 388.135 637.268 387.292C637.268 386.448 636.585 385.765 635.742 385.765C634.9 385.765 634.217 386.448 634.217 387.292C634.217 388.135 634.9 388.819 635.742 388.819Z" fill="#96BDBE"/>
<path d="M635.742 345.956C636.585 345.956 637.268 345.273 637.268 344.429C637.268 343.586 636.585 342.902 635.742 342.902C634.9 342.902 634.217 343.586 634.217 344.429C634.217 345.273 634.9 345.956 635.742 345.956Z" fill="#96BDBE"/>
<path d="M635.742 303.093C636.585 303.093 637.268 302.41 637.268 301.566C637.268 300.723 636.585 300.039 635.742 300.039C634.9 300.039 634.217 300.723 634.217 301.566C634.217 302.41 634.9 303.093 635.742 303.093Z" fill="#96BDBE"/>
<path d="M635.742 260.231C636.585 260.231 637.268 259.547 637.268 258.704C637.268 257.86 636.585 257.177 635.742 257.177C634.9 257.177 634.217 257.86 634.217 258.704C634.217 259.547 634.9 260.231 635.742 260.231Z" fill="#96BDBE"/>
<path d="M635.742 217.368C636.585 217.368 637.268 216.684 637.268 215.841C637.268 214.997 636.585 214.314 635.742 214.314C634.9 214.314 634.217 214.997 634.217 215.841C634.217 216.684 634.9 217.368 635.742 217.368Z" fill="#96BDBE"/>
<path d="M635.742 174.505C636.585 174.505 637.268 173.822 637.268 172.978C637.268 172.135 636.585 171.451 635.742 171.451C634.9 171.451 634.217 172.135 634.217 172.978C634.217 173.822 634.9 174.505 635.742 174.505Z" fill="#96BDBE"/>
<path d="M635.742 131.643C636.585 131.643 637.268 130.959 637.268 130.115C637.268 129.272 636.585 128.588 635.742 128.588C634.9 128.588 634.217 129.272 634.217 130.115C634.217 130.959 634.9 131.643 635.742 131.643Z" fill="#96BDBE"/>
<path d="M635.742 88.78C636.585 88.78 637.268 88.0962 637.268 87.2528C637.268 86.4093 636.585 85.7256 635.742 85.7256C634.9 85.7256 634.217 86.4093 634.217 87.2528C634.217 88.0962 634.9 88.78 635.742 88.78Z" fill="#96BDBE"/>
<path d="M635.742 45.9172C636.585 45.9172 637.268 45.2334 637.268 44.39C637.268 43.5465 636.585 42.8628 635.742 42.8628C634.9 42.8628 634.217 43.5465 634.217 44.39C634.217 45.2334 634.9 45.9172 635.742 45.9172Z" fill="#96BDBE"/>
<path d="M635.742 3.0544C636.585 3.0544 637.268 2.37065 637.268 1.5272C637.268 0.68375 636.585 0 635.742 0C634.9 0 634.217 0.68375 634.217 1.5272C634.217 2.37065 634.9 3.0544 635.742 3.0544Z" fill="#96BDBE"/>
<path d="M593.687 431.682C594.53 431.682 595.213 430.998 595.213 430.155C595.213 429.311 594.53 428.627 593.687 428.627C592.845 428.627 592.162 429.311 592.162 430.155C592.162 430.998 592.845 431.682 593.687 431.682Z" fill="#96BDBE"/>
<path d="M593.687 388.819C594.53 388.819 595.213 388.135 595.213 387.292C595.213 386.448 594.53 385.765 593.687 385.765C592.845 385.765 592.162 386.448 592.162 387.292C592.162 388.135 592.845 388.819 593.687 388.819Z" fill="#96BDBE"/>
<path d="M593.687 345.956C594.53 345.956 595.213 345.273 595.213 344.429C595.213 343.586 594.53 342.902 593.687 342.902C592.845 342.902 592.162 343.586 592.162 344.429C592.162 345.273 592.845 345.956 593.687 345.956Z" fill="#96BDBE"/>
<path d="M593.687 303.093C594.53 303.093 595.213 302.41 595.213 301.566C595.213 300.723 594.53 300.039 593.687 300.039C592.845 300.039 592.162 300.723 592.162 301.566C592.162 302.41 592.845 303.093 593.687 303.093Z" fill="#96BDBE"/>
<path d="M593.687 260.231C594.53 260.231 595.213 259.547 595.213 258.704C595.213 257.86 594.53 257.177 593.687 257.177C592.845 257.177 592.162 257.86 592.162 258.704C592.162 259.547 592.845 260.231 593.687 260.231Z" fill="#96BDBE"/>
<path d="M593.687 217.368C594.53 217.368 595.213 216.684 595.213 215.841C595.213 214.997 594.53 214.314 593.687 214.314C592.845 214.314 592.162 214.997 592.162 215.841C592.162 216.684 592.845 217.368 593.687 217.368Z" fill="#96BDBE"/>
<path d="M593.687 174.505C594.53 174.505 595.213 173.822 595.213 172.978C595.213 172.135 594.53 171.451 593.687 171.451C592.845 171.451 592.162 172.135 592.162 172.978C592.162 173.822 592.845 174.505 593.687 174.505Z" fill="#96BDBE"/>
<path d="M593.687 131.643C594.53 131.643 595.213 130.959 595.213 130.115C595.213 129.272 594.53 128.588 593.687 128.588C592.845 128.588 592.162 129.272 592.162 130.115C592.162 130.959 592.845 131.643 593.687 131.643Z" fill="#96BDBE"/>
<path d="M593.687 88.78C594.53 88.78 595.213 88.0962 595.213 87.2528C595.213 86.4093 594.53 85.7256 593.687 85.7256C592.845 85.7256 592.162 86.4093 592.162 87.2528C592.162 88.0962 592.845 88.78 593.687 88.78Z" fill="#96BDBE"/>
<path d="M593.687 45.9172C594.53 45.9172 595.213 45.2334 595.213 44.39C595.213 43.5465 594.53 42.8628 593.687 42.8628C592.845 42.8628 592.162 43.5465 592.162 44.39C592.162 45.2334 592.845 45.9172 593.687 45.9172Z" fill="#96BDBE"/>
<path d="M593.687 3.0544C594.53 3.0544 595.213 2.37065 595.213 1.5272C595.213 0.68375 594.53 0 593.687 0C592.845 0 592.162 0.68375 592.162 1.5272C592.162 2.37065 592.845 3.0544 593.687 3.0544Z" fill="#96BDBE"/>
<path d="M551.636 431.682C552.479 431.682 553.162 430.998 553.162 430.155C553.162 429.311 552.479 428.627 551.636 428.627C550.794 428.627 550.111 429.311 550.111 430.155C550.111 430.998 550.794 431.682 551.636 431.682Z" fill="#96BDBE"/>
<path d="M551.636 388.819C552.479 388.819 553.162 388.135 553.162 387.292C553.162 386.448 552.479 385.765 551.636 385.765C550.794 385.765 550.111 386.448 550.111 387.292C550.111 388.135 550.794 388.819 551.636 388.819Z" fill="#96BDBE"/>
<path d="M551.636 345.956C552.479 345.956 553.162 345.273 553.162 344.429C553.162 343.586 552.479 342.902 551.636 342.902C550.794 342.902 550.111 343.586 550.111 344.429C550.111 345.273 550.794 345.956 551.636 345.956Z" fill="#96BDBE"/>
<path d="M551.636 303.093C552.479 303.093 553.162 302.41 553.162 301.566C553.162 300.723 552.479 300.039 551.636 300.039C550.794 300.039 550.111 300.723 550.111 301.566C550.111 302.41 550.794 303.093 551.636 303.093Z" fill="#96BDBE"/>
<path d="M551.636 260.231C552.479 260.231 553.162 259.547 553.162 258.704C553.162 257.86 552.479 257.177 551.636 257.177C550.794 257.177 550.111 257.86 550.111 258.704C550.111 259.547 550.794 260.231 551.636 260.231Z" fill="#96BDBE"/>
<path d="M551.636 217.368C552.479 217.368 553.162 216.684 553.162 215.841C553.162 214.997 552.479 214.314 551.636 214.314C550.794 214.314 550.111 214.997 550.111 215.841C550.111 216.684 550.794 217.368 551.636 217.368Z" fill="#96BDBE"/>
<path d="M551.636 174.505C552.479 174.505 553.162 173.822 553.162 172.978C553.162 172.135 552.479 171.451 551.636 171.451C550.794 171.451 550.111 172.135 550.111 172.978C550.111 173.822 550.794 174.505 551.636 174.505Z" fill="#96BDBE"/>
<path d="M551.636 131.643C552.479 131.643 553.162 130.959 553.162 130.115C553.162 129.272 552.479 128.588 551.636 128.588C550.794 128.588 550.111 129.272 550.111 130.115C550.111 130.959 550.794 131.643 551.636 131.643Z" fill="#96BDBE"/>
<path d="M551.636 88.78C552.479 88.78 553.162 88.0962 553.162 87.2528C553.162 86.4093 552.479 85.7256 551.636 85.7256C550.794 85.7256 550.111 86.4093 550.111 87.2528C550.111 88.0962 550.794 88.78 551.636 88.78Z" fill="#96BDBE"/>
<path d="M551.636 45.9172C552.479 45.9172 553.162 45.2334 553.162 44.39C553.162 43.5465 552.479 42.8628 551.636 42.8628C550.794 42.8628 550.111 43.5465 550.111 44.39C550.111 45.2334 550.794 45.9172 551.636 45.9172Z" fill="#96BDBE"/>
<path d="M551.636 3.0544C552.479 3.0544 553.162 2.37065 553.162 1.5272C553.162 0.68375 552.479 0 551.636 0C550.794 0 550.111 0.68375 550.111 1.5272C550.111 2.37065 550.794 3.0544 551.636 3.0544Z" fill="#96BDBE"/>
<path d="M511.106 430.155C511.106 429.313 510.421 428.627 509.581 428.627C508.74 428.627 508.055 429.313 508.055 430.155C508.055 430.996 508.74 431.682 509.581 431.682C510.421 431.682 511.106 430.996 511.106 430.155Z" fill="#96BDBE"/>
<path d="M511.106 387.292C511.106 386.45 510.421 385.765 509.581 385.765C508.74 385.765 508.055 386.45 508.055 387.292C508.055 388.134 508.74 388.819 509.581 388.819C510.421 388.819 511.106 388.134 511.106 387.292Z" fill="#96BDBE"/>
<path d="M511.106 344.429C511.106 343.587 510.421 342.902 509.581 342.902C508.74 342.902 508.055 343.587 508.055 344.429C508.055 345.271 508.74 345.956 509.581 345.956C510.421 345.956 511.106 345.271 511.106 344.429Z" fill="#96BDBE"/>
<path d="M511.106 301.566C511.106 300.724 510.421 300.039 509.581 300.039C508.74 300.039 508.055 300.724 508.055 301.566C508.055 302.408 508.74 303.093 509.581 303.093C510.421 303.093 511.106 302.408 511.106 301.566Z" fill="#96BDBE"/>
<path d="M511.106 258.704C511.106 257.862 510.421 257.177 509.581 257.177C508.74 257.177 508.055 257.862 508.055 258.704C508.055 259.546 508.74 260.231 509.581 260.231C510.421 260.231 511.106 259.546 511.106 258.704Z" fill="#96BDBE"/>
<path d="M511.106 215.841C511.106 214.999 510.421 214.314 509.581 214.314C508.74 214.314 508.055 214.999 508.055 215.841C508.055 216.683 508.74 217.368 509.581 217.368C510.421 217.368 511.106 216.683 511.106 215.841Z" fill="#96BDBE"/>
<path d="M511.106 172.978C511.106 172.136 510.421 171.451 509.581 171.451C508.74 171.451 508.055 172.136 508.055 172.978C508.055 173.82 508.74 174.505 509.581 174.505C510.421 174.505 511.106 173.82 511.106 172.978Z" fill="#96BDBE"/>
<path d="M511.106 130.115C511.106 129.274 510.421 128.588 509.581 128.588C508.74 128.588 508.055 129.274 508.055 130.115C508.055 130.957 508.74 131.643 509.581 131.643C510.421 131.643 511.106 130.957 511.106 130.115Z" fill="#96BDBE"/>
<path d="M511.106 87.2528C511.106 86.411 510.421 85.7256 509.581 85.7256C508.74 85.7256 508.055 86.411 508.055 87.2528C508.055 88.0946 508.74 88.78 509.581 88.78C510.421 88.78 511.106 88.0946 511.106 87.2528Z" fill="#96BDBE"/>
<path d="M511.106 44.39C511.106 43.5482 510.421 42.8628 509.581 42.8628C508.74 42.8628 508.055 43.5482 508.055 44.39C508.055 45.2318 508.74 45.9172 509.581 45.9172C510.421 45.9172 511.106 45.2318 511.106 44.39Z" fill="#96BDBE"/>
<path d="M511.106 1.5272C511.106 0.685399 510.421 0 509.581 0C508.74 0 508.055 0.685399 508.055 1.5272C508.055 2.369 508.74 3.0544 509.581 3.0544C510.421 3.0544 511.106 2.369 511.106 1.5272Z" fill="#96BDBE"/>
<path d="M891.475 431.682C892.317 431.682 893 430.998 893 430.155C893 429.311 892.317 428.627 891.475 428.627C890.632 428.627 889.949 429.311 889.949 430.155C889.949 430.998 890.632 431.682 891.475 431.682Z" fill="#96BDBE"/>
<path d="M891.475 388.819C892.317 388.819 893 388.135 893 387.292C893 386.448 892.317 385.764 891.475 385.764C890.632 385.764 889.949 386.448 889.949 387.292C889.949 388.135 890.632 388.819 891.475 388.819Z" fill="#96BDBE"/>
<path d="M891.475 345.956C892.317 345.956 893 345.273 893 344.429C893 343.586 892.317 342.902 891.475 342.902C890.632 342.902 889.949 343.586 889.949 344.429C889.949 345.273 890.632 345.956 891.475 345.956Z" fill="#96BDBE"/>
<path d="M891.475 303.093C892.317 303.093 893 302.41 893 301.566C893 300.723 892.317 300.039 891.475 300.039C890.632 300.039 889.949 300.723 889.949 301.566C889.949 302.41 890.632 303.093 891.475 303.093Z" fill="#96BDBE"/>
<path d="M891.475 260.231C892.317 260.231 893 259.547 893 258.704C893 257.86 892.317 257.177 891.475 257.177C890.632 257.177 889.949 257.86 889.949 258.704C889.949 259.547 890.632 260.231 891.475 260.231Z" fill="#96BDBE"/>
<path d="M891.475 217.368C892.317 217.368 893 216.684 893 215.841C893 214.997 892.317 214.313 891.475 214.313C890.632 214.313 889.949 214.997 889.949 215.841C889.949 216.684 890.632 217.368 891.475 217.368Z" fill="#96BDBE"/>
<path d="M891.475 174.505C892.317 174.505 893 173.822 893 172.978C893 172.135 892.317 171.451 891.475 171.451C890.632 171.451 889.949 172.135 889.949 172.978C889.949 173.822 890.632 174.505 891.475 174.505Z" fill="#96BDBE"/>
<path d="M891.475 131.643C892.317 131.643 893 130.959 893 130.116C893 129.272 892.317 128.588 891.475 128.588C890.632 128.588 889.949 129.272 889.949 130.116C889.949 130.959 890.632 131.643 891.475 131.643Z" fill="#96BDBE"/>
<path d="M891.475 88.7797C892.317 88.7797 893 88.096 893 87.2525C893 86.4091 892.317 85.7253 891.475 85.7253C890.632 85.7253 889.949 86.4091 889.949 87.2525C889.949 88.096 890.632 88.7797 891.475 88.7797Z" fill="#96BDBE"/>
<path d="M891.475 45.9172C892.317 45.9172 893 45.2334 893 44.39C893 43.5465 892.317 42.8628 891.475 42.8628C890.632 42.8628 889.949 43.5465 889.949 44.39C889.949 45.2334 890.632 45.9172 891.475 45.9172Z" fill="#96BDBE"/>
<path d="M891.475 3.0544C892.317 3.0544 893 2.37065 893 1.5272C893 0.68375 892.317 0 891.475 0C890.632 0 889.949 0.68375 889.949 1.5272C889.949 2.37065 890.632 3.0544 891.475 3.0544Z" fill="#96BDBE"/>
<path d="M849.419 431.682C850.261 431.682 850.944 430.998 850.944 430.155C850.944 429.311 850.261 428.627 849.419 428.627C848.577 428.627 847.894 429.311 847.894 430.155C847.894 430.998 848.577 431.682 849.419 431.682Z" fill="#96BDBE"/>
<path d="M849.419 388.819C850.261 388.819 850.944 388.135 850.944 387.292C850.944 386.448 850.261 385.765 849.419 385.765C848.577 385.765 847.894 386.448 847.894 387.292C847.894 388.135 848.577 388.819 849.419 388.819Z" fill="#96BDBE"/>
<path d="M849.419 345.956C850.261 345.956 850.944 345.273 850.944 344.429C850.944 343.586 850.261 342.902 849.419 342.902C848.577 342.902 847.894 343.586 847.894 344.429C847.894 345.273 848.577 345.956 849.419 345.956Z" fill="#96BDBE"/>
<path d="M849.419 303.093C850.261 303.093 850.944 302.41 850.944 301.566C850.944 300.723 850.261 300.039 849.419 300.039C848.577 300.039 847.894 300.723 847.894 301.566C847.894 302.41 848.577 303.093 849.419 303.093Z" fill="#96BDBE"/>
<path d="M849.419 260.231C850.261 260.231 850.944 259.547 850.944 258.704C850.944 257.86 850.261 257.177 849.419 257.177C848.577 257.177 847.894 257.86 847.894 258.704C847.894 259.547 848.577 260.231 849.419 260.231Z" fill="#96BDBE"/>
<path d="M849.419 217.368C850.261 217.368 850.944 216.684 850.944 215.841C850.944 214.997 850.261 214.314 849.419 214.314C848.577 214.314 847.894 214.997 847.894 215.841C847.894 216.684 848.577 217.368 849.419 217.368Z" fill="#96BDBE"/>
<path d="M849.419 174.505C850.261 174.505 850.944 173.822 850.944 172.978C850.944 172.135 850.261 171.451 849.419 171.451C848.577 171.451 847.894 172.135 847.894 172.978C847.894 173.822 848.577 174.505 849.419 174.505Z" fill="#96BDBE"/>
<path d="M849.419 131.643C850.261 131.643 850.944 130.959 850.944 130.115C850.944 129.272 850.261 128.588 849.419 128.588C848.577 128.588 847.894 129.272 847.894 130.115C847.894 130.959 848.577 131.643 849.419 131.643Z" fill="#96BDBE"/>
<path d="M849.419 88.78C850.261 88.78 850.944 88.0962 850.944 87.2528C850.944 86.4093 850.261 85.7256 849.419 85.7256C848.577 85.7256 847.894 86.4093 847.894 87.2528C847.894 88.0962 848.577 88.78 849.419 88.78Z" fill="#96BDBE"/>
<path d="M849.419 45.9172C850.261 45.9172 850.944 45.2334 850.944 44.39C850.944 43.5465 850.261 42.8628 849.419 42.8628C848.577 42.8628 847.894 43.5465 847.894 44.39C847.894 45.2334 848.577 45.9172 849.419 45.9172Z" fill="#96BDBE"/>
<path d="M849.419 3.0544C850.261 3.0544 850.944 2.37065 850.944 1.5272C850.944 0.68375 850.261 0 849.419 0C848.577 0 847.894 0.68375 847.894 1.5272C847.894 2.37065 848.577 3.0544 849.419 3.0544Z" fill="#96BDBE"/>
<path d="M807.364 431.682C808.206 431.682 808.889 430.998 808.889 430.155C808.889 429.311 808.206 428.627 807.364 428.627C806.521 428.627 805.838 429.311 805.838 430.155C805.838 430.998 806.521 431.682 807.364 431.682Z" fill="#96BDBE"/>
<path d="M807.364 388.819C808.206 388.819 808.889 388.135 808.889 387.292C808.889 386.448 808.206 385.765 807.364 385.765C806.521 385.765 805.838 386.448 805.838 387.292C805.838 388.135 806.521 388.819 807.364 388.819Z" fill="#96BDBE"/>
<path d="M807.364 345.956C808.206 345.956 808.889 345.273 808.889 344.429C808.889 343.586 808.206 342.902 807.364 342.902C806.521 342.902 805.838 343.586 805.838 344.429C805.838 345.273 806.521 345.956 807.364 345.956Z" fill="#96BDBE"/>
<path d="M807.364 303.093C808.206 303.093 808.889 302.41 808.889 301.566C808.889 300.723 808.206 300.039 807.364 300.039C806.521 300.039 805.838 300.723 805.838 301.566C805.838 302.41 806.521 303.093 807.364 303.093Z" fill="#96BDBE"/>
<path d="M807.364 260.231C808.206 260.231 808.889 259.547 808.889 258.704C808.889 257.86 808.206 257.177 807.364 257.177C806.521 257.177 805.838 257.86 805.838 258.704C805.838 259.547 806.521 260.231 807.364 260.231Z" fill="#96BDBE"/>
<path d="M807.364 217.368C808.206 217.368 808.889 216.684 808.889 215.841C808.889 214.997 808.206 214.314 807.364 214.314C806.521 214.314 805.838 214.997 805.838 215.841C805.838 216.684 806.521 217.368 807.364 217.368Z" fill="#96BDBE"/>
<path d="M807.364 174.505C808.206 174.505 808.889 173.822 808.889 172.978C808.889 172.135 808.206 171.451 807.364 171.451C806.521 171.451 805.838 172.135 805.838 172.978C805.838 173.822 806.521 174.505 807.364 174.505Z" fill="#96BDBE"/>
<path d="M807.364 131.643C808.206 131.643 808.889 130.959 808.889 130.115C808.889 129.272 808.206 128.588 807.364 128.588C806.521 128.588 805.838 129.272 805.838 130.115C805.838 130.959 806.521 131.643 807.364 131.643Z" fill="#96BDBE"/>
<path d="M807.364 88.78C808.206 88.78 808.889 88.0962 808.889 87.2528C808.889 86.4093 808.206 85.7256 807.364 85.7256C806.521 85.7256 805.838 86.4093 805.838 87.2528C805.838 88.0962 806.521 88.78 807.364 88.78Z" fill="#96BDBE"/>
<path d="M807.364 45.9172C808.206 45.9172 808.889 45.2334 808.889 44.39C808.889 43.5465 808.206 42.8628 807.364 42.8628C806.521 42.8628 805.838 43.5465 805.838 44.39C805.838 45.2334 806.521 45.9172 807.364 45.9172Z" fill="#96BDBE"/>
<path d="M807.364 3.0544C808.206 3.0544 808.889 2.37065 808.889 1.5272C808.889 0.68375 808.206 0 807.364 0C806.521 0 805.838 0.68375 805.838 1.5272C805.838 2.37065 806.521 3.0544 807.364 3.0544Z" fill="#96BDBE"/>
<path d="M765.313 431.682C766.156 431.682 766.838 430.998 766.838 430.155C766.838 429.311 766.156 428.627 765.313 428.627C764.471 428.627 763.788 429.311 763.788 430.155C763.788 430.998 764.471 431.682 765.313 431.682Z" fill="#96BDBE"/>
<path d="M765.313 388.819C766.156 388.819 766.838 388.135 766.838 387.292C766.838 386.448 766.156 385.765 765.313 385.765C764.471 385.765 763.788 386.448 763.788 387.292C763.788 388.135 764.471 388.819 765.313 388.819Z" fill="#96BDBE"/>
<path d="M765.313 345.956C766.156 345.956 766.838 345.273 766.838 344.429C766.838 343.586 766.156 342.902 765.313 342.902C764.471 342.902 763.788 343.586 763.788 344.429C763.788 345.273 764.471 345.956 765.313 345.956Z" fill="#96BDBE"/>
<path d="M765.313 303.093C766.156 303.093 766.838 302.41 766.838 301.566C766.838 300.723 766.156 300.039 765.313 300.039C764.471 300.039 763.788 300.723 763.788 301.566C763.788 302.41 764.471 303.093 765.313 303.093Z" fill="#96BDBE"/>
<path d="M765.313 260.231C766.156 260.231 766.838 259.547 766.838 258.704C766.838 257.86 766.156 257.177 765.313 257.177C764.471 257.177 763.788 257.86 763.788 258.704C763.788 259.547 764.471 260.231 765.313 260.231Z" fill="#96BDBE"/>
<path d="M765.313 217.368C766.156 217.368 766.838 216.684 766.838 215.841C766.838 214.997 766.156 214.314 765.313 214.314C764.471 214.314 763.788 214.997 763.788 215.841C763.788 216.684 764.471 217.368 765.313 217.368Z" fill="#96BDBE"/>
<path d="M765.313 174.505C766.156 174.505 766.838 173.822 766.838 172.978C766.838 172.135 766.156 171.451 765.313 171.451C764.471 171.451 763.788 172.135 763.788 172.978C763.788 173.822 764.471 174.505 765.313 174.505Z" fill="#96BDBE"/>
<path d="M765.313 131.643C766.156 131.643 766.838 130.959 766.838 130.115C766.838 129.272 766.156 128.588 765.313 128.588C764.471 128.588 763.788 129.272 763.788 130.115C763.788 130.959 764.471 131.643 765.313 131.643Z" fill="#96BDBE"/>
<path d="M765.313 88.78C766.156 88.78 766.838 88.0962 766.838 87.2528C766.838 86.4093 766.156 85.7256 765.313 85.7256C764.471 85.7256 763.788 86.4093 763.788 87.2528C763.788 88.0962 764.471 88.78 765.313 88.78Z" fill="#96BDBE"/>
<path d="M765.313 45.9172C766.156 45.9172 766.838 45.2334 766.838 44.39C766.838 43.5465 766.156 42.8628 765.313 42.8628C764.471 42.8628 763.788 43.5465 763.788 44.39C763.788 45.2334 764.471 45.9172 765.313 45.9172Z" fill="#96BDBE"/>
<path d="M765.313 3.0544C766.156 3.0544 766.838 2.37065 766.838 1.5272C766.838 0.68375 766.156 0 765.313 0C764.471 0 763.788 0.68375 763.788 1.5272C763.788 2.37065 764.471 3.0544 765.313 3.0544Z" fill="#96BDBE"/>
<path d="M724.787 430.155C724.787 429.313 724.103 428.627 723.262 428.627C722.421 428.627 721.736 429.313 721.736 430.155C721.736 430.996 722.421 431.682 723.262 431.682C724.103 431.682 724.787 430.996 724.787 430.155Z" fill="#96BDBE"/>
<path d="M724.787 387.292C724.787 386.45 724.103 385.764 723.262 385.764C722.421 385.764 721.736 386.45 721.736 387.292C721.736 388.133 722.421 388.819 723.262 388.819C724.103 388.819 724.787 388.133 724.787 387.292Z" fill="#96BDBE"/>
<path d="M724.787 344.429C724.787 343.587 724.103 342.902 723.262 342.902C722.421 342.902 721.736 343.587 721.736 344.429C721.736 345.271 722.421 345.956 723.262 345.956C724.103 345.956 724.787 345.271 724.787 344.429Z" fill="#96BDBE"/>
<path d="M724.787 301.566C724.787 300.724 724.103 300.039 723.262 300.039C722.421 300.039 721.736 300.724 721.736 301.566C721.736 302.408 722.421 303.093 723.262 303.093C724.103 303.093 724.787 302.408 724.787 301.566Z" fill="#96BDBE"/>
<path d="M724.787 258.704C724.787 257.862 724.103 257.177 723.262 257.177C722.421 257.177 721.736 257.862 721.736 258.704C721.736 259.546 722.421 260.231 723.262 260.231C724.103 260.231 724.787 259.546 724.787 258.704Z" fill="#96BDBE"/>
<path d="M724.787 215.841C724.787 214.999 724.103 214.313 723.262 214.313C722.421 214.313 721.736 214.999 721.736 215.841C721.736 216.682 722.421 217.368 723.262 217.368C724.103 217.368 724.787 216.682 724.787 215.841Z" fill="#96BDBE"/>
<path d="M724.787 172.978C724.787 172.136 724.103 171.451 723.262 171.451C722.421 171.451 721.736 172.136 721.736 172.978C721.736 173.82 722.421 174.505 723.262 174.505C724.103 174.505 724.787 173.82 724.787 172.978Z" fill="#96BDBE"/>
<path d="M724.787 130.116C724.787 129.274 724.103 128.588 723.262 128.588C722.421 128.588 721.736 129.274 721.736 130.116C721.736 130.957 722.421 131.643 723.262 131.643C724.103 131.643 724.787 130.957 724.787 130.116Z" fill="#96BDBE"/>
<path d="M724.787 87.2525C724.787 86.4107 724.103 85.7253 723.262 85.7253C722.421 85.7253 721.736 86.4107 721.736 87.2525C721.736 88.0943 722.421 88.7797 723.262 88.7797C724.103 88.7797 724.787 88.0943 724.787 87.2525Z" fill="#96BDBE"/>
<path d="M724.787 44.39C724.787 43.5482 724.103 42.8628 723.262 42.8628C722.421 42.8628 721.736 43.5482 721.736 44.39C721.736 45.2318 722.421 45.9172 723.262 45.9172C724.103 45.9172 724.787 45.2318 724.787 44.39Z" fill="#96BDBE"/>
<path d="M724.787 1.5272C724.787 0.685399 724.103 0 723.262 0C722.421 0 721.736 0.685399 721.736 1.5272C721.736 2.369 722.421 3.0544 723.262 3.0544C724.103 3.0544 724.787 2.369 724.787 1.5272Z" fill="#96BDBE"/>
<path d="M467.525 431.682C468.368 431.682 469.051 430.998 469.051 430.155C469.051 429.311 468.368 428.627 467.525 428.627C466.683 428.627 466 429.311 466 430.155C466 430.998 466.683 431.682 467.525 431.682Z" fill="#96BDBE"/>
<path d="M467.525 388.819C468.368 388.819 469.051 388.135 469.051 387.292C469.051 386.448 468.368 385.765 467.525 385.765C466.683 385.765 466 386.448 466 387.292C466 388.135 466.683 388.819 467.525 388.819Z" fill="#96BDBE"/>
<path d="M467.525 345.956C468.368 345.956 469.051 345.273 469.051 344.429C469.051 343.586 468.368 342.902 467.525 342.902C466.683 342.902 466 343.586 466 344.429C466 345.273 466.683 345.956 467.525 345.956Z" fill="#96BDBE"/>
<path d="M467.525 303.093C468.368 303.093 469.051 302.41 469.051 301.566C469.051 300.723 468.368 300.039 467.525 300.039C466.683 300.039 466 300.723 466 301.566C466 302.41 466.683 303.093 467.525 303.093Z" fill="#96BDBE"/>
<path d="M467.525 260.231C468.368 260.231 469.051 259.547 469.051 258.704C469.051 257.86 468.368 257.177 467.525 257.177C466.683 257.177 466 257.86 466 258.704C466 259.547 466.683 260.231 467.525 260.231Z" fill="#96BDBE"/>
<path d="M467.525 217.368C468.368 217.368 469.051 216.684 469.051 215.841C469.051 214.997 468.368 214.314 467.525 214.314C466.683 214.314 466 214.997 466 215.841C466 216.684 466.683 217.368 467.525 217.368Z" fill="#96BDBE"/>
<path d="M467.525 174.505C468.368 174.505 469.051 173.822 469.051 172.978C469.051 172.135 468.368 171.451 467.525 171.451C466.683 171.451 466 172.135 466 172.978C466 173.822 466.683 174.505 467.525 174.505Z" fill="#96BDBE"/>
<path d="M467.525 131.643C468.368 131.643 469.051 130.959 469.051 130.115C469.051 129.272 468.368 128.588 467.525 128.588C466.683 128.588 466 129.272 466 130.115C466 130.959 466.683 131.643 467.525 131.643Z" fill="#96BDBE"/>
<path d="M467.525 88.78C468.368 88.78 469.051 88.0962 469.051 87.2528C469.051 86.4093 468.368 85.7256 467.525 85.7256C466.683 85.7256 466 86.4093 466 87.2528C466 88.0962 466.683 88.78 467.525 88.78Z" fill="#96BDBE"/>
<path d="M467.525 45.9174C468.368 45.9174 469.051 45.2337 469.051 44.3902C469.051 43.5468 468.368 42.863 467.525 42.863C466.683 42.863 466 43.5468 466 44.3902C466 45.2337 466.683 45.9174 467.525 45.9174Z" fill="#96BDBE"/>
<path d="M467.525 3.0544C468.368 3.0544 469.051 2.37065 469.051 1.5272C469.051 0.68375 468.368 0 467.525 0C466.683 0 466 0.68375 466 1.5272C466 2.37065 466.683 3.0544 467.525 3.0544Z" fill="#96BDBE"/>
</g>
<g clip-path="url(#clip2_19_5303)">
<path d="M1143.79 431.682C1144.64 431.682 1145.32 430.998 1145.32 430.155C1145.32 429.311 1144.64 428.627 1143.79 428.627C1142.95 428.627 1142.27 429.311 1142.27 430.155C1142.27 430.998 1142.95 431.682 1143.79 431.682Z" fill="#96BDBE"/>
<path d="M1143.79 388.819C1144.64 388.819 1145.32 388.135 1145.32 387.292C1145.32 386.448 1144.64 385.765 1143.79 385.765C1142.95 385.765 1142.27 386.448 1142.27 387.292C1142.27 388.135 1142.95 388.819 1143.79 388.819Z" fill="#96BDBE"/>
<path d="M1143.79 345.956C1144.64 345.956 1145.32 345.273 1145.32 344.429C1145.32 343.586 1144.64 342.902 1143.79 342.902C1142.95 342.902 1142.27 343.586 1142.27 344.429C1142.27 345.273 1142.95 345.956 1143.79 345.956Z" fill="#96BDBE"/>
<path d="M1143.79 303.093C1144.64 303.093 1145.32 302.41 1145.32 301.566C1145.32 300.723 1144.64 300.039 1143.79 300.039C1142.95 300.039 1142.27 300.723 1142.27 301.566C1142.27 302.41 1142.95 303.093 1143.79 303.093Z" fill="#96BDBE"/>
<path d="M1143.79 260.231C1144.64 260.231 1145.32 259.547 1145.32 258.704C1145.32 257.86 1144.64 257.177 1143.79 257.177C1142.95 257.177 1142.27 257.86 1142.27 258.704C1142.27 259.547 1142.95 260.231 1143.79 260.231Z" fill="#96BDBE"/>
<path d="M1143.79 217.368C1144.64 217.368 1145.32 216.684 1145.32 215.841C1145.32 214.997 1144.64 214.314 1143.79 214.314C1142.95 214.314 1142.27 214.997 1142.27 215.841C1142.27 216.684 1142.95 217.368 1143.79 217.368Z" fill="#96BDBE"/>
<path d="M1143.79 174.505C1144.64 174.505 1145.32 173.822 1145.32 172.978C1145.32 172.135 1144.64 171.451 1143.79 171.451C1142.95 171.451 1142.27 172.135 1142.27 172.978C1142.27 173.822 1142.95 174.505 1143.79 174.505Z" fill="#96BDBE"/>
<path d="M1143.79 131.643C1144.64 131.643 1145.32 130.959 1145.32 130.115C1145.32 129.272 1144.64 128.588 1143.79 128.588C1142.95 128.588 1142.27 129.272 1142.27 130.115C1142.27 130.959 1142.95 131.643 1143.79 131.643Z" fill="#96BDBE"/>
<path d="M1143.79 88.78C1144.64 88.78 1145.32 88.0962 1145.32 87.2528C1145.32 86.4093 1144.64 85.7256 1143.79 85.7256C1142.95 85.7256 1142.27 86.4093 1142.27 87.2528C1142.27 88.0962 1142.95 88.78 1143.79 88.78Z" fill="#96BDBE"/>
<path d="M1143.79 45.9172C1144.64 45.9172 1145.32 45.2334 1145.32 44.39C1145.32 43.5465 1144.64 42.8628 1143.79 42.8628C1142.95 42.8628 1142.27 43.5465 1142.27 44.39C1142.27 45.2334 1142.95 45.9172 1143.79 45.9172Z" fill="#96BDBE"/>
<path d="M1143.79 3.0544C1144.64 3.0544 1145.32 2.37065 1145.32 1.5272C1145.32 0.68375 1144.64 0 1143.79 0C1142.95 0 1142.27 0.68375 1142.27 1.5272C1142.27 2.37065 1142.95 3.0544 1143.79 3.0544Z" fill="#96BDBE"/>
<path d="M1101.74 431.682C1102.58 431.682 1103.27 430.998 1103.27 430.155C1103.27 429.311 1102.58 428.627 1101.74 428.627C1100.9 428.627 1100.22 429.311 1100.22 430.155C1100.22 430.998 1100.9 431.682 1101.74 431.682Z" fill="#96BDBE"/>
<path d="M1101.74 388.819C1102.58 388.819 1103.27 388.135 1103.27 387.292C1103.27 386.448 1102.58 385.765 1101.74 385.765C1100.9 385.765 1100.22 386.448 1100.22 387.292C1100.22 388.135 1100.9 388.819 1101.74 388.819Z" fill="#96BDBE"/>
<path d="M1101.74 345.956C1102.58 345.956 1103.27 345.273 1103.27 344.429C1103.27 343.586 1102.58 342.902 1101.74 342.902C1100.9 342.902 1100.22 343.586 1100.22 344.429C1100.22 345.273 1100.9 345.956 1101.74 345.956Z" fill="#96BDBE"/>
<path d="M1101.74 303.093C1102.58 303.093 1103.27 302.41 1103.27 301.566C1103.27 300.723 1102.58 300.039 1101.74 300.039C1100.9 300.039 1100.22 300.723 1100.22 301.566C1100.22 302.41 1100.9 303.093 1101.74 303.093Z" fill="#96BDBE"/>
<path d="M1101.74 260.231C1102.58 260.231 1103.27 259.547 1103.27 258.704C1103.27 257.86 1102.58 257.177 1101.74 257.177C1100.9 257.177 1100.22 257.86 1100.22 258.704C1100.22 259.547 1100.9 260.231 1101.74 260.231Z" fill="#96BDBE"/>
<path d="M1101.74 217.368C1102.58 217.368 1103.27 216.684 1103.27 215.841C1103.27 214.997 1102.58 214.314 1101.74 214.314C1100.9 214.314 1100.22 214.997 1100.22 215.841C1100.22 216.684 1100.9 217.368 1101.74 217.368Z" fill="#96BDBE"/>
<path d="M1101.74 174.505C1102.58 174.505 1103.27 173.822 1103.27 172.978C1103.27 172.135 1102.58 171.451 1101.74 171.451C1100.9 171.451 1100.22 172.135 1100.22 172.978C1100.22 173.822 1100.9 174.505 1101.74 174.505Z" fill="#96BDBE"/>
<path d="M1101.74 131.643C1102.58 131.643 1103.27 130.959 1103.27 130.115C1103.27 129.272 1102.58 128.588 1101.74 128.588C1100.9 128.588 1100.22 129.272 1100.22 130.115C1100.22 130.959 1100.9 131.643 1101.74 131.643Z" fill="#96BDBE"/>
<path d="M1101.74 88.78C1102.58 88.78 1103.27 88.0962 1103.27 87.2528C1103.27 86.4093 1102.58 85.7256 1101.74 85.7256C1100.9 85.7256 1100.22 86.4093 1100.22 87.2528C1100.22 88.0962 1100.9 88.78 1101.74 88.78Z" fill="#96BDBE"/>
<path d="M1101.74 45.9172C1102.58 45.9172 1103.27 45.2334 1103.27 44.39C1103.27 43.5465 1102.58 42.8628 1101.74 42.8628C1100.9 42.8628 1100.22 43.5465 1100.22 44.39C1100.22 45.2334 1100.9 45.9172 1101.74 45.9172Z" fill="#96BDBE"/>
<path d="M1101.74 3.0544C1102.58 3.0544 1103.27 2.37065 1103.27 1.5272C1103.27 0.68375 1102.58 0 1101.74 0C1100.9 0 1100.22 0.68375 1100.22 1.5272C1100.22 2.37065 1100.9 3.0544 1101.74 3.0544Z" fill="#96BDBE"/>
<path d="M1059.69 431.682C1060.53 431.682 1061.21 430.998 1061.21 430.155C1061.21 429.311 1060.53 428.627 1059.69 428.627C1058.84 428.627 1058.16 429.311 1058.16 430.155C1058.16 430.998 1058.84 431.682 1059.69 431.682Z" fill="#96BDBE"/>
<path d="M1059.69 388.819C1060.53 388.819 1061.21 388.135 1061.21 387.292C1061.21 386.448 1060.53 385.765 1059.69 385.765C1058.84 385.765 1058.16 386.448 1058.16 387.292C1058.16 388.135 1058.84 388.819 1059.69 388.819Z" fill="#96BDBE"/>
<path d="M1059.69 345.956C1060.53 345.956 1061.21 345.273 1061.21 344.429C1061.21 343.586 1060.53 342.902 1059.69 342.902C1058.84 342.902 1058.16 343.586 1058.16 344.429C1058.16 345.273 1058.84 345.956 1059.69 345.956Z" fill="#96BDBE"/>
<path d="M1059.69 303.093C1060.53 303.093 1061.21 302.41 1061.21 301.566C1061.21 300.723 1060.53 300.039 1059.69 300.039C1058.84 300.039 1058.16 300.723 1058.16 301.566C1058.16 302.41 1058.84 303.093 1059.69 303.093Z" fill="#96BDBE"/>
<path d="M1059.69 260.231C1060.53 260.231 1061.21 259.547 1061.21 258.704C1061.21 257.86 1060.53 257.177 1059.69 257.177C1058.84 257.177 1058.16 257.86 1058.16 258.704C1058.16 259.547 1058.84 260.231 1059.69 260.231Z" fill="#96BDBE"/>
<path d="M1059.69 217.368C1060.53 217.368 1061.21 216.684 1061.21 215.841C1061.21 214.997 1060.53 214.314 1059.69 214.314C1058.84 214.314 1058.16 214.997 1058.16 215.841C1058.16 216.684 1058.84 217.368 1059.69 217.368Z" fill="#96BDBE"/>
<path d="M1059.69 174.505C1060.53 174.505 1061.21 173.822 1061.21 172.978C1061.21 172.135 1060.53 171.451 1059.69 171.451C1058.84 171.451 1058.16 172.135 1058.16 172.978C1058.16 173.822 1058.84 174.505 1059.69 174.505Z" fill="#96BDBE"/>
<path d="M1059.69 131.643C1060.53 131.643 1061.21 130.959 1061.21 130.115C1061.21 129.272 1060.53 128.588 1059.69 128.588C1058.84 128.588 1058.16 129.272 1058.16 130.115C1058.16 130.959 1058.84 131.643 1059.69 131.643Z" fill="#96BDBE"/>
<path d="M1059.69 88.78C1060.53 88.78 1061.21 88.0962 1061.21 87.2528C1061.21 86.4093 1060.53 85.7256 1059.69 85.7256C1058.84 85.7256 1058.16 86.4093 1058.16 87.2528C1058.16 88.0962 1058.84 88.78 1059.69 88.78Z" fill="#96BDBE"/>
<path d="M1059.69 45.9172C1060.53 45.9172 1061.21 45.2334 1061.21 44.39C1061.21 43.5465 1060.53 42.8628 1059.69 42.8628C1058.84 42.8628 1058.16 43.5465 1058.16 44.39C1058.16 45.2334 1058.84 45.9172 1059.69 45.9172Z" fill="#96BDBE"/>
<path d="M1059.69 3.0544C1060.53 3.0544 1061.21 2.37065 1061.21 1.5272C1061.21 0.68375 1060.53 0 1059.69 0C1058.84 0 1058.16 0.68375 1058.16 1.5272C1058.16 2.37065 1058.84 3.0544 1059.69 3.0544Z" fill="#96BDBE"/>
<path d="M1017.64 431.682C1018.48 431.682 1019.16 430.998 1019.16 430.155C1019.16 429.311 1018.48 428.627 1017.64 428.627C1016.79 428.627 1016.11 429.311 1016.11 430.155C1016.11 430.998 1016.79 431.682 1017.64 431.682Z" fill="#96BDBE"/>
<path d="M1017.64 388.819C1018.48 388.819 1019.16 388.135 1019.16 387.292C1019.16 386.448 1018.48 385.765 1017.64 385.765C1016.79 385.765 1016.11 386.448 1016.11 387.292C1016.11 388.135 1016.79 388.819 1017.64 388.819Z" fill="#96BDBE"/>
<path d="M1017.64 345.956C1018.48 345.956 1019.16 345.273 1019.16 344.429C1019.16 343.586 1018.48 342.902 1017.64 342.902C1016.79 342.902 1016.11 343.586 1016.11 344.429C1016.11 345.273 1016.79 345.956 1017.64 345.956Z" fill="#96BDBE"/>
<path d="M1017.64 303.093C1018.48 303.093 1019.16 302.41 1019.16 301.566C1019.16 300.723 1018.48 300.039 1017.64 300.039C1016.79 300.039 1016.11 300.723 1016.11 301.566C1016.11 302.41 1016.79 303.093 1017.64 303.093Z" fill="#96BDBE"/>
<path d="M1017.64 260.231C1018.48 260.231 1019.16 259.547 1019.16 258.704C1019.16 257.86 1018.48 257.177 1017.64 257.177C1016.79 257.177 1016.11 257.86 1016.11 258.704C1016.11 259.547 1016.79 260.231 1017.64 260.231Z" fill="#96BDBE"/>
<path d="M1017.64 217.368C1018.48 217.368 1019.16 216.684 1019.16 215.841C1019.16 214.997 1018.48 214.314 1017.64 214.314C1016.79 214.314 1016.11 214.997 1016.11 215.841C1016.11 216.684 1016.79 217.368 1017.64 217.368Z" fill="#96BDBE"/>
<path d="M1017.64 174.505C1018.48 174.505 1019.16 173.822 1019.16 172.978C1019.16 172.135 1018.48 171.451 1017.64 171.451C1016.79 171.451 1016.11 172.135 1016.11 172.978C1016.11 173.822 1016.79 174.505 1017.64 174.505Z" fill="#96BDBE"/>
<path d="M1017.64 131.643C1018.48 131.643 1019.16 130.959 1019.16 130.115C1019.16 129.272 1018.48 128.588 1017.64 128.588C1016.79 128.588 1016.11 129.272 1016.11 130.115C1016.11 130.959 1016.79 131.643 1017.64 131.643Z" fill="#96BDBE"/>
<path d="M1017.64 88.78C1018.48 88.78 1019.16 88.0962 1019.16 87.2528C1019.16 86.4093 1018.48 85.7256 1017.64 85.7256C1016.79 85.7256 1016.11 86.4093 1016.11 87.2528C1016.11 88.0962 1016.79 88.78 1017.64 88.78Z" fill="#96BDBE"/>
<path d="M1017.64 45.9172C1018.48 45.9172 1019.16 45.2334 1019.16 44.39C1019.16 43.5465 1018.48 42.8628 1017.64 42.8628C1016.79 42.8628 1016.11 43.5465 1016.11 44.39C1016.11 45.2334 1016.79 45.9172 1017.64 45.9172Z" fill="#96BDBE"/>
<path d="M1017.64 3.0544C1018.48 3.0544 1019.16 2.37065 1019.16 1.5272C1019.16 0.68375 1018.48 0 1017.64 0C1016.79 0 1016.11 0.68375 1016.11 1.5272C1016.11 2.37065 1016.79 3.0544 1017.64 3.0544Z" fill="#96BDBE"/>
<path d="M977.106 430.155C977.106 429.313 976.421 428.627 975.581 428.627C974.74 428.627 974.055 429.313 974.055 430.155C974.055 430.996 974.74 431.682 975.581 431.682C976.421 431.682 977.106 430.996 977.106 430.155Z" fill="#96BDBE"/>
<path d="M977.106 387.292C977.106 386.45 976.421 385.765 975.581 385.765C974.74 385.765 974.055 386.45 974.055 387.292C974.055 388.134 974.74 388.819 975.581 388.819C976.421 388.819 977.106 388.134 977.106 387.292Z" fill="#96BDBE"/>
<path d="M977.106 344.429C977.106 343.587 976.421 342.902 975.581 342.902C974.74 342.902 974.055 343.587 974.055 344.429C974.055 345.271 974.74 345.956 975.581 345.956C976.421 345.956 977.106 345.271 977.106 344.429Z" fill="#96BDBE"/>
<path d="M977.106 301.566C977.106 300.724 976.421 300.039 975.581 300.039C974.74 300.039 974.055 300.724 974.055 301.566C974.055 302.408 974.74 303.093 975.581 303.093C976.421 303.093 977.106 302.408 977.106 301.566Z" fill="#96BDBE"/>
<path d="M977.106 258.704C977.106 257.862 976.421 257.177 975.581 257.177C974.74 257.177 974.055 257.862 974.055 258.704C974.055 259.546 974.74 260.231 975.581 260.231C976.421 260.231 977.106 259.546 977.106 258.704Z" fill="#96BDBE"/>
<path d="M977.106 215.841C977.106 214.999 976.421 214.314 975.581 214.314C974.74 214.314 974.055 214.999 974.055 215.841C974.055 216.683 974.74 217.368 975.581 217.368C976.421 217.368 977.106 216.683 977.106 215.841Z" fill="#96BDBE"/>
<path d="M977.106 172.978C977.106 172.136 976.421 171.451 975.581 171.451C974.74 171.451 974.055 172.136 974.055 172.978C974.055 173.82 974.74 174.505 975.581 174.505C976.421 174.505 977.106 173.82 977.106 172.978Z" fill="#96BDBE"/>
<path d="M977.106 130.115C977.106 129.274 976.421 128.588 975.581 128.588C974.74 128.588 974.055 129.274 974.055 130.115C974.055 130.957 974.74 131.643 975.581 131.643C976.421 131.643 977.106 130.957 977.106 130.115Z" fill="#96BDBE"/>
<path d="M977.106 87.2528C977.106 86.411 976.421 85.7256 975.581 85.7256C974.74 85.7256 974.055 86.411 974.055 87.2528C974.055 88.0946 974.74 88.78 975.581 88.78C976.421 88.78 977.106 88.0946 977.106 87.2528Z" fill="#96BDBE"/>
<path d="M977.106 44.39C977.106 43.5482 976.421 42.8628 975.581 42.8628C974.74 42.8628 974.055 43.5482 974.055 44.39C974.055 45.2318 974.74 45.9172 975.581 45.9172C976.421 45.9172 977.106 45.2318 977.106 44.39Z" fill="#96BDBE"/>
<path d="M977.106 1.5272C977.106 0.685399 976.421 0 975.581 0C974.74 0 974.055 0.685399 974.055 1.5272C974.055 2.369 974.74 3.0544 975.581 3.0544C976.421 3.0544 977.106 2.369 977.106 1.5272Z" fill="#96BDBE"/>
<path d="M1357.47 431.682C1358.32 431.682 1359 430.998 1359 430.155C1359 429.311 1358.32 428.627 1357.47 428.627C1356.63 428.627 1355.95 429.311 1355.95 430.155C1355.95 430.998 1356.63 431.682 1357.47 431.682Z" fill="#96BDBE"/>
<path d="M1357.47 388.819C1358.32 388.819 1359 388.135 1359 387.292C1359 386.448 1358.32 385.764 1357.47 385.764C1356.63 385.764 1355.95 386.448 1355.95 387.292C1355.95 388.135 1356.63 388.819 1357.47 388.819Z" fill="#96BDBE"/>
<path d="M1357.47 345.956C1358.32 345.956 1359 345.273 1359 344.429C1359 343.586 1358.32 342.902 1357.47 342.902C1356.63 342.902 1355.95 343.586 1355.95 344.429C1355.95 345.273 1356.63 345.956 1357.47 345.956Z" fill="#96BDBE"/>
<path d="M1357.47 303.093C1358.32 303.093 1359 302.41 1359 301.566C1359 300.723 1358.32 300.039 1357.47 300.039C1356.63 300.039 1355.95 300.723 1355.95 301.566C1355.95 302.41 1356.63 303.093 1357.47 303.093Z" fill="#96BDBE"/>
<path d="M1357.47 260.231C1358.32 260.231 1359 259.547 1359 258.704C1359 257.86 1358.32 257.177 1357.47 257.177C1356.63 257.177 1355.95 257.86 1355.95 258.704C1355.95 259.547 1356.63 260.231 1357.47 260.231Z" fill="#96BDBE"/>
<path d="M1357.47 217.368C1358.32 217.368 1359 216.684 1359 215.841C1359 214.997 1358.32 214.313 1357.47 214.313C1356.63 214.313 1355.95 214.997 1355.95 215.841C1355.95 216.684 1356.63 217.368 1357.47 217.368Z" fill="#96BDBE"/>
<path d="M1357.47 174.505C1358.32 174.505 1359 173.822 1359 172.978C1359 172.135 1358.32 171.451 1357.47 171.451C1356.63 171.451 1355.95 172.135 1355.95 172.978C1355.95 173.822 1356.63 174.505 1357.47 174.505Z" fill="#96BDBE"/>
<path d="M1357.47 131.643C1358.32 131.643 1359 130.959 1359 130.116C1359 129.272 1358.32 128.588 1357.47 128.588C1356.63 128.588 1355.95 129.272 1355.95 130.116C1355.95 130.959 1356.63 131.643 1357.47 131.643Z" fill="#96BDBE"/>
<path d="M1357.47 88.7797C1358.32 88.7797 1359 88.096 1359 87.2525C1359 86.4091 1358.32 85.7253 1357.47 85.7253C1356.63 85.7253 1355.95 86.4091 1355.95 87.2525C1355.95 88.096 1356.63 88.7797 1357.47 88.7797Z" fill="#96BDBE"/>
<path d="M1357.47 45.9172C1358.32 45.9172 1359 45.2334 1359 44.39C1359 43.5465 1358.32 42.8628 1357.47 42.8628C1356.63 42.8628 1355.95 43.5465 1355.95 44.39C1355.95 45.2334 1356.63 45.9172 1357.47 45.9172Z" fill="#96BDBE"/>
<path d="M1357.47 3.0544C1358.32 3.0544 1359 2.37065 1359 1.5272C1359 0.68375 1358.32 0 1357.47 0C1356.63 0 1355.95 0.68375 1355.95 1.5272C1355.95 2.37065 1356.63 3.0544 1357.47 3.0544Z" fill="#96BDBE"/>
<path d="M1315.42 431.682C1316.26 431.682 1316.94 430.998 1316.94 430.155C1316.94 429.311 1316.26 428.627 1315.42 428.627C1314.58 428.627 1313.89 429.311 1313.89 430.155C1313.89 430.998 1314.58 431.682 1315.42 431.682Z" fill="#96BDBE"/>
<path d="M1315.42 388.819C1316.26 388.819 1316.94 388.135 1316.94 387.292C1316.94 386.448 1316.26 385.765 1315.42 385.765C1314.58 385.765 1313.89 386.448 1313.89 387.292C1313.89 388.135 1314.58 388.819 1315.42 388.819Z" fill="#96BDBE"/>
<path d="M1315.42 345.956C1316.26 345.956 1316.94 345.273 1316.94 344.429C1316.94 343.586 1316.26 342.902 1315.42 342.902C1314.58 342.902 1313.89 343.586 1313.89 344.429C1313.89 345.273 1314.58 345.956 1315.42 345.956Z" fill="#96BDBE"/>
<path d="M1315.42 303.093C1316.26 303.093 1316.94 302.41 1316.94 301.566C1316.94 300.723 1316.26 300.039 1315.42 300.039C1314.58 300.039 1313.89 300.723 1313.89 301.566C1313.89 302.41 1314.58 303.093 1315.42 303.093Z" fill="#96BDBE"/>
<path d="M1315.42 260.231C1316.26 260.231 1316.94 259.547 1316.94 258.704C1316.94 257.86 1316.26 257.177 1315.42 257.177C1314.58 257.177 1313.89 257.86 1313.89 258.704C1313.89 259.547 1314.58 260.231 1315.42 260.231Z" fill="#96BDBE"/>
<path d="M1315.42 217.368C1316.26 217.368 1316.94 216.684 1316.94 215.841C1316.94 214.997 1316.26 214.314 1315.42 214.314C1314.58 214.314 1313.89 214.997 1313.89 215.841C1313.89 216.684 1314.58 217.368 1315.42 217.368Z" fill="#96BDBE"/>
<path d="M1315.42 174.505C1316.26 174.505 1316.94 173.822 1316.94 172.978C1316.94 172.135 1316.26 171.451 1315.42 171.451C1314.58 171.451 1313.89 172.135 1313.89 172.978C1313.89 173.822 1314.58 174.505 1315.42 174.505Z" fill="#96BDBE"/>
<path d="M1315.42 131.643C1316.26 131.643 1316.94 130.959 1316.94 130.115C1316.94 129.272 1316.26 128.588 1315.42 128.588C1314.58 128.588 1313.89 129.272 1313.89 130.115C1313.89 130.959 1314.58 131.643 1315.42 131.643Z" fill="#96BDBE"/>
<path d="M1315.42 88.78C1316.26 88.78 1316.94 88.0962 1316.94 87.2528C1316.94 86.4093 1316.26 85.7256 1315.42 85.7256C1314.58 85.7256 1313.89 86.4093 1313.89 87.2528C1313.89 88.0962 1314.58 88.78 1315.42 88.78Z" fill="#96BDBE"/>
<path d="M1315.42 45.9172C1316.26 45.9172 1316.94 45.2334 1316.94 44.39C1316.94 43.5465 1316.26 42.8628 1315.42 42.8628C1314.58 42.8628 1313.89 43.5465 1313.89 44.39C1313.89 45.2334 1314.58 45.9172 1315.42 45.9172Z" fill="#96BDBE"/>
<path d="M1315.42 3.0544C1316.26 3.0544 1316.94 2.37065 1316.94 1.5272C1316.94 0.68375 1316.26 0 1315.42 0C1314.58 0 1313.89 0.68375 1313.89 1.5272C1313.89 2.37065 1314.58 3.0544 1315.42 3.0544Z" fill="#96BDBE"/>
<path d="M1273.36 431.682C1274.21 431.682 1274.89 430.998 1274.89 430.155C1274.89 429.311 1274.21 428.627 1273.36 428.627C1272.52 428.627 1271.84 429.311 1271.84 430.155C1271.84 430.998 1272.52 431.682 1273.36 431.682Z" fill="#96BDBE"/>
<path d="M1273.36 388.819C1274.21 388.819 1274.89 388.135 1274.89 387.292C1274.89 386.448 1274.21 385.765 1273.36 385.765C1272.52 385.765 1271.84 386.448 1271.84 387.292C1271.84 388.135 1272.52 388.819 1273.36 388.819Z" fill="#96BDBE"/>
<path d="M1273.36 345.956C1274.21 345.956 1274.89 345.273 1274.89 344.429C1274.89 343.586 1274.21 342.902 1273.36 342.902C1272.52 342.902 1271.84 343.586 1271.84 344.429C1271.84 345.273 1272.52 345.956 1273.36 345.956Z" fill="#96BDBE"/>
<path d="M1273.36 303.093C1274.21 303.093 1274.89 302.41 1274.89 301.566C1274.89 300.723 1274.21 300.039 1273.36 300.039C1272.52 300.039 1271.84 300.723 1271.84 301.566C1271.84 302.41 1272.52 303.093 1273.36 303.093Z" fill="#96BDBE"/>
<path d="M1273.36 260.231C1274.21 260.231 1274.89 259.547 1274.89 258.704C1274.89 257.86 1274.21 257.177 1273.36 257.177C1272.52 257.177 1271.84 257.86 1271.84 258.704C1271.84 259.547 1272.52 260.231 1273.36 260.231Z" fill="#96BDBE"/>
<path d="M1273.36 217.368C1274.21 217.368 1274.89 216.684 1274.89 215.841C1274.89 214.997 1274.21 214.314 1273.36 214.314C1272.52 214.314 1271.84 214.997 1271.84 215.841C1271.84 216.684 1272.52 217.368 1273.36 217.368Z" fill="#96BDBE"/>
<path d="M1273.36 174.505C1274.21 174.505 1274.89 173.822 1274.89 172.978C1274.89 172.135 1274.21 171.451 1273.36 171.451C1272.52 171.451 1271.84 172.135 1271.84 172.978C1271.84 173.822 1272.52 174.505 1273.36 174.505Z" fill="#96BDBE"/>
<path d="M1273.36 131.643C1274.21 131.643 1274.89 130.959 1274.89 130.115C1274.89 129.272 1274.21 128.588 1273.36 128.588C1272.52 128.588 1271.84 129.272 1271.84 130.115C1271.84 130.959 1272.52 131.643 1273.36 131.643Z" fill="#96BDBE"/>
<path d="M1273.36 88.78C1274.21 88.78 1274.89 88.0962 1274.89 87.2528C1274.89 86.4093 1274.21 85.7256 1273.36 85.7256C1272.52 85.7256 1271.84 86.4093 1271.84 87.2528C1271.84 88.0962 1272.52 88.78 1273.36 88.78Z" fill="#96BDBE"/>
<path d="M1273.36 45.9172C1274.21 45.9172 1274.89 45.2334 1274.89 44.39C1274.89 43.5465 1274.21 42.8628 1273.36 42.8628C1272.52 42.8628 1271.84 43.5465 1271.84 44.39C1271.84 45.2334 1272.52 45.9172 1273.36 45.9172Z" fill="#96BDBE"/>
<path d="M1273.36 3.0544C1274.21 3.0544 1274.89 2.37065 1274.89 1.5272C1274.89 0.68375 1274.21 0 1273.36 0C1272.52 0 1271.84 0.68375 1271.84 1.5272C1271.84 2.37065 1272.52 3.0544 1273.36 3.0544Z" fill="#96BDBE"/>
<path d="M1231.31 431.682C1232.16 431.682 1232.84 430.998 1232.84 430.155C1232.84 429.311 1232.16 428.627 1231.31 428.627C1230.47 428.627 1229.79 429.311 1229.79 430.155C1229.79 430.998 1230.47 431.682 1231.31 431.682Z" fill="#96BDBE"/>
<path d="M1231.31 388.819C1232.16 388.819 1232.84 388.135 1232.84 387.292C1232.84 386.448 1232.16 385.765 1231.31 385.765C1230.47 385.765 1229.79 386.448 1229.79 387.292C1229.79 388.135 1230.47 388.819 1231.31 388.819Z" fill="#96BDBE"/>
<path d="M1231.31 345.956C1232.16 345.956 1232.84 345.273 1232.84 344.429C1232.84 343.586 1232.16 342.902 1231.31 342.902C1230.47 342.902 1229.79 343.586 1229.79 344.429C1229.79 345.273 1230.47 345.956 1231.31 345.956Z" fill="#96BDBE"/>
<path d="M1231.31 303.093C1232.16 303.093 1232.84 302.41 1232.84 301.566C1232.84 300.723 1232.16 300.039 1231.31 300.039C1230.47 300.039 1229.79 300.723 1229.79 301.566C1229.79 302.41 1230.47 303.093 1231.31 303.093Z" fill="#96BDBE"/>
<path d="M1231.31 260.231C1232.16 260.231 1232.84 259.547 1232.84 258.704C1232.84 257.86 1232.16 257.177 1231.31 257.177C1230.47 257.177 1229.79 257.86 1229.79 258.704C1229.79 259.547 1230.47 260.231 1231.31 260.231Z" fill="#96BDBE"/>
<path d="M1231.31 217.368C1232.16 217.368 1232.84 216.684 1232.84 215.841C1232.84 214.997 1232.16 214.314 1231.31 214.314C1230.47 214.314 1229.79 214.997 1229.79 215.841C1229.79 216.684 1230.47 217.368 1231.31 217.368Z" fill="#96BDBE"/>
<path d="M1231.31 174.505C1232.16 174.505 1232.84 173.822 1232.84 172.978C1232.84 172.135 1232.16 171.451 1231.31 171.451C1230.47 171.451 1229.79 172.135 1229.79 172.978C1229.79 173.822 1230.47 174.505 1231.31 174.505Z" fill="#96BDBE"/>
<path d="M1231.31 131.643C1232.16 131.643 1232.84 130.959 1232.84 130.115C1232.84 129.272 1232.16 128.588 1231.31 128.588C1230.47 128.588 1229.79 129.272 1229.79 130.115C1229.79 130.959 1230.47 131.643 1231.31 131.643Z" fill="#96BDBE"/>
<path d="M1231.31 88.78C1232.16 88.78 1232.84 88.0962 1232.84 87.2528C1232.84 86.4093 1232.16 85.7256 1231.31 85.7256C1230.47 85.7256 1229.79 86.4093 1229.79 87.2528C1229.79 88.0962 1230.47 88.78 1231.31 88.78Z" fill="#96BDBE"/>
<path d="M1231.31 45.9172C1232.16 45.9172 1232.84 45.2334 1232.84 44.39C1232.84 43.5465 1232.16 42.8628 1231.31 42.8628C1230.47 42.8628 1229.79 43.5465 1229.79 44.39C1229.79 45.2334 1230.47 45.9172 1231.31 45.9172Z" fill="#96BDBE"/>
<path d="M1231.31 3.0544C1232.16 3.0544 1232.84 2.37065 1232.84 1.5272C1232.84 0.68375 1232.16 0 1231.31 0C1230.47 0 1229.79 0.68375 1229.79 1.5272C1229.79 2.37065 1230.47 3.0544 1231.31 3.0544Z" fill="#96BDBE"/>
<path d="M1190.79 430.155C1190.79 429.313 1190.1 428.627 1189.26 428.627C1188.42 428.627 1187.74 429.313 1187.74 430.155C1187.74 430.996 1188.42 431.682 1189.26 431.682C1190.1 431.682 1190.79 430.996 1190.79 430.155Z" fill="#96BDBE"/>
<path d="M1190.79 387.292C1190.79 386.45 1190.1 385.764 1189.26 385.764C1188.42 385.764 1187.74 386.45 1187.74 387.292C1187.74 388.133 1188.42 388.819 1189.26 388.819C1190.1 388.819 1190.79 388.133 1190.79 387.292Z" fill="#96BDBE"/>
<path d="M1190.79 344.429C1190.79 343.587 1190.1 342.902 1189.26 342.902C1188.42 342.902 1187.74 343.587 1187.74 344.429C1187.74 345.271 1188.42 345.956 1189.26 345.956C1190.1 345.956 1190.79 345.271 1190.79 344.429Z" fill="#96BDBE"/>
<path d="M1190.79 301.566C1190.79 300.724 1190.1 300.039 1189.26 300.039C1188.42 300.039 1187.74 300.724 1187.74 301.566C1187.74 302.408 1188.42 303.093 1189.26 303.093C1190.1 303.093 1190.79 302.408 1190.79 301.566Z" fill="#96BDBE"/>
<path d="M1190.79 258.704C1190.79 257.862 1190.1 257.177 1189.26 257.177C1188.42 257.177 1187.74 257.862 1187.74 258.704C1187.74 259.546 1188.42 260.231 1189.26 260.231C1190.1 260.231 1190.79 259.546 1190.79 258.704Z" fill="#96BDBE"/>
<path d="M1190.79 215.841C1190.79 214.999 1190.1 214.313 1189.26 214.313C1188.42 214.313 1187.74 214.999 1187.74 215.841C1187.74 216.682 1188.42 217.368 1189.26 217.368C1190.1 217.368 1190.79 216.682 1190.79 215.841Z" fill="#96BDBE"/>
<path d="M1190.79 172.978C1190.79 172.136 1190.1 171.451 1189.26 171.451C1188.42 171.451 1187.74 172.136 1187.74 172.978C1187.74 173.82 1188.42 174.505 1189.26 174.505C1190.1 174.505 1190.79 173.82 1190.79 172.978Z" fill="#96BDBE"/>
<path d="M1190.79 130.116C1190.79 129.274 1190.1 128.588 1189.26 128.588C1188.42 128.588 1187.74 129.274 1187.74 130.116C1187.74 130.957 1188.42 131.643 1189.26 131.643C1190.1 131.643 1190.79 130.957 1190.79 130.116Z" fill="#96BDBE"/>
<path d="M1190.79 87.2525C1190.79 86.4107 1190.1 85.7253 1189.26 85.7253C1188.42 85.7253 1187.74 86.4107 1187.74 87.2525C1187.74 88.0943 1188.42 88.7797 1189.26 88.7797C1190.1 88.7797 1190.79 88.0943 1190.79 87.2525Z" fill="#96BDBE"/>
<path d="M1190.79 44.39C1190.79 43.5482 1190.1 42.8628 1189.26 42.8628C1188.42 42.8628 1187.74 43.5482 1187.74 44.39C1187.74 45.2318 1188.42 45.9172 1189.26 45.9172C1190.1 45.9172 1190.79 45.2318 1190.79 44.39Z" fill="#96BDBE"/>
<path d="M1190.79 1.5272C1190.79 0.685399 1190.1 0 1189.26 0C1188.42 0 1187.74 0.685399 1187.74 1.5272C1187.74 2.369 1188.42 3.0544 1189.26 3.0544C1190.1 3.0544 1190.79 2.369 1190.79 1.5272Z" fill="#96BDBE"/>
<path d="M933.525 431.682C934.368 431.682 935.051 430.998 935.051 430.155C935.051 429.311 934.368 428.627 933.525 428.627C932.683 428.627 932 429.311 932 430.155C932 430.998 932.683 431.682 933.525 431.682Z" fill="#96BDBE"/>
<path d="M933.525 388.819C934.368 388.819 935.051 388.135 935.051 387.292C935.051 386.448 934.368 385.765 933.525 385.765C932.683 385.765 932 386.448 932 387.292C932 388.135 932.683 388.819 933.525 388.819Z" fill="#96BDBE"/>
<path d="M933.525 345.956C934.368 345.956 935.051 345.273 935.051 344.429C935.051 343.586 934.368 342.902 933.525 342.902C932.683 342.902 932 343.586 932 344.429C932 345.273 932.683 345.956 933.525 345.956Z" fill="#96BDBE"/>
<path d="M933.525 303.093C934.368 303.093 935.051 302.41 935.051 301.566C935.051 300.723 934.368 300.039 933.525 300.039C932.683 300.039 932 300.723 932 301.566C932 302.41 932.683 303.093 933.525 303.093Z" fill="#96BDBE"/>
<path d="M933.525 260.231C934.368 260.231 935.051 259.547 935.051 258.704C935.051 257.86 934.368 257.177 933.525 257.177C932.683 257.177 932 257.86 932 258.704C932 259.547 932.683 260.231 933.525 260.231Z" fill="#96BDBE"/>
<path d="M933.525 217.368C934.368 217.368 935.051 216.684 935.051 215.841C935.051 214.997 934.368 214.314 933.525 214.314C932.683 214.314 932 214.997 932 215.841C932 216.684 932.683 217.368 933.525 217.368Z" fill="#96BDBE"/>
<path d="M933.525 174.505C934.368 174.505 935.051 173.822 935.051 172.978C935.051 172.135 934.368 171.451 933.525 171.451C932.683 171.451 932 172.135 932 172.978C932 173.822 932.683 174.505 933.525 174.505Z" fill="#96BDBE"/>
<path d="M933.525 131.643C934.368 131.643 935.051 130.959 935.051 130.115C935.051 129.272 934.368 128.588 933.525 128.588C932.683 128.588 932 129.272 932 130.115C932 130.959 932.683 131.643 933.525 131.643Z" fill="#96BDBE"/>
<path d="M933.525 88.78C934.368 88.78 935.051 88.0962 935.051 87.2528C935.051 86.4093 934.368 85.7256 933.525 85.7256C932.683 85.7256 932 86.4093 932 87.2528C932 88.0962 932.683 88.78 933.525 88.78Z" fill="#96BDBE"/>
<path d="M933.525 45.9174C934.368 45.9174 935.051 45.2337 935.051 44.3902C935.051 43.5468 934.368 42.863 933.525 42.863C932.683 42.863 932 43.5468 932 44.3902C932 45.2337 932.683 45.9174 933.525 45.9174Z" fill="#96BDBE"/>
<path d="M933.525 3.0544C934.368 3.0544 935.051 2.37065 935.051 1.5272C935.051 0.68375 934.368 0 933.525 0C932.683 0 932 0.68375 932 1.5272C932 2.37065 932.683 3.0544 933.525 3.0544Z" fill="#96BDBE"/>
</g>
<defs>
<clipPath id="clip0_19_5303">
<rect width="427" height="646" fill="white"/>
</clipPath>
<clipPath id="clip1_19_5303">
<rect width="427" height="646" fill="white" transform="translate(466)"/>
</clipPath>
<clipPath id="clip2_19_5303">
<rect width="427" height="646" fill="white" transform="translate(932)"/>
</clipPath>
</defs>
</svg>
