<svg width="100" height="101" viewBox="0 0 100 101" fill="none" xmlns="http://www.w3.org/2000/svg">
<g clip-path="url(#clip0_19_5257)">
<path fill-rule="evenodd" clip-rule="evenodd" d="M16.3071 84.1927V9.26343H8.76318V90.9561H9.45099V91.7366H91.2364V84.1927H16.3071Z" fill="#F2F2F2"/>
<path d="M57.5439 65.6219C72.2266 65.6219 84.1292 53.7192 84.1292 39.0365C84.1292 24.3538 72.2266 12.4512 57.5439 12.4512C42.8612 12.4512 30.9585 24.3538 30.9585 39.0365C30.9585 53.7192 42.8612 65.6219 57.5439 65.6219Z" fill="#F2F2F2"/>
<path d="M98.7806 85.4122H16.3074C15.6342 85.4122 15.0879 84.8659 15.0879 84.1927V1.71951C15.0879 1.04634 15.6342 0.5 16.3074 0.5H98.7806C99.4537 0.5 100 1.04634 100 1.71951V84.1927C100 84.8659 99.4537 85.4122 98.7806 85.4122ZM17.5269 82.9732H97.5611V2.93902H17.5269V82.9732Z" fill="#221F20"/>
<path d="M91.2366 92.9561H8.76346C8.09029 92.9561 7.54395 92.4098 7.54395 91.7366V9.26346C7.54395 8.59029 8.09029 8.04395 8.76346 8.04395H16.3074C16.9805 8.04395 17.5269 8.59029 17.5269 9.26346C17.5269 9.93663 16.9805 10.483 16.3074 10.483H9.98297V90.5171H90.0171V84.1927C90.0171 83.5196 90.5635 82.9732 91.2366 82.9732C91.9098 82.9732 92.4561 83.5196 92.4561 84.1927V91.7366C92.4561 92.4098 91.9098 92.9561 91.2366 92.9561Z" fill="#221F20"/>
<path d="M83.6927 100.5H1.21951C0.546341 100.5 0 99.9537 0 99.2806V16.8074C0 16.1342 0.546341 15.5879 1.21951 15.5879H8.76341C9.43659 15.5879 9.98293 16.1342 9.98293 16.8074C9.98293 17.4806 9.43659 18.0269 8.76341 18.0269H2.43902V98.0611H82.4732V91.7367C82.4732 91.0635 83.0195 90.5172 83.6927 90.5172C84.3659 90.5172 84.9122 91.0635 84.9122 91.7367V99.2806C84.9122 99.9537 84.3659 100.5 83.6927 100.5Z" fill="#221F20"/>
<path d="M32.3926 30.4023L48.9097 13.8853C46.234 14.8048 43.7511 16.1365 41.5365 17.8096L36.317 23.0292C34.6438 25.2438 33.3121 27.7267 32.3926 30.4023Z" fill="#221F20"/>
<path d="M30.9585 39.0365C30.9585 39.6268 30.9804 40.2146 31.017 40.7951L59.3024 12.5097C58.7219 12.4707 58.1341 12.4512 57.5439 12.4512C56.9536 12.4512 56.417 12.4707 55.8585 12.5048L31.0122 37.3512C30.978 37.9097 30.9585 38.4707 30.9585 39.0365Z" fill="#221F20"/>
<path d="M32.5949 48.2366L66.7437 14.0878C65.8851 13.7708 65.0071 13.4976 64.112 13.2708L31.7754 45.6073C32.0022 46.5025 32.2754 47.3805 32.5925 48.239L32.5949 48.2366Z" fill="#221F20"/>
<path d="M35.6828 54.1657L72.673 17.1755C71.9877 16.6999 71.2803 16.2584 70.5511 15.8486L34.3535 52.0462C34.7633 52.7755 35.2072 53.4828 35.6803 54.1681L35.6828 54.1657Z" fill="#221F20"/>
<path d="M39.9246 58.9438L77.449 21.4194C76.9099 20.8097 76.3441 20.2267 75.7514 19.6682L38.1733 57.2463C38.7294 57.839 39.3148 58.4048 39.9246 58.9438Z" fill="#221F20"/>
<path d="M45.2659 62.6218L81.1294 26.7584C80.7391 26.012 80.3147 25.2852 79.8586 24.5803L43.0879 61.3511C43.7928 61.8072 44.5172 62.2315 45.2659 62.6218Z" fill="#221F20"/>
<path d="M51.888 65.017L83.5246 33.3804C83.3246 32.4585 83.0782 31.5536 82.7855 30.6707L49.1782 64.278C50.0611 64.5707 50.966 64.817 51.888 65.017Z" fill="#221F20"/>
<path d="M57.5438 65.6218C58.5291 65.6218 59.5023 65.5657 60.4608 65.4608L83.9682 41.9535C84.073 40.995 84.1291 40.0218 84.1291 39.0364C84.1291 38.8072 84.1267 38.5803 84.1194 38.3535L56.8584 65.6145C57.0852 65.6194 57.3145 65.6243 57.5413 65.6243L57.5438 65.6218Z" fill="#221F20"/>
<path d="M81.9878 49.5049L68.0122 63.4805C74.2781 60.7951 79.3024 55.7707 81.9878 49.5049Z" fill="#221F20"/>
<path d="M82.6514 76.8415C79.9978 76.8415 78.6368 75.2537 77.5417 73.9756C76.4392 72.6903 75.7441 71.9634 74.2831 71.9634C72.8222 71.9634 72.127 72.6903 71.0246 73.9756C69.9295 75.2512 68.5685 76.8415 65.9148 76.8415C63.2612 76.8415 61.9002 75.2537 60.8051 73.9781C59.7027 72.6927 59.0075 71.9634 57.5466 71.9634C56.0856 71.9634 55.3905 72.6903 54.288 73.9781C53.1929 75.2537 51.8319 76.8415 49.1783 76.8415C46.5246 76.8415 45.1636 75.2537 44.0685 73.9781C42.9661 72.6927 42.271 71.9634 40.81 71.9634C39.349 71.9634 38.6539 72.6903 37.5514 73.9781C36.4563 75.2537 35.0929 76.8415 32.4417 76.8415C31.7685 76.8415 31.2222 76.2951 31.2222 75.622C31.2222 74.9488 31.7685 74.4025 32.4417 74.4025C33.9027 74.4025 34.5978 73.6756 35.7002 72.3878C36.7953 71.1122 38.1588 69.5244 40.81 69.5244C43.4612 69.5244 44.8246 71.1122 45.9197 72.3878C47.0222 73.6732 47.7173 74.4025 49.1783 74.4025C50.6392 74.4025 51.3344 73.6756 52.4368 72.3878C53.5319 71.1122 54.8929 69.5244 57.5466 69.5244C60.2002 69.5244 61.5612 71.1122 62.6563 72.3878C63.7588 73.6732 64.4539 74.4025 65.9148 74.4025C67.3758 74.4025 68.0709 73.6756 69.1734 72.3903C70.2685 71.1147 71.6295 69.5244 74.2831 69.5244C76.9368 69.5244 78.2978 71.1122 79.3929 72.3903C80.4953 73.6756 81.1905 74.4025 82.6514 74.4025C83.3246 74.4025 83.8709 74.9488 83.8709 75.622C83.8709 76.2951 83.3246 76.8415 82.6514 76.8415Z" fill="#221F20"/>
</g>
<defs>
<clipPath id="clip0_19_5257">
<rect width="100" height="100" fill="white" transform="translate(0 0.5)"/>
</clipPath>
</defs>
</svg>
