<svg width="71" height="32" viewBox="0 0 71 32" fill="none" xmlns="http://www.w3.org/2000/svg">
<path fill-rule="evenodd" clip-rule="evenodd" d="M202.182 5.82201C202.808 5.94651 203.417 5.96637 204.018 5.98594C204.264 5.99397 204.509 6.00195 204.753 6.01707C205.529 6.0654 206.306 6.11032 207.082 6.15524C210.937 6.37823 214.792 6.60122 218.609 7.24165C219.532 7.39553 220.443 7.61227 221.297 8.0089C222.257 8.45538 222.539 9.10126 222.229 10.1178C221.889 11.2316 221.318 12.234 220.748 13.2358L220.747 13.2359L220.747 13.2371C220.597 13.5 220.447 13.7629 220.302 14.0277C220.17 14.2683 220.035 14.5079 219.901 14.7477L219.9 14.7494C219.271 15.8721 218.639 16.9991 218.193 18.2541C218.414 18.2662 218.574 18.1685 218.726 18.0757C218.766 18.0518 218.804 18.0283 218.843 18.0071C220.299 17.2037 221.59 16.1705 222.88 15.138L222.881 15.1376C223.22 14.8667 223.558 14.5957 223.9 14.329C224.651 13.7415 225.37 13.1127 226.089 12.4844C226.359 12.2481 226.63 12.0119 226.902 11.778C227.376 11.3684 227.847 11.3423 228.245 11.7216C228.67 12.1248 228.703 12.6189 228.295 13.1109C227.526 14.0386 226.756 14.9662 226.065 15.9545C225.965 16.0976 225.87 16.2428 225.829 16.4661L226.273 16.2308C226.845 15.9277 227.417 15.6243 227.987 15.3195C230.844 13.7893 233.803 12.4802 236.826 11.3185C239.962 10.1134 243.137 9.02324 246.419 8.27115C247.351 8.05875 248.291 7.9092 249.254 7.97856C250.311 8.05658 250.84 8.73281 250.578 9.66912C250.413 10.2565 249.726 10.6878 249.104 10.5816C248.82 10.5339 248.536 10.4819 248.263 10.3974C247.004 10.0038 245.823 10.3488 244.639 10.6947C244.573 10.714 244.507 10.7333 244.441 10.7524C244.414 10.7605 244.386 10.7686 244.358 10.7767C236.846 12.9462 229.83 16.2103 223.2 20.3262C222.905 20.5093 222.73 20.777 222.557 21.0443C222.518 21.1029 222.48 21.1615 222.441 21.2191L222.126 21.6826L222.126 21.6827C220.754 23.7006 219.383 25.7176 217.825 27.5999C217.103 28.4712 216.37 29.3468 215.367 29.9255C214.879 30.2073 214.361 30.333 213.821 30.1119C213.193 29.854 212.926 29.1561 213.149 28.3108C213.509 26.9432 214.296 25.8032 215.159 24.7108C216.817 22.6106 218.91 20.9959 221.069 19.4549C221.622 19.0604 221.665 19.0279 222.09 18.226C221.845 18.3822 221.61 18.535 221.383 18.6837L221.382 18.6838L221.382 18.684C220.905 18.9953 220.455 19.2884 219.992 19.5567C219.292 19.962 218.574 20.3587 217.731 20.3673C216.63 20.3782 215.997 19.6413 216.153 18.5511C216.331 17.32 216.906 16.2474 217.479 15.1762C217.542 15.0593 217.604 14.9424 217.666 14.8253C217.991 14.2117 218.336 13.6094 218.68 13.0071L218.681 13.0062C219.202 12.0962 219.723 11.1862 220.174 10.237C220.412 9.73848 220.256 9.59976 219.795 9.47622C217.963 8.97772 216.091 8.73931 214.211 8.55942C211.992 8.34701 209.768 8.18663 207.542 8.05008C206.464 7.98504 205.382 7.95906 204.301 7.93309C203.833 7.92184 203.365 7.9106 202.898 7.8962C202.828 7.89392 202.756 7.89911 202.685 7.90428C202.553 7.91385 202.422 7.92334 202.304 7.88536C201.355 7.58626 201.023 8.13894 200.672 8.89103C200.208 9.88029 199.738 10.8665 199.268 11.8527L199.267 11.8543C197.58 15.3919 195.892 18.9297 194.523 22.6106C194.517 22.6262 194.511 22.6417 194.505 22.6572C194.499 22.6708 194.493 22.6844 194.488 22.698C194.438 22.817 194.387 22.938 194.406 23.0983L194.454 23.0456C195.098 22.3446 195.726 21.6615 196.253 20.8919C196.58 20.4129 196.844 19.9144 196.979 19.34C197.126 18.7158 197.642 18.3885 198.175 18.5251C198.73 18.6681 199.014 19.1558 198.895 19.7843C198.738 20.5949 198.379 21.3232 197.895 21.9755C196.844 23.3909 195.767 24.791 194.315 25.8378C193.819 26.1955 193.288 26.3667 192.702 26.0437C192.108 25.7165 192.009 25.1659 192.059 24.5591C192.162 23.2584 192.629 22.0562 193.094 20.8589L193.103 20.8355C194.37 17.5619 195.87 14.3924 197.371 11.2216L197.644 10.6444L197.701 10.5241L197.701 10.5232C197.949 10.0002 198.196 9.47758 198.418 8.93438C198.187 9.11026 197.958 9.28654 197.728 9.46259L197.728 9.46304C196.875 10.1177 196.026 10.7692 195.151 11.3857C191.616 13.8804 187.858 15.9936 184.015 17.9681C180.272 19.8927 176.423 21.5919 172.552 23.2391C172.372 23.3172 172.186 23.3865 171.999 23.445C171.098 23.7181 170.181 23.1026 170.083 22.1619C169.986 21.2105 170.331 20.3543 170.695 19.5112C171.293 18.126 172.008 16.7993 172.722 15.4726L172.722 15.4723C173.252 14.4887 173.782 13.5051 174.264 12.4976L174.328 12.3642C174.641 11.7111 174.953 11.059 175.175 10.367C175.361 9.78399 175.337 9.74931 174.715 9.86202C173.738 10.0397 172.814 10.393 171.906 10.7875C168.198 12.3973 164.662 14.3396 161.126 16.2818C160.534 16.6067 159.943 16.9316 159.351 17.255C158.633 17.6465 157.916 18.0396 157.199 18.4327C153.677 20.364 150.154 22.2957 146.53 24.0389C144.476 25.0272 142.404 25.9917 140.171 26.5401C139.627 26.6744 139.077 26.7525 138.515 26.7243C136.983 26.6484 136.092 25.6991 136.025 24.1668C135.973 22.9964 136.294 21.9235 136.738 20.8767C138.271 17.2485 140.46 14.0277 142.969 11.0172C145.096 8.46839 147.393 6.08426 150.046 4.07076C151.166 3.22114 152.324 2.42354 153.694 2.01607C154.706 1.71481 155.709 1.68013 156.526 2.46906C157.339 3.25582 157.259 4.24632 156.988 5.23898C156.73 6.18613 156.256 7.03141 155.738 7.85502C154.669 9.54991 153.399 11.0931 152.083 12.5994C151.776 12.9505 151.403 13.0676 150.967 12.9419C150.588 12.8335 150.375 12.5496 150.295 12.166C150.215 11.7823 150.423 11.5179 150.657 11.2556C152.012 9.73631 153.301 8.16712 154.348 6.41587C154.728 5.78299 155.081 5.13061 155.215 4.39153C155.311 3.87136 155.128 3.68063 154.606 3.76949C153.472 3.96032 152.568 4.61992 151.675 5.27145L151.615 5.31484C148.806 7.36952 146.431 9.87502 144.207 12.5322C142.25 14.8709 140.49 17.3482 139.133 20.0899C138.639 21.0891 138.182 22.1078 137.984 23.2153C137.731 24.6393 138.134 25.0142 139.536 24.6978C140.804 24.4117 142.016 23.9652 143.206 23.4602C146.887 21.895 150.393 19.9811 153.897 18.068C154.527 17.7241 155.156 17.3801 155.787 17.0382C156.966 16.3993 158.14 15.7518 159.315 15.1042C162.06 13.5903 164.806 12.0762 167.608 10.6705L167.857 10.5455C169.797 9.5717 171.742 8.59516 173.868 8.06309C174.34 7.94605 174.819 7.88536 175.309 7.89403C176.72 7.91787 177.494 8.88019 177.188 10.2565C176.881 11.6362 176.254 12.8844 175.627 14.1334L175.502 14.3832C175.144 15.1005 174.766 15.8085 174.386 16.522L174.385 16.5234C173.575 18.0451 172.75 19.5916 172.069 21.3058C180.658 17.6039 188.959 13.707 196.302 8.03708C195.47 8.0024 194.677 8.14328 193.881 8.32317C193.205 8.47489 192.717 8.17579 192.598 7.5906C192.488 7.03791 192.811 6.56976 193.441 6.41587C193.86 6.314 194.285 6.22731 194.711 6.17096C195.854 6.02141 197 5.90003 198.155 5.9152C198.533 5.91954 198.838 5.8025 199.109 5.51424C199.989 4.58009 200.789 3.5896 201.413 2.46256C201.63 2.07026 201.879 1.69097 202.152 1.33768C202.527 0.850019 202.852 0.787165 203.364 1.04725C203.841 1.28783 204.023 1.66929 203.832 2.21981C203.673 2.68289 203.464 3.13076 203.256 3.57536L203.255 3.57561L203.173 3.75215C202.947 4.23892 202.712 4.72224 202.462 5.23487C202.37 5.42525 202.275 5.61969 202.178 5.81984L202.182 5.82201ZM216.006 26.7178C216.027 26.7374 216.047 26.7569 216.067 26.7765C216.079 26.7882 216.091 26.7998 216.103 26.8114C216.111 26.8192 216.119 26.827 216.127 26.8348C216.536 26.3374 216.945 25.8395 217.353 25.3415C217.762 24.8435 218.17 24.3456 218.579 23.8482C217.685 24.637 216.945 25.5534 216.206 26.4703L216.004 26.72L216.006 26.7178ZM95.5968 18.1414C95.7157 17.048 96.0565 16.0171 96.5139 14.9197C97.168 16.4407 97.9653 16.7253 99.3616 15.9957C100.328 15.4907 101.152 14.7863 101.921 14.0277C103.241 12.7273 104.392 11.3055 104.793 9.43072C105.17 7.6708 103.883 6.17747 102.095 6.25766C101.062 6.3037 100.284 6.86539 99.5039 7.42901C99.4392 7.47574 99.3745 7.52247 99.3096 7.56893C99.2836 7.58769 99.2589 7.60732 99.2344 7.62676L99.2343 7.62683C99.1257 7.71293 99.0221 7.79508 98.8436 7.77917C98.1717 7.72065 97.5215 7.8832 96.8778 8.06093C95.0583 8.56423 93.3125 9.27622 91.5668 9.98818L91.5668 9.98821L91.4138 10.0506C86.5198 12.0489 81.7169 14.2532 76.9508 16.5354C76.3517 16.8224 75.749 17.1021 75.1141 17.3967C74.7659 17.5583 74.408 17.7244 74.0357 17.8987C74.2307 17.643 74.3391 17.4999 74.4475 17.3569C75.5658 15.896 76.617 14.3962 77.1806 12.6168C77.4103 11.8907 77.4493 11.1603 77.0375 10.4819C76.4978 9.5911 75.4727 9.31151 74.2633 9.70164C72.6681 10.2153 71.4738 11.3163 70.3056 12.4391C69.7478 12.976 69.2198 13.5426 68.6601 14.1433L68.66 14.1434C68.4063 14.4156 68.1462 14.6948 67.8738 14.9814C67.9611 14.7802 68.0437 14.593 68.1224 14.4147L68.1227 14.4141L68.1229 14.4137C68.2822 14.0527 68.4253 13.7284 68.5587 13.3992C68.6086 13.2764 68.6591 13.1538 68.7096 13.0311L68.7101 13.03C69.1237 12.0248 69.538 11.0181 69.6771 9.92705C69.8331 8.70464 69.404 7.9894 68.3788 7.71415C68.1534 7.65346 67.9215 7.61228 67.6917 7.57543C65.6613 7.25305 63.6225 7.34708 61.5836 7.44111L61.4908 7.44539C57.9515 7.60794 54.4165 7.85936 50.888 8.19964C50.5359 8.23355 50.1833 8.26398 49.8306 8.29442C48.3573 8.42157 46.8827 8.54882 45.4435 8.93005C45.3048 8.96473 45.2441 8.96473 45.2224 8.81951C45.0967 7.95473 44.4248 7.73149 43.7204 7.5841C42.55 7.33919 41.358 7.31101 40.1702 7.32185C37.8468 7.34569 35.5277 7.45839 33.2129 7.64479C31.0975 7.81601 28.9843 8.01108 26.8798 8.29067C26.0967 8.39419 25.3114 8.48941 24.4939 8.58853C24.1304 8.63261 23.7606 8.67745 23.3816 8.72415C24.0059 7.74015 24.6647 6.89054 25.3475 6.06693L25.4248 5.97376C26.3288 4.88371 27.2372 3.7884 28.4468 3.00658C29.0147 2.64029 29.2076 2.10711 28.902 1.60211C28.6397 1.1643 28.0524 1.06027 27.5149 1.35937C26.7346 1.79284 26.0757 2.38671 25.4732 3.02609C23.7891 4.81201 22.3478 6.78867 21.0127 8.84336C20.8718 9.05793 20.7288 9.17063 20.4687 9.21181C18.3728 9.54776 16.2856 9.92705 14.2158 10.3952C13.6826 10.516 13.1504 10.6378 12.5794 10.7685L12.5793 10.7685C12.2798 10.837 11.9696 10.908 11.6431 10.9826C11.8909 10.6608 12.1278 10.3478 12.3589 10.0425C12.8859 9.34641 13.3829 8.69002 13.9102 8.05876C14.0992 7.83234 14.2859 7.60344 14.4726 7.37449L14.4727 7.37439L14.4727 7.37439C15.4565 6.16789 16.4414 4.96015 17.7876 4.10761C17.8613 4.0621 17.9242 3.98841 17.9697 3.91472C18.1409 3.63079 18.0846 3.36203 17.8765 3.12579C17.6056 2.81802 17.2718 2.83102 16.9445 3.01091C16.0732 3.48991 15.2756 4.07727 14.5842 4.79251C12.6184 6.82768 10.8737 9.05142 9.19826 11.3272C8.87098 11.7737 8.50903 12.0814 7.96718 12.1941C7.73531 12.2432 7.50741 12.3161 7.27934 12.389L7.27917 12.3891C7.21523 12.4095 7.15128 12.43 7.08722 12.4499C5.02821 13.0958 2.99736 13.811 1.20493 15.0573C0.639245 15.4496 0.491862 15.9957 0.808301 16.44C1.11824 16.8757 1.7988 16.9429 2.30597 16.5549C3.01253 16.0152 3.79063 15.6056 4.59256 15.2372C5.29696 14.9142 6.00353 14.5913 6.85531 14.355C6.69948 14.5888 6.61065 14.7231 6.52191 14.8573L6.5219 14.8573L6.52154 14.8579C6.01282 15.6143 5.50365 16.3703 4.99454 17.1261L4.99448 17.1262C3.9267 18.7116 2.85918 20.2966 1.79663 21.8845C1.39783 22.4806 1.46285 23.0592 1.93101 23.3584C2.44034 23.6835 2.97786 23.5274 3.34848 22.9617C5.36198 19.8927 7.40583 16.8475 9.54287 13.863C9.80513 13.4967 10.1086 13.3125 10.5269 13.1976C12.5035 12.6515 14.5084 12.2245 16.5219 11.8365C17.1278 11.7204 17.7356 11.6136 18.3664 11.5027L18.3664 11.5027L18.3666 11.5027C18.7014 11.4438 19.0427 11.3838 19.3937 11.3207C19.3511 11.401 19.316 11.4691 19.285 11.5292C19.2323 11.6313 19.1916 11.7103 19.1466 11.7867C17.6359 14.342 16.2163 16.9451 15.0415 19.6716C14.9818 19.8101 14.9218 19.9485 14.8617 20.087C14.0508 21.9573 13.2377 23.8325 13.054 25.905C12.9955 26.5813 13.2708 26.9952 13.8668 27.0646C14.465 27.1339 14.9267 26.7373 14.944 26.0676C14.9657 25.2635 15.1759 24.5027 15.4252 23.7528C16.9142 19.2642 19.2484 15.1981 21.7128 11.1971C21.858 10.9609 22.053 10.8699 22.3283 10.8352C23.0179 10.7484 23.7066 10.6533 24.3954 10.5582L24.3955 10.5581L24.3957 10.5581C25.2028 10.4467 26.01 10.3352 26.8191 10.237C29.4785 9.91188 32.1422 9.63445 34.8146 9.45673L35.0007 9.44435C36.1784 9.36601 37.3561 9.28767 38.5339 9.24649C39.2355 9.2226 39.9372 9.22854 40.6474 9.23454C40.9682 9.23726 41.2908 9.23999 41.6159 9.23999C41.5996 9.28788 41.5895 9.32329 41.5818 9.35007L41.5817 9.35011C41.57 9.39117 41.564 9.41195 41.5509 9.42638C40.1117 10.9977 39.0454 12.801 38.2066 14.7473C37.6257 16.0954 37.1684 17.4696 37.2659 18.9716C37.3375 20.0487 37.8966 20.803 38.8416 21.0241C39.8408 21.2582 40.6904 20.868 41.4533 20.3002C43.1461 19.0387 44.3295 17.3352 45.4283 15.5753C46.3451 14.1058 47.1427 12.5756 47.3833 10.8265C47.4288 10.4971 47.6369 10.4451 47.91 10.419C48.7316 10.3413 49.5532 10.2609 50.3749 10.1805L50.3753 10.1804C51.7537 10.0455 53.1323 9.91054 54.5118 9.78834C56.3563 9.62578 58.2051 9.50874 60.056 9.40254C60.2134 9.39346 60.3708 9.38423 60.5282 9.375C62.5121 9.25862 64.4958 9.14226 66.4758 9.33102C66.6937 9.35185 66.8819 9.36254 67.0423 9.37166C67.9335 9.42231 67.97 9.42438 67.5053 10.846C66.5538 13.7633 65.0952 16.4509 63.6257 19.1298C61.6794 22.6778 59.5879 26.1391 57.3793 29.5311C57.0238 30.0773 57.1062 30.6798 57.5614 30.9572C58.0447 31.2498 58.6125 31.0938 58.9485 30.5779C62.4792 25.1681 66.0684 19.8017 70.4335 15.0096C71.5367 13.8002 72.7006 12.6385 74.1397 11.8062C74.4366 11.635 74.7422 11.4919 75.0955 11.4681C75.3751 11.4486 75.4792 11.5222 75.4206 11.8365C75.2537 12.7208 74.8419 13.4989 74.3716 14.2402C72.6507 16.9472 70.505 19.2468 67.7914 20.9937C67.2539 21.3405 67.1152 21.8715 67.4121 22.3332C67.7568 22.8685 68.2227 22.9791 68.8101 22.6691C68.9628 22.5883 69.1154 22.507 69.268 22.4257C69.6394 22.2276 70.0109 22.0295 70.3858 21.839C74.2199 19.8992 78.0952 18.0504 81.9965 16.2515C86.2728 14.2792 90.5577 12.3328 94.9618 10.6596L95.073 10.6172C95.6741 10.3876 96.287 10.1534 97.0403 10.0289C96.1864 11.234 95.5123 12.3979 94.9488 13.6203C94.2054 15.2328 93.67 16.8995 93.7112 18.705C93.7502 20.4259 94.9185 21.4749 96.622 21.334C97.7296 21.2408 98.7721 20.8962 99.7907 20.4996C103.443 19.0802 106.909 17.2747 110.375 15.4688L110.376 15.4683C110.975 15.1565 111.574 14.8447 112.173 14.5349C112.722 14.2512 113.269 13.964 113.816 13.6768L113.817 13.6761C116.04 12.5089 118.264 11.3413 120.6 10.4039C120.733 10.3504 120.866 10.2947 120.999 10.239L120.999 10.2389C121.838 9.8875 122.682 9.53372 123.649 9.73198C123.944 9.7905 124.213 9.66263 124.421 9.42855C124.943 8.84119 124.614 8.03492 123.758 7.79217C123.045 7.5906 122.366 7.764 121.699 7.9829C119.021 8.85686 116.533 10.143 114.045 11.429L114.044 11.4291L114.044 11.4293C113.546 11.6868 113.048 11.9443 112.548 12.1985C111.436 12.7642 110.33 13.3431 109.225 13.9219L109.224 13.9221C106.238 15.4855 103.252 17.0489 100.138 18.3539C98.9953 18.8328 97.8401 19.2967 96.5917 19.4462C95.9545 19.5221 95.7356 19.366 95.625 18.7331C95.5925 18.5381 95.5752 18.3343 95.5968 18.1414ZM45.0187 9.77316C44.492 10.5491 43.7984 10.9371 42.9813 11.1191C42.7082 11.1798 42.4612 11.2665 42.2943 11.5027C41.1521 13.1001 40.1464 14.7733 39.507 16.6438C39.3033 17.2398 39.1451 17.8467 39.1472 18.4839C39.1472 19.236 39.3315 19.3422 40.0055 18.9781C40.4216 18.7548 40.7749 18.4492 41.1087 18.1176C42.9597 16.2797 44.3164 14.1274 45.2202 11.6826C45.2339 11.6456 45.2478 11.6087 45.2617 11.5718L45.2618 11.5716C45.4566 11.0541 45.6448 10.5543 45.1249 10.0809C45.0891 10.0479 45.076 9.99039 45.0591 9.91562C45.0493 9.87266 45.0382 9.82399 45.0208 9.771L45.0187 9.77316ZM102.983 8.76533C102.968 8.35353 102.509 8.01975 101.978 8.1693C101.119 8.41205 100.382 8.91488 99.9186 9.64962C99.1189 10.9175 98.6334 12.3263 98.4231 13.8197C98.42 13.8413 98.4159 13.864 98.4117 13.8872C98.3869 14.0242 98.3587 14.1803 98.5033 14.2618C98.6218 14.3293 98.7342 14.2449 98.834 14.1699L98.8341 14.1699C98.8529 14.1558 98.8713 14.142 98.8891 14.1296C100.378 13.0806 101.624 11.8018 102.522 10.2088C102.758 9.78834 102.944 9.33969 102.985 8.76533H102.983ZM180.515 3.46398C180.723 3.1237 180.832 2.74224 180.829 2.52767L180.827 2.5255C180.832 1.43314 180.19 0.923803 179.442 1.23591C179.089 1.38329 178.868 1.66072 178.734 2.0075C178.437 2.77909 178.101 3.529 177.689 4.24641C177.544 4.50216 177.505 4.79042 177.548 5.08302C177.604 5.46231 177.771 5.75925 178.172 5.87412C178.586 5.99332 178.952 5.86328 179.178 5.54467C179.655 4.87278 180.086 4.16838 180.515 3.46398Z" fill="#221F20"/>
</svg>
