<svg width="239" height="150" viewBox="0 0 239 150" fill="none" xmlns="http://www.w3.org/2000/svg">
<g clip-path="url(#clip0_1_662)">
<path d="M12.9268 91.677L13.2956 93.0067L9.20194 94.1517L4.40756 99.6922L3.965 98.104L7.87426 93.7824L2.30541 92.1941L1.86285 90.6797L8.83314 92.822L12.9268 91.677Z" fill="#EC9747"/>
<path d="M4.07564 85.0285C3.4118 84.8808 2.82172 84.5853 2.26853 84.2159C1.71533 83.8466 1.30965 83.3664 0.940853 82.7754C0.608934 82.1844 0.387656 81.4826 0.313896 80.6331C0.240136 79.8205 0.313896 79.0817 0.608934 78.4538C0.867093 77.8259 1.23589 77.2718 1.67845 76.8286C2.15789 76.3853 2.71108 76.016 3.33804 75.7574C3.965 75.4989 4.62883 75.3511 5.32955 75.2772C6.03027 75.2403 6.73098 75.2772 7.39482 75.425C8.05865 75.5727 8.64873 75.8682 9.20193 76.2376C9.71825 76.607 10.1608 77.0871 10.5296 77.7151C10.8615 78.3061 11.0828 79.0079 11.1197 79.8574C11.1934 80.67 11.1197 81.4087 10.8246 82.0367C10.5296 82.6646 10.2346 83.2186 9.75513 83.6619C9.27569 84.1051 8.72249 84.4745 8.09553 84.733C7.46858 84.9916 6.80474 85.1393 6.10403 85.2132C5.40331 85.2871 4.70259 85.2132 4.03876 85.0655L4.07564 85.0285ZM7.54234 83.4772C8.02178 83.2925 8.46433 83.0709 8.87001 82.7385C9.27569 82.406 9.53385 82.0367 9.75513 81.5565C9.9764 81.0763 10.0502 80.5223 10.0133 79.8943C9.97641 79.2664 9.79201 78.7493 9.53385 78.3061C9.23881 77.8628 8.90689 77.5304 8.46433 77.2718C8.02178 77.0133 7.57922 76.8286 7.0629 76.7178C6.54658 76.607 6.03027 76.607 5.51395 76.6439C4.99763 76.6439 4.48131 76.7916 4.00188 76.9763C3.52244 77.161 3.07988 77.3826 2.6742 77.7151C2.30541 78.0475 2.01037 78.4169 1.78909 78.897C1.56781 79.3772 1.49405 79.9313 1.53093 80.5592C1.56781 81.1871 1.75221 81.7042 2.01037 82.1475C2.30541 82.5907 2.63732 82.9231 3.07988 83.1817C3.52244 83.4403 3.965 83.6249 4.48131 83.6988C4.99763 83.8096 5.51395 83.8096 6.03027 83.7727C6.54658 83.7358 7.0629 83.6249 7.54234 83.4403V83.4772Z" fill="#EC9747"/>
<path d="M10.9353 63.4204C11.4885 64.196 11.7098 65.2303 11.5254 66.56C11.341 67.8897 10.8984 68.887 10.1608 69.5519C9.42322 70.2167 8.39058 70.4384 7.02603 70.2906L0.461426 69.4411L0.645825 68.0744L7.21043 68.9239C8.13243 69.0348 8.87002 68.924 9.38634 68.4807C9.90266 68.0375 10.2715 67.3726 10.3821 66.4492C10.4927 65.5627 10.3821 64.8609 9.93954 64.3438C9.53386 63.8267 8.87002 63.4943 7.94803 63.3834L1.38342 62.5339L1.56782 61.1672L8.13242 62.0168C9.4601 62.2015 10.3821 62.6816 10.9353 63.4573V63.4204Z" fill="#EC9747"/>
<path d="M4.62885 50.0494C4.96076 49.126 5.40332 48.4612 6.06716 48.0918C6.69411 47.7224 7.43171 47.6855 8.20619 47.944C8.79626 48.1287 9.2757 48.4612 9.6445 48.8675C10.0133 49.2738 10.1608 49.8278 10.1239 50.4927C10.2715 50.2341 10.4559 50.0494 10.6403 49.9017C10.8247 49.7539 11.0459 49.6801 11.2303 49.6431C11.4516 49.6062 11.6729 49.5693 11.8942 49.6431C12.1154 49.6431 12.3736 49.717 12.6318 49.7539C12.8899 49.8278 13.1112 49.9017 13.3694 49.9756C13.6275 50.0494 13.8857 50.1233 14.107 50.1603C14.3651 50.1972 14.5864 50.2341 14.8446 50.2341C15.1027 50.2341 15.2871 50.2341 15.5084 50.1233L15.029 51.6008C15.029 51.6008 14.7339 51.6747 14.5495 51.6377C14.3651 51.6377 14.1807 51.5638 13.9594 51.49C13.7382 51.4161 13.5169 51.3422 13.2587 51.2684C13.0006 51.1945 12.7424 51.1575 12.4842 51.1206C12.2261 51.0837 12.0048 51.0467 11.7466 51.0098C11.4885 50.9729 11.3041 51.0098 11.0828 51.0837C10.8984 51.1575 10.714 51.2684 10.5296 51.4161C10.3821 51.5638 10.2346 51.8224 10.1239 52.1179L9.05442 55.3314L13.2587 56.735L12.8162 58.0647L3.00613 54.7404L4.55509 50.1233L4.62885 50.0494ZM9.16506 51.2684C9.20194 50.9729 9.16506 50.7143 9.16506 50.4557C9.0913 50.1972 8.98066 49.9756 8.79626 49.7909C8.61186 49.6062 8.35371 49.4215 7.98491 49.3107C7.50547 49.126 7.02603 49.126 6.62036 49.3107C6.21468 49.4954 5.91964 49.8648 5.69836 50.4927L4.59197 53.7431L8.02179 54.8882L8.94378 52.1548C9.05442 51.8593 9.12818 51.5638 9.16506 51.2684Z" fill="#EC9747"/>
<path d="M12.9637 33.354L20.524 38.599L23.6588 34.0927L24.6177 34.7576L20.7084 40.4089L12.2261 34.499L13.0006 33.354H12.9637Z" fill="#EC9747"/>
<path d="M21.7411 26.9269C21.446 26.299 21.2616 25.6711 21.1879 25.0432C21.1141 24.4152 21.1879 23.7504 21.446 23.0855C21.6673 22.4576 22.073 21.8297 22.6631 21.2387C23.2531 20.6477 23.8801 20.2783 24.5071 20.0567C25.1709 19.8351 25.7979 19.7612 26.4617 19.8351C27.1255 19.9089 27.7525 20.0936 28.3426 20.4261C28.9326 20.7585 29.4858 21.1648 30.0022 21.6819C30.4816 22.199 30.8873 22.7531 31.2192 23.3441C31.5142 23.972 31.6986 24.5999 31.7724 25.2278C31.8093 25.8558 31.7355 26.5206 31.5142 27.1855C31.2929 27.8503 30.8504 28.4413 30.2972 29.0323C29.7071 29.6233 29.0802 29.9927 28.4532 30.2143C27.7894 30.4359 27.1624 30.5098 26.4986 30.4359C25.8347 30.362 25.2078 30.1774 24.6177 29.8449C24.0276 29.5125 23.4744 29.1062 22.9581 28.5891C22.4787 28.072 22.073 27.5179 21.7411 26.9269ZM25.134 28.5891C25.5766 28.8476 26.056 29.0323 26.5354 29.1431C27.0149 29.217 27.5312 29.217 28.0106 29.0693C28.4901 28.9215 28.9695 28.626 29.449 28.1828C29.8915 27.7395 30.1866 27.2594 30.3341 26.7792C30.4816 26.299 30.5185 25.7819 30.4447 25.3017C30.3709 24.8215 30.1865 24.3414 29.9284 23.8612C29.6702 23.4179 29.3752 22.9747 29.0064 22.6053C28.6376 22.236 28.2319 21.9035 27.7894 21.645C27.3468 21.3864 26.8674 21.2017 26.3879 21.1279C25.9085 21.054 25.3922 21.054 24.9127 21.2017C24.4333 21.3495 23.9539 21.645 23.5113 22.0882C23.0687 22.5315 22.7737 23.0116 22.5893 23.4918C22.4418 23.972 22.4049 24.4891 22.4787 24.9693C22.5524 25.4495 22.7368 25.9296 22.995 26.4098C23.2531 26.89 23.5851 27.2963 23.917 27.6657C24.2858 28.035 24.6915 28.3675 25.134 28.626V28.5891Z" fill="#EC9747"/>
<path d="M37.3412 12.0045C36.7143 12.0045 36.0873 12.1522 35.4604 12.5585C34.944 12.8909 34.5384 13.2603 34.3171 13.7035C34.0589 14.1468 33.9483 14.59 33.9114 15.0702C33.8745 15.5504 33.9114 16.0306 34.0958 16.5477C34.2802 17.0648 34.4646 17.508 34.7596 17.9882C35.0916 18.4684 35.4235 18.9116 35.8292 19.281C36.2348 19.6503 36.6405 19.9089 37.1199 20.0936C37.5994 20.2783 38.0419 20.3521 38.5583 20.2783C39.0746 20.2044 39.554 20.0567 40.1072 19.7242C40.476 19.5026 40.771 19.2071 40.9923 18.8747C41.2136 18.5792 41.3611 18.2098 41.4349 17.8405C41.5086 17.4711 41.5086 17.1017 41.4349 16.7324C41.3611 16.363 41.2136 15.9567 41.0292 15.5873L42.1725 14.8486C42.7626 16.0306 42.947 17.1017 42.6888 18.1359C42.4306 19.1702 41.7668 20.0197 40.6235 20.7585C39.9597 21.2017 39.2959 21.4602 38.632 21.5341C37.9682 21.608 37.3412 21.5711 36.7511 21.3864C36.1611 21.2017 35.6079 20.8693 35.0547 20.426C34.5384 19.9828 34.0589 19.4287 33.6532 18.8008C33.2476 18.1729 32.9525 17.508 32.7681 16.8432C32.5837 16.1783 32.5468 15.5134 32.6206 14.8855C32.6944 14.2576 32.9156 13.6297 33.2844 13.0756C33.6532 12.4846 34.1696 12.0045 34.8334 11.5612C35.276 11.2657 35.7554 11.0441 36.2348 10.9333C36.7143 10.7855 37.1937 10.7486 37.6731 10.7855C38.1526 10.8225 38.5951 10.9333 39.0377 11.1549C39.4803 11.3765 39.8859 11.709 40.2547 12.1153L39.1115 12.854C38.5951 12.2999 38.0051 12.0414 37.3412 12.0045Z" fill="#EC9747"/>
<path d="M48.2945 5.06055L55.8918 13.1866L54.4903 13.7407L52.2775 11.2659L48.2208 12.8911L48.2945 16.2154L46.9669 16.7325L46.8931 5.6146L48.2945 5.06055ZM51.4293 10.3425L48.0364 6.50108L48.1839 11.6722L51.4293 10.3794V10.3425Z" fill="#EC9747"/>
<path d="M58.5471 1.9209L60.3911 10.9335L65.7755 9.82536L65.9968 10.9704L59.2847 12.374L57.1826 2.21639L58.5471 1.9209Z" fill="#EC9747"/>
<path d="M82.2977 1.84695C81.8552 1.47758 81.302 1.25596 80.5644 1.21903C80.2693 1.21903 79.9743 1.21903 79.7161 1.21903C79.4211 1.21903 79.1629 1.32984 78.9416 1.44065C78.7204 1.55146 78.536 1.73614 78.3885 1.95776C78.2409 2.17938 78.1672 2.43794 78.1303 2.80731C78.1303 3.1028 78.1672 3.39829 78.3516 3.58298C78.536 3.8046 78.7573 3.98928 79.0523 4.13703C79.3473 4.28477 79.7161 4.43252 80.0849 4.54333C80.4906 4.65414 80.8594 4.76495 81.2651 4.9127C81.6708 5.06045 82.0396 5.17126 82.4452 5.35594C82.814 5.50369 83.1828 5.72531 83.4779 5.98386C83.7729 6.24242 83.9942 6.53791 84.1786 6.87035C84.3261 7.20278 84.3999 7.64602 84.363 8.16313C84.3261 8.71718 84.1786 9.16042 83.8835 9.56672C83.5885 9.93609 83.2566 10.2316 82.8509 10.4532C82.4452 10.6748 82.0027 10.8226 81.5232 10.8964C81.0438 10.9703 80.5644 11.0073 80.0849 10.9703C79.4948 10.9334 78.9785 10.8226 78.4622 10.6379C77.9459 10.4532 77.5402 10.1946 77.1714 9.86222C76.8026 9.52979 76.5076 9.12348 76.3232 8.64331C76.1388 8.16313 76.065 7.60908 76.1019 6.98115L77.3927 7.09197C77.3927 7.53521 77.3927 7.90457 77.5771 8.237C77.7246 8.56943 77.909 8.82799 78.1672 9.04961C78.4253 9.27123 78.7204 9.45591 79.0892 9.56672C79.458 9.67753 79.8268 9.78835 80.1956 9.78835C80.4906 9.78835 80.8225 9.78835 81.1544 9.78835C81.4864 9.78835 81.7445 9.67753 82.0396 9.56672C82.2977 9.45591 82.519 9.27123 82.7034 9.04961C82.8878 8.82799 82.9615 8.5325 82.9984 8.12619C82.9984 7.75683 82.9616 7.46133 82.7772 7.23971C82.5928 7.01809 82.3715 6.79647 82.0764 6.64872C81.7814 6.50098 81.4126 6.35323 81.0438 6.20548C80.6381 6.09467 80.2693 5.98386 79.8636 5.83612C79.458 5.72531 79.0523 5.57756 78.6835 5.42981C78.2778 5.28207 77.9459 5.09738 77.6509 4.87576C77.3558 4.65414 77.1345 4.39559 76.9501 4.06315C76.7657 3.73072 76.7289 3.32442 76.7657 2.84424C76.8026 2.32713 76.9501 1.88389 77.1714 1.51452C77.3927 1.14515 77.7246 0.84966 78.0934 0.62804C78.4622 0.40642 78.8679 0.258673 79.3473 0.184799C79.7899 0.110926 80.2693 0.0739893 80.7488 0.110926C81.2651 0.147863 81.7814 0.258673 82.2239 0.40642C82.6665 0.554167 83.0353 0.812724 83.3672 1.10822C83.6991 1.40371 83.9204 1.77308 84.1048 2.17938C84.2892 2.58569 84.3261 3.1028 84.3261 3.69379L83.0353 3.58298C83.0353 2.84424 82.7771 2.29019 82.3715 1.92083L82.2977 1.84695Z" fill="#EC9747"/>
<path d="M89.563 2.54878L89.8581 1.44067L97.861 3.54607L97.5659 4.65417L94.2099 3.76769L91.8864 12.6694L90.5588 12.337L92.8453 3.43526L89.4893 2.54878H89.563Z" fill="#EC9747"/>
<path d="M105.495 17.1019C104.573 17.3974 103.54 17.2866 102.323 16.7325C101.106 16.1785 100.295 15.4398 99.8894 14.5533C99.4837 13.6668 99.5574 12.5956 100.148 11.3398L102.95 5.31909L104.204 5.91008L101.401 11.9308C100.996 12.7803 100.922 13.519 101.18 14.147C101.438 14.7749 101.955 15.292 102.803 15.6983C103.614 16.0677 104.315 16.1416 104.942 15.883C105.569 15.6244 106.048 15.1073 106.454 14.2578L109.257 8.23709L110.511 8.82808L107.708 14.8488C107.155 16.0677 106.417 16.8064 105.495 17.1019Z" fill="#EC9747"/>
<path d="M119.141 14.4054C120.431 15.3657 121.169 16.4 121.39 17.5819C121.612 18.7639 121.206 20.0198 120.247 21.3495C119.731 22.0513 119.214 22.6053 118.661 23.0486C118.108 23.4918 117.518 23.7504 116.928 23.8981C116.338 24.0459 115.711 24.0089 115.047 23.8242C114.383 23.6395 113.719 23.3071 113.019 22.79L110.142 20.6846L116.264 12.3369L119.141 14.4423V14.4054ZM113.793 21.9035C113.793 21.9035 114.088 22.0882 114.273 22.199C114.457 22.3098 114.715 22.4206 114.973 22.4945C115.231 22.5684 115.526 22.6423 115.821 22.6423C116.116 22.6423 116.448 22.6053 116.78 22.4945C117.112 22.3837 117.481 22.1621 117.85 21.8666C118.219 21.5711 118.587 21.1648 118.956 20.6477C119.325 20.1675 119.583 19.6504 119.804 19.2071C119.989 18.727 120.1 18.2837 120.063 17.8405C120.063 17.3972 119.915 16.9909 119.657 16.5846C119.399 16.1783 119.03 15.772 118.514 15.4027L116.633 14.036L111.875 20.5369L113.719 21.9035H113.793Z" fill="#EC9747"/>
<path d="M128.434 22.4208L121.132 29.7712L120.173 28.8109L127.475 21.4604L128.434 22.4208Z" fill="#EC9747"/>
<path d="M130.168 28.8108C130.832 28.5892 131.458 28.5153 132.122 28.5523C132.786 28.5892 133.413 28.7739 134.003 29.1063C134.593 29.4388 135.146 29.9189 135.626 30.5838C136.105 31.2487 136.4 31.9135 136.548 32.5784C136.659 33.2432 136.659 33.9081 136.474 34.536C136.29 35.164 136.032 35.7549 135.626 36.309C135.22 36.863 134.741 37.3432 134.151 37.7495C133.598 38.1558 132.971 38.4883 132.307 38.7099C131.643 38.9315 131.016 39.0054 130.352 38.9684C129.688 38.9315 129.061 38.7468 128.471 38.4144C127.881 38.082 127.328 37.6018 126.849 36.9369C126.369 36.2721 126.074 35.6072 125.927 34.9423C125.816 34.2775 125.816 33.6126 125.963 32.9847C126.111 32.3568 126.406 31.7658 126.812 31.2117C127.217 30.6577 127.697 30.1775 128.287 29.7343C128.84 29.328 129.467 28.9955 130.131 28.7739L130.168 28.8108ZM128.029 31.9505C127.697 32.3568 127.439 32.8 127.291 33.2802C127.144 33.7604 127.107 34.2405 127.144 34.7576C127.217 35.2748 127.439 35.7919 127.807 36.309C128.176 36.8261 128.582 37.1955 129.061 37.4171C129.541 37.6387 130.02 37.7495 130.5 37.7495C130.979 37.7495 131.495 37.6387 131.975 37.454C132.454 37.2693 132.934 37.0108 133.339 36.7153C133.745 36.4198 134.151 36.0504 134.483 35.6441C134.815 35.2378 135.073 34.7946 135.22 34.3144C135.368 33.8342 135.405 33.3541 135.368 32.8369C135.294 32.3198 135.073 31.8027 134.704 31.2856C134.335 30.7685 133.929 30.3991 133.45 30.1775C132.971 29.9559 132.491 29.8451 132.012 29.8451C131.495 29.8451 131.016 29.9559 130.537 30.1406C130.057 30.3252 129.578 30.5838 129.172 30.8793C128.766 31.1748 128.361 31.5442 128.029 31.9505Z" fill="#EC9747"/>
<path d="M136.806 56.2916L136.4 54.9619L140.42 53.6691L145.067 48.0178L145.547 49.5692L141.785 54.0385L147.391 55.4421L147.87 56.9565L140.826 55.0358L136.769 56.2916H136.806Z" fill="#EC9747"/>
<path d="M145.842 62.6079C146.505 62.7557 147.132 62.9773 147.649 63.3466C148.202 63.716 148.644 64.1962 149.013 64.7502C149.382 65.3043 149.603 66.043 149.677 66.8556C149.751 67.6682 149.677 68.407 149.456 69.0718C149.235 69.7367 148.866 70.2907 148.423 70.734C147.981 71.2142 147.427 71.5835 146.8 71.8421C146.174 72.1376 145.51 72.2853 144.809 72.3592C144.108 72.4331 143.408 72.3961 142.744 72.2853C142.08 72.1376 141.453 71.916 140.937 71.5466C140.42 71.1772 139.941 70.734 139.572 70.143C139.203 69.552 138.982 68.8502 138.908 68.0376C138.834 67.225 138.908 66.4863 139.129 65.8214C139.351 65.1935 139.683 64.6025 140.162 64.1593C140.605 63.6791 141.158 63.3097 141.785 63.0512C142.412 62.7926 143.076 62.6079 143.776 62.534C144.477 62.4602 145.178 62.4971 145.842 62.6079ZM142.412 64.2701C141.932 64.4547 141.49 64.7133 141.121 65.0457C140.752 65.3782 140.457 65.7845 140.273 66.2646C140.088 66.7448 140.015 67.2989 140.088 67.9268C140.162 68.5547 140.347 69.0718 140.642 69.5151C140.937 69.9214 141.305 70.2907 141.748 70.5124C142.191 70.7709 142.67 70.9187 143.186 70.9925C143.703 71.0664 144.219 71.0664 144.735 70.9925C145.252 70.9187 145.768 70.8079 146.247 70.6232C146.727 70.4385 147.169 70.1799 147.538 69.8475C147.907 69.5151 148.202 69.1088 148.386 68.6286C148.571 68.1484 148.644 67.5944 148.571 66.9664C148.497 66.3385 148.313 65.8214 148.018 65.3782C147.722 64.9719 147.354 64.6025 146.911 64.3809C146.469 64.1223 145.989 63.9746 145.473 63.9007C144.956 63.8268 144.44 63.8268 143.924 63.9007C143.408 63.9746 142.891 64.0854 142.412 64.2701Z" fill="#EC9747"/>
<path d="M139.683 84.3636C139.093 83.5879 138.871 82.5537 138.982 81.2609C139.093 79.9312 139.535 78.9339 140.236 78.2321C140.937 77.5303 141.969 77.2717 143.371 77.4195L149.972 78.0474L149.825 79.4141L143.223 78.7492C142.301 78.6753 141.564 78.8231 141.047 79.2663C140.531 79.7095 140.199 80.4113 140.125 81.3348C140.051 82.2212 140.199 82.8861 140.642 83.4032C141.084 83.9203 141.748 84.2158 142.67 84.2897L149.271 84.9546L149.124 86.3212L142.559 85.6564C141.232 85.5086 140.273 85.0654 139.683 84.3266V84.3636Z" fill="#EC9747"/>
<path d="M146.395 97.6239C146.1 98.5843 145.657 99.2491 145.03 99.6185C144.403 99.9879 143.703 100.099 142.891 99.8401C142.301 99.6554 141.822 99.36 141.416 98.9537C141.047 98.5473 140.863 97.9933 140.9 97.3654C140.752 97.6239 140.605 97.8455 140.42 97.9933C140.236 98.141 140.051 98.2149 139.83 98.2888C139.609 98.3257 139.388 98.3627 139.166 98.3257C138.945 98.3257 138.687 98.2888 138.429 98.2519C138.171 98.2149 137.949 98.141 137.691 98.0672C137.433 97.9933 137.175 97.9564 136.917 97.9194C136.659 97.8825 136.437 97.8825 136.179 97.8825C135.921 97.8825 135.7 97.9194 135.515 98.0302L135.958 96.5528C135.958 96.5528 136.253 96.4789 136.437 96.4789C136.622 96.4789 136.843 96.5528 137.064 96.5897C137.285 96.6266 137.507 96.7005 137.765 96.7744C138.023 96.8483 138.281 96.8852 138.539 96.9221C138.798 96.9221 139.019 96.996 139.277 96.996C139.498 96.996 139.72 96.996 139.941 96.9221C140.162 96.8483 140.31 96.7374 140.457 96.5528C140.605 96.405 140.752 96.1465 140.826 95.814L141.785 92.6005L137.544 91.3077L137.949 89.978L147.87 92.9699L146.469 97.6239H146.395ZM141.822 96.5528C141.822 96.8483 141.822 97.1068 141.859 97.3654C141.932 97.6239 142.043 97.8455 142.264 98.0302C142.449 98.2149 142.744 98.3627 143.076 98.4735C143.592 98.6212 144.035 98.6212 144.44 98.4365C144.846 98.2518 145.141 97.8455 145.325 97.2176L146.321 93.9303L142.854 92.896L142.006 95.6663C141.895 95.9618 141.859 96.2573 141.822 96.5528Z" fill="#EC9747"/>
<path d="M138.65 114.467L130.942 109.444L127.955 114.061L126.996 113.433L130.721 107.671L139.425 113.322L138.687 114.467H138.65Z" fill="#EC9747"/>
<path d="M130.131 121.153C130.463 121.744 130.647 122.371 130.721 123.036C130.795 123.701 130.721 124.329 130.536 124.994C130.352 125.659 129.946 126.287 129.356 126.878C128.803 127.469 128.176 127.875 127.549 128.134C126.922 128.392 126.258 128.466 125.595 128.429C124.931 128.392 124.304 128.207 123.677 127.912C123.05 127.616 122.497 127.21 121.98 126.73C121.464 126.25 121.058 125.696 120.726 125.105C120.395 124.514 120.21 123.886 120.136 123.221C120.063 122.556 120.136 121.928 120.358 121.263C120.579 120.599 120.948 120.008 121.538 119.38C122.128 118.752 122.718 118.382 123.345 118.124C123.972 117.865 124.636 117.791 125.3 117.828C125.963 117.865 126.59 118.05 127.18 118.345C127.807 118.641 128.361 119.047 128.877 119.527C129.393 120.008 129.799 120.562 130.131 121.153ZM126.664 119.601C126.185 119.343 125.742 119.195 125.226 119.121C124.746 119.047 124.23 119.121 123.751 119.269C123.271 119.417 122.792 119.749 122.349 120.192C121.907 120.635 121.648 121.116 121.501 121.633C121.353 122.113 121.353 122.63 121.427 123.11C121.501 123.59 121.685 124.071 121.98 124.514C122.239 124.957 122.57 125.363 122.939 125.733C123.308 126.102 123.751 126.398 124.193 126.656C124.636 126.915 125.115 127.062 125.631 127.136C126.111 127.21 126.627 127.136 127.107 126.989C127.586 126.841 128.066 126.508 128.508 126.065C128.951 125.622 129.209 125.142 129.356 124.625C129.504 124.108 129.504 123.627 129.43 123.147C129.319 122.667 129.135 122.187 128.877 121.744C128.619 121.3 128.287 120.894 127.918 120.525C127.549 120.155 127.107 119.86 126.664 119.601Z" fill="#EC9747"/>
<path d="M114.973 136.592C115.6 136.592 116.227 136.407 116.817 135.964C117.334 135.632 117.702 135.225 117.924 134.782C118.145 134.339 118.292 133.896 118.292 133.379C118.292 132.898 118.219 132.418 118.034 131.901C117.85 131.421 117.629 130.941 117.297 130.498C116.965 130.017 116.596 129.574 116.19 129.242C115.785 128.872 115.342 128.614 114.899 128.466C114.457 128.318 113.977 128.244 113.461 128.318C112.945 128.392 112.465 128.577 111.949 128.946C111.58 129.205 111.285 129.5 111.064 129.833C110.843 130.165 110.732 130.498 110.658 130.867C110.585 131.236 110.621 131.606 110.695 131.975C110.769 132.344 110.953 132.751 111.138 133.12L109.994 133.896C109.367 132.751 109.146 131.643 109.367 130.608C109.589 129.574 110.253 128.688 111.322 127.949C111.986 127.506 112.65 127.21 113.277 127.099C113.941 126.989 114.568 127.025 115.158 127.173C115.748 127.358 116.338 127.653 116.854 128.097C117.407 128.54 117.887 129.057 118.292 129.685C118.735 130.313 119.03 130.941 119.214 131.606C119.399 132.27 119.473 132.935 119.436 133.563C119.362 134.191 119.177 134.819 118.846 135.41C118.514 136.001 117.997 136.518 117.334 136.961C116.891 137.257 116.412 137.515 115.932 137.663C115.453 137.811 114.973 137.885 114.494 137.885C114.014 137.885 113.572 137.737 113.129 137.552C112.687 137.368 112.281 137.035 111.912 136.629L113.055 135.853C113.609 136.37 114.199 136.629 114.826 136.629L114.973 136.592Z" fill="#EC9747"/>
<path d="M104.278 143.906L96.4227 136.038L97.8241 135.41L100.111 137.811L104.131 136.038L103.946 132.714L105.237 132.16L105.68 143.278L104.278 143.869V143.906ZM100.959 138.697L104.462 142.428L104.131 137.294L100.922 138.697H100.959Z" fill="#EC9747"/>
<path d="M94.0993 147.414L91.9602 138.476L86.6126 139.769L86.3545 138.624L93.0297 136.998L95.4638 147.082L94.1361 147.414H94.0993Z" fill="#EC9747"/>
<path d="M70.3855 148.264C70.8281 148.633 71.4182 148.818 72.1189 148.855C72.4139 148.855 72.709 148.855 72.9671 148.818C73.2622 148.781 73.5203 148.67 73.7416 148.56C73.9629 148.449 74.1473 148.264 74.2948 148.042C74.4423 147.821 74.5161 147.525 74.5161 147.193C74.5161 146.86 74.4423 146.602 74.2579 146.417C74.0735 146.233 73.8154 146.048 73.5203 145.9C73.2253 145.752 72.8565 145.642 72.4508 145.531C72.0451 145.42 71.6763 145.309 71.2707 145.198C70.865 145.088 70.4593 144.94 70.0905 144.792C69.6848 144.644 69.3529 144.46 69.0579 144.201C68.7628 143.979 68.5047 143.684 68.3572 143.315C68.1728 142.982 68.099 142.539 68.1359 142.022C68.1359 141.468 68.3203 140.988 68.5784 140.618C68.8366 140.249 69.1685 139.916 69.5742 139.695C69.9799 139.473 70.4224 139.288 70.9019 139.215C71.3813 139.141 71.8607 139.104 72.3402 139.104C72.9302 139.104 73.4466 139.215 73.9629 139.399C74.4792 139.547 74.9218 139.806 75.2906 140.138C75.6593 140.433 75.9544 140.84 76.1757 141.32C76.3969 141.8 76.4707 142.354 76.4338 142.982H75.143C75.143 142.502 75.1062 142.096 74.9218 141.8C74.7742 141.468 74.553 141.209 74.2948 140.988C74.0366 140.766 73.7047 140.618 73.3359 140.507C72.9671 140.397 72.5983 140.323 72.2295 140.323C71.9345 140.323 71.6026 140.323 71.3075 140.36C71.0125 140.397 70.7175 140.507 70.4593 140.618C70.2011 140.766 69.9799 140.914 69.8323 141.172C69.6848 141.394 69.5742 141.726 69.5742 142.096C69.5742 142.465 69.6479 142.76 69.8323 142.982C70.0167 143.204 70.238 143.388 70.5699 143.573C70.865 143.721 71.2338 143.869 71.6026 143.942C71.9714 144.016 72.377 144.164 72.8196 144.275C73.2622 144.386 73.631 144.497 73.9998 144.644C74.4054 144.792 74.7374 144.977 75.0324 145.161C75.3274 145.383 75.5856 145.642 75.77 145.974C75.9544 146.306 76.0281 146.713 75.9913 147.156C75.9913 147.673 75.8437 148.116 75.6225 148.486C75.4012 148.855 75.1062 149.151 74.7374 149.372C74.3686 149.594 73.9629 149.778 73.5203 149.852C73.0778 149.926 72.5983 150 72.1189 149.963C71.6026 149.963 71.0863 149.852 70.6437 149.705C70.2011 149.557 69.7955 149.335 69.4635 149.077C69.1316 148.781 68.8735 148.449 68.6891 148.006C68.5047 147.599 68.4309 147.082 68.4309 146.528H69.7217C69.7586 147.341 70.0167 147.895 70.4593 148.227L70.3855 148.264Z" fill="#EC9747"/>
<path d="M63.0833 147.784L62.8252 148.929L54.7485 147.119L55.0066 145.974L58.3627 146.713L60.3911 137.737L61.7188 138.033L59.6904 147.008L63.0464 147.784H63.0833Z" fill="#EC9747"/>
<path d="M46.6349 133.711C47.5569 133.379 48.5896 133.452 49.8066 133.97C51.0236 134.487 51.8719 135.189 52.3144 136.075C52.757 136.961 52.7201 138.033 52.1669 139.288L49.5484 145.383L48.2945 144.829L50.913 138.734C51.2818 137.885 51.3187 137.146 51.0605 136.518C50.8024 135.89 50.2492 135.373 49.364 135.004C48.5527 134.671 47.852 134.598 47.225 134.856C46.5981 135.115 46.1186 135.669 45.7498 136.518L43.1314 142.613L41.8774 142.059L44.4959 135.964C45.0122 134.745 45.7498 133.97 46.6349 133.637V133.711Z" fill="#EC9747"/>
<path d="M33.0632 136.851C31.7355 135.964 30.961 134.93 30.7397 133.748C30.4816 132.603 30.8504 131.31 31.7724 129.944C32.2518 129.242 32.7681 128.651 33.3213 128.207C33.8745 127.764 34.4277 127.469 35.0178 127.321C35.6079 127.173 36.2348 127.173 36.8987 127.321C37.5625 127.469 38.2263 127.801 38.9271 128.281L41.8406 130.313L35.9767 138.845L33.0632 136.814V136.851ZM38.1895 129.205C38.1895 129.205 37.8944 129.02 37.6731 128.909C37.4887 128.798 37.2306 128.725 36.9724 128.651C36.7143 128.577 36.4192 128.54 36.1242 128.54C35.8292 128.54 35.4972 128.614 35.1653 128.725C34.8334 128.872 34.4646 129.057 34.0958 129.353C33.727 129.648 33.3582 130.054 33.0263 130.571C32.6944 131.089 32.3993 131.569 32.2518 132.049C32.1043 132.529 31.9937 132.972 32.0305 133.416C32.0674 133.859 32.2149 134.265 32.4731 134.671C32.7313 135.078 33.1369 135.447 33.6532 135.816L35.571 137.146L40.1441 130.498L38.2632 129.205H38.1895Z" fill="#EC9747"/>
<path d="M23.5482 129.168L30.6291 121.596L31.6249 122.519L24.5439 130.091L23.5482 129.131V129.168Z" fill="#EC9747"/>
<path d="M21.6304 122.852C21.0035 123.073 20.3396 123.184 19.6758 123.184C19.012 123.184 18.385 122.999 17.758 122.704C17.1311 122.408 16.5779 121.928 16.0616 121.263C15.5453 120.635 15.2502 119.97 15.1027 119.269C14.9552 118.604 14.9552 117.939 15.1027 117.311C15.2502 116.683 15.5084 116.055 15.8772 115.501C16.246 114.947 16.7254 114.43 17.2786 113.987C17.8318 113.543 18.4219 113.211 19.0857 112.989C19.7127 112.768 20.3765 112.657 21.0404 112.657C21.7042 112.657 22.3311 112.842 22.9212 113.137C23.5482 113.433 24.1014 113.913 24.6177 114.578C25.134 115.206 25.4659 115.87 25.6134 116.535C25.761 117.2 25.761 117.865 25.6134 118.493C25.4659 119.121 25.2078 119.749 24.839 120.303C24.4702 120.857 23.9907 121.374 23.4375 121.817C22.8843 122.261 22.2943 122.593 21.6304 122.815V122.852ZM23.6588 119.638C23.9907 119.232 24.212 118.752 24.3595 118.271C24.5071 117.791 24.5071 117.311 24.4333 116.794C24.3595 116.277 24.1014 115.797 23.7326 115.279C23.3638 114.762 22.9212 114.43 22.4418 114.208C21.9623 113.987 21.4829 113.913 21.0035 113.913C20.4872 113.913 20.0077 114.061 19.5283 114.245C19.0488 114.467 18.6063 114.725 18.2006 115.021C17.7949 115.316 17.4261 115.723 17.0942 116.129C16.7623 116.535 16.541 117.016 16.3935 117.496C16.246 117.976 16.246 118.456 16.3197 118.973C16.3935 119.49 16.6517 119.97 17.0205 120.488C17.3893 120.968 17.8318 121.337 18.3112 121.559C18.7907 121.78 19.2701 121.854 19.7496 121.817C20.2659 121.817 20.7453 121.67 21.2248 121.485C21.7042 121.263 22.1467 121.005 22.5524 120.709C22.9581 120.377 23.3269 120.007 23.6588 119.601V119.638Z" fill="#EC9747"/>
<path d="M133.856 17.9881L132.639 18.653L130.61 14.9224L124.156 11.4872L125.595 10.7116L130.684 13.5557L130.979 7.75663L132.344 6.98096L131.827 14.2575L133.856 17.9881Z" fill="#EC9747"/>
<path d="M138.281 7.86758C138.281 7.16578 138.392 6.53786 138.65 5.94687C138.908 5.35588 139.277 4.80183 139.756 4.32165C140.273 3.84148 140.9 3.50905 141.674 3.25049C142.449 2.99193 143.186 2.91806 143.85 3.02887C144.514 3.13968 145.141 3.3613 145.694 3.73067C146.247 4.10003 146.727 4.54327 147.096 5.09732C147.501 5.65138 147.796 6.2793 148.018 6.94416C148.239 7.60902 148.313 8.31082 148.313 8.97568C148.313 9.67748 148.165 10.3054 147.944 10.9333C147.722 11.5612 147.317 12.0784 146.837 12.5216C146.321 13.0018 145.694 13.3342 144.92 13.5928C144.145 13.8513 143.408 13.9252 142.707 13.8144C142.043 13.7036 141.416 13.482 140.863 13.1495C140.31 12.7802 139.83 12.3369 139.461 11.7829C139.056 11.2288 138.761 10.6009 138.539 9.93603C138.318 9.27117 138.208 8.56938 138.244 7.90452L138.281 7.86758ZM140.568 10.8964C140.863 11.3396 141.195 11.709 141.6 12.0045C142.006 12.3 142.449 12.5216 142.965 12.5955C143.481 12.7063 144.035 12.6694 144.625 12.4477C145.215 12.263 145.694 11.9676 146.063 11.5982C146.432 11.2288 146.69 10.7856 146.837 10.3423C146.985 9.86216 147.059 9.38198 147.022 8.82793C147.022 8.31082 146.911 7.7937 146.764 7.27659C146.616 6.79641 146.395 6.31624 146.1 5.873C145.805 5.42975 145.473 5.06039 145.067 4.76489C144.661 4.4694 144.219 4.28472 143.703 4.17391C143.186 4.0631 142.633 4.13697 142.043 4.32165C141.453 4.50634 140.973 4.80183 140.605 5.1712C140.236 5.54057 139.978 5.94687 139.83 6.42705C139.683 6.90722 139.609 7.3874 139.646 7.94145C139.646 8.45857 139.756 8.97568 139.904 9.49279C140.051 10.0099 140.273 10.4531 140.568 10.8964Z" fill="#EC9747"/>
<path d="M160.852 9.67742C160.225 10.4162 159.229 10.8225 157.938 10.9702C156.611 11.118 155.541 10.8963 154.73 10.3423C153.918 9.78823 153.439 8.82787 153.328 7.42428L152.701 0.812608L154.066 0.664861L154.73 7.27653C154.803 8.19995 155.135 8.86481 155.652 9.30805C156.205 9.75129 156.906 9.89904 157.828 9.82517C158.713 9.75129 159.34 9.41886 159.745 8.90175C160.151 8.38463 160.299 7.6459 160.225 6.72248L159.598 0.147747L160.962 0L161.589 6.57473C161.737 7.90446 161.479 8.93868 160.815 9.64048L160.852 9.67742Z" fill="#EC9747"/>
<path d="M172.616 0.517043C173.612 0.627853 174.35 0.923346 174.829 1.4774C175.345 2.03145 175.53 2.69631 175.456 3.54585C175.382 4.17378 175.198 4.69089 174.866 5.13413C174.534 5.57737 174.055 5.87287 173.391 5.98368C173.686 6.09449 173.907 6.2053 174.092 6.35304C174.276 6.50079 174.387 6.68547 174.497 6.87016C174.608 7.05484 174.645 7.27646 174.682 7.53502C174.682 7.75664 174.719 8.0152 174.719 8.27375C174.719 8.53231 174.719 8.79087 174.719 9.04942C174.719 9.30798 174.719 9.56654 174.719 9.8251C174.719 10.0837 174.755 10.3422 174.829 10.5638C174.866 10.7854 174.977 11.0071 175.087 11.1918L173.575 11.044C173.575 11.044 173.428 10.7854 173.428 10.6008C173.428 10.4161 173.428 10.1945 173.428 9.97284C173.428 9.75122 173.428 9.49267 173.465 9.23411C173.465 8.97555 173.465 8.71699 173.465 8.45844C173.465 8.19988 173.465 7.97826 173.391 7.7197C173.391 7.49808 173.28 7.27646 173.17 7.09178C173.059 6.90709 172.911 6.75935 172.727 6.64854C172.543 6.53773 172.284 6.46385 171.916 6.42692L168.56 6.09449L168.117 10.49L166.752 10.3422L167.785 0.0368652L172.653 0.517043H172.616ZM172.432 5.20801C172.727 5.20801 172.985 5.13413 173.206 4.98639C173.428 4.87558 173.612 4.69089 173.797 4.46927C173.944 4.24765 174.055 3.95216 174.092 3.58279C174.128 3.06568 174.055 2.62244 173.797 2.25307C173.538 1.8837 173.096 1.69902 172.432 1.62514L169.039 1.29271L168.67 4.91251L171.51 5.20801C171.842 5.20801 172.137 5.24494 172.432 5.20801Z" fill="#EC9747"/>
<path d="M190.614 4.87558L187.184 13.408L192.273 15.4395L191.831 16.5106L185.451 13.962L189.323 4.32153L190.614 4.83865V4.87558Z" fill="#EC9747"/>
<path d="M198.801 11.9307C199.317 11.4874 199.907 11.155 200.534 10.9703C201.161 10.7856 201.788 10.7118 202.489 10.7856C203.19 10.8595 203.854 11.1181 204.554 11.5613C205.255 12.0045 205.771 12.5217 206.14 13.1126C206.509 13.7036 206.73 14.3316 206.804 14.9595C206.878 15.5874 206.804 16.2523 206.656 16.9171C206.509 17.582 206.214 18.2099 205.808 18.8009C205.439 19.3919 204.96 19.909 204.444 20.3522C203.927 20.7955 203.337 21.1279 202.71 21.3126C202.083 21.4973 201.419 21.5712 200.756 21.4973C200.092 21.4234 199.391 21.1648 198.69 20.7216C197.99 20.2784 197.473 19.7613 197.105 19.1703C196.736 18.5793 196.514 17.9514 196.441 17.3234C196.367 16.6955 196.441 16.0306 196.588 15.3658C196.773 14.7009 197.031 14.073 197.436 13.482C197.805 12.891 198.285 12.3739 198.801 11.9307ZM197.953 15.6243C197.805 16.1415 197.732 16.6216 197.768 17.1387C197.768 17.6189 197.916 18.0991 198.174 18.5793C198.432 19.0225 198.801 19.4288 199.354 19.7613C199.871 20.0937 200.424 20.2784 200.903 20.3153C201.419 20.3522 201.899 20.3153 202.378 20.0937C202.858 19.909 203.263 19.6504 203.669 19.2811C204.075 18.9117 204.407 18.5423 204.665 18.0991C204.96 17.6559 205.181 17.1757 205.329 16.6955C205.476 16.1784 205.55 15.6982 205.513 15.1811C205.513 14.7009 205.366 14.2207 205.107 13.7406C204.849 13.2973 204.481 12.891 203.927 12.5586C203.411 12.2262 202.858 12.0415 202.341 12.0045C201.825 11.9676 201.346 12.0045 200.866 12.2262C200.387 12.4108 199.981 12.6694 199.575 13.0388C199.207 13.4081 198.838 13.8144 198.58 14.2207C198.285 14.664 198.063 15.1442 197.916 15.6243H197.953Z" fill="#EC9747"/>
<path d="M216.872 23.8611C216.761 23.2331 216.43 22.6791 215.913 22.162C215.471 21.7187 215.028 21.4602 214.549 21.3124C214.069 21.1647 213.59 21.1277 213.11 21.2386C212.631 21.3124 212.188 21.4971 211.709 21.7557C211.266 22.0142 210.861 22.3467 210.455 22.753C210.049 23.1593 209.717 23.6394 209.422 24.0827C209.164 24.5629 208.98 25.043 208.906 25.5232C208.832 26.0034 208.906 26.4836 209.054 26.9637C209.201 27.4439 209.496 27.8872 209.939 28.3304C210.271 28.6628 210.603 28.8845 210.971 29.0322C211.34 29.18 211.709 29.2169 212.078 29.2169C212.447 29.2169 212.815 29.1061 213.184 28.9583C213.553 28.8106 213.885 28.589 214.217 28.2935L215.213 29.2538C214.217 30.1034 213.184 30.5097 212.115 30.5097C211.045 30.5097 210.049 30.0295 209.127 29.1061C208.537 28.552 208.132 27.961 207.91 27.3331C207.689 26.7052 207.578 26.1142 207.652 25.4863C207.726 24.8584 207.91 24.2304 208.205 23.6394C208.537 23.0115 208.943 22.4575 209.459 21.9034C209.976 21.3494 210.566 20.9431 211.156 20.6106C211.783 20.2782 212.41 20.0935 213.037 20.0196C213.664 19.9458 214.327 20.0196 214.954 20.2413C215.581 20.4629 216.208 20.8692 216.761 21.4232C217.167 21.7926 217.462 22.2358 217.72 22.6422C217.978 23.0854 218.126 23.5286 218.2 24.0088C218.274 24.489 218.237 24.9322 218.126 25.4124C218.015 25.8926 217.794 26.3728 217.462 26.816L216.466 25.8556C216.872 25.2277 217.02 24.5998 216.872 23.9349V23.8611Z" fill="#EC9747"/>
<path d="M226.092 32.9844L219.896 42.2185L219.048 40.9627L220.966 38.2663L218.458 34.6465L215.249 35.4591L214.438 34.3141L225.244 31.7285L226.129 32.9844H226.092ZM221.63 37.2321L224.617 33.0582L219.638 34.351L221.63 37.2321Z" fill="#EC9747"/>
<path d="M231.513 42.3296L223.142 46.171L225.428 51.1575L224.359 51.6376L221.482 45.3953L230.886 41.0737L231.477 42.3296H231.513Z" fill="#EC9747"/>
<path d="M236.898 65.3411C237.156 64.824 237.23 64.233 237.119 63.5312C237.082 63.2357 237.008 62.9772 236.898 62.7186C236.787 62.4601 236.677 62.2015 236.492 62.0168C236.345 61.8321 236.123 61.6844 235.865 61.5736C235.607 61.4628 235.312 61.4628 234.98 61.4997C234.648 61.5366 234.427 61.6844 234.242 61.906C234.095 62.1276 233.947 62.3862 233.874 62.7186C233.8 63.0511 233.763 63.4204 233.726 63.8267C233.689 64.233 233.689 64.6393 233.652 65.0826C233.616 65.5258 233.579 65.9321 233.505 66.3384C233.431 66.7447 233.32 67.1141 233.136 67.4835C232.952 67.8528 232.73 68.1114 232.399 68.3699C232.103 68.6285 231.698 68.7762 231.181 68.8501C230.628 68.924 230.149 68.8501 229.743 68.7024C229.301 68.5177 228.969 68.2591 228.637 67.8898C228.342 67.5573 228.084 67.151 227.899 66.6709C227.715 66.2276 227.604 65.7474 227.53 65.2673C227.457 64.6763 227.42 64.1222 227.53 63.6051C227.604 63.088 227.752 62.5709 227.973 62.1646C228.194 61.7213 228.526 61.3889 228.932 61.0934C229.337 60.7979 229.854 60.6132 230.481 60.5024L230.665 61.7952C230.223 61.8691 229.891 62.0168 229.596 62.2015C229.301 62.4231 229.079 62.6817 228.932 62.9772C228.784 63.2727 228.674 63.6051 228.637 64.0114C228.6 64.3808 228.637 64.7501 228.637 65.1564C228.674 65.4519 228.747 65.7844 228.858 66.0799C228.969 66.3754 229.116 66.6339 229.301 66.8555C229.485 67.0772 229.706 67.2618 229.964 67.3727C230.223 67.4835 230.555 67.5204 230.923 67.4465C231.292 67.3727 231.55 67.2618 231.735 67.0402C231.919 66.8186 232.067 66.56 232.177 66.2276C232.288 65.8952 232.325 65.5258 232.362 65.1195C232.398 64.7132 232.398 64.3069 232.435 63.8637C232.435 63.4574 232.509 63.0141 232.583 62.6078C232.657 62.2015 232.73 61.8321 232.878 61.4628C233.025 61.1303 233.247 60.8349 233.542 60.6132C233.837 60.3916 234.206 60.2069 234.648 60.17C235.164 60.0961 235.644 60.1331 236.05 60.2808C236.455 60.4285 236.824 60.6502 237.119 60.9826C237.414 61.2781 237.672 61.6475 237.857 62.0907C238.041 62.5339 238.189 62.9772 238.262 63.4204C238.336 63.9375 238.373 64.4546 238.262 64.8979C238.189 65.3781 238.078 65.7844 237.857 66.1907C237.635 66.56 237.34 66.8925 236.972 67.151C236.603 67.4096 236.123 67.5943 235.57 67.7051L235.386 66.4123C236.123 66.2276 236.603 65.8582 236.861 65.3781L236.898 65.3411Z" fill="#EC9747"/>
<path d="M237.857 72.5806H239L238.779 80.8913H237.635L237.709 77.4193L228.526 77.1977V75.831L237.746 76.0526L237.82 72.5806H237.857Z" fill="#EC9747"/>
<path d="M227.235 91.6031C226.719 90.7905 226.608 89.7193 226.903 88.4265C227.198 87.1338 227.715 86.1734 228.489 85.5824C229.264 84.9914 230.333 84.8067 231.698 85.1022L238.152 86.4689L237.857 87.8356L231.403 86.4689C230.481 86.2842 229.743 86.3581 229.19 86.7644C228.6 87.1338 228.231 87.7986 228.047 88.722C227.862 89.5716 227.973 90.2734 228.342 90.8274C228.711 91.3815 229.337 91.7508 230.259 91.9355L236.713 93.3022L236.418 94.6688L229.964 93.3022C228.674 93.0436 227.752 92.4896 227.272 91.64L227.235 91.6031Z" fill="#EC9747"/>
<path d="M232.952 104.235C232.325 105.713 231.477 106.673 230.37 107.153C229.301 107.634 227.973 107.523 226.461 106.858C225.65 106.525 224.986 106.119 224.469 105.676C223.916 105.233 223.547 104.716 223.252 104.162C222.957 103.607 222.884 102.98 222.884 102.315C222.884 101.65 223.105 100.911 223.437 100.135L224.838 96.885L234.353 100.985L232.952 104.235ZM224.469 100.689C224.469 100.689 224.359 101.022 224.285 101.244C224.211 101.465 224.174 101.724 224.137 101.982C224.137 102.278 224.137 102.536 224.211 102.869C224.285 103.164 224.396 103.497 224.58 103.792C224.764 104.088 225.059 104.383 225.428 104.716C225.797 105.011 226.276 105.307 226.83 105.528C227.383 105.787 227.936 105.935 228.415 106.008C228.895 106.082 229.374 106.082 229.78 105.971C230.223 105.861 230.591 105.639 230.923 105.307C231.255 104.974 231.55 104.531 231.808 103.94L232.73 101.798L225.354 98.621L224.432 100.726L224.469 100.689Z" fill="#EC9747"/>
<path d="M227.309 115.021L218.495 109.554L219.232 108.372L228.047 113.839L227.309 115.021Z" fill="#EC9747"/>
<path d="M221.482 118.198C221.851 118.789 222.072 119.416 222.183 120.044C222.293 120.672 222.257 121.337 222.072 122.002C221.888 122.667 221.556 123.295 221.003 123.923C220.449 124.551 219.896 124.994 219.232 125.289C218.605 125.548 217.942 125.696 217.315 125.659C216.688 125.622 216.024 125.511 215.397 125.216C214.77 124.92 214.18 124.588 213.664 124.107C213.147 123.627 212.668 123.11 212.336 122.519C211.967 121.928 211.746 121.3 211.635 120.672C211.525 120.044 211.561 119.38 211.746 118.715C211.93 118.05 212.299 117.422 212.815 116.794C213.332 116.166 213.922 115.723 214.549 115.427C215.176 115.132 215.803 115.021 216.466 115.021C217.13 115.021 217.757 115.169 218.384 115.427C219.011 115.686 219.601 116.055 220.118 116.535C220.671 116.979 221.113 117.533 221.445 118.087L221.482 118.198ZM217.942 116.794C217.462 116.572 216.983 116.425 216.503 116.388C216.024 116.351 215.508 116.388 215.028 116.609C214.549 116.794 214.106 117.126 213.7 117.607C213.295 118.087 213.037 118.567 212.926 119.084C212.815 119.601 212.815 120.081 212.926 120.562C213.037 121.042 213.258 121.522 213.553 121.965C213.848 122.408 214.18 122.778 214.586 123.147C214.991 123.48 215.397 123.775 215.876 123.997C216.356 124.218 216.835 124.366 217.315 124.403C217.794 124.44 218.31 124.403 218.79 124.181C219.269 123.997 219.712 123.664 220.118 123.184C220.523 122.704 220.781 122.224 220.892 121.707C221.003 121.189 221.003 120.709 220.892 120.229C220.781 119.749 220.56 119.269 220.265 118.862C219.97 118.419 219.638 118.05 219.232 117.68C218.827 117.348 218.421 117.053 217.942 116.831V116.794Z" fill="#EC9747"/>
<path d="M196.256 130.867L197.436 130.165L199.575 133.822L206.14 137.072L204.739 137.922L199.575 135.262L199.465 141.061L198.1 141.874L198.395 134.561L196.256 130.904V130.867Z" fill="#EC9747"/>
<path d="M192.089 141.135C192.089 141.837 192.015 142.465 191.757 143.093C191.536 143.721 191.167 144.238 190.687 144.755C190.208 145.235 189.581 145.605 188.807 145.9C188.032 146.159 187.295 146.269 186.631 146.196C185.967 146.122 185.34 145.9 184.787 145.568C184.233 145.235 183.754 144.792 183.348 144.238C182.943 143.684 182.611 143.093 182.389 142.428C182.168 141.763 182.021 141.098 182.021 140.397C182.021 139.695 182.094 139.067 182.316 138.439C182.537 137.811 182.906 137.294 183.385 136.777C183.865 136.26 184.492 135.927 185.266 135.632C186.041 135.373 186.778 135.262 187.442 135.336C188.106 135.41 188.733 135.632 189.286 135.964C189.839 136.297 190.319 136.74 190.724 137.294C191.13 137.848 191.462 138.439 191.683 139.104C191.904 139.769 192.052 140.433 192.052 141.135H192.089ZM189.729 138.18C189.434 137.737 189.102 137.368 188.659 137.109C188.253 136.814 187.774 136.629 187.295 136.555C186.778 136.481 186.225 136.555 185.635 136.74C185.045 136.961 184.565 137.257 184.233 137.626C183.865 137.996 183.643 138.439 183.496 138.919C183.348 139.399 183.311 139.916 183.348 140.433C183.348 140.951 183.496 141.468 183.643 141.948C183.828 142.428 184.049 142.908 184.344 143.351C184.639 143.795 184.971 144.127 185.414 144.423C185.819 144.718 186.262 144.903 186.778 144.977C187.295 145.051 187.848 144.977 188.438 144.792C189.028 144.57 189.507 144.275 189.839 143.906C190.171 143.536 190.429 143.093 190.577 142.613C190.724 142.133 190.761 141.615 190.724 141.098C190.687 140.581 190.577 140.064 190.429 139.584C190.245 139.104 190.024 138.624 189.729 138.18Z" fill="#EC9747"/>
<path d="M169.666 140.027C170.293 139.288 171.215 138.808 172.543 138.623C173.87 138.439 174.94 138.623 175.788 139.178C176.599 139.695 177.116 140.655 177.3 142.022L178.148 148.596L176.784 148.781L175.936 142.206C175.825 141.283 175.493 140.618 174.94 140.212C174.387 139.805 173.649 139.658 172.727 139.768C171.842 139.879 171.215 140.212 170.846 140.729C170.44 141.246 170.33 141.985 170.44 142.908L171.289 149.483L169.924 149.668L169.076 143.093C168.891 141.763 169.113 140.729 169.74 139.99L169.666 140.027Z" fill="#EC9747"/>
<path d="M158.159 149.557C157.164 149.483 156.426 149.187 155.91 148.67C155.393 148.153 155.135 147.488 155.209 146.639C155.246 146.011 155.43 145.457 155.762 145.013C156.094 144.57 156.574 144.275 157.201 144.127C156.906 144.016 156.684 143.905 156.5 143.758C156.315 143.61 156.168 143.425 156.094 143.241C155.984 143.056 155.947 142.834 155.873 142.576C155.873 142.354 155.799 142.096 155.799 141.837C155.799 141.578 155.799 141.32 155.799 141.061C155.799 140.803 155.799 140.544 155.799 140.286C155.799 140.027 155.725 139.805 155.689 139.547C155.652 139.325 155.541 139.104 155.393 138.919L156.942 139.03C156.942 139.03 157.09 139.288 157.09 139.473C157.09 139.658 157.09 139.879 157.09 140.101C157.09 140.323 157.09 140.581 157.09 140.84C157.09 141.098 157.09 141.357 157.09 141.615C157.09 141.874 157.127 142.096 157.201 142.354C157.237 142.576 157.311 142.797 157.422 142.982C157.533 143.167 157.68 143.314 157.901 143.425C158.086 143.536 158.344 143.61 158.713 143.61L162.069 143.832L162.364 139.399L163.728 139.473L163.028 149.815L158.159 149.483V149.557ZM158.159 144.829C157.864 144.829 157.606 144.94 157.385 145.05C157.164 145.161 156.979 145.346 156.832 145.568C156.684 145.789 156.611 146.085 156.574 146.491C156.574 147.008 156.647 147.451 156.906 147.784C157.164 148.116 157.643 148.338 158.27 148.375L161.7 148.596L161.958 144.977L159.081 144.792C158.75 144.792 158.455 144.792 158.159 144.792V144.829Z" fill="#EC9747"/>
<path d="M140.051 145.789L143.186 137.146L138.023 135.262L138.429 134.154L144.883 136.481L141.342 146.232L140.051 145.752V145.789Z" fill="#EC9747"/>
<path d="M131.606 138.956C131.09 139.399 130.537 139.769 129.91 139.99C129.283 140.212 128.656 140.286 127.955 140.249C127.254 140.175 126.553 139.953 125.853 139.547C125.152 139.141 124.599 138.623 124.23 138.069C123.861 137.515 123.603 136.887 123.492 136.26C123.382 135.595 123.419 134.967 123.566 134.265C123.714 133.563 123.972 132.972 124.341 132.344C124.709 131.753 125.152 131.199 125.631 130.756C126.148 130.313 126.701 129.943 127.328 129.722C127.955 129.5 128.582 129.426 129.283 129.5C129.946 129.574 130.647 129.796 131.385 130.239C132.085 130.645 132.639 131.162 133.007 131.716C133.376 132.27 133.634 132.898 133.745 133.563C133.856 134.191 133.819 134.856 133.671 135.521C133.524 136.186 133.266 136.814 132.897 137.442C132.528 138.069 132.085 138.587 131.606 139.03V138.956ZM132.344 135.225C132.491 134.708 132.528 134.228 132.491 133.711C132.454 133.231 132.307 132.751 132.049 132.307C131.79 131.864 131.385 131.495 130.832 131.162C130.278 130.83 129.762 130.682 129.246 130.645C128.729 130.645 128.25 130.719 127.771 130.904C127.291 131.088 126.885 131.384 126.517 131.753C126.148 132.123 125.816 132.529 125.558 132.972C125.3 133.415 125.078 133.896 124.931 134.413C124.783 134.93 124.746 135.41 124.783 135.927C124.82 136.407 124.968 136.887 125.263 137.331C125.521 137.774 125.927 138.143 126.48 138.476C127.033 138.808 127.549 138.956 128.066 138.993C128.582 138.993 129.061 138.919 129.541 138.734C129.983 138.55 130.426 138.254 130.795 137.885C131.163 137.515 131.495 137.109 131.754 136.666C132.012 136.223 132.233 135.742 132.38 135.225H132.344Z" fill="#EC9747"/>
<path d="M105.606 121.485L111.101 111.807L112.06 112.989L110.363 115.833L113.129 119.232L116.301 118.16L117.186 119.269L106.601 122.667L105.643 121.485H105.606ZM109.736 116.905L107.081 121.3L111.949 119.638L109.736 116.905Z" fill="#EC9747"/>
<path d="M99.5575 112.657L107.597 108.188L104.942 103.386L105.975 102.832L109.331 108.816L100.295 113.876L99.6312 112.657H99.5575Z" fill="#EC9747"/>
<path d="M92.3659 89.9778C92.1446 90.4949 92.1077 91.1228 92.2921 91.8246C92.3659 92.1201 92.4397 92.3787 92.5872 92.6372C92.6978 92.8958 92.8453 93.1174 93.0297 93.3021C93.2141 93.4868 93.4354 93.5976 93.6936 93.6715C93.9517 93.7453 94.2468 93.7453 94.5787 93.6715C94.8737 93.5976 95.1319 93.4498 95.2794 93.2282C95.4269 93.0066 95.5376 92.7111 95.5744 92.3787C95.6113 92.0462 95.6482 91.6769 95.6482 91.2706C95.6482 90.8643 95.6482 90.458 95.6482 90.0147C95.6482 89.6084 95.6482 89.1652 95.722 88.7589C95.722 88.3526 95.8695 87.9463 95.9801 87.6138C96.1276 87.2445 96.3489 86.949 96.644 86.6904C96.939 86.4319 97.3447 86.2472 97.8241 86.1364C98.3404 86.0255 98.8567 86.0256 99.2993 86.1733C99.7419 86.321 100.111 86.5796 100.443 86.8751C100.774 87.2075 101.033 87.5769 101.254 88.0201C101.475 88.4634 101.623 88.9066 101.733 89.3868C101.881 89.9408 101.918 90.4949 101.881 91.0489C101.881 91.603 101.733 92.0832 101.549 92.5264C101.365 92.9696 101.07 93.376 100.664 93.6715C100.258 94.0039 99.7787 94.2255 99.1518 94.3732L98.8567 93.1174C99.2993 93.0066 99.6312 92.8588 99.8894 92.6003C100.148 92.3787 100.369 92.0832 100.479 91.7877C100.59 91.4922 100.701 91.1228 100.701 90.7534C100.701 90.3841 100.701 89.9778 100.59 89.6084C100.516 89.3129 100.443 89.0174 100.295 88.7219C100.184 88.4264 100 88.1679 99.8156 87.9463C99.6312 87.7246 99.3731 87.5769 99.1149 87.4661C98.8567 87.3553 98.5248 87.3553 98.156 87.4661C97.8241 87.54 97.5291 87.6877 97.3815 87.9463C97.1971 88.1679 97.0865 88.4634 97.0127 88.7958C96.939 89.1282 96.9021 89.4976 96.9021 89.9039C96.9021 90.3102 96.9021 90.7165 96.9021 91.1598C96.9021 91.5661 96.9021 92.0093 96.8652 92.4156C96.8652 92.8219 96.7546 93.2282 96.644 93.5606C96.5333 93.8931 96.3489 94.2255 96.0539 94.4841C95.7957 94.7426 95.4269 94.9273 94.9844 95.0381C94.468 95.1489 94.0255 95.1489 93.5829 95.0381C93.1772 94.9273 92.8084 94.7057 92.4765 94.4102C92.1446 94.1147 91.8865 93.7823 91.6652 93.339C91.4439 92.9327 91.2964 92.4895 91.1857 92.0462C91.0751 91.5291 91.0013 91.0489 91.0382 90.5688C91.0382 90.0886 91.1489 89.6453 91.3333 89.276C91.5177 88.8697 91.7758 88.5372 92.1446 88.2418C92.5134 87.9463 92.956 87.7246 93.5092 87.5769L93.8042 88.8697C93.1035 89.1282 92.624 89.4976 92.4028 90.0147L92.3659 89.9778Z" fill="#EC9747"/>
<path d="M90.8907 82.8859L89.7474 82.9598L89.3049 74.6859L90.4481 74.6121L90.6325 78.0841L99.8156 77.6039L99.8894 78.9706L90.7063 79.4508L90.8907 82.8859Z" fill="#EC9747"/>
<path d="M100 63.2357C100.553 64.0114 100.774 65.0825 100.59 66.3753C100.406 67.705 99.9631 68.7023 99.2255 69.3672C98.4879 70.0321 97.4553 70.2537 96.0908 70.069L89.5262 69.1825L89.7105 67.8159L96.2752 68.7023C97.1972 68.8131 97.9347 68.7023 98.4511 68.2591C99.0043 67.8159 99.3362 67.151 99.4468 66.2276C99.5575 65.3411 99.4468 64.6393 99.0043 64.1222C98.5986 63.6051 97.9347 63.2726 97.0127 63.1618L90.4481 62.2754L90.6325 60.9087L97.1972 61.7952C98.5248 61.9799 99.4468 62.46 100 63.2357Z" fill="#EC9747"/>
<path d="M93.3248 51.0097C93.8411 49.4953 94.6156 48.461 95.6851 47.907C96.7177 47.3529 98.0454 47.3529 99.6312 47.907C100.443 48.2025 101.143 48.5349 101.733 48.9412C102.323 49.3475 102.729 49.8277 103.061 50.3448C103.356 50.8619 103.54 51.4899 103.54 52.1547C103.54 52.8196 103.43 53.5583 103.172 54.4079L102.028 57.7691L92.2184 54.4079L93.3617 51.0466L93.3248 51.0097ZM102.065 53.8907C102.065 53.8907 102.176 53.5583 102.213 53.3367C102.25 53.1151 102.287 52.8565 102.287 52.598C102.287 52.3025 102.25 52.0439 102.139 51.7484C102.065 51.4529 101.918 51.1574 101.696 50.8619C101.475 50.5664 101.18 50.2709 100.811 50.0124C100.443 49.7538 99.9263 49.4953 99.3362 49.3106C98.7461 49.089 98.1929 48.9782 97.7135 48.9412C97.234 48.9043 96.7546 48.9412 96.3489 49.089C95.9432 49.2367 95.5744 49.4953 95.2794 49.8277C94.9844 50.1601 94.7262 50.6772 94.5049 51.2682L93.7673 53.4475L101.365 56.07L102.102 53.8907H102.065Z" fill="#EC9747"/>
<path d="M98.1191 39.7808L107.302 44.5456L106.675 45.7645L97.4922 40.9997L98.1191 39.7808Z" fill="#EC9747"/>
<path d="M103.725 36.1608C103.319 35.6067 103.061 35.0157 102.877 34.3878C102.729 33.7599 102.692 33.095 102.84 32.4302C102.95 31.7653 103.282 31.1004 103.762 30.4356C104.241 29.7707 104.794 29.2905 105.421 28.9581C106.048 28.6257 106.675 28.4779 107.302 28.4041C107.966 28.4041 108.593 28.4779 109.257 28.6995C109.921 28.9212 110.511 29.2536 111.101 29.6599C111.654 30.0662 112.17 30.5833 112.539 31.1374C112.945 31.6914 113.24 32.2824 113.387 32.9103C113.535 33.5383 113.572 34.2031 113.424 34.868C113.277 35.5328 112.982 36.1977 112.502 36.8626C112.023 37.5274 111.47 38.0076 110.88 38.34C110.29 38.6725 109.663 38.8571 108.999 38.8941C108.335 38.931 107.708 38.8571 107.044 38.6355C106.38 38.4139 105.79 38.0815 105.2 37.6752C104.647 37.2689 104.131 36.7518 103.762 36.1977L103.725 36.1608ZM107.376 37.2689C107.855 37.4535 108.372 37.5644 108.851 37.5644C109.331 37.5644 109.847 37.4535 110.29 37.2319C110.769 37.0103 111.175 36.6409 111.543 36.1608C111.912 35.6436 112.134 35.1265 112.207 34.6094C112.281 34.0923 112.207 33.6121 112.097 33.132C111.949 32.6518 111.691 32.2085 111.359 31.8022C111.027 31.3959 110.658 31.0266 110.253 30.7311C109.847 30.4356 109.368 30.177 108.888 29.9923C108.409 29.8076 107.892 29.6968 107.413 29.6968C106.897 29.6968 106.417 29.8076 105.975 30.0293C105.495 30.2509 105.089 30.6203 104.721 31.1004C104.352 31.6175 104.131 32.1347 104.057 32.6148C103.983 33.132 104.057 33.6121 104.167 34.0923C104.315 34.5725 104.573 35.0157 104.905 35.422C105.237 35.8283 105.606 36.1977 106.011 36.4932C106.417 36.7887 106.897 37.0472 107.376 37.2319V37.2689Z" fill="#EC9747"/>
<path d="M52.5357 65.1563H59.1372C60.3542 65.1563 61.4237 65.3779 62.3089 65.7842C63.194 66.1906 63.9316 66.7815 64.4848 67.4833C65.038 68.1851 65.4805 69.0716 65.7387 70.032C65.9968 70.9923 66.1444 72.0266 66.1444 73.1347C66.1444 74.2428 65.9968 75.277 65.7387 76.2373C65.4805 77.1977 65.038 78.0472 64.4848 78.786C63.9316 79.5247 63.194 80.0788 62.3089 80.4851C61.4237 80.8914 60.3542 81.113 59.1372 81.113H52.5357V65.1194V65.1563ZM55.3386 78.8598H58.1046C59.1741 78.8598 60.0961 78.7121 60.7599 78.4166C61.4237 78.1211 62.0138 77.7148 62.3826 77.1977C62.7883 76.6806 63.0464 76.0896 63.194 75.3878C63.3415 74.686 63.4152 73.9473 63.4152 73.1347C63.4152 72.322 63.3415 71.5833 63.194 70.8815C63.0464 70.1797 62.7883 69.5887 62.3826 69.0716C61.9769 68.5545 61.4237 68.1482 60.7599 67.8527C60.0961 67.5572 59.1741 67.4095 58.1046 67.4095H55.3386V78.8229V78.8598Z" fill="#EC9747"/>
<path d="M111.986 65.1563H119.03C120.173 65.1563 121.095 65.3041 121.796 65.6365C122.497 65.9689 123.05 66.3752 123.456 66.8554C123.861 67.3356 124.119 67.8896 124.267 68.4806C124.414 69.0716 124.488 69.5887 124.488 70.1058C124.488 70.623 124.414 71.1401 124.267 71.6941C124.119 72.2851 123.861 72.8022 123.456 73.2824C123.087 73.7626 122.534 74.1689 121.796 74.5013C121.095 74.8337 120.173 74.9815 119.03 74.9815H114.789V81.113H111.986V65.1194V65.1563ZM114.789 72.7284H118.882C119.178 72.7284 119.509 72.6914 119.841 72.5806C120.173 72.5067 120.468 72.359 120.763 72.1374C121.058 71.9527 121.28 71.6572 121.427 71.3248C121.575 70.9923 121.685 70.586 121.685 70.0689C121.685 69.5518 121.612 69.1086 121.464 68.7761C121.317 68.4437 121.132 68.1482 120.874 67.9635C120.616 67.7788 120.321 67.6311 119.989 67.5572C119.657 67.4833 119.325 67.4464 118.956 67.4464H114.826V72.7284H114.789Z" fill="#EC9747"/>
<path d="M174.165 75.7942C174.165 76.4221 174.276 76.9393 174.46 77.3456C174.682 77.7888 174.977 78.1212 175.345 78.4167C175.714 78.7122 176.157 78.8969 176.636 79.0077C177.116 79.1185 177.632 79.1924 178.222 79.1924C178.849 79.1924 179.365 79.1185 179.771 78.9708C180.214 78.823 180.545 78.6383 180.804 78.4167C181.062 78.1951 181.283 77.9366 181.394 77.6411C181.504 77.3456 181.578 77.0501 181.578 76.7546C181.578 76.1267 181.431 75.6834 181.172 75.3879C180.877 75.0924 180.582 74.9077 180.25 74.76C179.697 74.5384 179.033 74.3537 178.259 74.169C177.521 73.9843 176.562 73.7258 175.493 73.4303C174.792 73.2456 174.239 73.024 173.796 72.7285C173.354 72.433 172.985 72.1005 172.727 71.7681C172.469 71.3988 172.284 71.0294 172.174 70.6231C172.063 70.2168 171.989 69.8105 171.989 69.4042C171.989 68.5916 172.174 67.8898 172.506 67.2988C172.838 66.7078 173.28 66.2276 173.833 65.8213C174.387 65.415 175.014 65.1564 175.714 64.9718C176.415 64.7871 177.116 64.6763 177.853 64.6763C178.702 64.6763 179.476 64.7871 180.214 65.0087C180.951 65.2303 181.615 65.5628 182.168 65.9691C182.721 66.3754 183.164 66.9294 183.496 67.5573C183.828 68.1853 183.975 68.924 183.975 69.7735H181.172C181.099 68.7393 180.73 68.0006 180.14 67.5943C179.513 67.151 178.702 66.9663 177.743 66.9663C177.411 66.9663 177.079 66.9663 176.747 67.0772C176.415 67.151 176.083 67.2618 175.825 67.4096C175.53 67.5573 175.309 67.779 175.124 68.0375C174.94 68.2961 174.829 68.6285 174.829 69.0348C174.829 69.5889 175.014 70.0321 175.345 70.3645C175.677 70.6969 176.157 70.9186 176.71 71.1033C176.784 71.1033 177.005 71.1771 177.411 71.2879C177.816 71.3987 178.296 71.5096 178.775 71.6573C179.292 71.8051 179.771 71.9159 180.25 72.0636C180.73 72.1744 181.062 72.2852 181.283 72.3591C181.799 72.5069 182.242 72.7285 182.648 73.024C183.053 73.3195 183.348 73.615 183.607 73.9843C183.865 74.3537 184.049 74.76 184.197 75.1663C184.307 75.5726 184.381 76.0158 184.381 76.4221C184.381 77.3086 184.197 78.0843 183.828 78.7122C183.459 79.3401 182.98 79.8573 182.389 80.2636C181.799 80.6699 181.099 80.9654 180.361 81.15C179.587 81.3347 178.812 81.4455 178.038 81.4455C177.116 81.4455 176.267 81.3347 175.456 81.1131C174.645 80.8915 173.944 80.5591 173.354 80.0789C172.764 79.5987 172.284 79.0077 171.916 78.3059C171.547 77.6041 171.362 76.7176 171.362 75.7573H174.165V75.7942Z" fill="#EC9747"/>
</g>
<defs>
<clipPath id="clip0_1_662">
<rect width="238.686" height="150" fill="white" transform="translate(0.313904)"/>
</clipPath>
</defs>
</svg>
