<svg width="95" height="101" viewBox="0 0 95 101" fill="none" xmlns="http://www.w3.org/2000/svg">
<g clip-path="url(#clip0_19_5201)">
<path d="M93.0909 29.2378H71.6987V71.4241H93.0909V29.2378Z" fill="#F2F2F2"/>
<path d="M28.0025 81.6348L29.7549 91.8481L20.5834 87.0245L11.4118 91.8481L13.1618 81.6348L5.74268 74.402L15.9976 72.9118L20.5834 63.6177L25.1691 72.9118L25.0638 80.2329L28.0025 81.6348Z" fill="#F2F2F2"/>
<path d="M85.1542 47.6813H61.892C61.2155 47.6813 60.6665 47.1323 60.6665 46.4558C60.6665 45.7794 61.2155 45.2303 61.892 45.2303H85.1542C85.8307 45.2303 86.3797 45.7794 86.3797 46.4558C86.3797 47.1323 85.8307 47.6813 85.1542 47.6813Z" fill="#221F20"/>
<path d="M85.1542 63.3676H61.892C61.2155 63.3676 60.6665 62.8186 60.6665 62.1421C60.6665 61.4656 61.2155 60.9166 61.892 60.9166H85.1542C85.8307 60.9166 86.3797 61.4656 86.3797 62.1421C86.3797 62.8186 85.8307 63.3676 85.1542 63.3676Z" fill="#221F20"/>
<path d="M73.5366 55.5245H61.8944C61.218 55.5245 60.6689 54.9754 60.6689 54.299C60.6689 53.6225 61.218 53.0735 61.8944 53.0735H73.5366C74.2131 53.0735 74.7621 53.6225 74.7621 54.299C74.7621 54.9754 74.2131 55.5245 73.5366 55.5245Z" fill="#221F20"/>
<path d="M85.1788 55.4485H76.5072C75.8308 55.4485 75.2817 54.8995 75.2817 54.223C75.2817 53.5466 75.8308 52.9976 76.5072 52.9976H85.1788C85.8553 52.9976 86.4043 53.5466 86.4043 54.223C86.4043 54.8995 85.8553 55.4485 85.1788 55.4485Z" fill="#221F20"/>
<path d="M29.7549 93.0736C29.5613 93.0736 29.3652 93.027 29.1838 92.9339L20.5833 88.4118L11.9828 92.9339C11.5686 93.152 11.0686 93.1152 10.6912 92.8407C10.3137 92.5662 10.125 92.103 10.2034 91.6422L11.8456 82.0638L4.88723 75.2795C4.5539 74.9535 4.4338 74.4657 4.57841 74.0246C4.72302 73.5809 5.10537 73.2574 5.5686 73.1912L15.1863 71.7942L19.4877 63.0809C19.6936 62.6618 20.1201 62.3971 20.5858 62.3971C21.0514 62.3971 21.4779 62.6618 21.6838 63.0809L26.2696 72.3726C26.5686 72.9804 26.3211 73.7133 25.7132 74.0147C25.1054 74.3138 24.3725 74.0662 24.0711 73.4584L20.5833 66.3922L17.0956 73.4584C16.9166 73.8211 16.5711 74.0711 16.174 74.1299L8.37743 75.2623L14.0196 80.7623C14.3088 81.0442 14.4412 81.4486 14.3725 81.8481L13.0416 89.6128L20.0147 85.9461C20.3725 85.7574 20.799 85.7574 21.1544 85.9461L28.1274 89.6128L26.7965 81.8456C26.6813 81.179 27.1299 80.5442 27.7965 80.4314C28.4608 80.3138 29.098 80.7647 29.2108 81.4314L30.9632 91.6446C31.0416 92.1054 30.8529 92.5687 30.4755 92.8432C30.2622 92.9976 30.0098 93.0785 29.7549 93.0785V93.0736Z" fill="#221F20"/>
<path d="M93.0881 72.652H53.8822C53.2058 72.652 52.6567 72.1029 52.6567 71.4265V1.72549C52.6567 1.04902 53.2058 0.5 53.8822 0.5H93.0881C93.7646 0.5 94.3136 1.04902 94.3136 1.72549V71.4265C94.3136 72.1029 93.7646 72.652 93.0881 72.652ZM55.1077 70.201H91.8626V2.95098H55.1077V70.201Z" fill="#221F20"/>
<path d="M77.8186 100.5H1.22549C0.54902 100.5 0 99.951 0 99.2745V56.1912C0 55.5147 0.54902 54.9657 1.22549 54.9657H25.1618C25.8382 54.9657 26.3873 55.5147 26.3873 56.1912C26.3873 56.8677 25.8382 57.4167 25.1618 57.4167H2.45098V98.049H76.5931V80.2329C76.5931 79.5564 77.1422 79.0074 77.8186 79.0074C78.4951 79.0074 79.0441 79.5564 79.0441 80.2329V99.2745C79.0441 99.951 78.4951 100.5 77.8186 100.5Z" fill="#221F20"/>
<path d="M86.6272 81.4583H25.1615C24.4851 81.4583 23.936 80.9093 23.936 80.2328V18.7671C23.936 18.0906 24.4851 17.5416 25.1615 17.5416H53.8846C54.561 17.5416 55.1101 18.0906 55.1101 18.7671C55.1101 19.4436 54.561 19.9926 53.8846 19.9926H26.387V79.0073H85.4017V71.424C85.4017 70.7475 85.9507 70.1985 86.6272 70.1985C87.3037 70.1985 87.8527 70.7475 87.8527 71.424V80.2328C87.8527 80.9093 87.3037 81.4583 86.6272 81.4583Z" fill="#221F20"/>
<path d="M71.6983 93.3921H36.4042C35.7277 93.3921 35.1787 92.8431 35.1787 92.1667C35.1787 91.4902 35.7277 90.9412 36.4042 90.9412H71.6983C72.3748 90.9412 72.9238 91.4902 72.9238 92.1667C72.9238 92.8431 72.3748 93.3921 71.6983 93.3921Z" fill="#221F20"/>
<path d="M71.6983 88.0001H36.4042C35.7277 88.0001 35.1787 87.451 35.1787 86.7746C35.1787 86.0981 35.7277 85.5491 36.4042 85.5491H71.6983C72.3748 85.5491 72.9238 86.0981 72.9238 86.7746C72.9238 87.451 72.3748 88.0001 71.6983 88.0001Z" fill="#221F20"/>
</g>
<defs>
<clipPath id="clip0_19_5201">
<rect width="94.3137" height="100" fill="white" transform="translate(0 0.5)"/>
</clipPath>
</defs>
</svg>
