<svg width="170" height="170" viewBox="0 0 170 170" fill="none" xmlns="http://www.w3.org/2000/svg">
<path d="M85.0035 169C38.6796 169 1 131.32 1 85.0035C1 38.6867 38.6796 1 85.0035 1C131.327 1 169 38.6796 169 85.0035C169 131.327 131.32 169 85.0035 169ZM85.0035 2.248C39.3706 2.248 2.248 39.3706 2.248 85.0035C2.248 130.636 39.3706 167.759 85.0035 167.759C130.636 167.759 167.759 130.636 167.759 85.0035C167.759 39.3706 130.629 2.248 85.0035 2.248Z" fill="#EC9747" stroke="#EC9747"/>
<path d="M126.244 80.5683C125.384 78.7562 124.312 77.0429 123.092 75.4565C120.815 72.4881 117.917 69.9357 114.525 68.3069C110.633 66.4455 105.867 65.7545 101.58 65.9378C99.5353 66.0295 97.4976 66.3397 95.5234 66.8545C94.5997 67.0942 93.6831 67.3762 92.7806 67.7006C92.0332 67.9685 91.0038 68.6242 90.2282 68.7441C87.0271 69.2306 88.6559 67.3621 90.1718 67.3903C90.4468 67.3903 90.7288 67.5243 91.0108 67.5384C91.5326 67.5666 92.1178 67.5031 92.555 67.1717C92.8441 66.9532 92.9569 66.6711 93.0767 66.3609C93.6337 64.9437 92.703 64.7251 93.8171 63.7168C94.8324 62.7932 96.1227 63.1598 97.1521 63.745C97.9982 64.2245 99.1545 64.7604 99.9865 63.8579C100.24 63.5829 100.346 63.2374 100.339 62.8637C100.339 61.9541 99.4718 61.7144 99.218 61.0164C98.9571 60.2972 99.1827 59.6203 99.6693 59.2255C100.995 58.1396 102.271 59.994 102.941 60.7273C103.533 61.376 104.175 62.4265 105.028 62.7509C105.987 63.1175 106.833 62.5464 106.798 61.5452C106.769 60.7978 106.241 60.0434 105.811 59.4722C105.592 59.1832 105.275 58.9152 105.084 58.6191C104.132 57.1243 105.698 56.3558 106.988 57.1737C108.109 57.8858 108.8 59.2537 109.583 60.2901C110.076 60.9388 110.654 62.0881 111.395 62.4195C112.523 62.9201 113.016 61.9612 113.115 60.967C113.193 60.1632 113.024 59.3665 112.657 58.6543C112.509 58.3723 112.333 58.1255 112.149 57.8647C111.853 57.5121 111.578 57.1455 111.317 56.7647C111.825 55.27 112.417 54.8751 113.087 55.5731C114.173 56.1372 114.892 57.7025 116.161 56.3628C116.45 56.0596 116.443 55.7494 116.683 55.4251C117.487 54.3674 117.987 54.4662 119.087 54.3251C119.877 54.2264 120.561 54.1066 121.224 53.6553C121.477 53.4861 121.576 53.1759 121.421 52.9009C120.54 51.3144 118.171 51.3849 116.584 51.2792C113.891 51.1029 111.169 51.3497 108.532 51.9208C103.23 53.063 98.1251 55.6084 93.7748 58.8024C92.8723 59.4652 92.005 60.1632 91.1519 60.8895C90.7288 61.2632 90.3058 61.6298 89.8686 61.9894C87.0694 61.7285 86.4701 61.1785 88.0565 60.3395C89.093 59.5569 88.9167 59.9588 89.918 59.8318C90.9262 59.6979 91.8992 58.5768 91.1236 57.6038C90.75 57.1384 90.2564 57.2865 89.791 57.0891C89.0437 57.2089 88.8462 56.8211 89.1917 55.9327C89.3891 55.5802 89.5795 55.2277 89.7769 54.8751C90.3692 54.2546 91.1096 54.1489 91.9274 54.1418C93.535 54.1277 95.0439 54.5578 96.5034 53.6483C96.7643 53.4861 96.8419 53.1618 96.7009 52.8938C96.3695 52.2593 95.9464 51.9138 95.2695 51.6952C94.8183 51.5471 94.3811 51.5471 93.9158 51.4907C93.5985 51.4555 93.2883 51.4202 92.971 51.3849C92.8582 50.6799 93.1402 50.278 93.803 50.1722C94.9099 49.7562 96.1791 49.7421 97.3425 49.6081C98.1181 49.5165 99.4154 49.587 100.128 49.1569C101.333 48.4166 100.452 47.1121 99.8244 46.3154C99.0981 45.3917 99.634 45.1309 100.332 44.3341C100.776 43.8265 101.291 43.3823 101.735 42.8817C102.327 42.2048 102.722 41.676 102.743 40.7453C102.75 40.3645 102.384 40.1459 102.045 40.2164C98.5905 40.8863 95.2836 43.5233 92.7594 45.8642C91.3704 47.1545 90.0942 48.5646 88.8744 50.01C88.1764 50.842 87.4925 51.6881 86.8156 52.5413C86.5829 52.8374 85.3631 54.6565 85.2221 54.6565C85.1234 54.6565 83.8895 52.4919 83.6639 52.1676C83.1985 51.5048 82.705 50.8561 82.1973 50.2216C80.9282 48.6422 79.518 47.1756 77.988 45.8571C75.3298 43.5656 71.8185 40.8863 68.3072 40.2094C67.9687 40.1459 67.6021 40.3575 67.6091 40.7382C67.6303 41.5702 67.9123 42.0638 68.4411 42.6842C68.9347 43.2624 69.527 43.756 70.0205 44.3341C70.6833 45.0956 71.2826 45.3494 70.5282 46.3154C69.9007 47.1121 69.0193 48.4236 70.225 49.1569C70.9583 49.6011 72.2133 49.5235 73.0101 49.6081C74.1664 49.7421 75.4497 49.7492 76.5496 50.1722C77.0855 50.2075 77.3322 50.4683 77.297 50.9407C77.5649 51.533 77.2758 51.7163 76.4368 51.4907C76.0631 51.533 75.6612 51.526 75.2945 51.6247C74.5401 51.8292 74.0113 52.1958 73.6517 52.8938C73.5107 53.1618 73.5882 53.4861 73.8491 53.6483C75.3016 54.5578 76.8175 54.1277 78.4251 54.1418C79.1302 54.1418 79.7436 54.2194 80.3147 54.6636C80.7519 54.9597 81.0339 55.3828 81.1608 55.9327C81.5063 56.8282 81.3089 57.2089 80.5615 57.0891C80.0962 57.2865 79.6026 57.1455 79.2289 57.6038C78.4533 58.5627 79.4263 59.712 80.4346 59.8318C80.7519 59.8741 81.2031 59.6838 81.5063 59.7472C83.9248 60.8613 83.5863 61.6086 80.484 61.9964C80.1314 61.7074 79.7789 61.4112 79.4404 61.108C78.5097 60.3113 77.5649 59.5357 76.5778 58.8095C72.2133 55.6154 67.1226 53.0771 61.8204 51.9279C59.1834 51.3567 56.4618 51.11 53.7684 51.2862C52.196 51.392 49.8058 51.3285 48.9315 52.9079C48.7764 53.1829 48.8751 53.4931 49.1289 53.6624C49.7071 54.0572 50.2712 54.2053 50.9622 54.304C51.2865 54.3463 51.632 54.3322 51.9563 54.3957C53.0633 54.6142 53.2607 55.2206 53.9165 55.9821C54.5792 56.7506 55.1856 57.2371 56.1657 56.5673C56.4547 56.3699 56.6522 56.0737 56.9131 55.8481C57.1457 55.6648 57.3855 55.4885 57.6181 55.3052C59.1693 55.9398 59.4655 56.666 58.5206 57.4698C58.1328 57.9845 57.7521 58.4287 57.5124 59.0421C57.1739 59.9023 56.8637 61.9682 57.9707 62.49C59.0212 62.9836 59.8885 61.4465 60.368 60.8331C61.1012 59.8812 61.7358 58.7954 62.5608 57.914C62.9838 57.4557 63.4562 56.9974 64.0908 56.8493C65.1273 56.5673 65.649 57.0186 65.6561 58.2101C65.4657 58.4146 65.2753 58.6191 65.092 58.8306C64.4504 59.571 63.1107 61.0798 63.6536 62.1939C64.1119 63.1316 65.1766 62.9342 65.8605 62.4054C66.5868 61.8413 67.2073 60.9529 67.8348 60.2831C68.5117 59.5569 69.3366 58.3441 70.6974 59.2255C71.339 59.6415 71.8608 59.5287 71.1487 61.0164C70.7115 61.9189 69.3366 62.631 70.3237 63.8085C71.1134 64.7533 72.3896 64.2316 73.2146 63.738C74.1241 63.1951 73.0876 62.0458 75.7317 63.1316C76.0067 63.322 76.2746 63.5194 76.5496 63.7098C77.3393 64.3232 77.5931 65.1552 77.304 66.2128C77.4239 66.5795 77.4239 66.8686 77.8046 67.1717C78.2347 67.5102 78.82 67.5595 79.3488 67.5384C79.5462 67.5313 79.7507 67.4397 79.9481 67.4467C80.1103 67.4115 80.2724 67.3692 80.4276 67.3339C82.5569 67.9896 82.4582 68.462 80.1314 68.7511C79.5321 68.6595 78.6578 68.1166 78.0937 67.898C77.029 67.4961 75.9432 67.1506 74.8362 66.8615C70.5352 65.7545 66.2272 65.7475 61.8698 66.4949C53.9517 67.8416 47.7258 73.1861 44.2357 80.3286C43.6928 81.4356 42.9947 82.881 43.5729 84.1149C44.1088 85.2712 45.1734 85.4827 46.1887 84.82C46.8586 84.3899 47.4015 83.5861 47.9233 82.9938C48.2264 82.6483 49.7071 80.5683 49.968 80.6036C50.7506 80.7093 51.1243 82.5002 52.3089 81.8586C53.2255 81.358 52.8306 79.9055 52.6402 79.1581C52.3371 77.9384 51.9422 77.2051 52.8941 76.1968C53.2678 75.7949 53.7402 75.2449 54.2619 75.0546C55.8131 74.5046 55.7567 76.3308 56.1657 77.4377C56.5041 78.3544 59.2539 83.2265 59.8744 79.969C60.2763 77.8537 57.6111 74.8642 59.5148 73.0239C60.0577 72.5022 61.7147 71.7266 62.5326 71.7971C64.1824 71.9522 63.569 74.7443 63.6677 75.9077C63.7594 76.9935 64.0555 79.0453 65.1202 79.6658C66.1919 80.2933 66.7348 79.3556 66.9675 78.3967C67.5175 76.1263 66.4669 73.4681 67.7784 71.3811C68.0957 70.8734 68.5469 70.4574 69.1533 70.2953C69.7879 70.126 71.6634 70.2812 72.1992 70.8029C72.7351 71.3247 72.728 72.4035 72.6434 73.038C72.5377 73.8559 71.9454 74.561 71.6352 75.3013C71.2262 76.2744 71.3179 77.5365 72.5588 77.755C73.8844 77.9877 74.5401 76.7679 74.9068 75.7244C75.3016 74.5963 75.6471 73.4963 76.2817 72.4669C76.7682 71.6843 76.9938 71.0074 78.1501 71.3388C79.4263 71.7054 79.0526 73.2778 78.6296 74.138C78.2206 74.9629 76.8034 76.4506 78.1078 77.2685C79.4968 78.1428 80.4417 75.95 81.4147 75.4706C82.7966 74.7937 83.0011 75.8231 83.3818 76.775C83.3818 76.8032 83.3748 76.8314 83.3818 76.8666C84.3972 82.2394 84.094 87.8025 83.9953 93.2386C83.8966 99.0908 83.7273 104.95 83.4947 110.802C83.0364 122.239 82.3172 133.668 81.3442 145.076C81.189 146.853 80.4276 149.476 81.2313 151.189C82.0704 152.98 84.9824 152.473 86.5688 152.543C87.9155 152.607 89.227 152.635 89.8192 151.182C90.5173 149.476 90.0096 147.213 89.6923 145.457C87.7816 134.754 87.5418 123.945 87.1893 113.087C86.9989 107.164 86.8438 101.241 86.6957 95.3186C86.5406 89.0434 86.1246 82.747 87.0765 76.5141C87.0906 76.4013 87.0765 76.2955 87.0483 76.2039C87.1258 75.95 87.2175 75.7173 87.3656 75.5693C88.9167 73.9476 90.0872 77.5999 91.7089 77.4166C92.696 77.3038 92.8511 76.4224 92.5902 75.6116C92.3998 75.0123 91.9063 74.6104 91.6525 74.0745C91.2576 73.2284 90.9544 71.6843 92.1742 71.3317C93.3517 70.9933 93.7184 71.9099 94.1908 72.7137C94.7337 73.6303 96.1932 79.7716 98.5411 77.3531C99.6269 76.2321 98.2732 74.6879 97.8783 73.6303C97.3072 72.1144 97.6245 70.81 99.3731 70.4151C101.242 69.9921 102.504 70.6901 103.025 72.5656C103.315 73.6232 102.363 80.8433 105.035 79.8068C106.248 79.3344 106.565 76.9724 106.657 75.9218C106.741 74.977 106.332 73.1508 106.861 72.3611C107.637 71.2048 110.104 72.3541 110.81 73.038C112.741 74.8994 110.048 77.8467 110.45 79.9831C110.598 80.7446 111.063 81.3016 111.874 80.9702C112.953 80.5331 113.679 78.6857 114.06 77.7198C114.264 77.198 114.434 76.6622 114.596 76.1263C114.8 75.4494 114.666 75.1533 115.371 74.9911C116.062 74.8289 116.549 75.3789 117.042 75.8302C118.149 76.8455 118.213 77.3531 117.811 78.9255C117.607 79.7152 116.979 81.3228 118.023 81.8868C119.242 82.5496 119.56 80.7164 120.363 80.6318C120.575 80.6106 122.211 82.8034 122.408 83.022C122.93 83.6143 123.466 84.411 124.143 84.8482C125.123 85.4827 126.18 85.3347 126.73 84.2065C127.301 83.0361 126.73 81.6753 126.216 80.6036L126.244 80.5683Z" fill="#EC9747"/>
<path d="M77.7905 17.4565H84.7779C86.0682 17.4565 87.1893 17.6751 88.1341 18.1193C89.0789 18.5635 89.8474 19.1628 90.4468 19.9243C91.0461 20.6858 91.4903 21.5813 91.7794 22.6036C92.0684 23.626 92.2165 24.7189 92.2165 25.8823C92.2165 27.0457 92.0684 28.1385 91.7794 29.1609C91.4903 30.1833 91.0461 31.0787 90.4468 31.8402C89.8474 32.6017 89.0789 33.2081 88.1341 33.6452C87.1893 34.0894 86.0752 34.308 84.7779 34.308H77.7905V17.4565ZM80.7448 31.9037H83.6498C84.799 31.9037 85.7368 31.7486 86.4701 31.4454C87.2034 31.1422 87.7745 30.7121 88.1905 30.1692C88.6065 29.6263 88.8885 28.9917 89.0436 28.2584C89.1917 27.5251 89.2693 26.7354 89.2693 25.8823C89.2693 25.0291 89.1917 24.2394 89.0436 23.5062C88.8956 22.7729 88.6135 22.1383 88.1905 21.5954C87.7745 21.0525 87.1963 20.6294 86.4701 20.3192C85.7368 20.016 84.799 19.8609 83.6498 19.8609H80.7448V31.9037Z" fill="#EC9747"/>
<path d="M36.1343 110.69H43.5729C44.7715 110.69 45.7445 110.866 46.499 111.211C47.2534 111.557 47.8386 111.987 48.2476 112.509C48.6565 113.031 48.9386 113.595 49.0866 114.208C49.2347 114.821 49.3123 115.386 49.3123 115.907C49.3123 116.429 49.2347 116.986 49.0866 117.592C48.9386 118.199 48.6565 118.763 48.2476 119.278C47.8386 119.799 47.2534 120.229 46.499 120.568C45.7445 120.906 44.7645 121.076 43.5729 121.076H39.0886V127.541H36.1343V110.683V110.69ZM39.0886 118.671H43.4107C43.7421 118.671 44.0806 118.622 44.426 118.53C44.7715 118.439 45.0888 118.283 45.385 118.072C45.674 117.86 45.9138 117.578 46.09 117.219C46.2734 116.866 46.365 116.422 46.365 115.886C46.365 115.35 46.2875 114.878 46.1253 114.518C45.9702 114.159 45.7586 113.87 45.4907 113.658C45.2228 113.447 44.9196 113.298 44.5671 113.221C44.2216 113.143 43.8479 113.101 43.4601 113.101H39.0956V118.671H39.0886Z" fill="#EC9747"/>
<path d="M123.078 121.929C123.078 122.577 123.191 123.127 123.409 123.579C123.628 124.037 123.938 124.411 124.333 124.7C124.728 124.989 125.179 125.2 125.687 125.334C126.202 125.468 126.751 125.532 127.351 125.532C127.992 125.532 128.549 125.454 129.001 125.306C129.459 125.158 129.826 124.961 130.108 124.728C130.39 124.495 130.594 124.22 130.721 123.91C130.848 123.607 130.911 123.297 130.911 122.979C130.911 122.331 130.763 121.858 130.474 121.548C130.185 121.238 129.861 121.026 129.515 120.899C128.916 120.681 128.218 120.469 127.428 120.272C126.632 120.074 125.652 119.82 124.488 119.503C123.762 119.313 123.163 119.066 122.683 118.756C122.204 118.453 121.823 118.107 121.541 117.726C121.259 117.346 121.054 116.951 120.942 116.521C120.822 116.098 120.765 115.66 120.765 115.223C120.765 114.37 120.942 113.637 121.294 113.016C121.647 112.396 122.119 111.881 122.697 111.472C123.282 111.063 123.938 110.76 124.679 110.563C125.419 110.365 126.166 110.267 126.921 110.267C127.802 110.267 128.634 110.379 129.41 110.612C130.185 110.838 130.876 111.183 131.461 111.642C132.054 112.1 132.519 112.664 132.865 113.327C133.21 113.996 133.386 114.772 133.386 115.653H130.432C130.354 114.568 129.981 113.799 129.325 113.348C128.662 112.897 127.823 112.678 126.801 112.678C126.455 112.678 126.103 112.713 125.736 112.784C125.377 112.854 125.045 112.974 124.742 113.136C124.446 113.306 124.192 113.524 123.995 113.806C123.797 114.088 123.698 114.441 123.698 114.871C123.698 115.47 123.882 115.935 124.256 116.274C124.622 116.612 125.109 116.866 125.708 117.042C125.771 117.057 126.018 117.127 126.448 117.24C126.878 117.36 127.365 117.487 127.901 117.628C128.437 117.769 128.958 117.91 129.473 118.044C129.981 118.178 130.347 118.276 130.573 118.34C131.123 118.516 131.602 118.749 132.011 119.045C132.42 119.341 132.766 119.687 133.041 120.074C133.316 120.462 133.52 120.871 133.654 121.315C133.788 121.759 133.852 122.197 133.852 122.641C133.852 123.586 133.661 124.389 133.274 125.059C132.886 125.729 132.378 126.272 131.751 126.702C131.123 127.125 130.404 127.435 129.6 127.633C128.796 127.83 127.978 127.929 127.146 127.929C126.187 127.929 125.278 127.809 124.432 127.576C123.579 127.344 122.845 126.977 122.211 126.491C121.583 126.004 121.076 125.377 120.702 124.615C120.321 123.854 120.131 122.951 120.11 121.915H123.064L123.078 121.929Z" fill="#EC9747"/>
</svg>
